<svg width="186" height="182" viewBox="0 0 186 182" fill="none" xmlns="http://www.w3.org/2000/svg">
<g clip-path="url(#clip0_447_592)">
<g clip-path="url(#clip1_447_592)">
<mask id="mask0_447_592" style="mask-type:luminance" maskUnits="userSpaceOnUse" x="17" y="21" width="141" height="160">
<path d="M87.5496 21.9199C126.19 21.9199 157.56 53.2899 157.56 91.9299V166.82C157.56 174.6 151.24 180.92 143.46 180.92H31.6395C23.8595 180.92 17.5396 174.6 17.5396 166.82V91.9299C17.5396 53.2899 48.9096 21.9199 87.5496 21.9199Z" fill="white"/>
</mask>
<g mask="url(#mask0_447_592)">
<path d="M-47.7402 116.06L51.0598 17.25" stroke="url(#paint0_linear_447_592)" stroke-width="0.5" stroke-miterlimit="10"/>
<path d="M-45.3003 118.5L53.4997 19.6899" stroke="url(#paint1_linear_447_592)" stroke-width="0.5" stroke-miterlimit="10"/>
<path d="M-42.8604 120.94L55.9397 22.1299" stroke="url(#paint2_linear_447_592)" stroke-width="0.5" stroke-miterlimit="10"/>
<path d="M-40.4204 123.38L58.3796 24.5701" stroke="url(#paint3_linear_447_592)" stroke-width="0.5" stroke-miterlimit="10"/>
<path d="M-37.9805 125.82L60.8195 27.01" stroke="url(#paint4_linear_447_592)" stroke-width="0.5" stroke-miterlimit="10"/>
<path d="M-35.54 128.26L63.27 29.45" stroke="url(#paint5_linear_447_592)" stroke-width="0.5" stroke-miterlimit="10"/>
<path d="M-33.1001 130.7L65.7099 31.8899" stroke="url(#paint6_linear_447_592)" stroke-width="0.5" stroke-miterlimit="10"/>
<path d="M-30.6602 133.14L68.1498 34.34" stroke="url(#paint7_linear_447_592)" stroke-width="0.5" stroke-miterlimit="10"/>
<path d="M-28.2202 135.58L70.5898 36.78" stroke="url(#paint8_linear_447_592)" stroke-width="0.5" stroke-miterlimit="10"/>
<path d="M-25.7803 138.02L73.0297 39.22" stroke="url(#paint9_linear_447_592)" stroke-width="0.5" stroke-miterlimit="10"/>
<path d="M-23.3403 140.46L75.4697 41.66" stroke="url(#paint10_linear_447_592)" stroke-width="0.5" stroke-miterlimit="10"/>
<path d="M-20.9004 142.9L77.9096 44.1" stroke="url(#paint11_linear_447_592)" stroke-width="0.5" stroke-miterlimit="10"/>
<path d="M-18.4604 145.34L80.3496 46.54" stroke="url(#paint12_linear_447_592)" stroke-width="0.5" stroke-miterlimit="10"/>
<path d="M-16.02 147.78L82.79 48.98" stroke="url(#paint13_linear_447_592)" stroke-width="0.5" stroke-miterlimit="10"/>
<path d="M-13.5801 150.22L85.2299 51.42" stroke="url(#paint14_linear_447_592)" stroke-width="0.5" stroke-miterlimit="10"/>
<path d="M-11.1304 152.67L87.6696 53.86" stroke="url(#paint15_linear_447_592)" stroke-width="0.5" stroke-miterlimit="10"/>
<path d="M-8.69043 155.11L90.1096 56.3" stroke="url(#paint16_linear_447_592)" stroke-width="0.5" stroke-miterlimit="10"/>
<path d="M-6.25 157.55L92.55 58.74" stroke="url(#paint17_linear_447_592)" stroke-width="0.5" stroke-miterlimit="10"/>
<path d="M-3.81006 159.99L94.9899 61.1801" stroke="url(#paint18_linear_447_592)" stroke-width="0.5" stroke-miterlimit="10"/>
<path d="M-1.37012 162.43L97.4299 63.62" stroke="url(#paint19_linear_447_592)" stroke-width="0.5" stroke-miterlimit="10"/>
<path d="M1.06982 164.87L99.8698 66.0601" stroke="url(#paint20_linear_447_592)" stroke-width="0.5" stroke-miterlimit="10"/>
<path d="M3.50977 167.31L102.31 68.5" stroke="url(#paint21_linear_447_592)" stroke-width="0.5" stroke-miterlimit="10"/>
<path d="M5.94971 169.75L104.75 70.9399" stroke="url(#paint22_linear_447_592)" stroke-width="0.5" stroke-miterlimit="10"/>
<path d="M8.38965 172.19L107.2 73.38" stroke="url(#paint23_linear_447_592)" stroke-width="0.5" stroke-miterlimit="10"/>
<path d="M10.8296 174.63L109.64 75.8199" stroke="url(#paint24_linear_447_592)" stroke-width="0.5" stroke-miterlimit="10"/>
<path d="M13.2695 177.07L112.08 78.27" stroke="url(#paint25_linear_447_592)" stroke-width="0.5" stroke-miterlimit="10"/>
<path d="M15.71 179.51L114.52 80.71" stroke="url(#paint26_linear_447_592)" stroke-width="0.5" stroke-miterlimit="10"/>
<path d="M18.1499 181.95L116.96 83.15" stroke="url(#paint27_linear_447_592)" stroke-width="0.5" stroke-miterlimit="10"/>
<path d="M20.5898 184.39L119.4 85.59" stroke="url(#paint28_linear_447_592)" stroke-width="0.5" stroke-miterlimit="10"/>
<path d="M23.0298 186.83L121.84 88.03" stroke="url(#paint29_linear_447_592)" stroke-width="0.5" stroke-miterlimit="10"/>
<path d="M25.4697 189.27L124.28 90.47" stroke="url(#paint30_linear_447_592)" stroke-width="0.5" stroke-miterlimit="10"/>
<path d="M27.9097 191.71L126.72 92.91" stroke="url(#paint31_linear_447_592)" stroke-width="0.5" stroke-miterlimit="10"/>
<path d="M30.3496 194.15L129.16 95.35" stroke="url(#paint32_linear_447_592)" stroke-width="0.5" stroke-miterlimit="10"/>
<path d="M32.7998 196.6L131.6 97.79" stroke="url(#paint33_linear_447_592)" stroke-width="0.5" stroke-miterlimit="10"/>
<path d="M35.2397 199.04L134.04 100.23" stroke="url(#paint34_linear_447_592)" stroke-width="0.5" stroke-miterlimit="10"/>
<path d="M37.6797 201.48L136.48 102.67" stroke="url(#paint35_linear_447_592)" stroke-width="0.5" stroke-miterlimit="10"/>
<path d="M40.1196 203.92L138.92 105.11" stroke="url(#paint36_linear_447_592)" stroke-width="0.5" stroke-miterlimit="10"/>
<path d="M42.5596 206.36L141.36 107.55" stroke="url(#paint37_linear_447_592)" stroke-width="0.5" stroke-miterlimit="10"/>
<path d="M45 208.8L143.8 109.99" stroke="url(#paint38_linear_447_592)" stroke-width="0.5" stroke-miterlimit="10"/>
<path d="M47.4399 211.24L146.24 112.43" stroke="url(#paint39_linear_447_592)" stroke-width="0.5" stroke-miterlimit="10"/>
<path d="M49.8799 213.68L148.69 114.87" stroke="url(#paint40_linear_447_592)" stroke-width="0.5" stroke-miterlimit="10"/>
<path d="M52.3198 216.12L151.13 117.31" stroke="url(#paint41_linear_447_592)" stroke-width="0.5" stroke-miterlimit="10"/>
<path d="M54.7598 218.56L153.57 119.75" stroke="url(#paint42_linear_447_592)" stroke-width="0.5" stroke-miterlimit="10"/>
<path d="M57.1997 221L156.01 122.2" stroke="url(#paint43_linear_447_592)" stroke-width="0.5" stroke-miterlimit="10"/>
<path d="M59.6396 223.44L158.45 124.64" stroke="url(#paint44_linear_447_592)" stroke-width="0.5" stroke-miterlimit="10"/>
<path d="M62.0796 225.88L160.89 127.08" stroke="url(#paint45_linear_447_592)" stroke-width="0.5" stroke-miterlimit="10"/>
<path d="M64.5195 228.32L163.33 129.52" stroke="url(#paint46_linear_447_592)" stroke-width="0.5" stroke-miterlimit="10"/>
<path d="M66.96 230.76L165.77 131.96" stroke="url(#paint47_linear_447_592)" stroke-width="0.5" stroke-miterlimit="10"/>
<path d="M69.3999 233.2L168.21 134.4" stroke="url(#paint48_linear_447_592)" stroke-width="0.5" stroke-miterlimit="10"/>
<path d="M71.8398 235.64L170.65 136.84" stroke="url(#paint49_linear_447_592)" stroke-width="0.5" stroke-miterlimit="10"/>
<path d="M74.2798 238.08L173.09 139.28" stroke="url(#paint50_linear_447_592)" stroke-width="0.5" stroke-miterlimit="10"/>
<path d="M76.73 240.53L175.53 141.72" stroke="url(#paint51_linear_447_592)" stroke-width="0.5" stroke-miterlimit="10"/>
<path d="M79.1699 242.97L177.97 144.16" stroke="url(#paint52_linear_447_592)" stroke-width="0.5" stroke-miterlimit="10"/>
<path d="M81.6099 245.41L180.41 146.6" stroke="url(#paint53_linear_447_592)" stroke-width="0.5" stroke-miterlimit="10"/>
<path d="M84.0498 247.85L182.85 149.04" stroke="url(#paint54_linear_447_592)" stroke-width="0.5" stroke-miterlimit="10"/>
<path d="M86.4897 250.29L185.29 151.48" stroke="url(#paint55_linear_447_592)" stroke-width="0.5" stroke-miterlimit="10"/>
<path d="M88.9297 252.73L187.73 153.92" stroke="url(#paint56_linear_447_592)" stroke-width="0.5" stroke-miterlimit="10"/>
</g>
<path d="M184.751 82.222C185.625 83.5519 184.671 85.3199 183.08 85.3199H154.066C152.961 85.3199 152.066 84.4245 152.066 83.3199V54.2699C152.066 53.1653 152.961 52.2699 154.066 52.2699H183.081C184.672 52.2699 185.626 54.0374 184.753 55.3674L176.656 67.7021C176.219 68.3686 176.219 69.2312 176.657 69.8975L184.751 82.222Z" fill="url(#paint57_linear_447_592)"/>
<path d="M2.21407 82.222C1.34057 83.5519 2.29459 85.3199 3.88576 85.3199H32.8994C34.004 85.3199 34.8994 84.4245 34.8994 83.3199V54.2699C34.8994 53.1653 34.004 52.2699 32.8994 52.2699H3.88453C2.29362 52.2699 1.33955 54.0374 2.21254 55.3674L10.3088 67.7021C10.7463 68.3686 10.7462 69.2312 10.3085 69.8975L2.21407 82.222Z" fill="url(#paint58_linear_447_592)"/>
<path d="M93.1897 15.7798C131.83 15.7798 163.2 47.1498 163.2 85.7898V160.68C163.2 168.46 156.88 174.78 149.1 174.78H37.2797C29.4997 174.78 23.1797 168.46 23.1797 160.68V85.7898C23.1797 47.1498 54.5497 15.7798 93.1897 15.7798Z" fill="url(#paint59_linear_447_592)"/>
<path d="M119.33 14.3898C117.08 8.4298 112.35 4.40979 107.26 4.1498H107.05C104.9 4.1498 103.13 5.7198 102.81 7.78979C101.49 6.72979 99.9998 5.8698 98.3798 5.2598C97.0998 2.1498 94.0498 0.0397949 90.5698 0.0397949C90.0698 0.0397949 89.5698 0.0797949 89.0798 0.169795C86.8598 0.569795 84.9198 1.80979 83.6298 3.65979C82.6898 5.00979 82.1698 6.55979 82.1098 8.15979C80.7998 9.28979 79.7098 10.6098 78.8398 12.0498C78.0798 10.6998 76.6598 9.8398 75.0798 9.8398C74.4998 9.8398 73.9298 9.9598 73.3798 10.1898C68.6998 12.1898 65.6498 17.5898 65.5998 23.9598C65.5498 29.8798 68.1098 35.0298 72.2798 37.3998C72.9098 37.7598 73.6198 37.9498 74.3298 37.9598C74.2498 38.5698 74.2398 39.1798 74.3498 39.7998C74.8698 42.7198 77.3998 44.8398 80.3698 44.8398C80.7298 44.8398 81.0898 44.8098 81.4498 44.7498L89.6298 43.2898C91.0498 45.2998 93.3798 46.5798 95.9698 46.5798C96.4298 46.5798 96.8898 46.5398 97.3398 46.4598C100.4 45.9098 102.72 43.6398 103.48 40.8198L111.66 39.3598C114.98 38.7698 117.2 35.5898 116.61 32.2698C116.5 31.6498 116.29 31.0598 116.01 30.5198C116.67 30.2598 117.26 29.8398 117.72 29.2898C120.81 25.6298 121.43 19.9098 119.34 14.3698L119.33 14.3898Z" fill="url(#paint60_linear_447_592)"/>
<path d="M115.319 146.73C92.8195 157.49 77.1795 134.99 56.6395 132.06C42.8195 129.99 31.4395 136.71 23.1895 147.04V160.68C23.1895 168.47 29.4995 174.78 37.2895 174.78H149.109C156.899 174.78 163.209 168.47 163.209 160.68V100.2C159.679 100.79 156.359 102.09 153.469 104.66C138.799 117.37 133.909 137.91 115.329 146.72L115.319 146.73Z" fill="url(#paint61_linear_447_592)"/>
<path d="M63.4796 41.0998C76.1896 45.9898 88.9096 53.8098 102.6 48.9198C113.76 45.1998 120.39 34.1298 128.95 25.5998C118.48 19.3698 106.26 15.7798 93.1896 15.7798C68.7996 15.7798 47.3396 28.2498 34.8096 47.1598C42.9396 40.8198 53.4396 37.7498 63.4796 41.0998Z" fill="url(#paint62_linear_447_592)"/>
<path d="M128.95 25.5999C120.39 34.1299 113.76 45.1999 102.6 48.9199C88.9097 53.8099 76.1897 45.9899 63.4797 41.0999C53.4397 37.7499 42.9497 40.8199 34.8097 47.1599C27.4697 58.2299 23.1797 71.5099 23.1797 85.7899V147.04C31.4297 136.71 42.8097 129.98 56.6297 132.06C77.1697 134.99 92.8197 157.49 115.31 146.73C133.89 137.93 138.78 117.39 153.45 104.67C156.34 102.1 159.66 100.8 163.19 100.21V85.7899C163.19 60.1898 149.44 37.8099 128.94 25.5999H128.95Z" fill="url(#paint63_linear_447_592)"/>
<path d="M123.739 27.1797C144.849 38.2297 159.289 60.3497 159.289 85.7897V160.68C159.289 166.3 154.719 170.87 149.099 170.87H37.2794C31.6594 170.87 27.0894 166.3 27.0894 160.68V85.7897C27.0894 60.4097 41.4694 38.3197 62.5094 27.2497" stroke="url(#paint64_linear_447_592)" stroke-linecap="round" stroke-linejoin="round"/>
<path d="M23.5457 46.5798H162.616C166.476 46.5798 169.606 49.7098 169.606 53.5698V79.6298H16.5557V53.5698C16.5557 49.7098 19.6857 46.5798 23.5457 46.5798Z" fill="url(#paint65_linear_447_592)"/>
<path d="M47.7111 63.8149C47.7111 64.8682 47.5277 65.8415 47.1611 66.7349C46.8011 67.6215 46.2911 68.3915 45.6311 69.0449C44.9711 69.6915 44.1744 70.1982 43.2411 70.5649C42.3144 70.9249 41.2844 71.1049 40.1511 71.1049H34.4911V56.5349H40.1511C41.2844 56.5349 42.3144 56.7182 43.2411 57.0849C44.1744 57.4515 44.9711 57.9582 45.6311 58.6049C46.2911 59.2515 46.8011 60.0215 47.1611 60.9149C47.5277 61.8015 47.7111 62.7682 47.7111 63.8149ZM44.2511 63.8149C44.2511 63.0949 44.1577 62.4449 43.9711 61.8649C43.7844 61.2849 43.5144 60.7949 43.1611 60.3949C42.8144 59.9882 42.3877 59.6782 41.8811 59.4649C41.3744 59.2449 40.7977 59.1349 40.1511 59.1349H37.8911V68.5049H40.1511C40.7977 68.5049 41.3744 68.3982 41.8811 68.1849C42.3877 67.9649 42.8144 67.6549 43.1611 67.2549C43.5144 66.8482 43.7844 66.3549 43.9711 65.7749C44.1577 65.1949 44.2511 64.5415 44.2511 63.8149ZM54.4615 66.8849C53.8415 66.9115 53.3315 66.9649 52.9315 67.0449C52.5315 67.1249 52.2149 67.2249 51.9815 67.3449C51.7482 67.4649 51.5849 67.6015 51.4915 67.7549C51.4049 67.9082 51.3615 68.0749 51.3615 68.2549C51.3615 68.6082 51.4582 68.8582 51.6515 69.0049C51.8449 69.1449 52.1282 69.2149 52.5015 69.2149C52.9015 69.2149 53.2515 69.1449 53.5515 69.0049C53.8515 68.8649 54.1549 68.6382 54.4615 68.3249V66.8849ZM48.8815 62.1749C49.5082 61.6215 50.2015 61.2115 50.9615 60.9449C51.7282 60.6715 52.5482 60.5349 53.4215 60.5349C54.0482 60.5349 54.6115 60.6382 55.1115 60.8449C55.6182 61.0449 56.0449 61.3282 56.3915 61.6949C56.7449 62.0549 57.0149 62.4849 57.2015 62.9849C57.3882 63.4849 57.4815 64.0315 57.4815 64.6249V71.1049H56.0615C55.7682 71.1049 55.5449 71.0649 55.3915 70.9849C55.2449 70.9049 55.1215 70.7382 55.0215 70.4849L54.8015 69.9149C54.5415 70.1349 54.2915 70.3282 54.0515 70.4949C53.8115 70.6615 53.5615 70.8049 53.3015 70.9249C53.0482 71.0382 52.7749 71.1215 52.4815 71.1749C52.1949 71.2349 51.8749 71.2649 51.5215 71.2649C51.0482 71.2649 50.6182 71.2049 50.2315 71.0849C49.8449 70.9582 49.5149 70.7749 49.2415 70.5349C48.9749 70.2949 48.7682 69.9982 48.6215 69.6449C48.4749 69.2849 48.4015 68.8715 48.4015 68.4049C48.4015 68.0315 48.4949 67.6549 48.6815 67.2749C48.8682 66.8882 49.1915 66.5382 49.6515 66.2249C50.1115 65.9049 50.7315 65.6382 51.5115 65.4249C52.2915 65.2115 53.2749 65.0915 54.4615 65.0649V64.6249C54.4615 64.0182 54.3349 63.5815 54.0815 63.3149C53.8349 63.0415 53.4815 62.9049 53.0215 62.9049C52.6549 62.9049 52.3549 62.9449 52.1215 63.0249C51.8882 63.1049 51.6782 63.1949 51.4915 63.2949C51.3115 63.3949 51.1349 63.4849 50.9615 63.5649C50.7882 63.6449 50.5815 63.6849 50.3415 63.6849C50.1282 63.6849 49.9482 63.6315 49.8015 63.5249C49.6549 63.4182 49.5349 63.2915 49.4415 63.1449L48.8815 62.1749ZM62.6331 60.7349V71.1049H59.5331V60.7349H62.6331ZM62.9531 57.8949C62.9531 58.1415 62.9031 58.3749 62.8031 58.5949C62.7031 58.8082 62.5664 58.9982 62.3931 59.1649C62.2198 59.3249 62.0164 59.4549 61.7831 59.5549C61.5564 59.6482 61.3131 59.6949 61.0531 59.6949C60.7998 59.6949 60.5631 59.6482 60.3431 59.5549C60.1231 59.4549 59.9264 59.3249 59.7531 59.1649C59.5864 58.9982 59.4531 58.8082 59.3531 58.5949C59.2598 58.3749 59.2131 58.1415 59.2131 57.8949C59.2131 57.6415 59.2598 57.4049 59.3531 57.1849C59.4531 56.9649 59.5864 56.7715 59.7531 56.6049C59.9264 56.4382 60.1231 56.3082 60.3431 56.2149C60.5631 56.1215 60.7998 56.0749 61.0531 56.0749C61.3131 56.0749 61.5564 56.1215 61.7831 56.2149C62.0164 56.3082 62.2198 56.4382 62.3931 56.6049C62.5664 56.7715 62.7031 56.9649 62.8031 57.1849C62.9031 57.4049 62.9531 57.6415 62.9531 57.8949ZM67.8951 56.1349V71.1049H64.7951V56.1349H67.8951ZM79.8404 60.7349L74.3004 73.7949C74.2071 74.0015 74.0938 74.1515 73.9604 74.2449C73.8271 74.3449 73.6138 74.3949 73.3204 74.3949H71.0004L73.0004 70.1949L68.8604 60.7349H71.6004C71.8404 60.7349 72.0238 60.7882 72.1504 60.8949C72.2838 61.0015 72.3804 61.1282 72.4404 61.2749L74.1404 65.7449C74.3004 66.1515 74.4304 66.5682 74.5304 66.9949C74.6038 66.7815 74.6771 66.5682 74.7504 66.3549C74.8238 66.1415 74.9004 65.9315 74.9804 65.7249L76.5204 61.2749C76.5804 61.1215 76.6871 60.9949 76.8404 60.8949C76.9938 60.7882 77.1604 60.7349 77.3404 60.7349H79.8404ZM89.9732 63.3849C90.4332 63.3849 90.8232 63.3282 91.1432 63.2149C91.4699 63.0949 91.7366 62.9315 91.9432 62.7249C92.1499 62.5182 92.2999 62.2782 92.3932 62.0049C92.4866 61.7249 92.5332 61.4249 92.5332 61.1049C92.5332 60.4649 92.3232 59.9649 91.9032 59.6049C91.4899 59.2449 90.8466 59.0649 89.9732 59.0649H88.6132V63.3849H89.9732ZM97.1532 71.1049H94.0932C93.5266 71.1049 93.1199 70.8915 92.8732 70.4649L90.4532 66.2349C90.3399 66.0549 90.2132 65.9249 90.0732 65.8449C89.9332 65.7582 89.7332 65.7149 89.4732 65.7149H88.6132V71.1049H85.2332V56.5349H89.9732C91.0266 56.5349 91.9232 56.6449 92.6632 56.8649C93.4099 57.0782 94.0166 57.3782 94.4832 57.7649C94.9566 58.1515 95.2999 58.6082 95.5132 59.1349C95.7266 59.6615 95.8332 60.2349 95.8332 60.8549C95.8332 61.3282 95.7699 61.7749 95.6432 62.1949C95.5166 62.6149 95.3299 63.0049 95.0832 63.3649C94.8366 63.7182 94.5299 64.0349 94.1632 64.3149C93.8032 64.5949 93.3866 64.8249 92.9132 65.0049C93.1332 65.1182 93.3399 65.2615 93.5332 65.4349C93.7266 65.6015 93.8999 65.8015 94.0532 66.0349L97.1532 71.1049ZM103.784 64.6749C103.784 64.4282 103.751 64.1882 103.684 63.9549C103.624 63.7215 103.521 63.5149 103.374 63.3349C103.234 63.1482 103.048 62.9982 102.814 62.8849C102.581 62.7715 102.298 62.7149 101.964 62.7149C101.378 62.7149 100.918 62.8849 100.584 63.2249C100.251 63.5582 100.031 64.0415 99.9242 64.6749H103.784ZM99.8842 66.4749C99.9842 67.3415 100.248 67.9715 100.674 68.3649C101.101 68.7515 101.651 68.9449 102.324 68.9449C102.684 68.9449 102.994 68.9015 103.254 68.8149C103.514 68.7282 103.744 68.6315 103.944 68.5249C104.151 68.4182 104.338 68.3215 104.504 68.2349C104.678 68.1482 104.858 68.1049 105.044 68.1049C105.291 68.1049 105.478 68.1949 105.604 68.3749L106.504 69.4849C106.184 69.8515 105.838 70.1515 105.464 70.3849C105.098 70.6115 104.718 70.7915 104.324 70.9249C103.938 71.0515 103.548 71.1382 103.154 71.1849C102.768 71.2382 102.398 71.2649 102.044 71.2649C101.318 71.2649 100.634 71.1482 99.9942 70.9149C99.3608 70.6749 98.8042 70.3215 98.3242 69.8549C97.8508 69.3882 97.4742 68.8082 97.1942 68.1149C96.9208 67.4215 96.7842 66.6149 96.7842 65.6949C96.7842 65.0015 96.9008 64.3449 97.1342 63.7249C97.3742 63.1049 97.7142 62.5615 98.1542 62.0949C98.6008 61.6282 99.1375 61.2582 99.7642 60.9849C100.398 60.7115 101.111 60.5749 101.904 60.5749C102.591 60.5749 103.218 60.6815 103.784 60.8949C104.358 61.1082 104.848 61.4182 105.254 61.8249C105.668 62.2315 105.988 62.7315 106.214 63.3249C106.448 63.9115 106.564 64.5782 106.564 65.3249C106.564 65.5582 106.554 65.7482 106.534 65.8949C106.514 66.0415 106.478 66.1582 106.424 66.2449C106.371 66.3315 106.298 66.3915 106.204 66.4249C106.118 66.4582 106.004 66.4749 105.864 66.4749H99.8842ZM123.2 60.7349L119.98 71.1049H117.46C117.326 71.1049 117.213 71.0649 117.12 70.9849C117.026 70.9049 116.953 70.7715 116.9 70.5849L115.42 65.4149C115.346 65.1815 115.28 64.9515 115.22 64.7249C115.166 64.4982 115.116 64.2682 115.07 64.0349C115.023 64.2682 114.97 64.5015 114.91 64.7349C114.856 64.9682 114.793 65.2015 114.72 65.4349L113.22 70.5849C113.12 70.9315 112.9 71.1049 112.56 71.1049H110.16L106.94 60.7349H109.42C109.64 60.7349 109.823 60.7882 109.97 60.8949C110.123 60.9949 110.226 61.1215 110.28 61.2749L111.32 65.9249C111.406 66.2782 111.483 66.6215 111.55 66.9549C111.616 67.2815 111.676 67.6115 111.73 67.9449C111.816 67.6115 111.906 67.2815 112 66.9549C112.1 66.6215 112.206 66.2782 112.32 65.9249L113.62 61.2649C113.673 61.1115 113.773 60.9849 113.92 60.8849C114.066 60.7782 114.24 60.7249 114.44 60.7249H115.82C116.04 60.7249 116.223 60.7782 116.37 60.8849C116.523 60.9849 116.626 61.1115 116.68 61.2649L117.92 65.9249C118.02 66.2782 118.116 66.6215 118.21 66.9549C118.31 67.2882 118.4 67.6249 118.48 67.9649C118.533 67.6315 118.596 67.2982 118.67 66.9649C118.743 66.6315 118.826 66.2849 118.92 65.9249L120.02 61.2749C120.073 61.1215 120.173 60.9949 120.32 60.8949C120.466 60.7882 120.64 60.7349 120.84 60.7349H123.2ZM129.501 66.8849C128.881 66.9115 128.371 66.9649 127.971 67.0449C127.571 67.1249 127.254 67.2249 127.021 67.3449C126.787 67.4649 126.624 67.6015 126.531 67.7549C126.444 67.9082 126.401 68.0749 126.401 68.2549C126.401 68.6082 126.497 68.8582 126.691 69.0049C126.884 69.1449 127.167 69.2149 127.541 69.2149C127.941 69.2149 128.291 69.1449 128.591 69.0049C128.891 68.8649 129.194 68.6382 129.501 68.3249V66.8849ZM123.921 62.1749C124.547 61.6215 125.241 61.2115 126.001 60.9449C126.767 60.6715 127.587 60.5349 128.461 60.5349C129.087 60.5349 129.651 60.6382 130.151 60.8449C130.657 61.0449 131.084 61.3282 131.431 61.6949C131.784 62.0549 132.054 62.4849 132.241 62.9849C132.427 63.4849 132.521 64.0315 132.521 64.6249V71.1049H131.101C130.807 71.1049 130.584 71.0649 130.431 70.9849C130.284 70.9049 130.161 70.7382 130.061 70.4849L129.841 69.9149C129.581 70.1349 129.331 70.3282 129.091 70.4949C128.851 70.6615 128.601 70.8049 128.341 70.9249C128.087 71.0382 127.814 71.1215 127.521 71.1749C127.234 71.2349 126.914 71.2649 126.561 71.2649C126.087 71.2649 125.657 71.2049 125.271 71.0849C124.884 70.9582 124.554 70.7749 124.281 70.5349C124.014 70.2949 123.807 69.9982 123.661 69.6449C123.514 69.2849 123.441 68.8715 123.441 68.4049C123.441 68.0315 123.534 67.6549 123.721 67.2749C123.907 66.8882 124.231 66.5382 124.691 66.2249C125.151 65.9049 125.771 65.6382 126.551 65.4249C127.331 65.2115 128.314 65.0915 129.501 65.0649V64.6249C129.501 64.0182 129.374 63.5815 129.121 63.3149C128.874 63.0415 128.521 62.9049 128.061 62.9049C127.694 62.9049 127.394 62.9449 127.161 63.0249C126.927 63.1049 126.717 63.1949 126.531 63.2949C126.351 63.3949 126.174 63.4849 126.001 63.5649C125.827 63.6449 125.621 63.6849 125.381 63.6849C125.167 63.6849 124.987 63.6315 124.841 63.5249C124.694 63.4182 124.574 63.2915 124.481 63.1449L123.921 62.1749ZM137.402 62.3349C137.722 61.7749 138.089 61.3349 138.502 61.0149C138.922 60.6949 139.402 60.5349 139.942 60.5349C140.409 60.5349 140.789 60.6449 141.082 60.8649L140.882 63.1449C140.849 63.2915 140.792 63.3915 140.712 63.4449C140.639 63.4982 140.535 63.5249 140.402 63.5249C140.349 63.5249 140.279 63.5215 140.192 63.5149C140.105 63.5082 140.015 63.5015 139.922 63.4949C139.829 63.4815 139.732 63.4715 139.632 63.4649C139.539 63.4515 139.452 63.4449 139.372 63.4449C138.919 63.4449 138.555 63.5649 138.282 63.8049C138.015 64.0449 137.789 64.3782 137.602 64.8049V71.1049H134.502V60.7349H136.342C136.495 60.7349 136.622 60.7482 136.722 60.7749C136.829 60.8015 136.915 60.8449 136.982 60.9049C137.055 60.9582 137.109 61.0315 137.142 61.1249C137.182 61.2182 137.215 61.3315 137.242 61.4649L137.402 62.3349ZM148.273 63.5149C148.039 63.2549 147.786 63.0749 147.513 62.9749C147.239 62.8682 146.953 62.8149 146.653 62.8149C146.366 62.8149 146.103 62.8715 145.863 62.9849C145.623 63.0982 145.413 63.2815 145.233 63.5349C145.059 63.7815 144.923 64.1049 144.823 64.5049C144.723 64.9049 144.673 65.3882 144.673 65.9549C144.673 66.5015 144.713 66.9615 144.793 67.3349C144.873 67.7082 144.983 68.0115 145.123 68.2449C145.269 68.4715 145.443 68.6349 145.643 68.7349C145.843 68.8349 146.066 68.8849 146.313 68.8849C146.539 68.8849 146.743 68.8649 146.923 68.8249C147.109 68.7782 147.279 68.7149 147.433 68.6349C147.586 68.5549 147.729 68.4549 147.863 68.3349C148.003 68.2082 148.139 68.0649 148.273 67.9049V63.5149ZM151.373 56.1349V71.1049H149.453C149.066 71.1049 148.813 70.9315 148.693 70.5849L148.453 69.7949C148.246 70.0149 148.029 70.2149 147.803 70.3949C147.576 70.5749 147.329 70.7315 147.063 70.8649C146.803 70.9915 146.519 71.0882 146.213 71.1549C145.913 71.2282 145.586 71.2649 145.233 71.2649C144.693 71.2649 144.193 71.1449 143.733 70.9049C143.273 70.6649 142.876 70.3182 142.543 69.8649C142.209 69.4115 141.946 68.8582 141.753 68.2049C141.566 67.5449 141.473 66.7949 141.473 65.9549C141.473 65.1815 141.579 64.4649 141.793 63.8049C142.006 63.1382 142.306 62.5649 142.693 62.0849C143.086 61.5982 143.556 61.2182 144.103 60.9449C144.649 60.6715 145.253 60.5349 145.913 60.5349C146.453 60.5349 146.906 60.6115 147.273 60.7649C147.639 60.9182 147.973 61.1249 148.273 61.3849V56.1349H151.373Z" fill="#FF608A"/>
<path d="M169.725 85.3199L163.205 91.02V85.3199H169.725Z" fill="url(#paint66_linear_447_592)"/>
<path d="M16.6743 85.3199L23.1843 91.02V85.3199H16.6743Z" fill="url(#paint67_linear_447_592)"/>
<path d="M33.2699 108.75C32.7799 108.75 32.3799 108.35 32.3799 107.86C32.3799 107.37 32.7799 106.97 33.2699 106.97C33.7599 106.97 34.1599 107.37 34.1599 107.86C34.1599 108.35 33.7599 108.75 33.2699 108.75Z" fill="url(#paint68_linear_447_592)"/>
<path d="M33.2699 113.45C32.7799 113.45 32.3799 113.05 32.3799 112.56C32.3799 112.07 32.7799 111.67 33.2699 111.67C33.7599 111.67 34.1599 112.07 34.1599 112.56C34.1599 113.05 33.7599 113.45 33.2699 113.45Z" fill="url(#paint69_linear_447_592)"/>
<path d="M33.2699 118.16C32.7799 118.16 32.3799 117.76 32.3799 117.27C32.3799 116.78 32.7799 116.38 33.2699 116.38C33.7599 116.38 34.1599 116.78 34.1599 117.27C34.1599 117.76 33.7599 118.16 33.2699 118.16Z" fill="url(#paint70_linear_447_592)"/>
<path d="M33.2699 122.87C32.7799 122.87 32.3799 122.47 32.3799 121.98C32.3799 121.49 32.7799 121.09 33.2699 121.09C33.7599 121.09 34.1599 121.49 34.1599 121.98C34.1599 122.47 33.7599 122.87 33.2699 122.87Z" fill="url(#paint71_linear_447_592)"/>
<path d="M33.2699 127.57C32.7799 127.57 32.3799 127.17 32.3799 126.68C32.3799 126.19 32.7799 125.79 33.2699 125.79C33.7599 125.79 34.1599 126.19 34.1599 126.68C34.1599 127.17 33.7599 127.57 33.2699 127.57Z" fill="url(#paint72_linear_447_592)"/>
<path d="M29.1498 108.75C28.6598 108.75 28.2598 108.35 28.2598 107.86C28.2598 107.37 28.6598 106.97 29.1498 106.97C29.6398 106.97 30.0398 107.37 30.0398 107.86C30.0398 108.35 29.6398 108.75 29.1498 108.75Z" fill="url(#paint73_linear_447_592)"/>
<path d="M29.1498 113.45C28.6598 113.45 28.2598 113.05 28.2598 112.56C28.2598 112.07 28.6598 111.67 29.1498 111.67C29.6398 111.67 30.0398 112.07 30.0398 112.56C30.0398 113.05 29.6398 113.45 29.1498 113.45Z" fill="url(#paint74_linear_447_592)"/>
<path d="M29.1498 118.16C28.6598 118.16 28.2598 117.76 28.2598 117.27C28.2598 116.78 28.6598 116.38 29.1498 116.38C29.6398 116.38 30.0398 116.78 30.0398 117.27C30.0398 117.76 29.6398 118.16 29.1498 118.16Z" fill="url(#paint75_linear_447_592)"/>
<path d="M29.1498 122.87C28.6598 122.87 28.2598 122.47 28.2598 121.98C28.2598 121.49 28.6598 121.09 29.1498 121.09C29.6398 121.09 30.0398 121.49 30.0398 121.98C30.0398 122.47 29.6398 122.87 29.1498 122.87Z" fill="url(#paint76_linear_447_592)"/>
<path d="M29.1498 127.57C28.6598 127.57 28.2598 127.17 28.2598 126.68C28.2598 126.19 28.6598 125.79 29.1498 125.79C29.6398 125.79 30.0398 126.19 30.0398 126.68C30.0398 127.17 29.6398 127.57 29.1498 127.57Z" fill="url(#paint77_linear_447_592)"/>
<path d="M25.0296 108.75C24.5396 108.75 24.1396 108.35 24.1396 107.86C24.1396 107.37 24.5396 106.97 25.0296 106.97C25.5196 106.97 25.9196 107.37 25.9196 107.86C25.9196 108.35 25.5196 108.75 25.0296 108.75Z" fill="url(#paint78_linear_447_592)"/>
<path d="M25.0296 113.45C24.5396 113.45 24.1396 113.05 24.1396 112.56C24.1396 112.07 24.5396 111.67 25.0296 111.67C25.5196 111.67 25.9196 112.07 25.9196 112.56C25.9196 113.05 25.5196 113.45 25.0296 113.45Z" fill="url(#paint79_linear_447_592)"/>
<path d="M25.0296 118.16C24.5396 118.16 24.1396 117.76 24.1396 117.27C24.1396 116.78 24.5396 116.38 25.0296 116.38C25.5196 116.38 25.9196 116.78 25.9196 117.27C25.9196 117.76 25.5196 118.16 25.0296 118.16Z" fill="url(#paint80_linear_447_592)"/>
<path d="M25.0296 122.87C24.5396 122.87 24.1396 122.47 24.1396 121.98C24.1396 121.49 24.5396 121.09 25.0296 121.09C25.5196 121.09 25.9196 121.49 25.9196 121.98C25.9196 122.47 25.5196 122.87 25.0296 122.87Z" fill="url(#paint81_linear_447_592)"/>
<path d="M25.0296 127.57C24.5396 127.57 24.1396 127.17 24.1396 126.68C24.1396 126.19 24.5396 125.79 25.0296 125.79C25.5196 125.79 25.9196 126.19 25.9196 126.68C25.9196 127.17 25.5196 127.57 25.0296 127.57Z" fill="url(#paint82_linear_447_592)"/>
<path d="M161.309 144.57C160.819 144.57 160.419 144.17 160.419 143.68C160.419 143.19 160.819 142.79 161.309 142.79C161.799 142.79 162.199 143.19 162.199 143.68C162.199 144.17 161.799 144.57 161.309 144.57Z" fill="url(#paint83_linear_447_592)"/>
<path d="M161.309 149.28C160.819 149.28 160.419 148.88 160.419 148.39C160.419 147.9 160.819 147.5 161.309 147.5C161.799 147.5 162.199 147.9 162.199 148.39C162.199 148.88 161.799 149.28 161.309 149.28Z" fill="url(#paint84_linear_447_592)"/>
<path d="M161.309 153.99C160.819 153.99 160.419 153.59 160.419 153.1C160.419 152.61 160.819 152.21 161.309 152.21C161.799 152.21 162.199 152.61 162.199 153.1C162.199 153.59 161.799 153.99 161.309 153.99Z" fill="url(#paint85_linear_447_592)"/>
<path d="M161.309 158.69C160.819 158.69 160.419 158.29 160.419 157.8C160.419 157.31 160.819 156.91 161.309 156.91C161.799 156.91 162.199 157.31 162.199 157.8C162.199 158.29 161.799 158.69 161.309 158.69Z" fill="url(#paint86_linear_447_592)"/>
<path d="M161.309 163.4C160.819 163.4 160.419 163 160.419 162.51C160.419 162.02 160.819 161.62 161.309 161.62C161.799 161.62 162.199 162.02 162.199 162.51C162.199 163 161.799 163.4 161.309 163.4Z" fill="url(#paint87_linear_447_592)"/>
<path d="M157.18 144.57C156.69 144.57 156.29 144.17 156.29 143.68C156.29 143.19 156.69 142.79 157.18 142.79C157.67 142.79 158.07 143.19 158.07 143.68C158.07 144.17 157.67 144.57 157.18 144.57Z" fill="url(#paint88_linear_447_592)"/>
<path d="M157.18 149.28C156.69 149.28 156.29 148.88 156.29 148.39C156.29 147.9 156.69 147.5 157.18 147.5C157.67 147.5 158.07 147.9 158.07 148.39C158.07 148.88 157.67 149.28 157.18 149.28Z" fill="url(#paint89_linear_447_592)"/>
<path d="M157.18 153.99C156.69 153.99 156.29 153.59 156.29 153.1C156.29 152.61 156.69 152.21 157.18 152.21C157.67 152.21 158.07 152.61 158.07 153.1C158.07 153.59 157.67 153.99 157.18 153.99Z" fill="url(#paint90_linear_447_592)"/>
<path d="M157.18 158.69C156.69 158.69 156.29 158.29 156.29 157.8C156.29 157.31 156.69 156.91 157.18 156.91C157.67 156.91 158.07 157.31 158.07 157.8C158.07 158.29 157.67 158.69 157.18 158.69Z" fill="url(#paint91_linear_447_592)"/>
<path d="M157.18 163.4C156.69 163.4 156.29 163 156.29 162.51C156.29 162.02 156.69 161.62 157.18 161.62C157.67 161.62 158.07 162.02 158.07 162.51C158.07 163 157.67 163.4 157.18 163.4Z" fill="url(#paint92_linear_447_592)"/>
<path d="M153.059 144.57C152.569 144.57 152.169 144.17 152.169 143.68C152.169 143.19 152.569 142.79 153.059 142.79C153.549 142.79 153.949 143.19 153.949 143.68C153.949 144.17 153.549 144.57 153.059 144.57Z" fill="url(#paint93_linear_447_592)"/>
<path d="M153.059 149.28C152.569 149.28 152.169 148.88 152.169 148.39C152.169 147.9 152.569 147.5 153.059 147.5C153.549 147.5 153.949 147.9 153.949 148.39C153.949 148.88 153.549 149.28 153.059 149.28Z" fill="url(#paint94_linear_447_592)"/>
<path d="M153.059 153.99C152.569 153.99 152.169 153.59 152.169 153.1C152.169 152.61 152.569 152.21 153.059 152.21C153.549 152.21 153.949 152.61 153.949 153.1C153.949 153.59 153.549 153.99 153.059 153.99Z" fill="url(#paint95_linear_447_592)"/>
<path d="M153.059 158.69C152.569 158.69 152.169 158.29 152.169 157.8C152.169 157.31 152.569 156.91 153.059 156.91C153.549 156.91 153.949 157.31 153.949 157.8C153.949 158.29 153.549 158.69 153.059 158.69Z" fill="url(#paint96_linear_447_592)"/>
<path d="M153.059 163.4C152.569 163.4 152.169 163 152.169 162.51C152.169 162.02 152.569 161.62 153.059 161.62C153.549 161.62 153.949 162.02 153.949 162.51C153.949 163 153.549 163.4 153.059 163.4Z" fill="url(#paint97_linear_447_592)"/>
<path d="M163.086 79.6199H23.0659V86.7899H163.086V79.6199Z" fill="url(#paint98_linear_447_592)"/>
<path d="M110.09 30.5898L109.77 30.6498L104.83 16.2098C103.37 11.9298 99.83 8.88978 95.66 7.88978C95.65 7.79978 95.66 7.69978 95.64 7.60978C95.14 4.80978 92.46 2.93978 89.66 3.43978C86.86 3.93978 84.99 6.61978 85.49 9.41978C85.51 9.50978 85.55 9.59978 85.57 9.68978C82 12.0698 79.74 16.1498 79.84 20.6698L80.2 35.9298L79.88 35.9898C78.35 36.2598 77.33 37.7298 77.6 39.2598C77.87 40.7898 79.34 41.8098 80.87 41.5398L91.57 39.6298C92 42.0598 94.33 43.6798 96.76 43.2498C99.19 42.8198 100.81 40.4898 100.38 38.0598L111.08 36.1498C112.61 35.8798 113.63 34.4098 113.36 32.8798C113.09 31.3498 111.62 30.3298 110.09 30.5998V30.5898ZM90.05 5.59978C91.5 5.33978 92.89 6.19978 93.35 7.54978C92.39 7.49978 91.41 7.54978 90.43 7.71978C89.45 7.89978 88.51 8.18978 87.63 8.56978C87.6 7.13978 88.6 5.85978 90.06 5.59978H90.05Z" fill="url(#paint99_linear_447_592)"/>
<path d="M112.61 23.0898C112.35 23.1898 112.06 23.1798 111.8 23.0498C111.3 22.7998 111.09 22.1898 111.34 21.6898C111.89 20.5798 111.88 18.9498 111.31 17.4298C110.7 15.7998 109.51 14.4998 108.28 14.1198C107.74 13.9498 107.44 13.3798 107.61 12.8498C107.78 12.3098 108.35 12.0198 108.88 12.1798C110.71 12.7498 112.37 14.4898 113.21 16.7098C113.99 18.7698 113.97 20.9698 113.16 22.5998C113.04 22.8398 112.84 23.0098 112.61 23.0998V23.0898Z" fill="url(#paint100_linear_447_592)"/>
<path d="M114.77 27.4797C114.44 27.6097 114.05 27.5497 113.76 27.3097C113.33 26.9497 113.28 26.3097 113.64 25.8797C115.43 23.7597 115.71 19.8997 114.35 16.2797C112.9 12.4297 109.88 9.62973 107.01 9.48973C106.45 9.45973 106.02 8.97973 106.05 8.41973C106.08 7.85973 106.55 7.42973 107.12 7.45973C110.83 7.64973 114.51 10.9097 116.26 15.5597C117.9 19.9097 117.49 24.4797 115.2 27.1897C115.08 27.3297 114.94 27.4297 114.78 27.4897L114.77 27.4797Z" fill="url(#paint101_linear_447_592)"/>
<path d="M74.9195 29.8097C75.1895 29.8097 75.4695 29.6997 75.6695 29.4897C76.0495 29.0797 76.0396 28.4397 75.6296 28.0497C74.7296 27.1997 74.1796 25.6597 74.1896 24.0397C74.1996 22.2997 74.8696 20.6697 75.8896 19.8897C76.3396 19.5497 76.4196 18.9097 76.0796 18.4597C75.7396 18.0097 75.0996 17.9297 74.6496 18.2697C73.1296 19.4297 72.1796 21.6397 72.1596 24.0197C72.1396 26.2197 72.9196 28.2797 74.2396 29.5297C74.4296 29.7097 74.6796 29.7997 74.9296 29.8097H74.9195Z" fill="url(#paint102_linear_447_592)"/>
<path d="M74.4098 34.6798C74.7698 34.6798 75.1098 34.4998 75.2998 34.1698C75.5798 33.6798 75.4098 33.0598 74.9198 32.7798C72.5098 31.4098 70.9098 27.8798 70.9398 24.0098C70.9698 19.8898 72.8398 16.2298 75.4798 15.0998C75.9998 14.8798 76.2398 14.2798 76.0198 13.7698C75.7998 13.2498 75.2098 13.0098 74.6898 13.2298C71.2698 14.6898 68.9498 19.0198 68.9098 23.9898C68.8698 28.6398 70.8398 32.7798 73.9198 34.5398C74.0798 34.6298 74.2498 34.6698 74.4098 34.6698V34.6798Z" fill="url(#paint103_linear_447_592)"/>
</g>
</g>
<defs>
<linearGradient id="paint0_linear_447_592" x1="-22.8142" y1="70.3535" x2="63.1217" y2="56.9424" gradientUnits="userSpaceOnUse">
<stop stop-color="#FFEB33"/>
<stop offset="0.37" stop-color="#FFA453"/>
<stop offset="1" stop-color="#FF268D"/>
</linearGradient>
<linearGradient id="paint1_linear_447_592" x1="-19.4906" y1="72.6615" x2="66.4453" y2="59.2504" gradientUnits="userSpaceOnUse">
<stop stop-color="#FFEB33"/>
<stop offset="0.37" stop-color="#FFA453"/>
<stop offset="1" stop-color="#FF268D"/>
</linearGradient>
<linearGradient id="paint2_linear_447_592" x1="-16.1687" y1="74.9583" x2="69.7671" y2="61.5472" gradientUnits="userSpaceOnUse">
<stop stop-color="#FFEB33"/>
<stop offset="0.37" stop-color="#FFA453"/>
<stop offset="1" stop-color="#FF268D"/>
</linearGradient>
<linearGradient id="paint3_linear_447_592" x1="-12.8469" y1="77.2554" x2="73.0889" y2="63.8443" gradientUnits="userSpaceOnUse">
<stop stop-color="#FFEB33"/>
<stop offset="0.37" stop-color="#FFA453"/>
<stop offset="1" stop-color="#FF268D"/>
</linearGradient>
<linearGradient id="paint4_linear_447_592" x1="-9.52508" y1="79.5522" x2="76.4107" y2="66.1411" gradientUnits="userSpaceOnUse">
<stop stop-color="#FFEB33"/>
<stop offset="0.37" stop-color="#FFA453"/>
<stop offset="1" stop-color="#FF268D"/>
</linearGradient>
<linearGradient id="paint5_linear_447_592" x1="-6.20276" y1="81.849" x2="79.7331" y2="68.4379" gradientUnits="userSpaceOnUse">
<stop stop-color="#FFEB33"/>
<stop offset="0.37" stop-color="#FFA453"/>
<stop offset="1" stop-color="#FF268D"/>
</linearGradient>
<linearGradient id="paint6_linear_447_592" x1="-2.86908" y1="84.1439" x2="83.0549" y2="70.7347" gradientUnits="userSpaceOnUse">
<stop stop-color="#FFEB33"/>
<stop offset="0.37" stop-color="#FFA453"/>
<stop offset="1" stop-color="#FF268D"/>
</linearGradient>
<linearGradient id="paint7_linear_447_592" x1="0.452748" y1="86.4408" x2="86.3767" y2="73.0316" gradientUnits="userSpaceOnUse">
<stop stop-color="#FFEB33"/>
<stop offset="0.37" stop-color="#FFA453"/>
<stop offset="1" stop-color="#FF268D"/>
</linearGradient>
<linearGradient id="paint8_linear_447_592" x1="3.77457" y1="88.7378" x2="89.6986" y2="75.3285" gradientUnits="userSpaceOnUse">
<stop stop-color="#FFEB33"/>
<stop offset="0.37" stop-color="#FFA453"/>
<stop offset="1" stop-color="#FF268D"/>
</linearGradient>
<linearGradient id="paint9_linear_447_592" x1="7.0964" y1="91.0346" x2="93.0204" y2="77.6253" gradientUnits="userSpaceOnUse">
<stop stop-color="#FFEB33"/>
<stop offset="0.37" stop-color="#FFA453"/>
<stop offset="1" stop-color="#FF268D"/>
</linearGradient>
<linearGradient id="paint10_linear_447_592" x1="10.4182" y1="93.3315" x2="96.3422" y2="79.9222" gradientUnits="userSpaceOnUse">
<stop stop-color="#FFEB33"/>
<stop offset="0.37" stop-color="#FFA453"/>
<stop offset="1" stop-color="#FF268D"/>
</linearGradient>
<linearGradient id="paint11_linear_447_592" x1="13.7401" y1="95.6283" x2="99.664" y2="82.219" gradientUnits="userSpaceOnUse">
<stop stop-color="#FFEB33"/>
<stop offset="0.37" stop-color="#FFA453"/>
<stop offset="1" stop-color="#FF268D"/>
</linearGradient>
<linearGradient id="paint12_linear_447_592" x1="17.0619" y1="97.9252" x2="102.986" y2="84.5159" gradientUnits="userSpaceOnUse">
<stop stop-color="#FFEB33"/>
<stop offset="0.37" stop-color="#FFA453"/>
<stop offset="1" stop-color="#FF268D"/>
</linearGradient>
<linearGradient id="paint13_linear_447_592" x1="20.3842" y1="100.222" x2="106.308" y2="86.8127" gradientUnits="userSpaceOnUse">
<stop stop-color="#FFEB33"/>
<stop offset="0.37" stop-color="#FFA453"/>
<stop offset="1" stop-color="#FF268D"/>
</linearGradient>
<linearGradient id="paint14_linear_447_592" x1="23.706" y1="102.519" x2="109.63" y2="89.1097" gradientUnits="userSpaceOnUse">
<stop stop-color="#FFEB33"/>
<stop offset="0.37" stop-color="#FFA453"/>
<stop offset="1" stop-color="#FF268D"/>
</linearGradient>
<linearGradient id="paint15_linear_447_592" x1="27.0276" y1="104.816" x2="112.952" y2="91.4065" gradientUnits="userSpaceOnUse">
<stop stop-color="#FFEB33"/>
<stop offset="0.37" stop-color="#FFA453"/>
<stop offset="1" stop-color="#FF268D"/>
</linearGradient>
<linearGradient id="paint16_linear_447_592" x1="30.3495" y1="107.113" x2="116.285" y2="93.7015" gradientUnits="userSpaceOnUse">
<stop stop-color="#FFEB33"/>
<stop offset="0.37" stop-color="#FFA453"/>
<stop offset="1" stop-color="#FF268D"/>
</linearGradient>
<linearGradient id="paint17_linear_447_592" x1="33.6718" y1="109.409" x2="119.608" y2="95.9983" gradientUnits="userSpaceOnUse">
<stop stop-color="#FFEB33"/>
<stop offset="0.37" stop-color="#FFA453"/>
<stop offset="1" stop-color="#FF268D"/>
</linearGradient>
<linearGradient id="paint18_linear_447_592" x1="36.9936" y1="111.706" x2="122.929" y2="98.2953" gradientUnits="userSpaceOnUse">
<stop stop-color="#FFEB33"/>
<stop offset="0.37" stop-color="#FFA453"/>
<stop offset="1" stop-color="#FF268D"/>
</linearGradient>
<linearGradient id="paint19_linear_447_592" x1="40.3172" y1="114.014" x2="126.253" y2="100.603" gradientUnits="userSpaceOnUse">
<stop stop-color="#FFEB33"/>
<stop offset="0.37" stop-color="#FFA453"/>
<stop offset="1" stop-color="#FF268D"/>
</linearGradient>
<linearGradient id="paint20_linear_447_592" x1="43.639" y1="116.311" x2="129.575" y2="102.9" gradientUnits="userSpaceOnUse">
<stop stop-color="#FFEB33"/>
<stop offset="0.37" stop-color="#FFA453"/>
<stop offset="1" stop-color="#FF268D"/>
</linearGradient>
<linearGradient id="paint21_linear_447_592" x1="46.9608" y1="118.608" x2="132.897" y2="105.197" gradientUnits="userSpaceOnUse">
<stop stop-color="#FFEB33"/>
<stop offset="0.37" stop-color="#FFA453"/>
<stop offset="1" stop-color="#FF268D"/>
</linearGradient>
<linearGradient id="paint22_linear_447_592" x1="50.2827" y1="120.905" x2="136.219" y2="107.494" gradientUnits="userSpaceOnUse">
<stop stop-color="#FFEB33"/>
<stop offset="0.37" stop-color="#FFA453"/>
<stop offset="1" stop-color="#FF268D"/>
</linearGradient>
<linearGradient id="paint23_linear_447_592" x1="53.6045" y1="123.202" x2="139.54" y2="109.791" gradientUnits="userSpaceOnUse">
<stop stop-color="#FFEB33"/>
<stop offset="0.37" stop-color="#FFA453"/>
<stop offset="1" stop-color="#FF268D"/>
</linearGradient>
<linearGradient id="paint24_linear_447_592" x1="56.9382" y1="125.497" x2="142.862" y2="112.088" gradientUnits="userSpaceOnUse">
<stop stop-color="#FFEB33"/>
<stop offset="0.37" stop-color="#FFA453"/>
<stop offset="1" stop-color="#FF268D"/>
</linearGradient>
<linearGradient id="paint25_linear_447_592" x1="60.26" y1="127.794" x2="146.184" y2="114.384" gradientUnits="userSpaceOnUse">
<stop stop-color="#FFEB33"/>
<stop offset="0.37" stop-color="#FFA453"/>
<stop offset="1" stop-color="#FF268D"/>
</linearGradient>
<linearGradient id="paint26_linear_447_592" x1="63.5823" y1="130.091" x2="149.506" y2="116.681" gradientUnits="userSpaceOnUse">
<stop stop-color="#FFEB33"/>
<stop offset="0.37" stop-color="#FFA453"/>
<stop offset="1" stop-color="#FF268D"/>
</linearGradient>
<linearGradient id="paint27_linear_447_592" x1="66.9042" y1="132.387" x2="152.828" y2="118.978" gradientUnits="userSpaceOnUse">
<stop stop-color="#FFEB33"/>
<stop offset="0.37" stop-color="#FFA453"/>
<stop offset="1" stop-color="#FF268D"/>
</linearGradient>
<linearGradient id="paint28_linear_447_592" x1="70.226" y1="134.684" x2="156.15" y2="121.275" gradientUnits="userSpaceOnUse">
<stop stop-color="#FFEB33"/>
<stop offset="0.37" stop-color="#FFA453"/>
<stop offset="1" stop-color="#FF268D"/>
</linearGradient>
<linearGradient id="paint29_linear_447_592" x1="73.5478" y1="136.981" x2="159.472" y2="123.572" gradientUnits="userSpaceOnUse">
<stop stop-color="#FFEB33"/>
<stop offset="0.37" stop-color="#FFA453"/>
<stop offset="1" stop-color="#FF268D"/>
</linearGradient>
<linearGradient id="paint30_linear_447_592" x1="76.8696" y1="139.278" x2="162.794" y2="125.869" gradientUnits="userSpaceOnUse">
<stop stop-color="#FFEB33"/>
<stop offset="0.37" stop-color="#FFA453"/>
<stop offset="1" stop-color="#FF268D"/>
</linearGradient>
<linearGradient id="paint31_linear_447_592" x1="80.1915" y1="141.575" x2="166.115" y2="128.166" gradientUnits="userSpaceOnUse">
<stop stop-color="#FFEB33"/>
<stop offset="0.37" stop-color="#FFA453"/>
<stop offset="1" stop-color="#FF268D"/>
</linearGradient>
<linearGradient id="paint32_linear_447_592" x1="83.5133" y1="143.872" x2="169.437" y2="130.462" gradientUnits="userSpaceOnUse">
<stop stop-color="#FFEB33"/>
<stop offset="0.37" stop-color="#FFA453"/>
<stop offset="1" stop-color="#FF268D"/>
</linearGradient>
<linearGradient id="paint33_linear_447_592" x1="86.8354" y1="146.169" x2="172.759" y2="132.759" gradientUnits="userSpaceOnUse">
<stop stop-color="#FFEB33"/>
<stop offset="0.37" stop-color="#FFA453"/>
<stop offset="1" stop-color="#FF268D"/>
</linearGradient>
<linearGradient id="paint34_linear_447_592" x1="90.1572" y1="148.465" x2="176.093" y2="135.054" gradientUnits="userSpaceOnUse">
<stop stop-color="#FFEB33"/>
<stop offset="0.37" stop-color="#FFA453"/>
<stop offset="1" stop-color="#FF268D"/>
</linearGradient>
<linearGradient id="paint35_linear_447_592" x1="93.479" y1="150.762" x2="179.415" y2="137.351" gradientUnits="userSpaceOnUse">
<stop stop-color="#FFEB33"/>
<stop offset="0.37" stop-color="#FFA453"/>
<stop offset="1" stop-color="#FF268D"/>
</linearGradient>
<linearGradient id="paint36_linear_447_592" x1="96.8009" y1="153.059" x2="182.737" y2="139.648" gradientUnits="userSpaceOnUse">
<stop stop-color="#FFEB33"/>
<stop offset="0.37" stop-color="#FFA453"/>
<stop offset="1" stop-color="#FF268D"/>
</linearGradient>
<linearGradient id="paint37_linear_447_592" x1="100.124" y1="155.367" x2="186.06" y2="141.956" gradientUnits="userSpaceOnUse">
<stop stop-color="#FFEB33"/>
<stop offset="0.37" stop-color="#FFA453"/>
<stop offset="1" stop-color="#FF268D"/>
</linearGradient>
<linearGradient id="paint38_linear_447_592" x1="103.447" y1="157.664" x2="189.383" y2="144.253" gradientUnits="userSpaceOnUse">
<stop stop-color="#FFEB33"/>
<stop offset="0.37" stop-color="#FFA453"/>
<stop offset="1" stop-color="#FF268D"/>
</linearGradient>
<linearGradient id="paint39_linear_447_592" x1="106.769" y1="159.961" x2="192.704" y2="146.55" gradientUnits="userSpaceOnUse">
<stop stop-color="#FFEB33"/>
<stop offset="0.37" stop-color="#FFA453"/>
<stop offset="1" stop-color="#FF268D"/>
</linearGradient>
<linearGradient id="paint40_linear_447_592" x1="110.09" y1="162.258" x2="196.026" y2="148.847" gradientUnits="userSpaceOnUse">
<stop stop-color="#FFEB33"/>
<stop offset="0.37" stop-color="#FFA453"/>
<stop offset="1" stop-color="#FF268D"/>
</linearGradient>
<linearGradient id="paint41_linear_447_592" x1="113.412" y1="164.555" x2="199.348" y2="151.144" gradientUnits="userSpaceOnUse">
<stop stop-color="#FFEB33"/>
<stop offset="0.37" stop-color="#FFA453"/>
<stop offset="1" stop-color="#FF268D"/>
</linearGradient>
<linearGradient id="paint42_linear_447_592" x1="116.746" y1="166.85" x2="202.67" y2="153.44" gradientUnits="userSpaceOnUse">
<stop stop-color="#FFEB33"/>
<stop offset="0.37" stop-color="#FFA453"/>
<stop offset="1" stop-color="#FF268D"/>
</linearGradient>
<linearGradient id="paint43_linear_447_592" x1="120.068" y1="169.146" x2="205.992" y2="155.737" gradientUnits="userSpaceOnUse">
<stop stop-color="#FFEB33"/>
<stop offset="0.37" stop-color="#FFA453"/>
<stop offset="1" stop-color="#FF268D"/>
</linearGradient>
<linearGradient id="paint44_linear_447_592" x1="123.39" y1="171.443" x2="209.314" y2="158.034" gradientUnits="userSpaceOnUse">
<stop stop-color="#FFEB33"/>
<stop offset="0.37" stop-color="#FFA453"/>
<stop offset="1" stop-color="#FF268D"/>
</linearGradient>
<linearGradient id="paint45_linear_447_592" x1="126.711" y1="173.74" x2="212.635" y2="160.331" gradientUnits="userSpaceOnUse">
<stop stop-color="#FFEB33"/>
<stop offset="0.37" stop-color="#FFA453"/>
<stop offset="1" stop-color="#FF268D"/>
</linearGradient>
<linearGradient id="paint46_linear_447_592" x1="130.033" y1="176.037" x2="215.957" y2="162.628" gradientUnits="userSpaceOnUse">
<stop stop-color="#FFEB33"/>
<stop offset="0.37" stop-color="#FFA453"/>
<stop offset="1" stop-color="#FF268D"/>
</linearGradient>
<linearGradient id="paint47_linear_447_592" x1="133.356" y1="178.334" x2="219.28" y2="164.925" gradientUnits="userSpaceOnUse">
<stop stop-color="#FFEB33"/>
<stop offset="0.37" stop-color="#FFA453"/>
<stop offset="1" stop-color="#FF268D"/>
</linearGradient>
<linearGradient id="paint48_linear_447_592" x1="136.677" y1="180.631" x2="222.601" y2="167.222" gradientUnits="userSpaceOnUse">
<stop stop-color="#FFEB33"/>
<stop offset="0.37" stop-color="#FFA453"/>
<stop offset="1" stop-color="#FF268D"/>
</linearGradient>
<linearGradient id="paint49_linear_447_592" x1="139.999" y1="182.928" x2="225.923" y2="169.518" gradientUnits="userSpaceOnUse">
<stop stop-color="#FFEB33"/>
<stop offset="0.37" stop-color="#FFA453"/>
<stop offset="1" stop-color="#FF268D"/>
</linearGradient>
<linearGradient id="paint50_linear_447_592" x1="143.321" y1="185.225" x2="229.245" y2="171.815" gradientUnits="userSpaceOnUse">
<stop stop-color="#FFEB33"/>
<stop offset="0.37" stop-color="#FFA453"/>
<stop offset="1" stop-color="#FF268D"/>
</linearGradient>
<linearGradient id="paint51_linear_447_592" x1="146.643" y1="187.521" x2="232.567" y2="174.112" gradientUnits="userSpaceOnUse">
<stop stop-color="#FFEB33"/>
<stop offset="0.37" stop-color="#FFA453"/>
<stop offset="1" stop-color="#FF268D"/>
</linearGradient>
<linearGradient id="paint52_linear_447_592" x1="149.965" y1="189.818" x2="235.901" y2="176.407" gradientUnits="userSpaceOnUse">
<stop stop-color="#FFEB33"/>
<stop offset="0.37" stop-color="#FFA453"/>
<stop offset="1" stop-color="#FF268D"/>
</linearGradient>
<linearGradient id="paint53_linear_447_592" x1="153.287" y1="192.115" x2="239.223" y2="178.704" gradientUnits="userSpaceOnUse">
<stop stop-color="#FFEB33"/>
<stop offset="0.37" stop-color="#FFA453"/>
<stop offset="1" stop-color="#FF268D"/>
</linearGradient>
<linearGradient id="paint54_linear_447_592" x1="156.61" y1="194.423" x2="242.546" y2="181.012" gradientUnits="userSpaceOnUse">
<stop stop-color="#FFEB33"/>
<stop offset="0.37" stop-color="#FFA453"/>
<stop offset="1" stop-color="#FF268D"/>
</linearGradient>
<linearGradient id="paint55_linear_447_592" x1="159.932" y1="196.72" x2="245.868" y2="183.309" gradientUnits="userSpaceOnUse">
<stop stop-color="#FFEB33"/>
<stop offset="0.37" stop-color="#FFA453"/>
<stop offset="1" stop-color="#FF268D"/>
</linearGradient>
<linearGradient id="paint56_linear_447_592" x1="163.254" y1="199.017" x2="249.19" y2="185.606" gradientUnits="userSpaceOnUse">
<stop stop-color="#FFEB33"/>
<stop offset="0.37" stop-color="#FFA453"/>
<stop offset="1" stop-color="#FF268D"/>
</linearGradient>
<linearGradient id="paint57_linear_447_592" x1="169.426" y1="126.359" x2="169.426" y2="46.7699" gradientUnits="userSpaceOnUse">
<stop offset="0.32" stop-color="#FFBD6B"/>
<stop offset="1" stop-color="white"/>
</linearGradient>
<linearGradient id="paint58_linear_447_592" x1="17.5394" y1="126.359" x2="17.5394" y2="46.7699" gradientUnits="userSpaceOnUse">
<stop offset="0.32" stop-color="#FFBD6B"/>
<stop offset="1" stop-color="white"/>
</linearGradient>
<linearGradient id="paint59_linear_447_592" x1="93.1897" y1="-7.43022" x2="93.1897" y2="189.59" gradientUnits="userSpaceOnUse">
<stop stop-color="#FF268D"/>
<stop offset="0.63" stop-color="#FFA453"/>
<stop offset="1" stop-color="#FFEB33"/>
</linearGradient>
<linearGradient id="paint60_linear_447_592" x1="90.7698" y1="-2.5202" x2="95.8898" y2="53.0398" gradientUnits="userSpaceOnUse">
<stop stop-color="#FFEE57"/>
<stop offset="0.41" stop-color="#FFA770"/>
<stop offset="1" stop-color="#FF3B98"/>
</linearGradient>
<linearGradient id="paint61_linear_447_592" x1="93.1895" y1="89.3198" x2="93.1895" y2="181.73" gradientUnits="userSpaceOnUse">
<stop stop-color="#FFEE57"/>
<stop offset="0.41" stop-color="#FFA770"/>
<stop offset="1" stop-color="#FF3B98"/>
</linearGradient>
<linearGradient id="paint62_linear_447_592" x1="78.3996" y1="-1.38021" x2="83.5196" y2="54.1798" gradientUnits="userSpaceOnUse">
<stop stop-color="#FFEE57"/>
<stop offset="0.41" stop-color="#FFA770"/>
<stop offset="1" stop-color="#FF3B98"/>
</linearGradient>
<linearGradient id="paint63_linear_447_592" x1="93.1897" y1="7.48985" x2="93.1897" y2="161.17" gradientUnits="userSpaceOnUse">
<stop stop-color="#FFEE57"/>
<stop offset="0.41" stop-color="#FFA770"/>
<stop offset="1" stop-color="#FF3B98"/>
</linearGradient>
<linearGradient id="paint64_linear_447_592" x1="26.5994" y1="99.0297" x2="159.789" y2="99.0297" gradientUnits="userSpaceOnUse">
<stop stop-color="#F6F7F9"/>
<stop offset="0.37" stop-color="#EBF1F4"/>
<stop offset="1" stop-color="#D1E1E7"/>
</linearGradient>
<linearGradient id="paint65_linear_447_592" x1="93.0757" y1="46.8298" x2="93.0757" y2="78.2598" gradientUnits="userSpaceOnUse">
<stop stop-color="white"/>
<stop offset="1" stop-color="#FFC986"/>
</linearGradient>
<linearGradient id="paint66_linear_447_592" x1="166.465" y1="103.24" x2="166.465" y2="74.4099" gradientUnits="userSpaceOnUse">
<stop stop-color="#FFCC8D"/>
<stop offset="1" stop-color="white"/>
</linearGradient>
<linearGradient id="paint67_linear_447_592" x1="19.9343" y1="103.24" x2="19.9343" y2="74.4099" gradientUnits="userSpaceOnUse">
<stop stop-color="#FFC987"/>
<stop offset="1" stop-color="white"/>
</linearGradient>
<linearGradient id="paint68_linear_447_592" x1="34.1499" y1="107.71" x2="32.3999" y2="108.01" gradientUnits="userSpaceOnUse">
<stop stop-color="#F6F7F9"/>
<stop offset="0.37" stop-color="#EBF1F4"/>
<stop offset="1" stop-color="#D1E1E7"/>
</linearGradient>
<linearGradient id="paint69_linear_447_592" x1="34.1499" y1="112.41" x2="32.3999" y2="112.72" gradientUnits="userSpaceOnUse">
<stop stop-color="#F6F7F9"/>
<stop offset="0.37" stop-color="#EBF1F4"/>
<stop offset="1" stop-color="#D1E1E7"/>
</linearGradient>
<linearGradient id="paint70_linear_447_592" x1="34.1499" y1="117.12" x2="32.3999" y2="117.42" gradientUnits="userSpaceOnUse">
<stop stop-color="#F6F7F9"/>
<stop offset="0.37" stop-color="#EBF1F4"/>
<stop offset="1" stop-color="#D1E1E7"/>
</linearGradient>
<linearGradient id="paint71_linear_447_592" x1="34.1499" y1="121.83" x2="32.3999" y2="122.13" gradientUnits="userSpaceOnUse">
<stop stop-color="#F6F7F9"/>
<stop offset="0.37" stop-color="#EBF1F4"/>
<stop offset="1" stop-color="#D1E1E7"/>
</linearGradient>
<linearGradient id="paint72_linear_447_592" x1="34.1499" y1="126.53" x2="32.3999" y2="126.84" gradientUnits="userSpaceOnUse">
<stop stop-color="#F6F7F9"/>
<stop offset="0.37" stop-color="#EBF1F4"/>
<stop offset="1" stop-color="#D1E1E7"/>
</linearGradient>
<linearGradient id="paint73_linear_447_592" x1="30.0198" y1="107.71" x2="28.2798" y2="108.01" gradientUnits="userSpaceOnUse">
<stop stop-color="#F6F7F9"/>
<stop offset="0.37" stop-color="#EBF1F4"/>
<stop offset="1" stop-color="#D1E1E7"/>
</linearGradient>
<linearGradient id="paint74_linear_447_592" x1="30.0198" y1="112.41" x2="28.2798" y2="112.71" gradientUnits="userSpaceOnUse">
<stop stop-color="#F6F7F9"/>
<stop offset="0.37" stop-color="#EBF1F4"/>
<stop offset="1" stop-color="#D1E1E7"/>
</linearGradient>
<linearGradient id="paint75_linear_447_592" x1="30.0198" y1="117.12" x2="28.2798" y2="117.42" gradientUnits="userSpaceOnUse">
<stop stop-color="#F6F7F9"/>
<stop offset="0.37" stop-color="#EBF1F4"/>
<stop offset="1" stop-color="#D1E1E7"/>
</linearGradient>
<linearGradient id="paint76_linear_447_592" x1="30.0198" y1="121.83" x2="28.2798" y2="122.13" gradientUnits="userSpaceOnUse">
<stop stop-color="#F6F7F9"/>
<stop offset="0.37" stop-color="#EBF1F4"/>
<stop offset="1" stop-color="#D1E1E7"/>
</linearGradient>
<linearGradient id="paint77_linear_447_592" x1="30.0198" y1="126.53" x2="28.2798" y2="126.83" gradientUnits="userSpaceOnUse">
<stop stop-color="#F6F7F9"/>
<stop offset="0.37" stop-color="#EBF1F4"/>
<stop offset="1" stop-color="#D1E1E7"/>
</linearGradient>
<linearGradient id="paint78_linear_447_592" x1="25.8996" y1="107.71" x2="24.1496" y2="108.01" gradientUnits="userSpaceOnUse">
<stop stop-color="#F6F7F9"/>
<stop offset="0.37" stop-color="#EBF1F4"/>
<stop offset="1" stop-color="#D1E1E7"/>
</linearGradient>
<linearGradient id="paint79_linear_447_592" x1="25.8996" y1="112.41" x2="24.1496" y2="112.71" gradientUnits="userSpaceOnUse">
<stop stop-color="#F6F7F9"/>
<stop offset="0.37" stop-color="#EBF1F4"/>
<stop offset="1" stop-color="#D1E1E7"/>
</linearGradient>
<linearGradient id="paint80_linear_447_592" x1="25.8996" y1="117.12" x2="24.1496" y2="117.42" gradientUnits="userSpaceOnUse">
<stop stop-color="#F6F7F9"/>
<stop offset="0.37" stop-color="#EBF1F4"/>
<stop offset="1" stop-color="#D1E1E7"/>
</linearGradient>
<linearGradient id="paint81_linear_447_592" x1="25.8996" y1="121.83" x2="24.1496" y2="122.13" gradientUnits="userSpaceOnUse">
<stop stop-color="#F6F7F9"/>
<stop offset="0.37" stop-color="#EBF1F4"/>
<stop offset="1" stop-color="#D1E1E7"/>
</linearGradient>
<linearGradient id="paint82_linear_447_592" x1="25.8996" y1="126.53" x2="24.1496" y2="126.83" gradientUnits="userSpaceOnUse">
<stop stop-color="#F6F7F9"/>
<stop offset="0.37" stop-color="#EBF1F4"/>
<stop offset="1" stop-color="#D1E1E7"/>
</linearGradient>
<linearGradient id="paint83_linear_447_592" x1="162.179" y1="143.53" x2="160.429" y2="143.83" gradientUnits="userSpaceOnUse">
<stop stop-color="#F6F7F9"/>
<stop offset="0.37" stop-color="#EBF1F4"/>
<stop offset="1" stop-color="#D1E1E7"/>
</linearGradient>
<linearGradient id="paint84_linear_447_592" x1="162.179" y1="148.24" x2="160.429" y2="148.54" gradientUnits="userSpaceOnUse">
<stop stop-color="#F6F7F9"/>
<stop offset="0.37" stop-color="#EBF1F4"/>
<stop offset="1" stop-color="#D1E1E7"/>
</linearGradient>
<linearGradient id="paint85_linear_447_592" x1="162.179" y1="152.95" x2="160.429" y2="153.25" gradientUnits="userSpaceOnUse">
<stop stop-color="#F6F7F9"/>
<stop offset="0.37" stop-color="#EBF1F4"/>
<stop offset="1" stop-color="#D1E1E7"/>
</linearGradient>
<linearGradient id="paint86_linear_447_592" x1="162.179" y1="157.65" x2="160.429" y2="157.95" gradientUnits="userSpaceOnUse">
<stop stop-color="#F6F7F9"/>
<stop offset="0.37" stop-color="#EBF1F4"/>
<stop offset="1" stop-color="#D1E1E7"/>
</linearGradient>
<linearGradient id="paint87_linear_447_592" x1="162.179" y1="162.36" x2="160.429" y2="162.66" gradientUnits="userSpaceOnUse">
<stop stop-color="#F6F7F9"/>
<stop offset="0.37" stop-color="#EBF1F4"/>
<stop offset="1" stop-color="#D1E1E7"/>
</linearGradient>
<linearGradient id="paint88_linear_447_592" x1="158.06" y1="143.53" x2="156.31" y2="143.83" gradientUnits="userSpaceOnUse">
<stop stop-color="#F6F7F9"/>
<stop offset="0.37" stop-color="#EBF1F4"/>
<stop offset="1" stop-color="#D1E1E7"/>
</linearGradient>
<linearGradient id="paint89_linear_447_592" x1="158.06" y1="148.24" x2="156.31" y2="148.54" gradientUnits="userSpaceOnUse">
<stop stop-color="#F6F7F9"/>
<stop offset="0.37" stop-color="#EBF1F4"/>
<stop offset="1" stop-color="#D1E1E7"/>
</linearGradient>
<linearGradient id="paint90_linear_447_592" x1="158.06" y1="152.95" x2="156.31" y2="153.25" gradientUnits="userSpaceOnUse">
<stop stop-color="#F6F7F9"/>
<stop offset="0.37" stop-color="#EBF1F4"/>
<stop offset="1" stop-color="#D1E1E7"/>
</linearGradient>
<linearGradient id="paint91_linear_447_592" x1="158.06" y1="157.65" x2="156.31" y2="157.95" gradientUnits="userSpaceOnUse">
<stop stop-color="#F6F7F9"/>
<stop offset="0.37" stop-color="#EBF1F4"/>
<stop offset="1" stop-color="#D1E1E7"/>
</linearGradient>
<linearGradient id="paint92_linear_447_592" x1="158.06" y1="162.36" x2="156.31" y2="162.66" gradientUnits="userSpaceOnUse">
<stop stop-color="#F6F7F9"/>
<stop offset="0.37" stop-color="#EBF1F4"/>
<stop offset="1" stop-color="#D1E1E7"/>
</linearGradient>
<linearGradient id="paint93_linear_447_592" x1="153.939" y1="143.53" x2="152.189" y2="143.83" gradientUnits="userSpaceOnUse">
<stop stop-color="#F6F7F9"/>
<stop offset="0.37" stop-color="#EBF1F4"/>
<stop offset="1" stop-color="#D1E1E7"/>
</linearGradient>
<linearGradient id="paint94_linear_447_592" x1="153.939" y1="148.24" x2="152.189" y2="148.54" gradientUnits="userSpaceOnUse">
<stop stop-color="#F6F7F9"/>
<stop offset="0.37" stop-color="#EBF1F4"/>
<stop offset="1" stop-color="#D1E1E7"/>
</linearGradient>
<linearGradient id="paint95_linear_447_592" x1="153.939" y1="152.95" x2="152.189" y2="153.25" gradientUnits="userSpaceOnUse">
<stop stop-color="#F6F7F9"/>
<stop offset="0.37" stop-color="#EBF1F4"/>
<stop offset="1" stop-color="#D1E1E7"/>
</linearGradient>
<linearGradient id="paint96_linear_447_592" x1="153.939" y1="157.65" x2="152.189" y2="157.95" gradientUnits="userSpaceOnUse">
<stop stop-color="#F6F7F9"/>
<stop offset="0.37" stop-color="#EBF1F4"/>
<stop offset="1" stop-color="#D1E1E7"/>
</linearGradient>
<linearGradient id="paint97_linear_447_592" x1="153.939" y1="162.36" x2="152.189" y2="162.66" gradientUnits="userSpaceOnUse">
<stop stop-color="#F6F7F9"/>
<stop offset="0.37" stop-color="#EBF1F4"/>
<stop offset="1" stop-color="#D1E1E7"/>
</linearGradient>
<linearGradient id="paint98_linear_447_592" x1="93.0759" y1="74.4599" x2="93.0759" y2="86.3899" gradientUnits="userSpaceOnUse">
<stop stop-color="#1F1F1F" stop-opacity="0.5"/>
<stop offset="1" stop-color="#313133" stop-opacity="0"/>
</linearGradient>
<linearGradient id="paint99_linear_447_592" x1="88.68" y1="3.11978" x2="98.82" y2="52.2698" gradientUnits="userSpaceOnUse">
<stop stop-color="white"/>
<stop offset="1" stop-color="#FFE0BA"/>
</linearGradient>
<linearGradient id="paint100_linear_447_592" x1="107.21" y1="-0.700152" x2="117.35" y2="48.4499" gradientUnits="userSpaceOnUse">
<stop stop-color="white"/>
<stop offset="1" stop-color="#FFE0BA"/>
</linearGradient>
<linearGradient id="paint101_linear_447_592" x1="108.55" y1="-0.97027" x2="118.69" y2="48.1697" gradientUnits="userSpaceOnUse">
<stop stop-color="white"/>
<stop offset="1" stop-color="#FFE0BA"/>
</linearGradient>
<linearGradient id="paint102_linear_447_592" x1="71.0696" y1="6.75968" x2="81.2096" y2="55.8997" gradientUnits="userSpaceOnUse">
<stop stop-color="white"/>
<stop offset="1" stop-color="#FFE0BA"/>
</linearGradient>
<linearGradient id="paint103_linear_447_592" x1="69.8398" y1="7.00976" x2="79.9798" y2="56.1598" gradientUnits="userSpaceOnUse">
<stop stop-color="white"/>
<stop offset="1" stop-color="#FFE0BA"/>
</linearGradient>
<clipPath id="clip0_447_592">
<rect width="186" height="182" fill="white"/>
</clipPath>
<clipPath id="clip1_447_592">
<rect width="188.159" height="184.463" fill="white" transform="translate(-0.0795898 0.0498047)"/>
</clipPath>
</defs>
</svg>
