<svg width="335" height="95" viewBox="0 0 335 95" fill="none" xmlns="http://www.w3.org/2000/svg">
<g clip-path="url(#clip0_454_628)">
<g clip-path="url(#clip1_454_628)">
<rect width="335" height="95" rx="24" fill="#003EDF"/>
<g opacity="0.3">
<path d="M-4.0329 36.5001L-2.15973 39.3762L0.846191 39.0775L-0.818819 42.1942L0.305567 45.6174L-2.59662 44.6682L-4.90728 47.0833L-5.03678 43.3802L-7.5891 41.4487L-4.76617 40.1091L-4.0329 36.5001Z" fill="white"/>
</g>
<g opacity="0.3">
<path d="M260.649 101.443L259.413 99.5447L257.429 99.7423L258.527 97.6851L257.785 95.4251L259.701 96.0517L261.226 94.4575L261.312 96.9028L262.997 98.1772L261.134 99.0614L260.649 101.443Z" fill="#F8E906"/>
</g>
<path opacity="0.9" d="M123.655 72.4022C123.655 72.4022 121.973 81.2049 113.521 88.8666L117.248 92.3926C117.248 92.3926 126.467 84.5419 127.415 76.0777L123.655 72.4022Z" fill="#FFB1EE"/>
<path opacity="0.9" d="M239.583 6.64736C239.583 6.64736 244.415 16.4435 256.752 22.0554L253.566 27.8136C253.566 27.8136 240.274 22.2958 236.408 12.5974L239.583 6.64736Z" fill="#5FC3F0"/>
<path opacity="0.9" d="M203.725 68.0626L206.178 69.528L208.631 67.9926L208.162 71.1775L210.146 73.4002L207.403 73.9033L206.177 76.8119L204.95 73.9384L202.207 73.5129L204.193 71.2338L203.725 68.0626Z" fill="#5FC3F0"/>
<path opacity="0.9" d="M148.818 22.4403L150.692 25.3164L153.698 25.0169L152.033 28.1336L153.158 31.5576L150.255 30.6083L147.944 33.0234L147.815 29.3188L145.262 27.3882L148.085 26.0485L148.818 22.4403Z" fill="#F8E906"/>
<path opacity="0.9" d="M317.656 23.3922L320.109 24.8575L322.562 23.3222L322.093 26.5071L324.078 28.7298L321.335 29.2329L320.108 32.1415L318.881 29.2679L316.139 28.8424L318.124 26.5634L317.656 23.3922Z" fill="#F8E906"/>
<path opacity="0.9" d="M52.4015 79.075L54.2753 81.951L57.2812 81.6516L55.6162 84.769L56.7413 88.1922L53.8385 87.243L51.5278 89.6581L51.3983 85.955L48.846 84.0236L51.6689 82.6839L52.4015 79.075Z" fill="#5FC3F0"/>
<path opacity="0.9" d="M139.848 13.234C139.848 13.234 140.959 7.42362 146.537 2.36643L144.077 0.0390622C144.077 0.0390622 137.992 5.22098 137.367 10.8079L139.848 13.234Z" fill="#FFB1EE"/>
<path opacity="0.9" d="M24.6184 81.0164C24.6184 81.0164 21.4289 74.5503 13.2856 70.8461L15.3886 67.0453C15.3886 67.0453 24.1623 70.6874 26.714 77.0889L24.6184 81.0164Z" fill="#5FC3F0"/>
<path opacity="0.9" d="M88.1659 30.5964L86.5467 29.6292L84.9276 30.6426L85.237 28.5404L83.9272 27.0732L85.7378 26.7411L86.5476 24.8213L87.357 26.718L89.1676 26.9989L87.8569 28.5032L88.1659 30.5964Z" fill="#5FC3F0"/>
<path opacity="0.9" d="M111.174 17.2305L109.937 15.3322L107.953 15.5298L109.052 13.4726L108.31 11.2125L110.225 11.8391L111.751 10.245L111.836 12.6903L113.521 13.9646L111.658 14.8489L111.174 17.2305Z" fill="#F8E906"/>
<path opacity="0.9" d="M17.5243 28.2154L15.9051 27.2482L14.286 28.2616L14.5954 26.1594L13.2856 24.6922L15.0962 24.3601L15.906 22.4403L16.7158 24.337L18.526 24.6179L17.2153 26.1222L17.5243 28.2154Z" fill="#F8E906"/>
<path opacity="0.9" d="M227.388 50.576L226.152 48.6776L224.167 48.8748L225.266 46.8175L224.524 44.558L226.44 45.1846L227.965 43.5905L228.051 46.0347L229.735 47.3096L227.872 48.1938L227.388 50.576Z" fill="white"/>
<path opacity="0.9" d="M181.575 11.7012L180.339 9.80287L178.354 10.0005L179.454 7.94278L178.711 5.68326L180.627 6.30984L182.152 4.7157L182.238 7.15995L183.922 8.43485L182.059 9.31909L181.575 11.7012Z" fill="#5FC3F0"/>
<path opacity="0.9" d="M262.694 82.3974C262.694 82.3974 263.804 76.5871 269.383 71.5299L266.923 69.2025C266.923 69.2025 260.838 74.3844 260.212 79.9714L262.694 82.3974Z" fill="#FFB1EE"/>
<path opacity="0.9" d="M223.166 92.3463L221.547 91.3791L219.928 92.3926L220.237 90.2904L218.927 88.8232L220.738 88.4911L221.548 86.5713L222.357 88.468L224.168 88.7489L222.857 90.2532L223.166 92.3463Z" fill="#5FC3F0"/>
<path opacity="0.9" d="M155.316 90.9185L153.697 89.9513L152.078 90.9647L152.387 88.8625L151.078 87.3954L152.888 87.0633L153.698 85.1434L154.508 87.0401L156.318 87.321L155.007 88.8253L155.316 90.9185Z" fill="#F8E906"/>
<path opacity="0.9" d="M316.575 73.4512L315.339 71.5529L313.354 71.7505L314.454 69.6928L313.711 67.4333L315.627 68.0598L317.152 66.4657L317.238 68.9099L318.922 70.1848L317.059 71.0691L316.575 73.4512Z" fill="#5FC3F0"/>
</g>
</g>
<defs>
<clipPath id="clip0_454_628">
<rect width="335" height="95" fill="white"/>
</clipPath>
<clipPath id="clip1_454_628">
<rect width="335" height="95" rx="24" fill="white"/>
</clipPath>
</defs>
</svg>
