<svg width="41" height="41" viewBox="0 0 41 41" fill="none" xmlns="http://www.w3.org/2000/svg">
<path d="M40.811 20.9065C40.811 31.9522 31.8567 40.9065 20.811 40.9065C9.76534 40.9065 0.811035 31.9522 0.811035 20.9065C0.811035 9.8608 9.76534 0.906494 20.811 0.906494C31.8567 0.906494 40.811 9.8608 40.811 20.9065ZM5.07472 20.9065C5.07472 29.5974 12.1201 36.6428 20.811 36.6428C29.502 36.6428 36.5474 29.5974 36.5474 20.9065C36.5474 12.2156 29.502 5.17018 20.811 5.17018C12.1201 5.17018 5.07472 12.2156 5.07472 20.9065Z" fill="#35A113"/>
<circle cx="20.811" cy="20.9065" r="12" fill="url(#paint0_linear_476_848)"/>
<path d="M16.2097 21.6224C15.6485 22.5433 15.3679 23.0042 15.4099 23.382C15.4464 23.7116 15.629 24.0107 15.912 24.2055C16.2363 24.4288 16.7972 24.4288 17.9189 24.4288H23.9067C25.0283 24.4288 25.5891 24.4288 25.9135 24.2055C26.1964 24.0107 26.3791 23.7116 26.4157 23.382C26.4576 23.0042 26.1772 22.5433 25.6159 21.6224L22.6231 16.7115C22.0619 15.7906 21.7811 15.3302 21.4148 15.1757C21.0952 15.0409 20.7301 15.0409 20.4106 15.1757C20.0444 15.3301 19.7638 15.7905 19.203 16.7107L16.2097 21.6224Z" stroke="white" stroke-width="2" stroke-linecap="round" stroke-linejoin="round"/>
<defs>
<linearGradient id="paint0_linear_476_848" x1="8.81104" y1="8.90649" x2="8.81104" y2="32.9065" gradientUnits="userSpaceOnUse">
<stop stop-color="#A9FF86"/>
<stop offset="1" stop-color="#229300"/>
</linearGradient>
</defs>
</svg>
