<svg width="41" height="41" viewBox="0 0 41 41" fill="none" xmlns="http://www.w3.org/2000/svg">
<path d="M40.811 20.813C40.811 31.8587 31.8567 40.813 20.811 40.813C9.76534 40.813 0.811035 31.8587 0.811035 20.813C0.811035 9.76729 9.76534 0.812988 20.811 0.812988C31.8567 0.812988 40.811 9.76729 40.811 20.813ZM5.07472 20.813C5.07472 29.5039 12.1201 36.5493 20.811 36.5493C29.502 36.5493 36.5474 29.5039 36.5474 20.813C36.5474 12.1221 29.502 5.07667 20.811 5.07667C12.1201 5.07667 5.07472 12.1221 5.07472 20.813Z" fill="#FF0000"/>
<circle cx="20.811" cy="20.813" r="12" fill="url(#paint0_linear_476_861)"/>
<path d="M25.0774 26.311L26.4655 24.9832L22.3013 21L26.4655 17.0168L25.0774 15.6891L20.9132 19.6723L16.7489 15.6891L15.3608 17.0168L19.5251 21L15.3608 24.9832L16.7489 26.311L20.9132 22.3278L25.0774 26.311Z" fill="white"/>
<defs>
<linearGradient id="paint0_linear_476_861" x1="8.81104" y1="8.81299" x2="8.81104" y2="32.813" gradientUnits="userSpaceOnUse">
<stop stop-color="#FF8686"/>
<stop offset="1" stop-color="#FF0000"/>
</linearGradient>
</defs>
</svg>
