<svg width="19" height="20" viewBox="0 0 19 20" fill="none" xmlns="http://www.w3.org/2000/svg">
<path d="M12.065 1.66675H8.98209C7.58543 1.66674 6.47914 1.66672 5.61334 1.78975C4.7223 1.91636 4.0011 2.18311 3.43234 2.78421C2.86359 3.38531 2.61118 4.14751 2.49138 5.08922C2.37498 6.00425 2.37499 7.17343 2.375 8.6495V13.5142C2.375 14.7709 3.10329 15.8479 4.13818 16.2994C4.08491 15.5416 4.08495 14.4782 4.085 13.5934V9.49808V9.41875C4.08494 8.35067 4.08489 7.43045 4.17864 6.69351C4.27911 5.90373 4.50568 5.14668 5.0867 4.53263C5.66771 3.91857 6.38403 3.67912 7.13132 3.57294C7.82861 3.47386 8.69939 3.47392 9.70995 3.47397L9.785 3.47398H12.065L12.14 3.47397C13.1506 3.47392 14.0195 3.47386 14.7168 3.57294C14.2996 2.45657 13.2696 1.66675 12.065 1.66675Z" fill="white"/>
<path d="M5.22461 9.49775C5.22461 7.22591 5.22461 6.09 5.8924 5.38423C6.5602 4.67847 7.635 4.67847 9.78461 4.67847H12.0646C14.2142 4.67847 15.289 4.67847 15.9568 5.38423C16.6246 6.09 16.6246 7.22592 16.6246 9.49775V13.5138C16.6246 15.7857 16.6246 16.9216 15.9568 17.6273C15.289 18.3331 14.2142 18.3331 12.0646 18.3331H9.78461C7.635 18.3331 6.5602 18.3331 5.8924 17.6273C5.22461 16.9216 5.22461 15.7857 5.22461 13.5138V9.49775Z" fill="white"/>
</svg>
