<svg width="90" height="90" viewBox="0 0 90 90" fill="none" xmlns="http://www.w3.org/2000/svg">
<rect width="89.8882" height="89.8882" rx="44.9441" fill="url(#paint0_linear_579_674)"/>
<g clip-path="url(#clip0_579_674)">
<path d="M46.191 35.9843C44.8892 34.6777 43.3042 33.6454 41.5422 32.9752C40.7102 33.8998 40.1438 35.0253 39.9072 36.2458C39.8429 36.5749 39.8043 36.9048 39.7865 37.2331C39.9313 37.2829 40.073 37.3361 40.2115 37.3964C41.7466 38.0472 43.0645 39.1367 43.9881 40.5093C44.7299 41.6067 45.2223 42.8772 45.3881 44.2539C45.4315 44.5974 45.4524 44.9474 45.4524 45.3046C45.4524 46.4971 45.2127 47.6203 44.7798 48.6453C44.2424 49.9093 43.4104 51.0276 42.3661 51.8974C42.1441 52.0848 41.9107 52.2587 41.6694 52.422C40.2968 53.3489 38.6586 53.8863 36.8708 53.8863C35.6817 53.8863 34.5601 53.6458 33.5335 53.2136C31.9951 52.5628 30.682 51.4726 29.7552 50.1007C28.8315 48.7305 28.294 47.0884 28.294 45.3046C28.294 44.1131 28.5306 42.9915 28.965 41.964C29.5492 40.585 30.4905 39.3814 31.6732 38.4827C31.6507 38.1713 31.641 37.8599 31.641 37.5486C31.641 35.9491 31.892 34.3882 32.37 32.9126C30.5403 33.578 28.899 34.636 27.5537 35.9845C25.169 38.3621 23.6885 41.6713 23.6934 45.3048C23.6886 48.9391 25.1691 52.2483 27.5537 54.6266C29.5394 56.6154 32.172 57.9695 35.1007 58.3629V62.4712H28.9939V66.0096H35.1007V71.944H38.6408V66.0095H44.7524V62.4711H38.6408V58.3628C41.5712 57.9694 44.2069 56.6153 46.191 54.6265C46.854 53.9635 47.4446 53.2314 47.9578 52.4389C49.2854 50.3832 50.0562 47.9268 50.053 45.3046C50.053 44.6892 50.0095 44.0802 49.929 43.4864C49.5252 40.5736 48.1702 37.9588 46.191 35.9843Z" fill="white"/>
<path d="M54.7546 17.9441V21.4827H60.1549L54.5743 27.0632C52.2249 25.2723 49.4009 24.367 46.5913 24.3696C43.2265 24.367 39.8393 25.6584 37.271 28.2315C35.4333 30.0643 34.2523 32.3146 33.7244 34.6778C33.718 34.7067 33.7148 34.7357 33.7067 34.7598C33.6858 34.8516 33.6681 34.9441 33.6505 35.0318C33.6182 35.2024 33.5893 35.3722 33.562 35.5419C33.5443 35.6441 33.5298 35.7511 33.5186 35.8532C33.4977 36.0086 33.4799 36.1678 33.4671 36.3271C33.4591 36.4188 33.4494 36.5114 33.4446 36.6031C33.4415 36.649 33.4382 36.6956 33.435 36.7447C33.4269 36.8372 33.4237 36.9322 33.4205 37.0238C33.414 37.1976 33.4092 37.3746 33.4092 37.5484C33.4092 37.6828 33.414 37.8171 33.4173 37.9547C33.4237 38.0899 33.4319 38.2234 33.4382 38.3619L33.4591 38.6595C33.4591 38.7087 33.4671 38.7585 33.4702 38.8116C33.7535 41.7514 35.0231 44.6255 37.271 46.8694C38.6324 48.2317 40.2254 49.2357 41.9199 49.877C42.4331 49.3113 42.8516 48.6565 43.1525 47.9516C43.463 47.2123 43.6401 46.4301 43.6754 45.6232C42.525 45.2097 41.45 44.5443 40.5232 43.6174C39.6848 42.775 39.0572 41.812 38.6404 40.7788C38.3428 40.049 38.1513 39.2847 38.0675 38.5139C38.0129 38.0576 38 37.5975 38.0209 37.1413C38.0273 37.0278 38.0354 36.9184 38.0418 36.8082C38.0498 36.727 38.0562 36.6457 38.0707 36.5636C38.0707 36.5322 38.0771 36.5009 38.0804 36.4687C38.0884 36.3907 38.0981 36.3095 38.1126 36.2322C38.1303 36.126 38.148 36.0157 38.1689 35.9104C38.2621 35.4284 38.3957 34.9545 38.5727 34.4942C38.605 34.4098 38.6371 34.3286 38.6758 34.2432C38.7112 34.1547 38.7497 34.0663 38.7916 33.9778C38.827 33.8893 38.8689 33.8007 38.9155 33.7155C38.9541 33.6278 39.0007 33.5425 39.0507 33.458C39.284 33.0252 39.5593 32.6085 39.8746 32.2117C39.939 32.1305 40.0066 32.0493 40.0726 31.9711C40.219 31.8046 40.3671 31.6421 40.5263 31.4828C40.7242 31.2848 40.9254 31.1006 41.1346 30.9308C41.8201 30.3611 42.5715 29.9146 43.3599 29.5968C44.9063 28.9701 46.6088 28.8107 48.2325 29.1261C49.8578 29.4415 51.396 30.2188 52.6609 31.4827C53.5026 32.3251 54.1252 33.2881 54.5421 34.3204C55.1729 35.8668 55.3322 37.566 55.0168 39.1906C54.6982 40.8141 53.9193 42.3534 52.6609 43.6174C52.3842 43.8933 52.0946 44.1484 51.7937 44.3745C51.8113 44.6858 51.821 44.9972 51.821 45.3045C51.8258 46.8903 51.5731 48.4536 51.0888 49.9405C52.8509 49.3032 54.5034 48.2773 55.9115 46.8693C58.4813 44.3036 59.7767 40.9163 59.7734 37.5483C59.7766 34.7379 58.8707 31.9187 57.0765 29.5653L62.657 23.9847V29.3875H66.1955V17.9441H54.7546Z" fill="white"/>
</g>
<defs>
<linearGradient id="paint0_linear_579_674" x1="44.9441" y1="0" x2="44.9441" y2="89.8882" gradientUnits="userSpaceOnUse">
<stop stop-color="#003EDF"/>
<stop offset="1" stop-color="#002279"/>
</linearGradient>
<clipPath id="clip0_579_674">
<rect width="54" height="54" fill="white" transform="translate(17.9443 17.9441)"/>
</clipPath>
</defs>
</svg>
