<svg width="29" height="29" viewBox="0 0 29 29" fill="none" xmlns="http://www.w3.org/2000/svg">
<path d="M23.8659 13.8392C23.8659 13.3387 23.4601 12.9329 22.9596 12.9329C22.4591 12.9329 22.0534 13.3387 22.0534 13.8392H23.8659ZM6.94922 13.8392C6.94922 13.3387 6.54347 12.9329 6.04297 12.9329C5.54247 12.9329 5.13672 13.3387 5.13672 13.8392H6.94922ZM13.5951 25.375C13.5951 25.8755 14.0008 26.2812 14.5013 26.2812C15.0018 26.2812 15.4076 25.8755 15.4076 25.375H13.5951ZM13.9554 4.58109L14.091 4.56136L13.8298 2.76776L13.6944 2.78749L13.9554 4.58109ZM14.9223 4.56136L15.0393 4.57838L15.3003 2.78477L15.1833 2.76776L14.9223 4.56136ZM15.0367 17.9747L14.9161 17.992L15.1734 19.7861L15.294 19.7688L15.0367 17.9747ZM14.0971 17.992L13.9579 17.972L13.7007 19.7662L13.8399 19.7861L14.0971 17.992ZM14.9161 17.992C14.6442 18.0309 14.3689 18.0309 14.0971 17.992L13.8399 19.7861C14.2822 19.8495 14.7309 19.8495 15.1734 19.7861L14.9161 17.992ZM14.091 4.56136C14.3668 4.52121 14.6464 4.52121 14.9223 4.56136L15.1833 2.76776C14.7344 2.70241 14.2788 2.70241 13.8298 2.76776L14.091 4.56136ZM10.4193 14.2623C10.1281 12.2865 10.1283 10.2728 10.4196 8.29676L8.62643 8.03249C8.3094 10.1836 8.30915 12.3754 8.62619 14.5266L10.4193 14.2623ZM18.5905 8.31609C18.8769 10.2795 18.8772 12.2797 18.5908 14.243L20.3843 14.5047C20.6961 12.3678 20.6958 10.1913 20.3841 8.05446L18.5905 8.31609ZM18.5908 14.243C18.3014 16.2268 16.8288 17.7177 15.0367 17.9747L15.294 19.7688C17.9434 19.3889 19.9883 17.2194 20.3843 14.5047L18.5908 14.243ZM20.3841 8.05446C19.9883 5.34198 17.9475 3.17006 15.3003 2.78477L15.0393 4.57838C16.8302 4.83905 18.3011 6.33246 18.5905 8.31609L20.3841 8.05446ZM10.4196 8.29676C10.7103 6.32414 12.1742 4.84034 13.9554 4.58109L13.6944 2.78749C11.058 3.17119 9.02442 5.332 8.62643 8.03249L10.4196 8.29676ZM8.62619 14.5266C9.02451 17.2293 11.0621 19.3878 13.7007 19.7662L13.9579 17.972C12.1755 17.7163 10.7101 16.2352 10.4193 14.2623L8.62619 14.5266ZM22.0534 13.8392C22.0534 18.345 18.6226 21.9053 14.5013 21.9053V23.7178C19.7229 23.7178 23.8659 19.2438 23.8659 13.8392H22.0534ZM14.5013 21.9053C10.38 21.9053 6.94922 18.345 6.94922 13.8392H5.13672C5.13672 19.2438 9.27976 23.7178 14.5013 23.7178V21.9053ZM13.5951 22.8115V25.375H15.4076V22.8115H13.5951Z" fill="white"/>
</svg>
