<svg width="91" height="91" viewBox="0 0 91 91" fill="none" xmlns="http://www.w3.org/2000/svg">
<rect x="0.555664" y="0.388916" width="89.8882" height="89.8882" rx="44.9441" fill="url(#paint0_linear_579_654)"/>
<mask id="mask0_579_654" style="mask-type:alpha" maskUnits="userSpaceOnUse" x="15" y="12" width="61" height="60">
<rect x="15.9277" y="12.4863" width="59.1436" height="59.1436" fill="#D9D9D9"/>
</mask>
<g mask="url(#mask0_579_654)">
<path d="M27.3014 64.2371C26.167 64.2371 25.2199 63.8571 24.4601 63.0973C23.7002 62.3375 23.3203 61.3904 23.3203 60.256V36.1821C23.3203 35.0477 23.7002 34.1005 24.4601 33.3407C25.2199 32.5809 26.167 32.201 27.3014 32.201H40.5705V22.3437C40.5705 21.6516 40.8083 21.068 41.2839 20.5928C41.7591 20.1172 42.3428 19.8794 43.0348 19.8794H47.9635C48.6555 19.8794 49.2392 20.1172 49.7144 20.5928C50.19 21.068 50.4278 21.6516 50.4278 22.3437V32.201H63.6969C64.8313 32.201 65.7784 32.5809 66.5382 33.3407C67.2981 34.1005 67.678 35.0477 67.678 36.1821V60.256C67.678 61.3904 67.2981 62.3375 66.5382 63.0973C65.7784 63.8571 64.8313 64.2371 63.6969 64.2371H27.3014ZM27.3014 61.7727H63.6969C64.1392 61.7727 64.5027 61.6306 64.7873 61.3464C65.0716 61.0618 65.2137 60.6983 65.2137 60.256V36.1821C65.2137 35.7397 65.0716 35.3762 64.7873 35.0916C64.5027 34.8074 64.1392 34.6653 63.6969 34.6653H50.4278V36.561C50.4278 37.2214 50.1822 37.7972 49.6909 38.2884C49.1997 38.7797 48.6239 39.0253 47.9635 39.0253H43.0348C42.3744 39.0253 41.7986 38.7797 41.3073 38.2884C40.8161 37.7972 40.5705 37.2214 40.5705 36.561V34.6653H27.3014C26.8591 34.6653 26.4956 34.8074 26.211 35.0916C25.9267 35.3762 25.7846 35.7397 25.7846 36.1821V60.256C25.7846 60.6983 25.9267 61.0618 26.211 61.3464C26.4956 61.6306 26.8591 61.7727 27.3014 61.7727ZM31.4716 55.4222H44.7408V55.0717C44.7408 54.4999 44.5853 53.9794 44.2744 53.5099C43.9631 53.0409 43.5371 52.6737 42.9966 52.4083C42.2068 52.0703 41.4067 51.8167 40.5964 51.6475C39.786 51.4787 38.956 51.3943 38.1062 51.3943C37.2564 51.3943 36.4264 51.4787 35.616 51.6475C34.8057 51.8167 34.0056 52.0703 33.2158 52.4083C32.6753 52.6737 32.2493 53.0409 31.938 53.5099C31.6271 53.9794 31.4716 54.4999 31.4716 55.0717V55.4222ZM50.4278 51.6309H60.285V49.4512H50.4278V51.6309ZM38.1062 49.4512C38.912 49.4512 39.6031 49.1628 40.1793 48.5862C40.756 48.0095 41.0443 47.3185 41.0443 46.5131C41.0443 45.7073 40.756 45.016 40.1793 44.4394C39.6031 43.8631 38.912 43.575 38.1062 43.575C37.3004 43.575 36.6093 43.8631 36.0331 44.4394C35.4564 45.016 35.1681 45.7073 35.1681 46.5131C35.1681 47.3185 35.4564 48.0095 36.0331 48.5862C36.6093 49.1628 37.3004 49.4512 38.1062 49.4512ZM50.4278 45.7547H60.285V43.575H50.4278V45.7547ZM43.0348 36.561H47.9635V22.3437H43.0348V36.561Z" fill="white"/>
</g>
<defs>
<linearGradient id="paint0_linear_579_654" x1="45.4998" y1="0.388916" x2="45.4998" y2="90.2771" gradientUnits="userSpaceOnUse">
<stop stop-color="#003EDF"/>
<stop offset="1" stop-color="#002279"/>
</linearGradient>
</defs>
</svg>
