<svg width="30" height="28" viewBox="0 0 30 28" fill="none" xmlns="http://www.w3.org/2000/svg">
<g clip-path="url(#clip0_555_1092)">
<path d="M25.9915 3.75385C25.8692 3.63632 25.7147 3.55494 25.5461 3.51929C25.3775 3.48364 25.2019 3.4952 25.0399 3.5526L5.10243 10.5526C4.93048 10.6156 4.78245 10.7276 4.67799 10.8737C4.57353 11.0198 4.51758 11.1932 4.51758 11.3707C4.51758 11.5483 4.57353 11.7216 4.67799 11.8678C4.78245 12.0139 4.93048 12.1259 5.10243 12.1889L13.8024 15.5489L17.2824 23.9489C17.3478 24.1076 17.4599 24.2443 17.6048 24.3423C17.7498 24.4403 17.9212 24.4951 18.0981 24.5001C18.2812 24.4965 18.4589 24.4394 18.6077 24.3363C18.7566 24.2332 18.8696 24.0889 18.9318 23.9226L26.1818 4.6726C26.2435 4.5178 26.2584 4.34923 26.2247 4.18656C26.191 4.02389 26.1101 3.87382 25.9915 3.75385ZM18.0981 21.1751L15.5696 15.0501L19.9106 10.8589L18.6327 9.6251L14.2556 13.8514L7.94805 11.3751L23.8346 5.83635L18.0981 21.1751Z" fill="white"/>
</g>
<defs>
<clipPath id="clip0_555_1092">
<rect width="29" height="28" fill="white" transform="translate(0.878906)"/>
</clipPath>
</defs>
</svg>
