<svg width="293" height="38" viewBox="0 0 293 38" fill="none" xmlns="http://www.w3.org/2000/svg">
<rect x="31.484" y="0.259399" width="151.092" height="36.9739" rx="8" fill="white"/>
<path d="M53.507 20H58.8781V20.5273H57.55V25.3516L55.4211 24.8828C54.5617 25.3125 53.6047 25.5273 52.55 25.5273C51.2219 25.5273 50.037 25.1758 48.9953 24.4727C47.3807 23.3659 46.5734 21.6862 46.5734 19.4336C46.5734 17.6107 47.1398 16.1458 48.2726 15.0391C49.3924 13.9714 50.8052 13.4375 52.5109 13.4375C53.4745 13.4375 54.3924 13.6328 55.2648 14.0234L57.0617 13.6523L57.1398 17.6758H56.5734C56.4172 17.0117 56.2284 16.4388 56.007 15.957C55.382 14.668 54.3469 14.0234 52.9015 14.0234C50.4927 14.0365 49.2818 15.8659 49.2687 19.5117C49.2687 20.4753 49.3469 21.3086 49.5031 22.0117C49.9328 23.9648 51.0331 24.9414 52.8039 24.9414C53.7805 24.9414 54.5812 24.6354 55.2062 24.0234V20.5273H53.507V20ZM65.382 25.3516H59.8547V24.8242H61.4172V14.1602H59.8547V13.6328H66.1437C67.1724 13.6328 68.0448 13.8737 68.7609 14.3555C69.6203 14.9414 70.05 15.7227 70.05 16.6992C70.05 17.0247 69.9979 17.3503 69.8937 17.6758C69.5292 18.7305 68.6828 19.4336 67.3547 19.7852L70.4211 24.8438H70.8312C70.9094 24.8438 70.9875 24.8503 71.0656 24.8633C71.2349 24.9023 71.3195 25.0651 71.3195 25.3516L68.0383 25.3711L65.0695 20H63.8195V24.8242H65.382V25.3516ZM65.1672 14.1602H63.8195V19.4141H65.2844C65.7401 19.4141 66.1437 19.2904 66.4953 19.043C67.1594 18.5612 67.4914 17.7995 67.4914 16.7578C67.4914 16.3542 67.4263 15.9766 67.2961 15.625C66.9315 14.6484 66.2219 14.1602 65.1672 14.1602ZM83.7414 25.3516H78.839V24.8242H80.1867L78.7219 21.0742H74.7765L73.3508 24.8242H74.3859C74.464 24.8242 74.5357 24.8307 74.6008 24.8438C74.7831 24.8828 74.8742 25.0521 74.8742 25.3516H71.3195V24.8242H72.5695L76.8664 13.6328H78.0773L82.6476 24.8242H83.2531C83.3443 24.8242 83.4159 24.8307 83.468 24.8438C83.6502 24.8828 83.7414 25.0521 83.7414 25.3516ZM78.4875 20.4883L76.7297 15.918L74.9914 20.4883H78.4875ZM99.1515 13.6328V14.1602H97.589V24.8242H98.6242C98.8976 24.8503 99.0734 25.026 99.1515 25.3516H93.7414V24.8242H95.3039V15.5078L91.007 25.5078H90.6359L86.4367 17.1484V24.8242H87.4719C87.7453 24.8503 87.9211 25.026 87.9992 25.3516H84.0539V24.8242H85.6164V14.1602H84.0539V13.6328H87.3351L91.5734 22.4219L95.3039 13.6328H99.1515ZM114.894 13.6328V14.1602H113.331V24.8242H114.366C114.64 24.8503 114.816 25.026 114.894 25.3516H109.484V24.8242H111.046V15.5078L106.749 25.5078H106.378L102.179 17.1484V24.8242H103.214C103.487 24.8503 103.663 25.026 103.741 25.3516H99.7961V24.8242H101.359V14.1602H99.7961V13.6328H103.077L107.316 22.4219L111.046 13.6328H114.894ZM127.648 25.3516H122.745V24.8242H124.093L122.628 21.0742H118.683L117.257 24.8242H118.292C118.37 24.8242 118.442 24.8307 118.507 24.8438C118.689 24.8828 118.78 25.0521 118.78 25.3516H115.226V24.8242H116.476L120.773 13.6328H121.984L126.554 24.8242H127.159C127.251 24.8242 127.322 24.8307 127.374 24.8438C127.556 24.8828 127.648 25.0521 127.648 25.3516ZM122.394 20.4883L120.636 15.918L118.898 20.4883H122.394ZM133.683 25.3516H128.155V24.8242H129.718V14.1602H128.155V13.6328H134.445C135.473 13.6328 136.346 13.8737 137.062 14.3555C137.921 14.9414 138.351 15.7227 138.351 16.6992C138.351 17.0247 138.299 17.3503 138.195 17.6758C137.83 18.7305 136.984 19.4336 135.655 19.7852L138.722 24.8438H139.132C139.21 24.8438 139.288 24.8503 139.366 24.8633C139.536 24.9023 139.62 25.0651 139.62 25.3516L136.339 25.3711L133.37 20H132.12V24.8242H133.683V25.3516ZM133.468 14.1602H132.12V19.4141H133.585C134.041 19.4141 134.445 19.2904 134.796 19.043C135.46 18.5612 135.792 17.7995 135.792 16.7578C135.792 16.3542 135.727 15.9766 135.597 15.625C135.232 14.6484 134.523 14.1602 133.468 14.1602Z" fill="#376AED"/>
<path d="M203.979 12.3276C203.34 11.4973 202.531 10.8586 201.552 10.4115C200.573 9.96443 199.561 9.74089 198.518 9.74089C197.241 9.74089 196.081 9.98572 195.037 10.4754C194.016 10.9437 193.132 11.5931 192.387 12.4234C191.663 13.2536 191.099 14.233 190.694 15.3613C190.29 16.4684 190.088 17.6606 190.088 18.9379C190.088 20.1301 190.279 21.2585 190.662 22.3229C191.046 23.3874 191.599 24.3242 192.323 25.1331C193.047 25.9421 193.93 26.5808 194.974 27.0492C196.017 27.5176 197.198 27.7517 198.518 27.7517C199.817 27.7517 200.956 27.4856 201.935 26.9534C202.914 26.4212 203.745 25.676 204.426 24.718L207.013 26.666C206.842 26.9002 206.544 27.2408 206.119 27.6879C205.693 28.1137 205.129 28.5501 204.426 28.9972C203.723 29.423 202.872 29.7955 201.871 30.1149C200.892 30.4555 199.753 30.6258 198.454 30.6258C196.666 30.6258 195.048 30.2852 193.6 29.6039C192.174 28.9227 190.95 28.0285 189.928 26.9215C188.927 25.8144 188.161 24.569 187.629 23.1852C187.096 21.7801 186.83 20.3643 186.83 18.9379C186.83 17.1922 187.118 15.5848 187.693 14.1159C188.267 12.6256 189.066 11.3482 190.088 10.2838C191.131 9.19801 192.376 8.35708 193.824 7.76098C195.272 7.16487 196.868 6.86682 198.614 6.86682C200.104 6.86682 201.563 7.15423 202.989 7.72904C204.437 8.30386 205.618 9.18737 206.534 10.3796L203.979 12.3276Z" fill="white"/>
<path d="M219.704 7.44164H222.77V27.1769H233.149V30.051H219.704V7.44164Z" fill="white"/>
<path d="M247.899 7.44164V21.3011C247.899 22.0036 247.995 22.7381 248.186 23.5045C248.378 24.2496 248.697 24.9415 249.144 25.5802C249.591 26.2189 250.177 26.7405 250.901 27.145C251.624 27.5495 252.519 27.7517 253.583 27.7517C254.647 27.7517 255.542 27.5495 256.265 27.145C256.989 26.7405 257.575 26.2189 258.022 25.5802C258.469 24.9415 258.788 24.2496 258.98 23.5045C259.171 22.7381 259.267 22.0036 259.267 21.3011V7.44164H262.333V21.7801C262.333 23.1 262.109 24.3029 261.662 25.3886C261.215 26.4531 260.598 27.3792 259.81 28.1669C259.022 28.9546 258.096 29.5613 257.032 29.9871C255.967 30.4129 254.818 30.6258 253.583 30.6258C252.348 30.6258 251.199 30.4129 250.134 29.9871C249.07 29.5613 248.144 28.9546 247.356 28.1669C246.568 27.3792 245.951 26.4531 245.504 25.3886C245.057 24.3029 244.833 23.1 244.833 21.7801V7.44164H247.899Z" fill="white"/>
<path d="M276.717 7.44164H284.573C285.552 7.44164 286.457 7.55873 287.287 7.79291C288.139 8.02709 288.863 8.37837 289.459 8.84674C290.076 9.29382 290.555 9.87928 290.896 10.6031C291.258 11.3057 291.439 12.136 291.439 13.094C291.439 14.3926 291.077 15.4571 290.353 16.2874C289.629 17.0964 288.692 17.6925 287.543 18.0757V18.1396C288.224 18.1822 288.863 18.3631 289.459 18.6825C290.055 18.9805 290.566 19.385 290.992 19.8959C291.439 20.3856 291.79 20.9604 292.046 21.6204C292.301 22.2804 292.429 22.9936 292.429 23.76C292.429 24.7819 292.216 25.6867 291.79 26.4744C291.386 27.2408 290.821 27.8901 290.098 28.4224C289.374 28.9546 288.533 29.3591 287.575 29.6359C286.617 29.9126 285.584 30.051 284.477 30.051H276.717V7.44164ZM279.783 16.8303H283.966C284.541 16.8303 285.084 16.777 285.595 16.6706C286.106 16.5429 286.553 16.3406 286.936 16.0639C287.319 15.7871 287.617 15.4358 287.83 15.01C288.064 14.5842 288.182 14.0626 288.182 13.4453C288.182 12.5511 287.894 11.774 287.319 11.1141C286.744 10.4541 285.84 10.1241 284.605 10.1241H279.783V16.8303ZM279.783 27.3685H284.286C284.754 27.3685 285.265 27.326 285.818 27.2408C286.393 27.1344 286.925 26.9427 287.415 26.666C287.905 26.3679 288.32 25.9741 288.661 25.4844C289.001 24.9948 289.171 24.3454 289.171 23.5364C289.171 22.1952 288.735 21.1946 287.862 20.5346C286.989 19.8534 285.808 19.5127 284.318 19.5127H279.783V27.3685Z" fill="white"/>
<path d="M19.2614 26.7462H11.9078V25.9552H13.9293L11.7321 20.3302H5.81409L3.67542 25.9552H5.22815C5.34534 25.9552 5.45276 25.965 5.55042 25.9845C5.82385 26.0431 5.96057 26.297 5.96057 26.7462H0.62854V25.9552H2.50354L8.94885 9.16809H10.7653L17.6207 25.9552H18.5289C18.6656 25.9552 18.7731 25.965 18.8512 25.9845C19.1246 26.0431 19.2614 26.297 19.2614 26.7462ZM11.3805 19.4513L8.74377 12.5958L6.13635 19.4513H11.3805ZM28.3141 26.7462H20.0231V25.9552H22.3668V9.95911H20.0231V9.16809H28.3141V9.95911H25.9703V25.9552H27.5231C27.9332 25.9943 28.1969 26.2579 28.3141 26.7462Z" fill="white"/>
<path d="M177.13 15.4168C177.13 15.2691 177.101 15.1261 177.055 14.9905C177.1 14.8653 177.124 14.739 177.125 14.6169C177.126 14.4248 177.073 14.2391 176.992 14.0899L176.989 14.0852C176.965 14.0404 176.931 13.9929 176.894 13.9454V10.3591C177.042 10.1478 177.129 9.89365 177.13 9.6208C177.13 9.09274 176.811 8.6184 176.325 8.41861L164.297 3.39325H164.262C164.009 3.30455 163.747 3.25134 163.482 3.25134C163.222 3.25134 162.963 3.30196 162.713 3.388H162.681L145.053 10.4916L145.009 10.5161L145.01 10.5177C144.785 10.6361 144.619 10.8005 144.504 10.9596C144.303 11.2387 144.201 11.5331 144.126 11.8002L144.125 11.8038C144.013 12.2187 143.966 12.6397 143.938 12.9962L143.937 12.9993C143.91 13.3572 143.909 13.6598 143.907 13.7841V13.7872V13.8535C143.907 14.2882 143.931 14.8532 144.03 15.397L144.032 15.4028C144.084 15.6761 144.158 15.9537 144.283 16.224L144.285 16.2282L144.286 16.2292C144.349 16.3623 144.432 16.5048 144.547 16.6404L144.55 16.6436C144.558 16.6535 144.57 16.6624 144.579 16.6718C144.555 16.6999 144.524 16.7271 144.504 16.7557C144.303 17.0344 144.201 17.3287 144.126 17.5953L144.125 17.5979V17.5989C144.013 18.0137 143.966 18.4353 143.938 18.7917L143.937 18.7943C143.91 19.1528 143.909 19.4549 143.907 19.5796V19.5822V19.649C143.907 20.0842 143.931 20.6493 144.031 21.1935L144.032 21.1977C144.084 21.4716 144.158 21.7498 144.283 22.02L144.286 22.0247C144.349 22.1567 144.432 22.2992 144.547 22.4363L144.55 22.4395C144.57 22.4646 144.601 22.487 144.626 22.512C144.584 22.5574 144.537 22.6023 144.504 22.6477C144.303 22.9268 144.201 23.2212 144.126 23.4872L144.124 23.4945L144.125 23.4914C144.013 23.9062 143.966 24.3278 143.938 24.6842L143.937 24.6873C143.91 25.0453 143.909 25.3479 143.907 25.4731V25.4762V25.5409C143.907 25.9766 143.931 26.5422 144.031 27.0865L144.032 27.0907C144.084 27.3641 144.158 27.6422 144.283 27.912L144.286 27.9172C144.349 28.0497 144.432 28.1916 144.547 28.3289L144.539 28.3195L144.55 28.3325C144.66 28.4603 144.811 28.584 145 28.6763L144.998 28.6795L145.002 28.6815L145.028 28.6967L158.003 34.0513L158.032 34.0638C158.32 34.1812 158.626 34.2412 158.933 34.2412C159.234 34.2412 159.537 34.1833 159.821 34.0669L176.427 27.3191V27.3186C176.618 27.2414 176.799 27.1157 176.937 26.9137L176.938 26.9142C176.938 26.9142 176.938 26.9127 176.939 26.9116C176.939 26.9111 176.94 26.9111 176.94 26.9101H176.94C177.071 26.7118 177.124 26.5031 177.125 26.3048C177.126 26.1127 177.073 25.927 176.992 25.7778L176.989 25.7731V25.7736C176.965 25.7287 176.931 25.6808 176.894 25.6333V22.0475C177.042 21.8362 177.129 21.581 177.13 21.3087C177.13 21.1438 177.095 20.9836 177.036 20.8339C177.096 20.693 177.125 20.5495 177.125 20.4122C177.126 20.2197 177.073 20.035 176.992 19.8847L176.989 19.88C176.965 19.8356 176.931 19.7876 176.894 19.7401V16.1549C177.041 15.9433 177.129 15.6886 177.13 15.4168ZM157.94 32.5764L145.584 27.4764L145.538 27.4221C145.499 27.3621 145.45 27.2478 145.41 27.1059C145.348 26.8935 145.306 26.617 145.281 26.3373C145.255 26.0582 145.246 25.7769 145.246 25.5411V25.4853C145.248 25.3032 145.255 24.7762 145.33 24.2804C145.366 24.0331 145.42 23.7946 145.488 23.6256L145.502 23.5948L157.94 28.6405V32.5764H157.94ZM157.94 26.6838L146.697 22.042L145.584 21.5838L145.538 21.5296C145.499 21.4691 145.45 21.3553 145.41 21.2138C145.348 21.0004 145.306 20.7244 145.281 20.4448C145.255 20.1656 145.246 19.8844 145.246 19.649V19.5927C145.248 19.4101 145.255 18.8836 145.33 18.3873C145.366 18.1405 145.42 17.9015 145.488 17.733L145.502 17.7022L157.94 22.7479V26.6838H157.94ZM157.94 17.2728V17.5117V20.8882L146.578 16.1968L145.584 15.7882L145.538 15.7334C145.499 15.6734 145.45 15.5591 145.41 15.4183C145.348 15.2054 145.306 14.9294 145.281 14.6491C145.255 14.3695 145.246 14.0888 145.246 13.8535V13.7971C145.248 13.615 145.255 13.088 145.33 12.5922C145.366 12.3449 145.42 12.1065 145.488 11.9374L145.502 11.9071L157.94 16.9524V17.2728H157.94ZM175.555 26.2288L159.361 32.8081L159.318 32.8273C159.193 32.8764 159.063 32.902 158.933 32.902C158.886 32.902 158.839 32.8951 158.793 32.8879V28.9029C158.854 28.9097 158.917 28.9134 158.978 28.9134C159.222 28.9134 159.466 28.8654 159.694 28.7715L159.71 28.7647L175.555 22.2977V26.2288H175.555ZM175.555 20.3138V20.3357L159.361 26.9155L159.318 26.9343C159.193 26.9839 159.063 27.0089 158.933 27.0089C158.886 27.0089 158.839 27.0022 158.793 26.9959V23.0104C158.854 23.0172 158.917 23.0209 158.978 23.0209C159.222 23.0209 159.466 22.9728 159.694 22.8794L159.71 22.8721L170.823 18.3367L175.555 16.405V20.3138ZM175.555 14.4212V14.5406L159.361 21.1199L159.318 21.1387C159.193 21.1883 159.063 21.2138 158.933 21.2138C158.886 21.2138 158.839 21.207 158.793 21.2003V17.5572V17.2144C158.854 17.2217 158.917 17.2248 158.978 17.2248C159.222 17.2248 159.466 17.1773 159.694 17.084L159.71 17.0771L175.555 10.6096V14.4212H175.555Z" fill="#376AED"/>
</svg>
