<svg width="315" height="37" viewBox="0 0 315 37" fill="none" xmlns="http://www.w3.org/2000/svg">
<rect x="31.2495" width="151.092" height="36.9739" rx="8" fill="white"/>
<path d="M53.2725 19.7406H58.6436V20.2679H57.3155V25.0922L55.1866 24.6234C54.3272 25.0531 53.3702 25.2679 52.3155 25.2679C50.9874 25.2679 49.8025 24.9164 48.7608 24.2133C47.1462 23.1065 46.3389 21.4268 46.3389 19.1742C46.3389 17.3513 46.9053 15.8864 48.0381 14.7797C49.1579 13.712 50.5707 13.1781 52.2764 13.1781C53.24 13.1781 54.1579 13.3734 55.0303 13.764L56.8272 13.3929L56.9053 17.4164H56.3389C56.1827 16.7523 55.9939 16.1794 55.7725 15.6976C55.1475 14.4086 54.1124 13.764 52.667 13.764C50.2582 13.7771 49.0473 15.6065 49.0342 19.2523C49.0342 20.2159 49.1124 21.0492 49.2686 21.7523C49.6983 23.7054 50.7986 24.682 52.5694 24.682C53.546 24.682 54.3467 24.376 54.9717 23.764V20.2679H53.2725V19.7406ZM65.1475 25.0922H59.6202V24.5648H61.1827V13.9008H59.6202V13.3734H65.9092C66.9379 13.3734 67.8103 13.6143 68.5264 14.0961C69.3858 14.682 69.8155 15.4633 69.8155 16.4398C69.8155 16.7653 69.7634 17.0909 69.6592 17.4164C69.2947 18.4711 68.4483 19.1742 67.1202 19.5258L70.1866 24.5844H70.5967C70.6749 24.5844 70.753 24.5909 70.8311 24.6039C71.0004 24.6429 71.085 24.8057 71.085 25.0922L67.8038 25.1117L64.835 19.7406H63.585V24.5648H65.1475V25.0922ZM64.9327 13.9008H63.585V19.1547H65.0499C65.5056 19.1547 65.9092 19.031 66.2608 18.7836C66.9249 18.3018 67.2569 17.5401 67.2569 16.4984C67.2569 16.0948 67.1918 15.7172 67.0616 15.3656C66.697 14.389 65.9874 13.9008 64.9327 13.9008ZM83.5069 25.0922H78.6045V24.5648H79.9522L78.4874 20.8148H74.542L73.1163 24.5648H74.1514C74.2295 24.5648 74.3012 24.5713 74.3663 24.5844C74.5486 24.6234 74.6397 24.7927 74.6397 25.0922H71.085V24.5648H72.335L76.6319 13.3734H77.8428L82.4131 24.5648H83.0186C83.1098 24.5648 83.1814 24.5713 83.2335 24.5844C83.4157 24.6234 83.5069 24.7927 83.5069 25.0922ZM78.253 20.2289L76.4952 15.6586L74.7569 20.2289H78.253ZM98.917 13.3734V13.9008H97.3545V24.5648H98.3897C98.6631 24.5909 98.8389 24.7666 98.917 25.0922H93.5069V24.5648H95.0694V15.2484L90.7725 25.2484H90.4014L86.2022 16.889V24.5648H87.2374C87.5108 24.5909 87.6866 24.7666 87.7647 25.0922H83.8194V24.5648H85.3819V13.9008H83.8194V13.3734H87.1006L91.3389 22.1625L95.0694 13.3734H98.917ZM114.659 13.3734V13.9008H113.097V24.5648H114.132C114.405 24.5909 114.581 24.7666 114.659 25.0922H109.249V24.5648H110.812V15.2484L106.515 25.2484H106.144L101.944 16.889V24.5648H102.98C103.253 24.5909 103.429 24.7666 103.507 25.0922H99.5616V24.5648H101.124V13.9008H99.5616V13.3734H102.843L107.081 22.1625L110.812 13.3734H114.659ZM127.413 25.0922H122.511V24.5648H123.858L122.394 20.8148H118.448L117.023 24.5648H118.058C118.136 24.5648 118.207 24.5713 118.273 24.5844C118.455 24.6234 118.546 24.7927 118.546 25.0922H114.991V24.5648H116.241L120.538 13.3734H121.749L126.319 24.5648H126.925C127.016 24.5648 127.088 24.5713 127.14 24.5844C127.322 24.6234 127.413 24.7927 127.413 25.0922ZM122.159 20.2289L120.401 15.6586L118.663 20.2289H122.159ZM133.448 25.0922H127.921V24.5648H129.483V13.9008H127.921V13.3734H134.21C135.239 13.3734 136.111 13.6143 136.827 14.0961C137.687 14.682 138.116 15.4633 138.116 16.4398C138.116 16.7653 138.064 17.0909 137.96 17.4164C137.595 18.4711 136.749 19.1742 135.421 19.5258L138.487 24.5844H138.898C138.976 24.5844 139.054 24.5909 139.132 24.6039C139.301 24.6429 139.386 24.8057 139.386 25.0922L136.105 25.1117L133.136 19.7406H131.886V24.5648H133.448V25.0922ZM133.233 13.9008H131.886V19.1547H133.351C133.806 19.1547 134.21 19.031 134.562 18.7836C135.226 18.3018 135.558 17.5401 135.558 16.4984C135.558 16.0948 135.493 15.7172 135.362 15.3656C134.998 14.389 134.288 13.9008 133.233 13.9008Z" fill="#376AED"/>
<path d="M19.1714 26.4868H11.8179V25.6958H13.8394L11.6421 20.0708H5.72412L3.58545 25.6958H5.13818C5.25537 25.6958 5.36279 25.7056 5.46045 25.7251C5.73389 25.7837 5.87061 26.0376 5.87061 26.4868H0.538574V25.6958H2.41357L8.85889 8.90869H10.6753L17.5308 25.6958H18.439C18.5757 25.6958 18.6831 25.7056 18.7612 25.7251C19.0347 25.7837 19.1714 26.0376 19.1714 26.4868ZM11.2905 19.1919L8.65381 12.3364L6.04639 19.1919H11.2905ZM26.2905 25.7251C26.3882 25.7251 26.4761 25.7349 26.5542 25.7544C26.8472 25.7935 26.9937 26.0376 26.9937 26.4868H19.9624V25.7251C20.353 25.7251 20.6655 25.6958 20.8999 25.6372C21.5444 25.481 21.8667 24.9829 21.8667 24.1431V14.6802H19.9624V13.9478H25.0894V25.7251H26.2905ZM25.3823 9.96338C25.3823 10.2954 25.3042 10.6079 25.1479 10.9009C24.7769 11.5845 24.1909 11.9263 23.3901 11.9263C23.0776 11.9263 22.7749 11.8579 22.4819 11.7212C21.7593 11.3696 21.3979 10.7837 21.3979 9.96338C21.3979 9.65088 21.4761 9.33838 21.6323 9.02588C22.0034 8.30322 22.5894 7.94189 23.3901 7.94189C23.7026 7.94189 24.0054 8.02002 24.2983 8.17627C25.021 8.56689 25.3823 9.1626 25.3823 9.96338Z" fill="white"/>
<path d="M176.895 15.1574C176.896 15.0097 176.867 14.8667 176.821 14.7311C176.866 14.6059 176.89 14.4796 176.89 14.3575C176.892 14.1654 176.838 13.9797 176.757 13.8305L176.755 13.8258C176.73 13.781 176.697 13.7335 176.66 13.686V10.0997C176.807 9.88836 176.895 9.63426 176.895 9.3614C176.895 8.83334 176.577 8.359 176.09 8.15921L164.062 3.13385H164.027C163.775 3.04515 163.513 2.99194 163.247 2.99194C162.988 2.99194 162.728 3.04256 162.478 3.1286H162.447L144.819 10.2322L144.775 10.2567L144.776 10.2583C144.551 10.3767 144.384 10.5411 144.27 10.7002C144.069 10.9793 143.966 11.2737 143.891 11.5408L143.891 11.5444C143.779 11.9593 143.732 12.3803 143.703 12.7368L143.703 12.7399C143.676 13.0978 143.674 13.4004 143.672 13.5247V13.5278V13.5941C143.673 14.0288 143.697 14.5938 143.796 15.1376L143.798 15.1434C143.85 15.4167 143.923 15.6943 144.049 15.9646L144.051 15.9688L144.051 15.9698C144.115 16.1029 144.198 16.2454 144.313 16.381L144.315 16.3842C144.323 16.3941 144.336 16.403 144.345 16.4124C144.321 16.4405 144.29 16.4677 144.27 16.4963C144.068 16.775 143.966 17.0693 143.891 17.3359L143.891 17.3385V17.3395C143.779 17.7543 143.732 18.1759 143.703 18.5323L143.703 18.5349C143.676 18.8934 143.674 19.1955 143.672 19.3202V19.3228V19.3896C143.673 19.8248 143.697 20.3899 143.796 20.9341L143.797 20.9383C143.85 21.2122 143.923 21.4904 144.049 21.7606L144.051 21.7653C144.114 21.8973 144.197 22.0398 144.312 22.1769L144.315 22.1801C144.336 22.2052 144.367 22.2276 144.391 22.2526C144.35 22.298 144.303 22.3429 144.27 22.3883C144.068 22.6674 143.966 22.9618 143.891 23.2278L143.89 23.2351L143.891 23.232C143.779 23.6468 143.732 24.0684 143.703 24.4248L143.703 24.4279C143.676 24.7859 143.674 25.0885 143.672 25.2137V25.2168V25.2815C143.673 25.7172 143.697 26.2828 143.797 26.8271L143.798 26.8313C143.85 27.1047 143.923 27.3828 144.049 27.6526L144.051 27.6578C144.114 27.7903 144.197 27.9322 144.313 28.0695L144.304 28.0601L144.315 28.0731C144.425 28.2009 144.577 28.3246 144.766 28.4169L144.763 28.4201L144.767 28.4221L144.794 28.4373L157.768 33.7919L157.798 33.8044C158.085 33.9218 158.391 33.9818 158.698 33.9818C159 33.9818 159.302 33.9239 159.587 33.8075L176.192 27.0597V27.0592C176.384 26.982 176.564 26.8563 176.703 26.6543L176.703 26.6548C176.703 26.6548 176.704 26.6533 176.704 26.6522C176.705 26.6517 176.705 26.6517 176.706 26.6507H176.705C176.836 26.4524 176.889 26.2437 176.891 26.0454C176.892 25.8533 176.838 25.6676 176.758 25.5184L176.755 25.5137V25.5142C176.73 25.4693 176.697 25.4214 176.66 25.3739V21.7881C176.807 21.5768 176.895 21.3217 176.895 21.0493C176.896 20.8844 176.861 20.7242 176.802 20.5745C176.861 20.4336 176.89 20.2901 176.891 20.1528C176.892 19.9603 176.838 19.7756 176.758 19.6253L176.755 19.6206C176.73 19.5762 176.697 19.5282 176.66 19.4807V15.8955C176.807 15.6839 176.895 15.4292 176.895 15.1574ZM157.706 32.317L145.35 27.217L145.303 27.1627C145.265 27.1027 145.215 26.9884 145.175 26.8465C145.114 26.6341 145.072 26.3576 145.046 26.0779C145.02 25.7988 145.012 25.5175 145.012 25.2817V25.2259C145.014 25.0438 145.02 24.5168 145.096 24.021C145.131 23.7737 145.186 23.5352 145.254 23.3662L145.268 23.3354L157.706 28.3811V32.317H157.706ZM157.706 26.4244L146.463 21.7826L145.35 21.3244L145.303 21.2702C145.265 21.2097 145.215 21.0959 145.176 20.9544C145.114 20.741 145.072 20.465 145.046 20.1854C145.021 19.9062 145.012 19.625 145.012 19.3896V19.3333C145.014 19.1507 145.02 18.6242 145.096 18.1279C145.131 17.8811 145.186 17.6421 145.254 17.4736L145.268 17.4428L157.706 22.4885V26.4244H157.706ZM157.706 17.0134V17.2523V20.6288L146.343 15.9374L145.35 15.5288L145.303 15.474C145.265 15.414 145.215 15.2997 145.176 15.1589C145.114 14.946 145.072 14.67 145.046 14.3897C145.021 14.1101 145.012 13.8294 145.012 13.5941V13.5377C145.014 13.3556 145.02 12.8286 145.096 12.3328C145.131 12.0855 145.186 11.8471 145.254 11.678L145.268 11.6477L157.706 16.693V17.0134H157.706ZM175.32 25.9694L159.126 32.5487L159.083 32.5679C158.959 32.617 158.829 32.6426 158.698 32.6426C158.652 32.6426 158.604 32.6357 158.558 32.6285V28.6435C158.619 28.6504 158.683 28.654 158.744 28.654C158.987 28.654 159.232 28.606 159.46 28.5121L159.475 28.5053L175.32 22.0383V25.9694H175.32ZM175.32 20.0544V20.0763L159.126 26.6561L159.083 26.6749C158.959 26.7245 158.829 26.7495 158.698 26.7495C158.652 26.7495 158.604 26.7428 158.558 26.7365V22.751C158.619 22.7578 158.683 22.7615 158.744 22.7615C158.987 22.7615 159.232 22.7134 159.46 22.62L159.475 22.6127L170.589 18.0773L175.32 16.1456V20.0544ZM175.32 14.1618V14.2812L159.126 20.8606L159.083 20.8793C158.959 20.9289 158.829 20.9544 158.698 20.9544C158.652 20.9544 158.604 20.9476 158.558 20.9409V17.2978V16.955C158.619 16.9623 158.683 16.9654 158.744 16.9654C158.987 16.9654 159.232 16.9179 159.46 16.8246L159.475 16.8177L175.32 10.3502V14.1618H175.32Z" fill="#376AED"/>
<g filter="url(#filter0_d_167_64)">
<path d="M201.317 25.6045C199.5 26.5811 197.586 27.0791 195.574 27.0986C192.781 27.0986 190.526 26.1904 188.807 24.374C187.186 22.6553 186.375 20.5264 186.375 17.9873C186.375 15.8779 186.981 14.0029 188.192 12.3623C189.891 10.0771 192.352 8.93457 195.574 8.93457C197.703 8.93457 199.578 9.43262 201.199 10.4287C201.199 10.0576 201.219 9.77441 201.258 9.5791C201.356 9.24707 201.649 9.08105 202.137 9.08105L202.225 14.7354H201.287C201.111 14.1104 200.916 13.5439 200.701 13.0361C199.725 10.8682 198.133 9.78418 195.926 9.78418C195.242 9.78418 194.608 9.8916 194.022 10.1064C191.639 11.0439 190.447 13.6514 190.447 17.9287C190.467 23.4365 192.234 26.21 195.75 26.249C196.082 26.249 196.414 26.2295 196.746 26.1904C199.051 25.8584 200.613 24.2178 201.434 21.2686H202.313V26.9521C202.098 26.9521 201.922 26.9326 201.785 26.8936C201.453 26.7959 201.297 26.3662 201.317 25.6045ZM212.186 26.8057H203.895V26.0146H206.238V10.0186H203.895V9.22754H212.186V10.0186H209.842V17.3135H217.781V10.0186H215.438V9.22754H223.699V10.0186H221.385V26.0146H222.938C223.289 26.0537 223.543 26.3174 223.699 26.8057H215.438V26.0146H217.781V18.1924H209.842V26.0146H211.395C211.805 26.0537 212.068 26.3174 212.186 26.8057ZM239.666 14.7354H238.904L238.348 12.9189C238.289 12.7236 238.221 12.5381 238.143 12.3623C237.518 10.7998 236.453 10.0186 234.949 10.0186H231.199V17.3135H236.971V18.1924H231.199V26.0146H234.949C235.34 26.0146 235.701 25.9658 236.033 25.8682C237.049 25.5557 237.811 24.6377 238.318 23.1143L238.904 21.2979H239.666L239.549 26.8057H225.252V26.0146H227.596V10.0186H225.252V9.22754H239.549L239.666 14.7354ZM257.039 25.6045C255.223 26.5811 253.309 27.0791 251.297 27.0986C248.504 27.0986 246.248 26.1904 244.529 24.374C242.908 22.6553 242.098 20.5264 242.098 17.9873C242.098 15.8779 242.703 14.0029 243.914 12.3623C245.613 10.0771 248.074 8.93457 251.297 8.93457C253.426 8.93457 255.301 9.43262 256.922 10.4287C256.922 10.0576 256.942 9.77441 256.981 9.5791C257.078 9.24707 257.371 9.08105 257.859 9.08105L257.947 14.7354H257.01C256.834 14.1104 256.639 13.5439 256.424 13.0361C255.447 10.8682 253.856 9.78418 251.649 9.78418C250.965 9.78418 250.33 9.8916 249.744 10.1064C247.361 11.0439 246.17 13.6514 246.17 17.9287C246.19 23.4365 247.957 26.21 251.473 26.249C251.805 26.249 252.137 26.2295 252.469 26.1904C254.774 25.8584 256.336 24.2178 257.156 21.2686H258.035V26.9521C257.82 26.9521 257.645 26.9326 257.508 26.8936C257.176 26.7959 257.02 26.3662 257.039 25.6045ZM267.908 26.8057H259.617V26.0146H261.961V10.0186H259.617V9.22754H267.908V10.0186H265.565V17.6943L274.002 10.0186H271.658V9.22754H277.049C277.01 9.59863 276.746 9.8623 276.258 10.0186C276.121 10.0186 275.975 10.0381 275.818 10.0771C275.408 10.1553 274.803 10.5752 274.002 11.3369L269.285 15.6436L276.609 26.0146H277.049C277.459 26.0537 277.723 26.3174 277.84 26.8057L272.713 26.835L266.707 18.0166L265.565 19.042V26.0146H267.117C267.527 26.0537 267.791 26.3174 267.908 26.8057ZM293.016 14.7354H292.254L291.697 12.9189C291.639 12.7236 291.57 12.5381 291.492 12.3623C290.867 10.7998 289.803 10.0186 288.299 10.0186H284.549V17.3135H290.32V18.1924H284.549V26.0146H288.299C288.69 26.0146 289.051 25.9658 289.383 25.8682C290.399 25.5557 291.16 24.6377 291.668 23.1143L292.254 21.2979H293.016L292.899 26.8057H278.602V26.0146H280.945V10.0186H278.602V9.22754H292.899L293.016 14.7354ZM303.445 26.8057H295.154V26.0146H297.498V10.0186H295.154V9.22754H304.588C306.131 9.22754 307.44 9.58887 308.514 10.3115C309.803 11.1904 310.447 12.3623 310.447 13.8271C310.447 14.3154 310.369 14.8037 310.213 15.292C309.666 16.874 308.397 17.9287 306.404 18.4561L311.004 26.0439H311.619C311.736 26.0439 311.854 26.0537 311.971 26.0732C312.225 26.1318 312.352 26.376 312.352 26.8057L307.43 26.835L302.977 18.7783H301.102V26.0146H303.445V26.8057ZM303.123 10.0186H301.102V17.8994H303.299C303.983 17.8994 304.588 17.7139 305.115 17.3428C306.111 16.6201 306.609 15.4775 306.609 13.915C306.609 13.3096 306.512 12.7432 306.317 12.2158C305.77 10.751 304.705 10.0186 303.123 10.0186Z" fill="white"/>
</g>
<defs>
<filter id="filter0_d_167_64" x="184.075" y="8.93457" width="130.577" height="24.4641" filterUnits="userSpaceOnUse" color-interpolation-filters="sRGB">
<feFlood flood-opacity="0" result="BackgroundImageFix"/>
<feColorMatrix in="SourceAlpha" type="matrix" values="0 0 0 0 0 0 0 0 0 0 0 0 0 0 0 0 0 0 127 0" result="hardAlpha"/>
<feOffset dy="4"/>
<feGaussianBlur stdDeviation="1.15"/>
<feComposite in2="hardAlpha" operator="out"/>
<feColorMatrix type="matrix" values="0 0 0 0 0.372549 0 0 0 0 0.639216 0 0 0 0 0.980392 0 0 0 0.3 0"/>
<feBlend mode="normal" in2="BackgroundImageFix" result="effect1_dropShadow_167_64"/>
<feBlend mode="normal" in="SourceGraphic" in2="effect1_dropShadow_167_64" result="shape"/>
</filter>
</defs>
</svg>
