<svg width="217" height="82" viewBox="0 0 217 82" fill="none" xmlns="http://www.w3.org/2000/svg">
<rect x="33.3109" width="183.35" height="45" rx="8" fill="#376AED"/>
<path d="M58.8241 21.8105H65.538V22.4697H63.8778V28.5L61.2167 27.9141C60.1425 28.4512 58.9462 28.7197 57.6278 28.7197C55.9677 28.7197 54.4865 28.2803 53.1844 27.4014C51.1662 26.0179 50.1571 23.9183 50.1571 21.1025C50.1571 18.8239 50.8651 16.9928 52.2811 15.6094C53.6809 14.2747 55.4468 13.6074 57.579 13.6074C58.7834 13.6074 59.9309 13.8516 61.0214 14.3398L63.2675 13.876L63.3651 18.9053H62.6571C62.4618 18.0752 62.2258 17.359 61.9491 16.7568C61.1678 15.1455 59.8739 14.3398 58.0673 14.3398C55.0562 14.3561 53.5425 16.6429 53.5262 21.2002C53.5262 22.4046 53.6239 23.4463 53.8192 24.3252C54.3563 26.7666 55.7316 27.9873 57.9452 27.9873C59.1659 27.9873 60.1669 27.6048 60.9481 26.8398V22.4697H58.8241V21.8105ZM73.6678 28.5H66.7587V27.8408H68.7118V14.5107H66.7587V13.8516H74.62C75.9058 13.8516 76.9963 14.1527 77.8915 14.7549C78.9657 15.4873 79.5028 16.4639 79.5028 17.6846C79.5028 18.0915 79.4377 18.4984 79.3075 18.9053C78.8518 20.2236 77.7938 21.1025 76.1337 21.542L79.9667 27.8652H80.4794C80.577 27.8652 80.6747 27.8734 80.7723 27.8896C80.9839 27.9385 81.0897 28.1419 81.0897 28.5L76.9882 28.5244L73.2772 21.8105H71.7147V27.8408H73.6678V28.5ZM73.3993 14.5107H71.7147V21.0781H73.5458C74.1154 21.0781 74.62 20.9235 75.0594 20.6143C75.8895 20.012 76.3046 19.0599 76.3046 17.7578C76.3046 17.2533 76.2232 16.7812 76.0604 16.3418C75.6047 15.1211 74.7177 14.5107 73.3993 14.5107ZM96.6171 28.5H90.4891V27.8408H92.1737L90.3427 23.1533H85.411L83.6288 27.8408H84.9227C85.0204 27.8408 85.1099 27.849 85.1913 27.8652C85.4191 27.9141 85.5331 28.1257 85.5331 28.5H81.0897V27.8408H82.6522L88.0233 13.8516H89.537L95.2499 27.8408H96.0067C96.1206 27.8408 96.2102 27.849 96.2753 27.8652C96.5031 27.9141 96.6171 28.1257 96.6171 28.5ZM90.0497 22.4209L87.8524 16.708L85.6796 22.4209H90.0497ZM115.88 13.8516V14.5107H113.927V27.8408H115.221C115.562 27.8734 115.782 28.0931 115.88 28.5H109.117V27.8408H111.07V16.1953L105.699 28.6953H105.235L99.9862 18.2461V27.8408H101.28C101.622 27.8734 101.842 28.0931 101.939 28.5H97.0077V27.8408H98.9608V14.5107H97.0077V13.8516H101.109L106.407 24.8379L111.07 13.8516H115.88ZM135.557 13.8516V14.5107H133.604V27.8408H134.898C135.24 27.8734 135.46 28.0931 135.557 28.5H128.795V27.8408H130.748V16.1953L125.377 28.6953H124.913L119.664 18.2461V27.8408H120.958C121.3 27.8734 121.519 28.0931 121.617 28.5H116.685V27.8408H118.639V14.5107H116.685V13.8516H120.787L126.085 24.8379L130.748 13.8516H135.557ZM151.5 28.5H145.372V27.8408H147.057L145.225 23.1533H140.294L138.512 27.8408H139.806C139.903 27.8408 139.993 27.849 140.074 27.8652C140.302 27.9141 140.416 28.1257 140.416 28.5H135.973V27.8408H137.535L142.906 13.8516H144.42L150.133 27.8408H150.89C151.003 27.8408 151.093 27.849 151.158 27.8652C151.386 27.9141 151.5 28.1257 151.5 28.5ZM144.932 22.4209L142.735 16.708L140.562 22.4209H144.932ZM159.044 28.5H152.135V27.8408H154.088V14.5107H152.135V13.8516H159.996C161.282 13.8516 162.372 14.1527 163.267 14.7549C164.342 15.4873 164.879 16.4639 164.879 17.6846C164.879 18.0915 164.814 18.4984 164.683 18.9053C164.228 20.2236 163.17 21.1025 161.51 21.542L165.343 27.8652H165.855C165.953 27.8652 166.051 27.8734 166.148 27.8896C166.36 27.9385 166.466 28.1419 166.466 28.5L162.364 28.5244L158.653 21.8105H157.091V27.8408H159.044V28.5ZM158.775 14.5107H157.091V21.0781H158.922C159.491 21.0781 159.996 20.9235 160.435 20.6143C161.266 20.012 161.681 19.0599 161.681 17.7578C161.681 17.2533 161.599 16.7812 161.436 16.3418C160.981 15.1211 160.094 14.5107 158.775 14.5107Z" fill="white"/>
<path d="M109.011 59.7223C108.234 58.7118 107.249 57.9345 106.057 57.3903C104.865 56.8462 103.634 56.5741 102.365 56.5741C100.81 56.5741 99.398 56.8721 98.1284 57.4681C96.8847 58.0381 95.8094 58.8284 94.9025 59.8389C94.0215 60.8494 93.3349 62.0413 92.8426 63.4146C92.3503 64.762 92.1041 66.213 92.1041 67.7676C92.1041 69.2186 92.3373 70.5919 92.8037 71.8874C93.2701 73.183 93.9438 74.3231 94.8248 75.3077C95.7057 76.2923 96.781 77.0696 98.0507 77.6396C99.3203 78.2097 100.758 78.4947 102.365 78.4947C103.945 78.4947 105.332 78.1708 106.524 77.523C107.715 76.8753 108.726 75.9684 109.555 74.8024L112.703 77.1732C112.496 77.4583 112.133 77.8728 111.615 78.417C111.097 78.9352 110.41 79.4664 109.555 80.0105C108.7 80.5287 107.664 80.9821 106.446 81.3708C105.254 81.7854 103.868 81.9927 102.287 81.9927C100.111 81.9927 98.1414 81.5781 96.3794 80.7489C94.6434 79.9198 93.1535 78.8315 91.9098 77.4842C90.692 76.1368 89.7592 74.621 89.1114 72.9368C88.4637 71.2267 88.1398 69.5036 88.1398 67.7676C88.1398 65.6429 88.4896 63.6867 89.1892 61.8988C89.8888 60.0851 90.8604 58.5304 92.1041 57.2349C93.3738 55.9134 94.8895 54.8899 96.6515 54.1644C98.4134 53.4389 100.357 53.0762 102.481 53.0762C104.295 53.0762 106.07 53.426 107.806 54.1256C109.568 54.8252 111.006 55.9005 112.12 57.3515L109.011 59.7223Z" fill="#376AED"/>
<path d="M128.15 53.7758H131.881V77.7951H144.513V81.2931H128.15V53.7758Z" fill="#376AED"/>
<path d="M162.465 53.7758V70.6437C162.465 71.4988 162.581 72.3927 162.814 73.3255C163.048 74.2324 163.436 75.0745 163.98 75.8518C164.524 76.6291 165.237 77.2639 166.118 77.7562C166.999 78.2486 168.087 78.4947 169.383 78.4947C170.678 78.4947 171.767 78.2486 172.648 77.7562C173.529 77.2639 174.241 76.6291 174.785 75.8518C175.329 75.0745 175.718 74.2324 175.951 73.3255C176.184 72.3927 176.301 71.4988 176.301 70.6437V53.7758H180.032V71.2267C180.032 72.8332 179.76 74.2971 179.216 75.6186C178.672 76.9141 177.92 78.0413 176.962 79C176.003 79.9587 174.876 80.6971 173.58 81.2153C172.285 81.7336 170.886 81.9927 169.383 81.9927C167.88 81.9927 166.481 81.7336 165.185 81.2153C163.89 80.6971 162.763 79.9587 161.804 79C160.845 78.0413 160.094 76.9141 159.55 75.6186C159.005 74.2971 158.733 72.8332 158.733 71.2267V53.7758H162.465Z" fill="#376AED"/>
<path d="M197.539 53.7758H207.1C208.292 53.7758 209.393 53.9183 210.404 54.2033C211.44 54.4883 212.321 54.9158 213.046 55.4859C213.798 56.03 214.381 56.7426 214.795 57.6235C215.236 58.4786 215.456 59.4891 215.456 60.6551C215.456 62.2357 215.016 63.5312 214.135 64.5417C213.254 65.5263 212.114 66.2518 210.715 66.7182V66.796C211.544 66.8478 212.321 67.068 213.046 67.4567C213.772 67.8194 214.394 68.3117 214.912 68.9336C215.456 69.5296 215.884 70.2291 216.195 71.0324C216.506 71.8356 216.661 72.7036 216.661 73.6364C216.661 74.8801 216.402 75.9813 215.884 76.9401C215.391 77.8728 214.705 78.6631 213.824 79.3109C212.943 79.9587 211.919 80.451 210.753 80.7878C209.587 81.1247 208.331 81.2931 206.983 81.2931H197.539V53.7758ZM201.27 65.2024H206.361C207.061 65.2024 207.722 65.1377 208.344 65.0081C208.966 64.8526 209.51 64.6065 209.976 64.2697C210.442 63.9328 210.805 63.5053 211.064 62.9871C211.349 62.4688 211.492 61.834 211.492 61.0826C211.492 59.9944 211.142 59.0486 210.442 58.2454C209.743 57.4421 208.642 57.0405 207.139 57.0405H201.27V65.2024ZM201.27 78.0283H206.75C207.32 78.0283 207.942 77.9765 208.616 77.8728C209.315 77.7433 209.963 77.5101 210.559 77.1732C211.155 76.8105 211.66 76.3311 212.075 75.7352C212.489 75.1392 212.697 74.349 212.697 73.3644C212.697 71.732 212.166 70.5142 211.103 69.7109C210.041 68.8818 208.603 68.4672 206.789 68.4672H201.27V78.0283Z" fill="#376AED"/>
<path d="M19.2625 30.5H11.9089V29.709H13.9304L11.7332 24.084H5.81519L3.67651 29.709H5.22925C5.34644 29.709 5.45386 29.7188 5.55151 29.7383C5.82495 29.7969 5.96167 30.0508 5.96167 30.5H0.629639V29.709H2.50464L8.94995 12.9219H10.7664L17.6218 29.709H18.53C18.6667 29.709 18.7742 29.7188 18.8523 29.7383C19.1257 29.7969 19.2625 30.0508 19.2625 30.5ZM11.3816 23.2051L8.74487 16.3496L6.13745 23.2051H11.3816ZM28.3152 30.5H20.0242V29.709H22.3679V13.7129H20.0242V12.9219H28.3152V13.7129H25.9714V29.709H27.5242C27.9343 29.748 28.198 30.0117 28.3152 30.5Z" fill="#386BEE"/>
<path d="M209.103 18.7664C209.104 18.6009 209.072 18.4405 209.02 18.2884C209.07 18.148 209.097 18.0064 209.098 17.8695C209.099 17.6541 209.039 17.4458 208.949 17.2785L208.946 17.2732C208.918 17.2229 208.881 17.1697 208.839 17.1164V13.0949C209.004 12.8579 209.103 12.573 209.103 12.267C209.103 11.6749 208.746 11.143 208.2 10.9189L194.713 5.28365H194.674C194.391 5.18418 194.097 5.12451 193.799 5.12451C193.508 5.12451 193.217 5.18127 192.937 5.27775H192.901L173.134 13.2435L173.084 13.271L173.086 13.2727C172.833 13.4055 172.647 13.5899 172.518 13.7683C172.293 14.0813 172.178 14.4114 172.094 14.7109L172.093 14.715C171.968 15.1802 171.915 15.6523 171.883 16.052L171.882 16.0555C171.852 16.4569 171.851 16.7963 171.848 16.9356V16.9391V17.0135C171.849 17.5008 171.876 18.1345 171.987 18.7442L171.989 18.7507C172.047 19.0573 172.13 19.3685 172.27 19.6717L172.273 19.6763L172.273 19.6775C172.344 19.8267 172.437 19.9864 172.566 20.1386L172.569 20.1421C172.578 20.1532 172.592 20.1632 172.602 20.1737C172.576 20.2053 172.54 20.2357 172.518 20.2679C172.292 20.5803 172.178 20.9104 172.094 21.2093L172.093 21.2122V21.2134C171.968 21.6786 171.915 22.1513 171.883 22.5509L171.882 22.5538C171.852 22.9559 171.85 23.2947 171.848 23.4345V23.4374V23.5123C171.849 24.0003 171.876 24.634 171.987 25.2443L171.989 25.2489C172.047 25.5562 172.13 25.868 172.27 26.1711L172.273 26.1763C172.344 26.3244 172.437 26.4841 172.566 26.6379L172.569 26.6415C172.592 26.6696 172.627 26.6948 172.654 26.7228C172.608 26.7737 172.555 26.8241 172.518 26.8749C172.292 27.1879 172.178 27.518 172.094 27.8163L172.092 27.8246L172.093 27.821C171.968 28.2862 171.915 28.759 171.883 29.1586L171.882 29.1621C171.852 29.5635 171.851 29.9028 171.848 30.0433V30.0468V30.1193C171.849 30.6078 171.876 31.2421 171.987 31.8525L171.989 31.8571C172.047 32.1638 172.13 32.4756 172.27 32.7781L172.273 32.7839C172.344 32.9326 172.437 33.0917 172.566 33.2456L172.557 33.2351L172.569 33.2497C172.693 33.393 172.862 33.5317 173.074 33.6353L173.072 33.6388L173.076 33.6411L173.106 33.658L187.655 39.6625L187.688 39.6765C188.01 39.8082 188.353 39.8755 188.698 39.8755C189.036 39.8755 189.375 39.8106 189.694 39.68L208.315 32.1133V32.1127C208.53 32.0262 208.732 31.8851 208.887 31.6587L208.888 31.6593C208.888 31.6593 208.889 31.6575 208.889 31.6564C208.89 31.6558 208.89 31.6558 208.891 31.6546H208.89C209.037 31.4323 209.097 31.1983 209.098 30.9759C209.099 30.7605 209.039 30.5523 208.949 30.3849L208.946 30.3797V30.3802C208.918 30.3299 208.881 30.2761 208.839 30.2229V26.2019C209.004 25.9649 209.103 25.6788 209.103 25.3734C209.104 25.1885 209.065 25.0089 208.999 24.841C209.065 24.683 209.097 24.5221 209.098 24.3681C209.099 24.1522 209.039 23.9452 208.949 23.7766L208.946 23.7713C208.918 23.7216 208.881 23.6677 208.839 23.6144V19.5941C209.004 19.3568 209.103 19.0712 209.103 18.7664ZM187.585 38.0087L173.729 32.2896L173.677 32.2288C173.634 32.1615 173.578 32.0334 173.534 31.8742C173.465 31.6361 173.417 31.326 173.389 31.0123C173.36 30.6993 173.35 30.384 173.35 30.1195V30.0569C173.352 29.8527 173.36 29.2617 173.444 28.7058C173.484 28.4284 173.546 28.161 173.621 27.9715L173.637 27.937L187.585 33.5951V38.0087H187.585ZM187.585 31.4008L174.977 26.1957L173.729 25.682L173.677 25.6211C173.634 25.5532 173.578 25.4257 173.534 25.2671C173.465 25.0277 173.417 24.7182 173.389 24.4047C173.36 24.0916 173.35 23.7763 173.35 23.5123V23.4491C173.352 23.2444 173.36 22.654 173.444 22.0975C173.484 21.8207 173.546 21.5527 173.622 21.3637L173.637 21.3292L187.585 26.9873V31.4008H187.585ZM187.585 20.8477V21.1156V24.9019L174.843 19.6411L173.729 19.1829L173.677 19.1215C173.634 19.0542 173.578 18.9261 173.534 18.7682C173.465 18.5293 173.417 18.2199 173.389 17.9056C173.36 17.592 173.35 17.2772 173.35 17.0134V16.9502C173.352 16.746 173.36 16.155 173.444 15.5991C173.484 15.3217 173.546 15.0544 173.622 14.8647L173.637 14.8308L187.585 20.4884V20.8477H187.585ZM207.337 30.8907L189.178 38.2684L189.13 38.29C188.99 38.345 188.844 38.3737 188.698 38.3737C188.646 38.3737 188.592 38.3661 188.541 38.3579V33.8893C188.609 33.897 188.68 33.9011 188.749 33.9011C189.022 33.9011 189.296 33.8472 189.552 33.7419L189.569 33.7344L207.337 26.4824V30.8907H207.337ZM207.337 24.2578V24.2823L189.178 31.6607L189.13 31.6818C188.99 31.7374 188.844 31.7654 188.698 31.7654C188.646 31.7654 188.592 31.7579 188.541 31.7508V27.2817C188.609 27.2892 188.68 27.2934 188.749 27.2934C189.022 27.2934 189.296 27.2395 189.552 27.1348L189.569 27.1266L202.031 22.0407L207.337 19.8745V24.2578ZM207.337 17.65V17.784L189.178 25.1618L189.13 25.1828C188.99 25.2384 188.844 25.2671 188.698 25.2671C188.646 25.2671 188.592 25.2594 188.541 25.2519V21.1666V20.7822C188.609 20.7904 188.68 20.7938 188.749 20.7938C189.022 20.7938 189.296 20.7406 189.552 20.6359L189.569 20.6283L207.337 13.3758V17.65H207.337Z" fill="white"/>
</svg>
