<svg width="217" height="71" viewBox="0 0 217 71" fill="none" xmlns="http://www.w3.org/2000/svg">
<rect x="33.1167" width="182.526" height="45" rx="8" fill="#376AED"/>
<path d="M53.8221 21.8105H60.536V22.4697H58.8759V28.5L56.2147 27.9141C55.1405 28.4512 53.9442 28.7197 52.6259 28.7197C50.9657 28.7197 49.4846 28.2803 48.1825 27.4014C46.1643 26.0179 45.1552 23.9183 45.1552 21.1025C45.1552 18.8239 45.8632 16.9928 47.2792 15.6094C48.6789 14.2747 50.4449 13.6074 52.577 13.6074C53.7815 13.6074 54.9289 13.8516 56.0194 14.3398L58.2655 13.876L58.3632 18.9053H57.6552C57.4598 18.0752 57.2238 17.359 56.9471 16.7568C56.1659 15.1455 54.8719 14.3398 53.0653 14.3398C50.0542 14.3561 48.5406 16.6429 48.5243 21.2002C48.5243 22.4046 48.6219 23.4463 48.8173 24.3252C49.3544 26.7666 50.7297 27.9873 52.9432 27.9873C54.1639 27.9873 55.1649 27.6048 55.9462 26.8398V22.4697H53.8221V21.8105ZM68.6659 28.5H61.7567V27.8408H63.7098V14.5107H61.7567V13.8516H69.618C70.9038 13.8516 71.9943 14.1527 72.8895 14.7549C73.9637 15.4873 74.5009 16.4639 74.5009 17.6846C74.5009 18.0915 74.4358 18.4984 74.3055 18.9053C73.8498 20.2236 72.7919 21.1025 71.1317 21.542L74.9647 27.8652H75.4774C75.5751 27.8652 75.6727 27.8734 75.7704 27.8896C75.982 27.9385 76.0878 28.1419 76.0878 28.5L71.9862 28.5244L68.2753 21.8105H66.7128V27.8408H68.6659V28.5ZM68.3973 14.5107H66.7128V21.0781H68.5438C69.1135 21.0781 69.618 20.9235 70.0575 20.6143C70.8876 20.012 71.3026 19.0599 71.3026 17.7578C71.3026 17.2533 71.2212 16.7812 71.0585 16.3418C70.6027 15.1211 69.7157 14.5107 68.3973 14.5107ZM91.6151 28.5H85.4872V27.8408H87.1718L85.3407 23.1533H80.4091L78.6268 27.8408H79.9208C80.0184 27.8408 80.108 27.849 80.1893 27.8652C80.4172 27.9141 80.5311 28.1257 80.5311 28.5H76.0878V27.8408H77.6503L83.0214 13.8516H84.535L90.2479 27.8408H91.0048C91.1187 27.8408 91.2082 27.849 91.2733 27.8652C91.5012 27.9141 91.6151 28.1257 91.6151 28.5ZM85.0477 22.4209L82.8505 16.708L80.6776 22.4209H85.0477ZM110.878 13.8516V14.5107H108.925V27.8408H110.219C110.56 27.8734 110.78 28.0931 110.878 28.5H104.115V27.8408H106.068V16.1953L100.697 28.6953H100.233L94.9843 18.2461V27.8408H96.2782C96.62 27.8734 96.8397 28.0931 96.9374 28.5H92.0057V27.8408H93.9589V14.5107H92.0057V13.8516H96.1073L101.405 24.8379L106.068 13.8516H110.878ZM130.556 13.8516V14.5107H128.602V27.8408H129.896C130.238 27.8734 130.458 28.0931 130.556 28.5H123.793V27.8408H125.746V16.1953L120.375 28.6953H119.911L114.662 18.2461V27.8408H115.956C116.298 27.8734 116.517 28.0931 116.615 28.5H111.683V27.8408H113.637V14.5107H111.683V13.8516H115.785L121.083 24.8379L125.746 13.8516H130.556ZM146.498 28.5H140.37V27.8408H142.055L140.224 23.1533H135.292L133.51 27.8408H134.804C134.901 27.8408 134.991 27.849 135.072 27.8652C135.3 27.9141 135.414 28.1257 135.414 28.5H130.971V27.8408H132.533L137.904 13.8516H139.418L145.131 27.8408H145.888C146.002 27.8408 146.091 27.849 146.156 27.8652C146.384 27.9141 146.498 28.1257 146.498 28.5ZM139.931 22.4209L137.733 16.708L135.56 22.4209H139.931ZM154.042 28.5H147.133V27.8408H149.086V14.5107H147.133V13.8516H154.994C156.28 13.8516 157.37 14.1527 158.266 14.7549C159.34 15.4873 159.877 16.4639 159.877 17.6846C159.877 18.0915 159.812 18.4984 159.682 18.9053C159.226 20.2236 158.168 21.1025 156.508 21.542L160.341 27.8652H160.853C160.951 27.8652 161.049 27.8734 161.146 27.8896C161.358 27.9385 161.464 28.1419 161.464 28.5L157.362 28.5244L153.651 21.8105H152.089V27.8408H154.042V28.5ZM153.773 14.5107H152.089V21.0781H153.92C154.489 21.0781 154.994 20.9235 155.433 20.6143C156.264 20.012 156.679 19.0599 156.679 17.7578C156.679 17.2533 156.597 16.7812 156.434 16.3418C155.979 15.1211 155.092 14.5107 153.773 14.5107Z" fill="white"/>
<path d="M104.608 68.6605C102.792 69.6371 100.877 70.1351 98.8657 70.1547C96.0728 70.1547 93.8169 69.2465 92.0981 67.4301C90.4771 65.7113 89.6665 63.5824 89.6665 61.0433C89.6665 58.934 90.272 57.059 91.4829 55.4183C93.1821 53.1332 95.6431 51.9906 98.8657 51.9906C100.995 51.9906 102.87 52.4886 104.491 53.4847C104.491 53.1136 104.51 52.8304 104.549 52.6351C104.647 52.3031 104.94 52.1371 105.428 52.1371L105.516 57.7914H104.579C104.403 57.1664 104.208 56.6 103.993 56.0922C103.016 53.9242 101.424 52.8402 99.2173 52.8402C98.5337 52.8402 97.8989 52.9476 97.313 53.1625C94.9302 54.1 93.7388 56.7074 93.7388 60.9847C93.7583 66.4926 95.5259 69.266 99.0415 69.3051C99.3735 69.3051 99.7056 69.2855 100.038 69.2465C102.342 68.9144 103.905 67.2738 104.725 64.3246H105.604V70.0082C105.389 70.0082 105.213 69.9886 105.077 69.9496C104.745 69.8519 104.588 69.4222 104.608 68.6605ZM115.477 69.8617H107.186V69.0707H109.53V53.0746H107.186V52.2836H115.477V53.0746H113.133V60.3695H121.073V53.0746H118.729V52.2836H126.991V53.0746H124.676V69.0707H126.229C126.581 69.1097 126.834 69.3734 126.991 69.8617H118.729V69.0707H121.073V61.2484H113.133V69.0707H114.686C115.096 69.1097 115.36 69.3734 115.477 69.8617ZM142.958 57.7914H142.196L141.639 55.975C141.581 55.7797 141.512 55.5941 141.434 55.4183C140.809 53.8558 139.745 53.0746 138.241 53.0746H134.491V60.3695H140.262V61.2484H134.491V69.0707H138.241C138.631 69.0707 138.993 69.0219 139.325 68.9242C140.34 68.6117 141.102 67.6937 141.61 66.1703L142.196 64.3539H142.958L142.84 69.8617H128.543V69.0707H130.887V53.0746H128.543V52.2836H142.84L142.958 57.7914ZM160.331 68.6605C158.514 69.6371 156.6 70.1351 154.588 70.1547C151.795 70.1547 149.54 69.2465 147.821 67.4301C146.2 65.7113 145.389 63.5824 145.389 61.0433C145.389 58.934 145.995 57.059 147.206 55.4183C148.905 53.1332 151.366 51.9906 154.588 51.9906C156.717 51.9906 158.592 52.4886 160.213 53.4847C160.213 53.1136 160.233 52.8304 160.272 52.6351C160.37 52.3031 160.663 52.1371 161.151 52.1371L161.239 57.7914H160.301C160.125 57.1664 159.93 56.6 159.715 56.0922C158.739 53.9242 157.147 52.8402 154.94 52.8402C154.256 52.8402 153.622 52.9476 153.036 53.1625C150.653 54.1 149.461 56.7074 149.461 60.9847C149.481 66.4926 151.249 69.266 154.764 69.3051C155.096 69.3051 155.428 69.2855 155.76 69.2465C158.065 68.9144 159.627 67.2738 160.448 64.3246H161.327V70.0082C161.112 70.0082 160.936 69.9886 160.799 69.9496C160.467 69.8519 160.311 69.4222 160.331 68.6605ZM171.2 69.8617H162.909V69.0707H165.252V53.0746H162.909V52.2836H171.2V53.0746H168.856V60.7504L177.293 53.0746H174.95V52.2836H180.34C180.301 52.6547 180.038 52.9183 179.549 53.0746C179.413 53.0746 179.266 53.0941 179.11 53.1332C178.7 53.2113 178.094 53.6312 177.293 54.3929L172.577 58.6996L179.901 69.0707H180.34C180.75 69.1097 181.014 69.3734 181.131 69.8617L176.004 69.891L169.999 61.0726L168.856 62.098V69.0707H170.409C170.819 69.1097 171.083 69.3734 171.2 69.8617ZM196.307 57.7914H195.545L194.989 55.975C194.93 55.7797 194.862 55.5941 194.784 55.4183C194.159 53.8558 193.094 53.0746 191.59 53.0746H187.84V60.3695H193.612V61.2484H187.84V69.0707H191.59C191.981 69.0707 192.342 69.0219 192.674 68.9242C193.69 68.6117 194.452 67.6937 194.959 66.1703L195.545 64.3539H196.307L196.19 69.8617H181.893V69.0707H184.237V53.0746H181.893V52.2836H196.19L196.307 57.7914ZM206.737 69.8617H198.446V69.0707H200.79V53.0746H198.446V52.2836H207.879C209.422 52.2836 210.731 52.6449 211.805 53.3676C213.094 54.2465 213.739 55.4183 213.739 56.8832C213.739 57.3715 213.661 57.8597 213.504 58.348C212.958 59.9301 211.688 60.9847 209.696 61.5121L214.295 69.1H214.911C215.028 69.1 215.145 69.1097 215.262 69.1293C215.516 69.1879 215.643 69.432 215.643 69.8617L210.721 69.891L206.268 61.8344H204.393V69.0707H206.737V69.8617ZM206.415 53.0746H204.393V60.9554H206.59C207.274 60.9554 207.879 60.7699 208.407 60.3988C209.403 59.6761 209.901 58.5336 209.901 56.9711C209.901 56.3656 209.803 55.7992 209.608 55.2719C209.061 53.807 207.997 53.0746 206.415 53.0746Z" fill="#376AED"/>
<path d="M19.2128 30.5H11.8593V29.709H13.8807L11.6835 24.084H5.7655L3.62683 29.709H5.17957C5.29675 29.709 5.40417 29.7188 5.50183 29.7383C5.77527 29.7969 5.91199 30.0508 5.91199 30.5H0.579956V29.709H2.45496L8.90027 12.9219H10.7167L17.5721 29.709H18.4803C18.6171 29.709 18.7245 29.7188 18.8026 29.7383C19.076 29.7969 19.2128 30.0508 19.2128 30.5ZM11.3319 23.2051L8.69519 16.3496L6.08777 23.2051H11.3319ZM26.3319 29.7383C26.4296 29.7383 26.5175 29.748 26.5956 29.7676C26.8885 29.8066 27.035 30.0508 27.035 30.5H20.0038V29.7383C20.3944 29.7383 20.7069 29.709 20.9413 29.6504C21.5858 29.4941 21.9081 28.9961 21.9081 28.1562V18.6934H20.0038V17.9609H25.1307V29.7383H26.3319ZM25.4237 13.9766C25.4237 14.3086 25.3456 14.6211 25.1893 14.9141C24.8182 15.5977 24.2323 15.9395 23.4315 15.9395C23.119 15.9395 22.8163 15.8711 22.5233 15.7344C21.8007 15.3828 21.4393 14.7969 21.4393 13.9766C21.4393 13.6641 21.5175 13.3516 21.6737 13.0391C22.0448 12.3164 22.6307 11.9551 23.4315 11.9551C23.744 11.9551 24.0468 12.0332 24.3397 12.1895C25.0624 12.5801 25.4237 13.1758 25.4237 13.9766Z" fill="#386BEE"/>
<path d="M204.951 18.7664C204.951 18.6009 204.919 18.4405 204.867 18.2884C204.918 18.148 204.945 18.0064 204.945 17.8695C204.947 17.6541 204.887 17.4458 204.796 17.2785L204.793 17.2732C204.766 17.2229 204.728 17.1697 204.687 17.1164V13.0949C204.852 12.8579 204.95 12.573 204.951 12.267C204.951 11.6749 204.594 11.143 204.048 10.9189L190.56 5.28365H190.521C190.238 5.18418 189.944 5.12451 189.646 5.12451C189.356 5.12451 189.064 5.18127 188.784 5.27775H188.749L168.981 13.2435L168.932 13.271L168.933 13.2727C168.681 13.4055 168.494 13.5899 168.365 13.7683C168.14 14.0813 168.025 14.4114 167.941 14.7109L167.941 14.715C167.815 15.1802 167.762 15.6523 167.73 16.052L167.73 16.0555C167.7 16.4569 167.698 16.7963 167.696 16.9356V16.9391V17.0135C167.696 17.5008 167.723 18.1345 167.834 18.7442L167.836 18.7507C167.895 19.0573 167.977 19.3685 168.118 19.6717L168.12 19.6763L168.12 19.6775C168.192 19.8267 168.285 19.9864 168.414 20.1386L168.417 20.1421C168.426 20.1532 168.439 20.1632 168.45 20.1737C168.423 20.2053 168.388 20.2357 168.366 20.2679C168.14 20.5803 168.025 20.9104 167.941 21.2093L167.941 21.2122V21.2134C167.815 21.6786 167.762 22.1513 167.73 22.5509L167.73 22.5538C167.7 22.9559 167.698 23.2947 167.696 23.4345V23.4374V23.5123C167.696 24.0003 167.723 24.634 167.835 25.2443L167.836 25.2489C167.895 25.5562 167.977 25.868 168.118 26.1711L168.12 26.1763C168.191 26.3244 168.284 26.4841 168.414 26.6379L168.416 26.6415C168.44 26.6696 168.474 26.6948 168.502 26.7228C168.456 26.7737 168.402 26.8241 168.365 26.8749C168.14 27.1879 168.025 27.518 167.941 27.8163L167.94 27.8246L167.941 27.821C167.815 28.2862 167.762 28.759 167.73 29.1586L167.73 29.1621C167.7 29.5635 167.698 29.9028 167.696 30.0433V30.0468V30.1193C167.696 30.6078 167.723 31.2421 167.835 31.8525L167.836 31.8571C167.895 32.1638 167.977 32.4756 168.118 32.7781L168.12 32.7839C168.191 32.9326 168.284 33.0917 168.414 33.2456L168.404 33.2351L168.417 33.2497C168.54 33.393 168.71 33.5317 168.922 33.6353L168.919 33.6388L168.923 33.6411L168.953 33.658L183.502 39.6625L183.535 39.6765C183.858 39.8082 184.201 39.8755 184.545 39.8755C184.884 39.8755 185.222 39.8106 185.542 39.68L204.163 32.1133V32.1127C204.377 32.0262 204.58 31.8851 204.735 31.6587L204.735 31.6593C204.735 31.6593 204.736 31.6575 204.737 31.6564C204.737 31.6558 204.738 31.6558 204.738 31.6546H204.738C204.885 31.4323 204.944 31.1983 204.945 30.9759C204.947 30.7605 204.887 30.5523 204.796 30.3849L204.793 30.3797V30.3802C204.766 30.3299 204.728 30.2761 204.687 30.2229V26.2019C204.852 25.9649 204.95 25.6788 204.951 25.3734C204.951 25.1885 204.912 25.0089 204.846 24.841C204.913 24.683 204.945 24.5221 204.945 24.3681C204.947 24.1522 204.887 23.9452 204.796 23.7766L204.793 23.7713C204.766 23.7216 204.728 23.6677 204.687 23.6144V19.5941C204.852 19.3568 204.95 19.0712 204.951 18.7664ZM183.432 38.0087L169.577 32.2896L169.525 32.2288C169.481 32.1615 169.426 32.0334 169.381 31.8742C169.312 31.6361 169.265 31.326 169.236 31.0123C169.207 30.6993 169.197 30.384 169.197 30.1195V30.0569C169.2 29.8527 169.207 29.2617 169.292 28.7058C169.331 28.4284 169.393 28.161 169.469 27.9715L169.485 27.937L183.432 33.5951V38.0087H183.432ZM183.432 31.4008L170.825 26.1957L169.577 25.682L169.525 25.6211C169.481 25.5532 169.426 25.4257 169.381 25.2671C169.312 25.0277 169.265 24.7182 169.236 24.4047C169.208 24.0916 169.198 23.7763 169.198 23.5123V23.4491C169.2 23.2444 169.207 22.654 169.292 22.0975C169.332 21.8207 169.393 21.5527 169.469 21.3637L169.485 21.3292L183.432 26.9873V31.4008H183.432ZM183.432 20.8477V21.1156V24.9019L170.691 19.6411L169.577 19.1829L169.525 19.1215C169.481 19.0542 169.426 18.9261 169.381 18.7682C169.312 18.5293 169.265 18.2199 169.236 17.9056C169.208 17.592 169.198 17.2772 169.198 17.0134V16.9502C169.2 16.746 169.207 16.155 169.292 15.5991C169.332 15.3217 169.393 15.0544 169.469 14.8647L169.485 14.8308L183.432 20.4884V20.8477H183.432ZM203.185 30.8907L185.025 38.2684L184.977 38.29C184.837 38.345 184.691 38.3737 184.545 38.3737C184.493 38.3737 184.44 38.3661 184.388 38.3579V33.8893C184.457 33.897 184.528 33.9011 184.596 33.9011C184.869 33.9011 185.143 33.8472 185.399 33.7419L185.416 33.7344L203.185 26.4824V30.8907H203.185ZM203.185 24.2578V24.2823L185.025 31.6607L184.977 31.6818C184.837 31.7374 184.691 31.7654 184.545 31.7654C184.493 31.7654 184.44 31.7579 184.388 31.7508V27.2817C184.457 27.2892 184.528 27.2934 184.596 27.2934C184.869 27.2934 185.143 27.2395 185.399 27.1348L185.416 27.1266L197.879 22.0407L203.185 19.8745V24.2578ZM203.185 17.65V17.784L185.025 25.1618L184.977 25.1828C184.837 25.2384 184.691 25.2671 184.545 25.2671C184.493 25.2671 184.44 25.2594 184.388 25.2519V21.1666V20.7822C184.457 20.7904 184.528 20.7938 184.596 20.7938C184.869 20.7938 185.143 20.7406 185.399 20.6359L185.416 20.6283L203.185 13.3758V17.65H203.185Z" fill="white"/>
</svg>
