<svg width="341" height="279" viewBox="0 0 341 279" fill="none" xmlns="http://www.w3.org/2000/svg">
<g clip-path="url(#clip0_25_644)">
<path d="M154.928 26.3286C86.3578 36.0004 14.091 135.698 37.975 190.829C61.859 245.959 279.842 262.741 305.563 188.527C331.275 114.313 257.795 11.8326 154.928 26.3286Z" fill="#FFE7D4"/>
<path d="M295.181 69.0912C295.181 69.8164 294.59 70.3997 293.865 70.3997C293.14 70.3997 292.548 69.8085 292.548 69.0912C292.548 68.366 293.14 67.7827 293.865 67.7827C294.598 67.7827 295.181 68.366 295.181 69.0912Z" fill="#FFE7D4"/>
<path d="M326.885 150.683C326.885 151.408 326.294 152 325.568 152C324.843 152 324.252 151.408 324.252 150.683C324.252 149.958 324.843 149.375 325.568 149.375C326.294 149.375 326.885 149.958 326.885 150.683Z" fill="#FFE7D4"/>
<path d="M285.896 26.1159C285.896 26.8411 285.304 27.4244 284.579 27.4244C283.854 27.4244 283.271 26.8332 283.271 26.1159C283.271 25.3907 283.862 24.7996 284.579 24.7996C285.312 24.7996 285.896 25.3907 285.896 26.1159Z" fill="#FFE7D4"/>
<path d="M74.6049 43.544C75.3275 43.544 75.9134 42.9582 75.9134 42.2355C75.9134 41.5128 75.3275 40.927 74.6049 40.927C73.8822 40.927 73.2964 41.5128 73.2964 42.2355C73.2964 42.9582 73.8822 43.544 74.6049 43.544Z" fill="#FFE7D4"/>
<path d="M139.51 20.472C140.232 20.472 140.818 19.8861 140.818 19.1635C140.818 18.4408 140.232 17.855 139.51 17.855C138.787 17.855 138.201 18.4408 138.201 19.1635C138.201 19.8861 138.787 20.472 139.51 20.472Z" fill="#FFE7D4"/>
<path d="M15.6122 158.061C15.6122 158.786 15.021 159.378 14.2958 159.378C13.5706 159.378 12.9873 158.786 12.9873 158.061C12.9873 157.336 13.5785 156.753 14.2958 156.753C15.0289 156.745 15.6122 157.336 15.6122 158.061Z" fill="#FFE7D4"/>
<path d="M316.101 64.5746C317.137 64.5746 317.977 63.7347 317.977 62.6985C317.977 61.6624 317.137 60.8225 316.101 60.8225C315.065 60.8225 314.225 61.6624 314.225 62.6985C314.225 63.7347 315.065 64.5746 316.101 64.5746Z" fill="#FFE7D4"/>
<path d="M271.628 42.7952C271.628 43.8278 270.793 44.6713 269.752 44.6713C268.72 44.6713 267.876 43.8357 267.876 42.7952C267.876 41.7626 268.712 40.9192 269.752 40.9192C270.785 40.9192 271.628 41.7626 271.628 42.7952Z" fill="#FFE7D4"/>
<path d="M120.182 30.4276C121.218 30.4276 122.058 29.5877 122.058 28.5516C122.058 27.5155 121.218 26.6755 120.182 26.6755C119.145 26.6755 118.306 27.5155 118.306 28.5516C118.306 29.5877 119.145 30.4276 120.182 30.4276Z" fill="#FFE7D4"/>
<path d="M31.4719 91.0048C32.508 91.0048 33.3479 90.1648 33.3479 89.1287C33.3479 88.0926 32.508 87.2527 31.4719 87.2527C30.4358 87.2527 29.5958 88.0926 29.5958 89.1287C29.5958 90.1648 30.4358 91.0048 31.4719 91.0048Z" fill="#FFE7D4"/>
<path d="M1.89667 175.048C2.93277 175.048 3.77271 174.208 3.77271 173.172C3.77271 172.136 2.93277 171.296 1.89667 171.296C0.860561 171.296 0.0206299 172.136 0.0206299 173.172C0.0206299 174.208 0.860561 175.048 1.89667 175.048Z" fill="#FFE7D4"/>
<path d="M301.211 79.3621C302.557 79.3621 303.647 78.2716 303.647 76.9264C303.647 75.5812 302.557 74.4907 301.211 74.4907C299.866 74.4907 298.776 75.5812 298.776 76.9264C298.776 78.2716 299.866 79.3621 301.211 79.3621Z" fill="#FFE7D4"/>
<path d="M332.213 147.735C333.558 147.735 334.649 146.645 334.649 145.299C334.649 143.954 333.558 142.864 332.213 142.864C330.868 142.864 329.778 143.954 329.778 145.299C329.778 146.645 330.868 147.735 332.213 147.735Z" fill="#FFE7D4"/>
<path d="M253.089 28.5516C254.434 28.5516 255.524 27.4611 255.524 26.1159C255.524 24.7707 254.434 23.6802 253.089 23.6802C251.743 23.6802 250.653 24.7707 250.653 26.1159C250.653 27.4611 251.743 28.5516 253.089 28.5516Z" fill="#FFE7D4"/>
<path d="M109.879 21.5992C111.224 21.5992 112.315 20.5087 112.315 19.1635C112.315 17.8183 111.224 16.7278 109.879 16.7278C108.534 16.7278 107.443 17.8183 107.443 19.1635C107.443 20.5087 108.534 21.5992 109.879 21.5992Z" fill="#FFE7D4"/>
<path d="M15.4309 81.0411C16.7761 81.0411 17.8666 79.9506 17.8666 78.6054C17.8666 77.2602 16.7761 76.1697 15.4309 76.1697C14.0857 76.1697 12.9952 77.2602 12.9952 78.6054C12.9952 79.9506 14.0857 81.0411 15.4309 81.0411Z" fill="#FFE7D4"/>
<path d="M81.7622 218.764C80.1384 223.494 66.7618 232.157 51.8875 232.827C39.1966 233.402 21.6186 223.494 21.0748 219.718C20.9013 218.496 22.0443 214.453 23.6681 209.526C24.0543 208.351 24.48 207.122 24.9135 205.876C25.1658 205.135 25.4259 204.394 25.6939 203.638C28.9336 194.502 32.6778 184.972 32.6778 184.972H69.8911C69.8911 184.972 74.0137 193.848 77.4347 202.605C77.7264 203.354 78.018 204.095 78.2939 204.836C78.8299 206.255 79.3344 207.658 79.7837 208.99C81.3208 213.522 82.2667 217.306 81.7622 218.764Z" fill="#1C313F"/>
<path d="M29.9899 182.528C23.6524 191.53 77.7028 192.468 73.0915 182.528C70.1198 176.128 34.349 176.341 29.9899 182.528Z" fill="#FFB717"/>
<path d="M34.6405 181.693C29.6746 187.352 71.9958 187.944 68.3856 181.693C66.0602 177.665 38.0537 177.799 34.6405 181.693Z" fill="#C64B5D"/>
<path d="M81.7622 218.764C80.1384 223.494 66.7618 232.157 51.8875 232.827C39.1966 233.402 21.6186 223.494 21.0748 219.718C20.9013 218.496 22.0443 214.452 23.6681 209.526C32.4177 214.098 42.326 216.462 52.1949 216.297C61.8037 216.139 71.3494 213.585 79.7837 208.982C81.3208 213.522 82.2667 217.306 81.7622 218.764Z" fill="#2C4B63"/>
<path d="M78.2939 204.836C76.0947 205.663 73.8481 206.389 71.578 207.019C56.3647 211.205 39.8982 210.858 24.9214 205.876C25.1736 205.135 25.4338 204.394 25.7018 203.638C28.6892 204.631 31.7476 205.443 34.8376 206.05C48.9867 208.872 63.9319 207.673 77.4426 202.605C77.7342 203.346 78.018 204.095 78.2939 204.836Z" fill="#2C4B63"/>
<path d="M292.288 225.291C311.6 225.291 327.255 221.73 327.255 217.338C327.255 212.945 311.6 209.384 292.288 209.384C272.977 209.384 257.322 212.945 257.322 217.338C257.322 221.73 272.977 225.291 292.288 225.291Z" fill="#1C313F"/>
<path d="M323.519 209.093H261.058L257.479 216.581L326.916 216.234L323.519 209.093Z" fill="#1C313F"/>
<path d="M292.288 216.802C309.593 216.802 323.621 213.611 323.621 209.676C323.621 205.74 309.593 202.55 292.288 202.55C274.984 202.55 260.955 205.74 260.955 209.676C260.955 213.611 274.984 216.802 292.288 216.802Z" fill="#2C4B63"/>
<path d="M292.635 213.909C228.692 212.923 280.126 141.342 280.126 141.342H306.753C306.753 141.342 353.756 214.855 292.635 213.909Z" fill="#B0D2F7"/>
<path d="M292.485 204.828C305.572 204.828 316.18 195.141 316.18 183.191C316.18 171.241 305.572 161.553 292.485 161.553C279.399 161.553 268.791 171.241 268.791 183.191C268.791 195.141 279.399 204.828 292.485 204.828Z" fill="#D2EAFF"/>
<path d="M304.356 208.88C304.356 211.686 298.957 212.852 292.296 212.852C285.635 212.852 280.236 211.686 280.236 208.88C280.236 206.073 285.635 202.692 292.296 202.692C298.949 202.692 304.356 206.073 304.356 208.88Z" fill="#FF971A"/>
<path d="M286.589 205.333C286.589 205.333 284.429 190.34 285.328 189.229C286.235 188.125 296.395 187.873 297.152 188.827C297.909 189.78 297.451 205.333 297.451 205.333C293.029 206.996 286.589 205.333 286.589 205.333Z" fill="#FFB717"/>
<path d="M287.732 192.074C286.211 192.074 286.211 194.439 287.732 194.439C289.254 194.439 289.254 192.074 287.732 192.074Z" fill="#FF971A"/>
<path d="M291.555 195.464C290.034 195.464 290.034 197.828 291.555 197.828C293.077 197.828 293.085 195.464 291.555 195.464Z" fill="#FF971A"/>
<path d="M288.371 198.853C286.849 198.853 286.849 201.218 288.371 201.218C289.892 201.218 289.892 198.853 288.371 198.853Z" fill="#FF971A"/>
<path d="M291.721 201.935C290.2 201.935 290.2 204.3 291.721 204.3C293.242 204.3 293.25 201.935 291.721 201.935Z" fill="#FF971A"/>
<path d="M294.976 198.483C293.455 198.483 293.455 200.847 294.976 200.847C296.498 200.847 296.505 198.483 294.976 198.483Z" fill="#FF971A"/>
<path d="M294.74 191.27C293.218 191.27 293.218 193.635 294.74 193.635C296.261 193.635 296.269 191.27 294.74 191.27Z" fill="#FF971A"/>
<path d="M274.679 141.342C271.179 148.271 316.976 149.745 312.94 142.217C310.245 137.18 276.807 137.125 274.679 141.342Z" fill="#1C313F"/>
<path d="M272.204 135.698L274.521 142.383L313.138 143.526L315.479 136.755L272.204 135.698Z" fill="#1C313F"/>
<path d="M272.416 134.414C268.507 142.154 319.712 143.81 315.203 135.391C312.176 129.763 274.797 129.7 272.416 134.414Z" fill="#527FA8"/>
<path d="M281.544 141.256C260.545 159.212 251.835 188.298 259.678 214.831C260.317 217.007 263.817 216.352 263.17 214.153C255.674 188.795 263.746 161.151 283.854 143.959C285.596 142.47 283.286 139.766 281.544 141.256Z" fill="#1C313F"/>
<path d="M304.585 141.256C325.584 159.212 334.294 188.298 326.451 214.831C325.813 217.007 322.313 216.352 322.959 214.153C330.455 188.795 322.384 161.151 302.275 143.959C300.533 142.47 302.843 139.766 304.585 141.256Z" fill="#1C313F"/>
<path d="M293.486 120.414C288.292 120.414 275.128 125.506 275.428 131.41C275.727 137.314 285.864 139.025 293.486 139.025C301.101 139.025 311.238 137.307 311.545 131.41C311.845 125.506 298.681 120.414 293.486 120.414Z" fill="#2C4B63"/>
<path d="M300.321 120.588C300.321 123.906 297.42 125.388 293.841 125.388C290.262 125.388 287.362 123.914 287.362 120.588C287.362 117.261 290.262 113.359 293.841 113.359C297.42 113.352 300.321 117.261 300.321 120.588Z" fill="#527FA8"/>
<path d="M316.614 217.913C315.077 212.23 311.837 207.208 307.99 202.81C303.773 198.002 298.807 193.95 293.999 189.765C291.437 187.534 288.907 185.248 286.55 182.796C293.329 176.325 301.054 170.618 305.357 162.113C308.108 156.666 309.165 150.045 306.816 144.267C306.627 143.802 305.862 144.007 306.051 144.479C308.195 149.737 307.446 155.736 305.113 160.804C302.78 165.881 298.988 170.113 294.992 173.952C292.052 176.766 288.954 179.423 286.006 182.229C284.256 180.361 282.616 178.398 281.158 176.278C277.926 171.595 275.562 166.149 275.428 160.386C275.309 155.239 276.862 149.879 280.472 146.103C280.914 145.638 281.395 145.205 281.883 144.787C282.278 144.464 281.71 143.904 281.324 144.227C277.272 147.577 275.136 152.677 274.71 157.84C274.237 163.468 275.901 168.986 278.683 173.834C280.551 177.089 282.877 180.03 285.438 182.765C284.351 183.813 283.294 184.893 282.278 186.005C278.612 190.033 275.609 194.636 273.433 199.633C270.998 205.222 269.571 211.221 269.287 217.314C269.263 217.818 270.052 217.818 270.075 217.314C270.596 206.286 274.939 195.519 282.238 187.234C283.428 185.886 284.69 184.594 285.982 183.34C287.472 184.893 289.025 186.383 290.617 187.818C295.504 192.24 300.723 196.315 305.31 201.06C309.472 205.364 313.201 210.306 315.203 216.005C315.447 216.699 315.66 217.401 315.857 218.11C315.983 218.607 316.748 218.402 316.614 217.913Z" fill="#1C313F"/>
<path d="M286.447 101.63C289.198 99.2892 293.408 98.6743 296.655 100.298C299.729 101.835 301.842 105.075 302.189 108.48C302.512 111.633 301.408 114.707 299.493 117.151C299.611 117.403 299.714 117.663 299.792 117.939C299.871 118.105 299.934 118.278 299.982 118.452C300.005 118.57 300.021 118.696 300.037 118.814C302.362 116.221 303.813 112.816 303.726 109.308C303.631 105.445 301.598 101.662 298.342 99.5572C294.897 97.3343 290.278 97.4368 286.818 99.5572C283.381 101.662 281.363 105.698 281.521 109.694C281.702 114.148 284.611 118.191 288.654 119.989C289.514 120.375 290.27 119.098 289.403 118.712C286.266 117.316 283.862 114.526 283.168 111.129C282.467 107.7 283.767 103.9 286.447 101.63Z" fill="#FF971A"/>
<path d="M323.771 117.845C323.771 117.845 323.96 117.592 324.307 117.127C326.83 113.746 337.526 99.1395 340.868 90.0036C340.892 89.9484 340.908 89.8854 340.931 89.8302C340.931 89.8302 340.837 89.7198 340.656 89.5149C339 87.6783 330.235 78.3454 323.093 78.4479C323.093 78.4479 315.329 93.5035 306.311 105.643C306.311 105.643 317.3 109.663 323.606 117.632C323.669 117.703 323.716 117.774 323.771 117.845Z" fill="#88B0E2"/>
<path d="M323.093 78.448C328.926 83.9342 328.067 94.4889 327.121 96.0812C326.175 97.6734 311.159 102.592 306.311 105.643C317.93 89.649 323.093 78.448 323.093 78.448Z" fill="#B0D2F7"/>
<path d="M323.771 117.845C323.771 117.845 323.96 117.592 324.307 117.127C324.575 116.221 324.82 115.299 325.048 114.376C325.797 111.263 326.27 108.07 326.459 104.878C326.648 101.772 326.562 98.6507 326.215 95.5528C327.373 95.3794 328.516 95.1508 329.652 94.8749C333.624 93.8817 337.432 92.2343 340.876 90.0114C340.9 89.9562 340.916 89.8932 340.939 89.838C340.939 89.838 340.845 89.7277 340.663 89.5227C339.859 90.043 339.032 90.5317 338.196 90.9967C334.373 93.0777 330.188 94.465 325.876 95.0799C325.726 95.1035 325.663 95.2612 325.679 95.3952C325.884 97.1687 326.002 98.9502 326.033 100.732C326.081 103.9 325.86 107.077 325.356 110.206C324.954 112.721 324.37 115.212 323.614 117.648C323.669 117.703 323.716 117.774 323.771 117.845Z" fill="#B0D2F7"/>
<path d="M328.587 96.9008C328.816 95.7736 329.044 94.5912 328.682 93.5034C328.548 93.1014 328.319 92.7073 327.965 92.4708C327.35 92.0609 326.459 92.2107 325.939 92.7388C325.419 93.259 325.253 94.0709 325.403 94.7961C324.804 94.7961 324.205 94.9617 323.787 95.3952C323.377 95.8287 323.196 96.4909 323.408 97.0427C323.566 97.4368 323.897 97.7363 324.268 97.9334C324.969 98.3039 325.821 98.3117 326.593 98.0989C327.365 97.8782 327.949 97.3816 328.587 96.9008Z" fill="#FFB717"/>
<path d="M60.0224 166.937C60.0224 166.937 59.5652 166.693 58.7376 166.243C52.6996 162.956 26.9395 148.626 15.7936 137.385C15.7227 137.314 15.6518 137.244 15.5808 137.173C15.5808 137.173 15.6439 136.944 15.7779 136.526C16.976 132.68 23.5973 112.91 34.2308 108.204C34.2308 108.204 55.9629 125.199 77.5531 137.023C77.5531 137.023 64.0346 150.439 60.1249 166.527C60.0934 166.653 60.0539 166.795 60.0224 166.937Z" fill="#88B0E2"/>
<path d="M34.2386 108.197C29.3436 120.28 37.7936 135.304 40.2687 137.015C42.7439 138.725 68.3068 135.785 77.5609 137.015C49.4913 121.258 34.2386 108.197 34.2386 108.197Z" fill="#B0D2F7"/>
<path d="M60.0224 166.937C60.0224 166.937 59.5652 166.693 58.7375 166.243C57.7207 165.085 56.7353 163.894 55.7737 162.672C52.5497 158.566 49.6805 154.175 47.2212 149.58C44.8328 145.11 42.8385 140.428 41.2462 135.62C39.4175 136.148 37.5651 136.597 35.6969 136.952C29.1387 138.189 22.3912 138.347 15.7857 137.385C15.7148 137.314 15.6438 137.243 15.5729 137.173C15.5729 137.173 15.6359 136.944 15.7699 136.526C17.3149 136.747 18.8678 136.912 20.4206 137.023C27.4912 137.496 34.6249 136.7 41.4196 134.682C41.6561 134.611 41.861 134.8 41.9241 135.013C42.8227 137.772 43.8553 140.491 45.0298 143.147C47.1108 147.869 49.6096 152.417 52.4788 156.705C54.7884 160.158 57.3423 163.437 60.1169 166.519C60.0933 166.653 60.0539 166.795 60.0224 166.937Z" fill="#B0D2F7"/>
<path d="M38.6608 139.23C37.5572 137.724 36.4064 136.124 36.2093 134.272C36.1305 133.578 36.2015 132.845 36.5641 132.254C37.1868 131.229 38.6135 130.851 39.7407 131.269C40.8679 131.686 41.664 132.774 41.932 133.941C42.8149 133.539 43.8238 133.373 44.7225 133.728C45.6211 134.083 46.3462 134.942 46.4014 135.911C46.4408 136.597 46.1571 137.275 45.7314 137.819C44.9432 138.844 43.6898 139.443 42.4129 139.648C41.1359 139.845 39.922 139.506 38.6608 139.23Z" fill="#FF971A"/>
<path d="M32.4572 64.3618C30.7625 70.1082 37.8094 73.1193 37.8094 73.1193L44.0287 67.3966L32.4572 64.3618Z" fill="#88B0E2"/>
<path d="M32.4572 64.3618C32.4572 64.3618 49.8539 54.1934 59.9592 45.7512C70.8686 46.7917 75.945 73.4819 87.5717 75.8624C84.3241 82.6571 61.3623 99.4784 61.3623 99.4784C51.9585 97.2792 45.3687 68.5474 32.4572 64.3618Z" fill="white"/>
<path d="M62.7024 50.2678C57.0506 56.0142 50.5791 60.9644 43.5479 64.8978" stroke="#6A96C6" stroke-miterlimit="10" stroke-linecap="round"/>
<path d="M66.7697 55.6675C60.9524 61.2246 54.4415 66.0487 47.426 69.99" stroke="#6A96C6" stroke-miterlimit="10" stroke-linecap="round"/>
<path d="M70.1671 61.5083C64.5863 66.9945 58.3118 71.7792 51.5486 75.7126" stroke="#6A96C6" stroke-miterlimit="10" stroke-linecap="round"/>
<path d="M73.998 67.231C68.2438 73.0561 61.6461 78.0458 54.473 81.987" stroke="#6A96C6" stroke-miterlimit="10" stroke-linecap="round"/>
<path d="M77.6161 72.6306C72.0037 78.5267 65.6425 83.6977 58.7217 87.9779" stroke="#6A96C6" stroke-miterlimit="10" stroke-linecap="round"/>
<path d="M317.363 53.618C313.942 57.8037 308.116 54.0831 308.116 54.0831L309.22 46.5396L317.363 53.618Z" fill="#88B0E2"/>
<path d="M317.363 53.618C317.363 53.618 316.101 35.4804 317.252 23.6645C310.93 16.0658 288.465 25.848 280.78 18.3911C277.367 24.2636 276.508 49.9212 276.508 49.9212C282.916 55.8173 307.683 46.1218 317.363 53.618Z" fill="#D2EAFF"/>
<path d="M312.491 23.9167C311.08 31.0504 310.686 38.3812 311.325 45.6252" stroke="#6A96C6" stroke-miterlimit="10" stroke-linecap="round"/>
<path d="M306.398 23.625C305.216 30.7823 304.932 38.0894 305.555 45.3177" stroke="#6A96C6" stroke-miterlimit="10" stroke-linecap="round"/>
<path d="M300.329 24.0664C299.075 31.0109 298.705 38.1209 299.209 45.16" stroke="#6A96C6" stroke-miterlimit="10" stroke-linecap="round"/>
<path d="M294.117 24.1138C292.698 31.3578 292.336 38.8147 293.045 46.1612" stroke="#6A96C6" stroke-miterlimit="10" stroke-linecap="round"/>
<path d="M288.252 24.1689C286.707 31.342 286.093 38.7201 286.416 46.0508" stroke="#6A96C6" stroke-miterlimit="10" stroke-linecap="round"/>
<path d="M212.88 29.8837C211.674 38.2313 202.814 40.5567 202.814 40.5567L192.015 29.1507C192.015 29.1507 204.706 25.9267 212.88 29.8837Z" fill="#6A96C6"/>
<path d="M185.204 2.20041C169.164 -7.50296 147.731 28.8433 129.664 19.8336C131.99 40.8168 153.619 59.2146 153.619 59.2146C171.473 65.3236 190.825 23.6014 212.872 29.8759C191.014 16.1998 185.204 2.20041 185.204 2.20041Z" fill="#B0D2F7"/>
<path d="M178.26 6.92212C181.768 14.8913 187.601 21.8201 194.853 26.6363" stroke="#6A96C6" stroke-miterlimit="10"/>
<path d="M170.716 10.1934C172.585 14.2213 175.32 17.7842 178.402 20.9845C181.476 24.1769 184.897 27.0225 188.31 29.8602" stroke="#6A96C6" stroke-miterlimit="10"/>
<path d="M162.353 15.9949C166.681 23.7591 173.617 29.6789 180.404 35.4253" stroke="#6A96C6" stroke-miterlimit="10"/>
<path d="M154.305 21.5757C158.861 29.6395 165.356 36.5997 173.081 41.7076" stroke="#6A96C6" stroke-miterlimit="10"/>
<path d="M144.247 26.053C149.394 34.7001 156.425 42.2121 164.702 47.9348" stroke="#6A96C6" stroke-miterlimit="10"/>
<path d="M71.2549 263.443L276.886 255.434L241.564 214.713H100.294L71.2549 263.443Z" fill="#2C4B63"/>
<path d="M276.886 255.434L276.295 249.648L266.662 239.59L265.945 245.723L276.886 255.434Z" fill="#2C4B63"/>
<path d="M71.2549 263.442L71.3652 256.805L80.5878 242.357L83.859 258.76L71.2549 263.442Z" fill="#2C4B63"/>
<path d="M74.9281 228.16C80.3276 238.754 78.1678 258.965 78.1678 258.965L267.711 251.114C266.04 241.009 271.731 220.215 271.731 220.215L74.9281 228.16Z" fill="#B0D2F7"/>
<path d="M83.859 238.021L260.514 232.661" stroke="#88B0E2" stroke-miterlimit="10" stroke-linecap="round" stroke-linejoin="round"/>
<path d="M106.49 244.43L253.451 238.021" stroke="#88B0E2" stroke-miterlimit="10" stroke-linecap="round" stroke-linejoin="round"/>
<path d="M85.6877 250.909L201.844 246.006" stroke="#88B0E2" stroke-miterlimit="10" stroke-linecap="round" stroke-linejoin="round"/>
<path d="M71.2549 229.697L276.886 221.689L241.564 180.968H100.294L71.2549 229.697Z" fill="#527FA8"/>
<path d="M238.167 183.995L262.989 215.194L192.149 217.156L192.677 183.995H238.167Z" fill="#FFB717"/>
<path d="M231.081 197.576C231.79 196.63 232.358 195.558 232.57 194.4C232.783 193.241 232.626 191.988 231.995 190.987C230.868 189.221 228.574 188.622 226.477 188.504C222.402 188.267 218.311 189.252 214.583 190.916C211.437 192.319 208.529 194.195 205.762 196.268C204.856 196.946 204.666 198.238 205.344 199.145C206.416 200.58 207.741 201.833 209.183 202.873C211.177 204.3 213.392 205.396 215.631 206.389C219.383 208.052 223.324 209.479 227.526 209.242C229.425 209.132 231.301 208.636 232.965 207.705C234.139 207.051 235.337 206.113 235.779 204.805C236.299 203.275 235.66 201.549 234.581 200.351C233.509 199.145 232.523 198.294 231.081 197.576Z" fill="#527FA8"/>
<path d="M71.2549 229.697L71.5623 234.506L275.428 227.38L276.886 221.689L71.2549 229.697Z" fill="#2C4B63"/>
<path d="M95.8168 262.489C81.5888 246.984 94.0511 221.279 94.0511 221.279H108.326C108.326 221.279 96.9913 243.058 111.03 261.898L95.8168 262.489Z" fill="#2C4B63"/>
<path d="M103.565 225.252C103.565 226.474 101.784 227.459 99.5925 227.459C97.4012 227.459 95.6198 226.474 95.6198 225.252C95.6198 224.03 97.4012 223.045 99.5925 223.045C101.784 223.037 103.565 224.03 103.565 225.252Z" fill="#FF971A"/>
<path d="M245.537 231.873L248.154 243.713L242.006 242.861L235.463 245.478L235.723 231.873H245.537Z" fill="#FF971A"/>
<path d="M168.943 202.802L172.072 81.8846L80.9031 74.2859L79.1059 75.9176L72.7131 196.142L168.943 202.802Z" fill="#FFB717"/>
<path d="M168.943 202.802L168.99 200.966L74.8887 194.242L80.9031 74.2859L79.1059 75.9176L72.7131 196.142L168.943 202.802Z" fill="#FF971A"/>
<path d="M171.497 202.802L174.303 81.3723L264.219 73.0168L265.488 73.4819L267.719 196.142L171.497 202.802Z" fill="#FFB717"/>
<path d="M171.528 201.186L265.322 193.895L264.219 73.0168L265.488 73.4819L267.719 196.142L171.497 202.802L171.528 201.186Z" fill="#FF971A"/>
<path d="M165.995 197.521L77.5609 191.302L82.6688 77.7541L90.1099 70.2027C103.55 67.8537 122.68 66.293 144.799 70.4707C154.455 72.2994 162.96 74.8928 170.212 77.6438C168.919 114.408 167.619 151.172 166.326 187.936L165.995 197.521Z" fill="white"/>
<path d="M77.5609 191.302L82.1722 184.192L89.0063 180.022C103.195 179.171 120.552 179.47 139.975 182.812C149.615 184.468 158.42 186.643 166.302 189.024C166.2 191.853 166.105 194.691 166.003 197.521L77.5609 191.302Z" fill="#D2EAFF"/>
<path d="M90.1098 70.2026L88.9984 180.03C87.3431 180.928 85.2936 182.237 83.2205 184.144C80.4301 186.706 78.6486 189.355 77.553 191.31C79.2556 153.458 80.9582 115.614 82.6608 77.762C83.4491 76.6032 84.4659 75.2947 85.7429 73.9547C87.2879 72.3467 88.8013 71.1249 90.1098 70.2026Z" fill="#B0D2F7"/>
<path d="M175.824 76.9739L174.043 197.521L264.148 192.303L262.981 76.9817L256.147 66.8685C240.753 64.3618 218.398 63.0849 193.536 70.392C187.041 72.2995 181.137 74.5697 175.824 76.9739Z" fill="white"/>
<path d="M256.155 66.8684C263.596 71.3141 262.989 76.9817 262.989 76.9817L264.156 192.303L253.38 180.03L256.155 66.8684Z" fill="#B0D2F7"/>
<path d="M174.177 188.772L175.146 188.661C179.482 187.101 184.077 185.65 188.917 184.365C213.345 177.902 235.684 177.965 253.372 180.014C256.967 184.105 264.148 192.287 264.148 192.287C234.115 194.029 204.083 195.771 174.043 197.505" fill="#D2EAFF"/>
<path d="M180.885 82.9489C180.885 83.6425 180.033 84.2022 178.993 84.2022C177.945 84.2022 177.101 83.6425 177.101 82.9489C177.101 82.2552 177.953 81.6956 178.993 81.6956C180.033 81.6956 180.885 82.2552 180.885 82.9489Z" fill="#88B0E2"/>
<path d="M168.218 83.6742C168.218 84.3679 167.366 84.9275 166.326 84.9275C165.277 84.9275 164.434 84.3679 164.434 83.6742C164.434 82.9806 165.285 82.4209 166.326 82.4209C167.374 82.4288 168.218 82.9884 168.218 83.6742Z" fill="#88B0E2"/>
<path d="M179.773 82.2631C178.157 79.8669 175.328 78.3298 172.403 78.5111C169.558 78.6845 166.925 80.3634 165.561 82.8701C164.962 83.9815 166.649 84.9668 167.248 83.8554C168.273 81.9715 170.228 80.5999 172.395 80.4659C174.618 80.3319 176.825 81.4039 178.071 83.2484C178.78 84.2889 180.483 83.3115 179.773 82.2631Z" fill="#1C313F"/>
<path d="M180.885 89.7831C180.885 90.4768 180.033 91.0364 178.993 91.0364C177.945 91.0364 177.101 90.4768 177.101 89.7831C177.101 89.0894 177.953 88.5298 178.993 88.5298C180.033 88.5298 180.885 89.0894 180.885 89.7831Z" fill="#88B0E2"/>
<path d="M168.218 90.5084C168.218 91.2021 167.366 91.7618 166.326 91.7618C165.277 91.7618 164.434 91.2021 164.434 90.5084C164.434 89.8148 165.285 89.2551 166.326 89.2551C167.374 89.263 168.218 89.8227 168.218 90.5084Z" fill="#88B0E2"/>
<path d="M179.773 89.0974C178.157 86.7011 175.328 85.164 172.403 85.3453C169.558 85.5187 166.925 87.1977 165.561 89.7043C164.962 90.8158 166.649 91.8011 167.248 90.6896C168.273 88.8057 170.228 87.4342 172.395 87.3002C174.618 87.1661 176.825 88.2382 178.071 90.0827C178.78 91.1232 180.483 90.1457 179.773 89.0974Z" fill="#1C313F"/>
<path d="M180.112 97.4132C180.112 98.1069 179.261 98.6666 178.221 98.6666C177.18 98.6666 176.329 98.1069 176.329 97.4132C176.329 96.7196 177.18 96.1599 178.221 96.1599C179.261 96.1599 180.112 96.7275 180.112 97.4132Z" fill="#88B0E2"/>
<path d="M167.445 98.1464C167.445 98.84 166.594 99.3997 165.553 99.3997C164.505 99.3997 163.661 98.84 163.661 98.1464C163.661 97.4527 164.513 96.8931 165.553 96.8931C166.594 96.8931 167.445 97.4527 167.445 98.1464Z" fill="#88B0E2"/>
<path d="M179.001 96.7275C177.385 94.3312 174.555 92.7941 171.631 92.9754C168.785 93.1488 166.152 94.8278 164.789 97.3344C164.19 98.4459 165.876 99.4312 166.483 98.3198C167.508 96.4358 169.463 95.0643 171.631 94.9303C173.854 94.7963 176.061 95.8683 177.306 97.7128C178.008 98.7533 179.71 97.7759 179.001 96.7275Z" fill="#1C313F"/>
<path d="M180.081 105.051C180.081 105.745 179.23 106.305 178.189 106.305C177.141 106.305 176.297 105.745 176.297 105.051C176.297 104.358 177.149 103.798 178.189 103.798C179.23 103.798 180.081 104.358 180.081 105.051Z" fill="#88B0E2"/>
<path d="M167.414 105.777C167.414 106.47 166.562 107.03 165.522 107.03C164.473 107.03 163.63 106.47 163.63 105.777C163.63 105.083 164.481 104.523 165.522 104.523C166.562 104.531 167.414 105.091 167.414 105.777Z" fill="#88B0E2"/>
<path d="M178.962 104.366C177.346 101.969 174.516 100.432 171.591 100.614C168.746 100.787 166.113 102.466 164.749 104.973C164.15 106.084 165.837 107.069 166.444 105.958C167.469 104.074 169.424 102.702 171.591 102.568C173.814 102.434 176.021 103.506 177.267 105.351C177.976 106.391 179.671 105.414 178.962 104.366Z" fill="#1C313F"/>
<path d="M180.041 112.682C180.041 113.375 179.19 113.935 178.15 113.935C177.109 113.935 176.258 113.375 176.258 112.682C176.258 111.988 177.109 111.428 178.15 111.428C179.19 111.428 180.041 111.996 180.041 112.682Z" fill="#88B0E2"/>
<path d="M167.382 113.415C167.382 114.109 166.531 114.668 165.49 114.668C164.45 114.668 163.599 114.109 163.599 113.415C163.599 112.721 164.45 112.162 165.49 112.162C166.531 112.162 167.382 112.721 167.382 113.415Z" fill="#88B0E2"/>
<path d="M178.93 111.996C177.314 109.6 174.484 108.063 171.56 108.244C168.714 108.417 166.082 110.096 164.718 112.603C164.119 113.714 165.806 114.7 166.413 113.588C167.437 111.704 169.392 110.333 171.56 110.199C173.783 110.065 175.99 111.137 177.235 112.981C177.945 114.022 179.639 113.044 178.93 111.996Z" fill="#1C313F"/>
<path d="M179.466 120.32C179.466 121.014 178.615 121.573 177.574 121.573C176.526 121.573 175.682 121.014 175.682 120.32C175.682 119.626 176.534 119.067 177.574 119.067C178.623 119.067 179.466 119.626 179.466 120.32Z" fill="#88B0E2"/>
<path d="M166.799 121.045C166.799 121.739 165.947 122.298 164.907 122.298C163.859 122.298 163.015 121.739 163.015 121.045C163.015 120.351 163.866 119.792 164.907 119.792C165.955 119.8 166.799 120.359 166.799 121.045Z" fill="#88B0E2"/>
<path d="M178.354 119.634C176.739 117.238 173.909 115.701 170.984 115.882C168.139 116.056 165.506 117.735 164.142 120.241C163.543 121.353 165.23 122.338 165.837 121.226C166.862 119.343 168.817 117.971 170.984 117.837C173.207 117.703 175.414 118.775 176.66 120.62C177.369 121.66 179.064 120.683 178.354 119.634Z" fill="#1C313F"/>
<path d="M179.497 127.95C179.497 128.644 178.646 129.203 177.606 129.203C176.557 129.203 175.714 128.644 175.714 127.95C175.714 127.256 176.565 126.697 177.606 126.697C178.654 126.705 179.497 127.264 179.497 127.95Z" fill="#88B0E2"/>
<path d="M166.838 128.683C166.838 129.377 165.987 129.937 164.946 129.937C163.906 129.937 163.055 129.377 163.055 128.683C163.055 127.99 163.906 127.43 164.946 127.43C165.987 127.43 166.838 127.99 166.838 128.683Z" fill="#88B0E2"/>
<path d="M178.386 127.264C176.77 124.868 173.94 123.331 171.016 123.512C168.17 123.686 165.538 125.365 164.174 127.871C163.575 128.983 165.262 129.968 165.869 128.857C166.893 126.973 168.848 125.601 171.016 125.467C173.239 125.333 175.446 126.405 176.691 128.25C177.401 129.29 179.096 128.313 178.386 127.264Z" fill="#1C313F"/>
<path d="M179.466 135.588C179.466 136.282 178.615 136.842 177.574 136.842C176.526 136.842 175.682 136.282 175.682 135.588C175.682 134.895 176.534 134.335 177.574 134.335C178.623 134.335 179.466 134.895 179.466 135.588Z" fill="#88B0E2"/>
<path d="M166.799 136.321C166.799 137.015 165.947 137.575 164.907 137.575C163.859 137.575 163.015 137.015 163.015 136.321C163.015 135.628 163.866 135.068 164.907 135.068C165.955 135.068 166.799 135.628 166.799 136.321Z" fill="#88B0E2"/>
<path d="M178.354 134.903C176.739 132.506 173.909 130.969 170.984 131.15C168.139 131.324 165.506 133.003 164.142 135.509C163.543 136.621 165.23 137.606 165.837 136.495C166.862 134.611 168.817 133.239 170.984 133.105C173.207 132.971 175.414 134.043 176.66 135.888C177.369 136.928 179.064 135.951 178.354 134.903Z" fill="#1C313F"/>
<path d="M178.796 143.226C178.796 143.92 177.945 144.48 176.904 144.48C175.864 144.48 175.012 143.92 175.012 143.226C175.012 142.533 175.864 141.973 176.904 141.973C177.945 141.973 178.796 142.533 178.796 143.226Z" fill="#88B0E2"/>
<path d="M164.237 145.205C165.282 145.205 166.129 144.644 166.129 143.952C166.129 143.26 165.282 142.698 164.237 142.698C163.192 142.698 162.345 143.26 162.345 143.952C162.345 144.644 163.192 145.205 164.237 145.205Z" fill="#88B0E2"/>
<path d="M177.684 142.533C176.069 140.137 173.239 138.6 170.314 138.781C167.469 138.954 164.836 140.633 163.472 143.14C162.873 144.251 164.56 145.237 165.167 144.125C166.192 142.241 168.147 140.87 170.314 140.736C172.537 140.602 174.744 141.674 175.99 143.518C176.691 144.567 178.394 143.581 177.684 142.533Z" fill="#1C313F"/>
<path d="M178.796 150.857C178.796 151.55 177.945 152.11 176.904 152.11C175.864 152.11 175.012 151.55 175.012 150.857C175.012 150.163 175.864 149.603 176.904 149.603C177.945 149.603 178.796 150.171 178.796 150.857Z" fill="#88B0E2"/>
<path d="M166.129 151.59C166.129 152.283 165.277 152.843 164.237 152.843C163.196 152.843 162.345 152.283 162.345 151.59C162.345 150.896 163.196 150.336 164.237 150.336C165.277 150.336 166.129 150.896 166.129 151.59Z" fill="#88B0E2"/>
<path d="M177.684 150.171C176.069 147.775 173.239 146.237 170.314 146.419C167.469 146.592 164.836 148.271 163.472 150.778C162.873 151.889 164.56 152.875 165.167 151.763C166.192 149.879 168.147 148.508 170.314 148.374C172.537 148.24 174.744 149.312 175.99 151.156C176.691 152.197 178.394 151.219 177.684 150.171Z" fill="#1C313F"/>
<path d="M178.764 159.212C178.764 159.906 177.913 160.465 176.873 160.465C175.824 160.465 174.981 159.906 174.981 159.212C174.981 158.518 175.832 157.959 176.873 157.959C177.913 157.959 178.764 158.518 178.764 159.212Z" fill="#88B0E2"/>
<path d="M166.097 159.937C166.097 160.631 165.246 161.191 164.205 161.191C163.165 161.191 162.314 160.631 162.314 159.937C162.314 159.244 163.165 158.684 164.205 158.684C165.246 158.684 166.097 159.252 166.097 159.937Z" fill="#88B0E2"/>
<path d="M177.653 158.526C176.037 156.13 173.207 154.593 170.283 154.774C167.437 154.948 164.804 156.627 163.441 159.133C162.842 160.245 164.529 161.23 165.136 160.119C166.16 158.235 168.115 156.863 170.283 156.729C172.506 156.595 174.713 157.667 175.958 159.512C176.66 160.552 178.354 159.575 177.653 158.526Z" fill="#1C313F"/>
<path d="M179.466 165.833C179.466 166.527 178.615 167.087 177.574 167.087C176.526 167.087 175.682 166.527 175.682 165.833C175.682 165.14 176.534 164.58 177.574 164.58C178.623 164.58 179.466 165.14 179.466 165.833Z" fill="#88B0E2"/>
<path d="M166.799 166.558C166.799 167.252 165.947 167.812 164.907 167.812C163.859 167.812 163.015 167.252 163.015 166.558C163.015 165.865 163.866 165.305 164.907 165.305C165.955 165.313 166.799 165.873 166.799 166.558Z" fill="#88B0E2"/>
<path d="M178.354 165.148C176.739 162.751 173.909 161.214 170.984 161.396C168.139 161.569 165.506 163.248 164.142 165.755C163.543 166.866 165.23 167.851 165.837 166.74C166.862 164.856 168.817 163.484 170.984 163.35C173.207 163.216 175.414 164.288 176.66 166.133C177.369 167.173 179.064 166.196 178.354 165.148Z" fill="#1C313F"/>
<path d="M178.725 173.763C178.725 174.457 177.874 175.017 176.833 175.017C175.785 175.017 174.941 174.457 174.941 173.763C174.941 173.07 175.793 172.51 176.833 172.51C177.882 172.51 178.725 173.07 178.725 173.763Z" fill="#88B0E2"/>
<path d="M164.166 175.742C165.211 175.742 166.058 175.181 166.058 174.488C166.058 173.796 165.211 173.235 164.166 173.235C163.121 173.235 162.274 173.796 162.274 174.488C162.274 175.181 163.121 175.742 164.166 175.742Z" fill="#88B0E2"/>
<path d="M177.614 173.078C175.998 170.681 173.168 169.144 170.243 169.326C167.398 169.499 164.765 171.178 163.401 173.685C162.802 174.796 164.489 175.781 165.096 174.67C166.121 172.786 168.076 171.414 170.243 171.28C172.466 171.146 174.673 172.218 175.919 174.063C176.628 175.103 178.323 174.126 177.614 173.078Z" fill="#1C313F"/>
<path d="M178.694 181.393C178.694 182.087 177.842 182.647 176.802 182.647C175.761 182.647 174.91 182.087 174.91 181.393C174.91 180.7 175.761 180.14 176.802 180.14C177.842 180.14 178.694 180.708 178.694 181.393Z" fill="#88B0E2"/>
<path d="M166.026 182.127C166.026 182.82 165.175 183.38 164.134 183.38C163.086 183.38 162.243 182.82 162.243 182.127C162.243 181.433 163.094 180.873 164.134 180.873C165.183 180.873 166.026 181.433 166.026 182.127Z" fill="#88B0E2"/>
<path d="M177.582 180.708C175.966 178.311 173.136 176.774 170.212 176.956C167.366 177.129 164.734 178.808 163.37 181.315C162.771 182.426 164.458 183.411 165.065 182.3C166.089 180.416 168.044 179.044 170.212 178.91C172.435 178.776 174.642 179.849 175.887 181.693C176.597 182.734 178.291 181.756 177.582 180.708Z" fill="#1C313F"/>
<path d="M160.619 85.0138C141.543 79.0783 121.049 77.7698 101.374 81.2223" stroke="#B0D2F7" stroke-miterlimit="10" stroke-linecap="round" stroke-linejoin="round"/>
<path d="M160.106 95.198C140.605 89.7669 119.787 89.1285 99.9866 93.3377" stroke="#B0D2F7" stroke-miterlimit="10" stroke-linecap="round" stroke-linejoin="round"/>
<path d="M158.853 110.246C139.336 105.642 118.739 105.698 99.2456 110.411" stroke="#B0D2F7" stroke-miterlimit="10" stroke-linecap="round" stroke-linejoin="round"/>
<path d="M157.781 127.713C139.123 122.889 119.385 122.298 100.475 126.003" stroke="#B0D2F7" stroke-miterlimit="10" stroke-linecap="round" stroke-linejoin="round"/>
<path d="M101.287 142.556C119.062 141.366 136.979 142.462 154.478 145.812" stroke="#B0D2F7" stroke-miterlimit="10" stroke-linecap="round" stroke-linejoin="round"/>
<path d="M212.391 127.114C223.301 125.443 234.446 125.286 245.403 126.641" stroke="#B0D2F7" stroke-miterlimit="10" stroke-linecap="round" stroke-linejoin="round"/>
<path d="M185.102 145.835C205.399 142.966 226.091 142.919 246.404 145.701" stroke="#B0D2F7" stroke-miterlimit="10" stroke-linecap="round" stroke-linejoin="round"/>
<path d="M100.073 158.889C118.305 157.352 136.743 158.274 154.731 161.608" stroke="#B0D2F7" stroke-miterlimit="10" stroke-linecap="round" stroke-linejoin="round"/>
<path d="M214.772 78.8971L213.069 77.1077L212.005 77.6122L210.326 75.8465L217.546 72.7014L219.391 74.6405L215.891 81.6954L214.204 79.9218L214.772 78.8971ZM215.647 77.289L216.679 75.3815L214.724 76.3195L215.647 77.289Z" fill="#B0D2F7"/>
<path d="M194.782 120.059C195.72 119.76 196.658 119.728 197.604 119.981C198.542 120.233 199.424 120.753 200.236 121.557C200.938 122.251 201.427 123 201.718 123.804C202.01 124.608 202.089 125.427 201.963 126.247C201.836 127.067 201.513 127.855 200.993 128.604L198.329 125.963C198.471 125.577 198.502 125.199 198.423 124.828C198.345 124.458 198.163 124.135 197.872 123.843C197.446 123.425 196.949 123.252 196.39 123.323C195.83 123.394 195.278 123.701 194.742 124.245C194.206 124.781 193.907 125.333 193.836 125.9C193.765 126.468 193.946 126.957 194.372 127.374C194.663 127.658 194.987 127.839 195.357 127.91C195.728 127.981 196.106 127.95 196.492 127.8L199.156 130.441C198.408 130.961 197.627 131.292 196.807 131.434C195.988 131.568 195.176 131.497 194.364 131.213C193.552 130.929 192.803 130.441 192.102 129.747C191.29 128.943 190.754 128.068 190.501 127.13C190.241 126.192 190.265 125.246 190.557 124.308C190.848 123.362 191.392 122.495 192.18 121.699C192.977 120.911 193.844 120.367 194.782 120.059Z" fill="#B0D2F7"/>
<path d="M189.453 102.387C189.824 101.843 190.304 101.441 190.888 101.181C191.471 100.929 192.117 100.834 192.827 100.905C193.528 100.976 194.143 101.197 194.671 101.567C195.199 101.938 195.601 102.426 195.862 103.041C196.122 103.656 196.216 104.342 196.137 105.114L195.83 108.181L188.468 107.44L188.775 104.373C188.862 103.593 189.083 102.939 189.453 102.387ZM193.765 103.829C193.513 103.498 193.118 103.301 192.598 103.246C192.07 103.191 191.652 103.301 191.337 103.577C191.022 103.853 190.84 104.255 190.785 104.775L190.73 105.327L194.017 105.658L194.072 105.106C194.12 104.586 194.017 104.16 193.765 103.829Z" fill="#B0D2F7"/>
<path d="M247.137 108.094C247.492 107.786 247.894 107.597 248.343 107.534C248.793 107.463 249.258 107.526 249.723 107.7C250.188 107.881 250.574 108.141 250.866 108.496C251.157 108.851 251.339 109.261 251.41 109.726C251.481 110.191 251.41 110.687 251.22 111.2L250.44 113.249L245.521 111.373L246.302 109.324C246.507 108.811 246.783 108.401 247.137 108.094ZM249.833 109.883C249.723 109.607 249.486 109.402 249.139 109.268C248.785 109.134 248.477 109.134 248.209 109.26C247.941 109.395 247.744 109.631 247.61 109.978L247.468 110.348L249.66 111.184L249.802 110.813C249.928 110.474 249.943 110.159 249.833 109.883Z" fill="#B0D2F7"/>
<path d="M208.19 91.9584L207.567 92.3998L208.694 93.9684L207.504 94.8198L206.377 93.2511L205.659 93.7635L206.936 95.5528L205.675 96.4593L203.263 93.0856L208.324 89.4675L210.736 92.8412L209.475 93.7477L208.19 91.9584Z" fill="#B0D2F7"/>
<path d="M231.025 105.627L233.619 107.526L230.623 111.617L232.066 112.674L234.218 109.733L236.677 111.531L234.525 114.471L238.451 117.348L236.062 120.611L225.642 112.989L231.025 105.627Z" fill="#B0D2F7"/>
<path d="M189.863 83.4217C189.863 83.3192 189.839 83.2246 189.776 83.1379C189.721 83.0512 189.634 82.9645 189.516 82.8936C189.295 82.7596 189.09 82.7202 188.878 82.7911C188.673 82.8542 188.491 83.0118 188.334 83.2562C188.16 83.5399 188.089 83.7922 188.137 84.0129C188.184 84.2336 188.342 84.4307 188.618 84.6041C188.878 84.7696 189.154 84.7933 189.445 84.6829L188.547 84.1154L189.051 83.3192L190.888 84.478L190.178 85.6052C189.855 85.7707 189.492 85.8653 189.098 85.8889C188.704 85.9047 188.294 85.7865 187.877 85.5184C187.506 85.282 187.23 84.9982 187.049 84.675C186.868 84.344 186.797 83.9971 186.82 83.6267C186.852 83.2562 186.978 82.8936 187.199 82.5389C187.419 82.1841 187.695 81.9161 188.018 81.727C188.342 81.5457 188.688 81.459 189.059 81.4747C189.429 81.4905 189.8 81.6166 190.17 81.8531C190.643 82.1526 190.951 82.5073 191.108 82.9172C191.258 83.335 191.242 83.7528 191.053 84.1705L189.863 83.4217Z" fill="#B0D2F7"/>
<path d="M214.866 108.567L209.443 114.148L207.693 112.445L209.806 110.269L208.142 108.654L206.03 110.829L204.28 109.126L209.703 103.546L211.453 105.248L209.498 107.258L211.161 108.874L213.116 106.864L214.866 108.567Z" fill="#B0D2F7"/>
<path d="M243.354 66.3481C243.377 67.6172 243.48 68.8784 243.693 70.1317C243.251 69.0834 242.818 68.0271 242.376 66.9787C235.392 71.5663 229.512 76.9659 225.051 81.8136C224.972 83.7369 224.893 85.6603 224.814 87.5836C224.128 86.4564 223.545 85.2661 223.064 84.0365C220.605 86.8742 218.697 89.4202 217.397 91.3751C217.31 93.5585 217.373 95.7578 217.625 97.9255C217.081 96.1834 216.758 94.3704 216.64 92.5496C215.93 93.7083 215.505 94.5596 215.402 94.9932C214.496 98.8162 219.225 110.388 219.225 110.388C219.225 110.388 242.171 109.584 243.574 107.873C243.811 107.582 244.315 106.312 245.072 104.342C242.022 104.168 238.979 103.916 235.991 103.309C239.2 103.53 242.431 103.404 245.616 102.947C246.727 100.077 248.272 96.1834 250.275 91.7929C247.24 90.9415 244.221 90.0351 241.233 89.034C244.615 88.9867 247.996 89.1286 251.362 89.4439C251.583 88.9788 251.804 88.5137 252.032 88.0408C249.991 87.7255 247.973 87.2368 246.018 86.5431C248.343 86.3933 250.669 86.2515 252.994 86.1017C256.328 79.5119 260.561 72.4098 265.764 66.2772C264.928 65.6939 264.14 65.0317 263.423 64.3066C264.652 64.4563 265.882 64.5982 267.104 64.748C270.06 61.4688 273.315 58.5129 276.878 56.156C264.219 55.8486 252.805 60.3259 243.354 66.3481Z" fill="#FF971A"/>
<path d="M259.481 64.622C253.569 67.7986 248.194 71.8345 243.48 76.5088C238.719 81.1437 234.565 86.3619 230.986 91.9191C229.197 94.7095 227.565 97.5945 226.067 100.55L221.543 109.395C220.77 110.869 220.029 112.358 219.281 113.84L218.153 116.079C218.027 116.331 217.909 116.583 217.775 116.836C217.531 117.332 217.271 117.829 217.018 118.318C215.513 121.313 214.007 124.316 212.336 127.288C212.281 127.383 212.163 127.422 212.068 127.367C211.989 127.319 211.95 127.233 211.966 127.154C212.502 124.214 213.227 121.329 214.078 118.475C214.204 118.073 214.322 117.679 214.449 117.277C214.945 115.653 215.528 114.061 216.088 112.461C216.687 110.869 217.326 109.292 217.98 107.716C219.32 104.594 220.881 101.552 222.67 98.635C224.467 95.7342 226.359 92.8886 228.385 90.1376C232.405 84.6199 236.993 79.512 242.148 75.0584C247.342 70.66 253.089 66.8921 259.316 64.2672C259.41 64.2278 259.529 64.2751 259.568 64.3776C259.607 64.4722 259.568 64.5747 259.481 64.622Z" fill="#1C313F"/>
<path d="M217.775 116.836C217.531 117.332 217.271 117.829 217.018 118.318C215.513 121.313 214.007 124.316 212.336 127.288C212.281 127.382 212.163 127.422 212.068 127.367C211.989 127.319 211.95 127.233 211.966 127.154C212.502 124.214 213.227 121.329 214.078 118.475C214.315 118.515 214.543 118.562 214.772 118.609C215.032 118.657 215.3 118.696 215.552 118.609C215.796 118.53 216.001 118.341 216.167 118.144C216.364 117.908 216.537 117.648 216.734 117.419C216.939 117.19 217.184 116.978 217.475 116.883C217.57 116.851 217.673 116.836 217.775 116.836Z" fill="#6A96C6"/>
<path d="M142.292 243.791C143.128 237.005 142.166 229.847 138.642 223.983C135.119 218.118 128.821 213.759 121.987 213.483C119.811 217.614 119.425 222.729 120.962 227.136C122.499 231.542 125.613 235.318 129.404 238.029C133.204 240.757 137.728 242.814 142.292 243.791Z" fill="#FFB717"/>
<path d="M142.292 243.791C140.448 237.21 136.798 230.974 131.28 226.931C125.762 222.887 118.274 221.295 111.866 223.675C111.448 228.326 113.072 233.197 116.185 236.666C119.299 240.142 123.634 242.42 128.182 243.46C132.731 244.501 137.704 244.651 142.292 243.791Z" fill="#FF971A"/>
<path d="M142.292 243.791C137.886 249.025 131.982 253.187 125.289 254.59C118.597 255.993 111.117 254.346 106.261 249.522C107.806 245.116 111.298 241.356 115.57 239.48C119.843 237.604 124.73 237.328 129.302 238.258C133.881 239.196 138.469 241.119 142.292 243.791Z" fill="#FFB717"/>
<path d="M134.142 252.139C133.732 248.064 134.307 243.894 135.789 240.079C137.271 236.264 139.801 232.858 142.852 230.123C143.593 232.33 143.806 234.687 143.75 237.012C143.695 239.338 143.372 241.655 143.049 243.957C143.057 243.957 139.746 249.199 134.142 252.139Z" fill="#1C313F"/>
<path d="M174.39 245.061C179.647 242.664 184.377 238.81 187.041 233.686C189.705 228.562 190.06 222.099 187.246 217.054C183.313 217.306 179.458 219.293 176.959 222.343C174.461 225.394 173.121 229.303 172.845 233.237C172.553 237.17 173.081 241.34 174.39 245.061Z" fill="#FFB717"/>
<path d="M174.39 245.06C178.315 240.82 181.192 235.444 181.673 229.682C182.154 223.927 179.986 217.826 175.446 214.256C171.914 216.013 169.124 219.324 167.997 223.108C166.87 226.891 167.146 231.006 168.399 234.75C169.652 238.486 171.741 242.136 174.39 245.06Z" fill="#FF971A"/>
<path d="M174.39 245.06C168.675 244.201 163.07 241.789 159.105 237.588C155.141 233.386 153.028 227.27 154.352 221.649C158.207 220.814 162.455 221.665 165.695 223.919C168.935 226.174 171.292 229.563 172.64 233.268C173.988 236.973 174.626 241.127 174.39 245.06Z" fill="#FFB717"/>
<path d="M164.781 242.877C167.54 240.788 170.795 239.353 174.193 238.739C177.598 238.124 181.169 238.439 184.479 239.432C183.21 240.938 181.618 242.136 179.915 243.121C178.213 244.107 176.408 244.895 174.602 245.683C174.602 245.683 169.369 245.612 164.781 242.877Z" fill="#1C313F"/>
<path d="M156.473 253.495C151.601 250.917 146.959 247.906 142.631 244.493C142.087 244.067 141.551 243.634 141.023 243.192C140.503 242.759 141.078 241.86 141.606 242.294C145.816 245.778 150.34 248.868 155.109 251.54C159.854 254.196 164.836 256.427 169.968 258.224C175.123 260.029 180.443 261.401 185.835 262.299C191.227 263.198 196.689 263.632 202.152 263.592C207.591 263.553 213.03 263.033 218.374 262.016C219.052 261.89 219.73 261.748 220.4 261.606C221.078 261.464 221.306 262.504 220.628 262.646C215.245 263.797 209.751 264.451 204.249 264.625C198.739 264.79 193.213 264.467 187.758 263.679C182.304 262.883 176.912 261.637 171.67 259.935C166.436 258.224 161.344 256.072 156.473 253.495Z" fill="#1C313F"/>
<path d="M183.234 262.78C178.977 257.877 175.808 252.06 173.98 245.833C173.459 244.059 173.05 242.262 172.758 240.441C172.648 239.763 173.688 239.527 173.798 240.213C174.823 246.495 177.204 252.509 180.743 257.791C181.744 259.288 182.848 260.715 184.022 262.071C184.479 262.583 183.683 263.301 183.234 262.78Z" fill="#1C313F"/>
<path d="M298.334 251.871C297.183 251.871 296.025 251.485 295.063 250.696C293.944 249.774 293.266 248.418 293.195 246.968C293.124 245.518 293.676 244.107 294.7 243.082L303.899 233.899C305.247 232.551 307.431 232.472 308.873 233.733C309.63 234.395 310.079 235.318 310.119 236.327C310.166 237.336 309.803 238.289 309.11 239.015L300.423 248.072L299.288 246.984L307.975 237.927C308.369 237.517 308.574 236.973 308.55 236.398C308.526 235.822 308.274 235.302 307.841 234.924C307.021 234.214 305.783 234.253 305.019 235.018L295.82 244.201C295.095 244.919 294.724 245.88 294.779 246.897C294.826 247.914 295.292 248.836 296.08 249.483C297.562 250.704 299.729 250.539 301.006 249.104L305.767 243.776L306.942 244.824L302.181 250.153C301.156 251.288 299.745 251.871 298.334 251.871Z" fill="#FFB717"/>
<path d="M95.9823 273.28C95.5015 272.232 95.3754 271.018 95.6907 269.819C96.0611 268.416 97.0149 267.234 98.2998 266.564C99.5846 265.894 101.106 265.807 102.462 266.312L114.648 270.844C116.437 271.506 117.415 273.461 116.879 275.298C116.595 276.267 115.941 277.056 115.042 277.513C114.144 277.97 113.127 278.041 112.173 277.718L100.326 273.595L100.846 272.105L112.693 276.228C113.237 276.417 113.813 276.378 114.325 276.118C114.837 275.857 115.208 275.408 115.365 274.856C115.673 273.816 115.113 272.704 114.096 272.326L101.91 267.794C100.956 267.439 99.9315 267.502 99.025 267.967C98.1185 268.432 97.48 269.236 97.2199 270.221C96.7312 272.082 97.7795 273.981 99.6162 274.541L106.45 276.646L105.985 278.151L99.1511 276.047C97.6928 275.597 96.5735 274.565 95.9823 273.28Z" fill="#FFB717"/>
<path d="M38.5031 244.58C38.574 243.429 39.0233 242.294 39.8668 241.387C40.8521 240.323 42.2473 239.724 43.6977 239.74C45.148 239.756 46.5275 240.386 47.4891 241.474L56.1205 251.201C57.3896 252.628 57.3344 254.811 55.9944 256.175C55.2849 256.892 54.3469 257.286 53.338 257.271C52.329 257.255 51.3989 256.837 50.7131 256.104L42.1842 246.897L43.3429 245.825L51.8718 255.032C52.2581 255.45 52.7941 255.686 53.3616 255.694C53.937 255.702 54.473 255.481 54.875 255.071C55.6318 254.299 55.6633 253.053 54.946 252.249L46.3146 242.522C45.6367 241.758 44.7066 241.332 43.6819 241.324C42.665 241.316 41.7191 241.718 41.0255 242.467C39.717 243.878 39.7564 246.046 41.1122 247.409L46.157 252.478L45.0377 253.589L39.9929 248.521C38.9209 247.433 38.4164 245.991 38.5031 244.58Z" fill="#FF971A"/>
<path d="M281.749 264.215C281.726 263.064 282.088 261.897 282.861 260.92C283.76 259.785 285.1 259.075 286.55 258.973C287.992 258.87 289.427 259.391 290.468 260.4L299.84 269.409C301.211 270.726 301.338 272.909 300.108 274.375C299.462 275.148 298.547 275.613 297.546 275.676C296.537 275.739 295.575 275.4 294.834 274.722L285.604 266.225L286.668 265.066L295.899 273.563C296.316 273.95 296.868 274.147 297.436 274.107C298.003 274.068 298.523 273.808 298.894 273.366C299.588 272.531 299.517 271.293 298.736 270.544L289.364 261.535C288.631 260.825 287.661 260.478 286.645 260.549C285.628 260.62 284.721 261.101 284.091 261.897C282.9 263.403 283.113 265.571 284.571 266.816L290.002 271.467L288.978 272.665L283.547 268.014C282.396 267.029 281.781 265.634 281.749 264.215Z" fill="#1C313F"/>
<path d="M52.0925 261.756C53.1645 262.173 54.1026 262.954 54.7095 264.042C55.4189 265.303 55.5529 266.816 55.0958 268.196C54.6307 269.567 53.606 270.686 52.2817 271.27L40.3712 276.472C38.6292 277.237 36.564 276.512 35.6811 274.817C35.2161 273.926 35.1372 272.901 35.4604 271.948C35.7836 270.994 36.4694 270.237 37.3838 269.811L48.774 264.546L49.4361 265.981L38.0459 271.246C37.5256 271.49 37.1394 271.916 36.9502 272.46C36.7689 273.004 36.8083 273.579 37.0763 274.092C37.5808 275.053 38.7474 275.463 39.7406 275.03L51.6511 269.827C52.5891 269.417 53.2828 268.661 53.606 267.691C53.9291 266.722 53.8346 265.705 53.338 264.814C52.3999 263.135 50.3268 262.504 48.6085 263.371L42.2315 266.603L41.5221 265.2L47.899 261.968C49.2469 261.275 50.7761 261.235 52.0925 261.756Z" fill="#2C4B63"/>
</g>
<defs>
<clipPath id="clip0_25_644">
<rect width="340.919" height="277.614" fill="white" transform="translate(0.0206299 0.537109)"/>
</clipPath>
</defs>
</svg>
