<svg width="318" height="344" viewBox="0 0 318 344" fill="none" xmlns="http://www.w3.org/2000/svg">
<g clip-path="url(#clip0_25_868)">
<path d="M163.998 26.6496C82.677 24.2487 12.2357 83.2547 1.59271 160.678C-10.043 245.331 54.0005 321.497 132.802 333.697C230.819 348.871 325.89 261.088 317.353 165.858C310.922 94.1094 246.663 29.0903 163.998 26.6496Z" fill="#F4F7FA"/>
<path d="M170.793 249.405C154.547 250.304 123.584 185.384 145.217 150.841C154.244 136.426 167.869 134.586 173.63 116.231C178.771 99.8527 170.196 94.0798 172.889 75.838C176.678 50.1873 199.426 22.3806 220.377 24.5139C230.889 25.584 242.65 34.3646 246.047 46.8381C248.768 56.8288 240.506 66.9914 243.426 69.0143C245.825 70.6764 250.689 63.9063 254.97 65.1688C261.282 67.0301 265.64 86.1588 259.933 102.204C250.164 129.672 217.116 130.633 215.766 150.429C214.906 163.047 228.038 166.978 225.875 179.978C223.972 191.416 212.938 193.59 198.816 207.75C176.695 229.928 179.502 248.924 170.793 249.405Z" fill="url(#paint0_linear_25_868)"/>
<mask id="mask0_25_868" style="mask-type:luminance" maskUnits="userSpaceOnUse" x="137" y="24" width="126" height="226">
<path d="M170.793 249.405C154.547 250.304 123.584 185.384 145.217 150.841C154.244 136.426 167.869 134.586 173.63 116.231C178.771 99.8527 170.196 94.0798 172.889 75.838C176.678 50.1873 199.426 22.3806 220.377 24.5139C230.889 25.584 242.65 34.3646 246.047 46.8381C248.768 56.8288 240.506 66.9914 243.426 69.0143C245.825 70.6764 250.689 63.9063 254.97 65.1688C261.282 67.0301 265.64 86.1588 259.933 102.204C250.164 129.672 217.116 130.633 215.766 150.429C214.906 163.047 228.038 166.978 225.875 179.978C223.972 191.416 212.938 193.59 198.816 207.75C176.695 229.928 179.502 248.924 170.793 249.405Z" fill="white"/>
</mask>
<g mask="url(#mask0_25_868)">
<g opacity="0.5">
<path d="M174.908 263.675C174.581 263.771 174.215 263.653 174.012 263.358C173.832 263.098 173.824 262.771 173.964 262.512C173.968 262.021 173.643 260.43 173.268 258.606C171.163 248.341 165.574 221.072 171.128 177.681C178.113 123.109 199.891 63.5863 235.855 0.763199C236.078 0.373863 236.575 0.238393 236.963 0.461521C237.353 0.684649 237.488 1.181 237.265 1.57033C198.625 69.0666 156.433 168.393 174.861 258.28C175.694 262.347 175.844 263.08 175.142 263.565C175.069 263.614 174.99 263.651 174.908 263.675Z" fill="white"/>
<path d="M185.987 119.835C185.574 119.956 185.136 119.733 184.993 119.323C184.845 118.899 185.068 118.436 185.491 118.288C220.368 106.092 241.05 93.6016 252.26 85.2696C264.398 76.2488 268.345 70.032 268.382 69.9694C268.618 69.5891 269.119 69.4719 269.501 69.7075C269.882 69.9443 270 70.4441 269.764 70.8255C269.604 71.085 265.687 77.2916 253.363 86.474C242.058 94.8983 221.199 107.522 186.029 119.821C186.014 119.827 186 119.832 185.987 119.835Z" fill="white"/>
<path d="M198.641 80.6193C198.481 80.666 198.304 80.6637 198.135 80.6022C188.643 77.1278 182.099 65.3612 178.686 45.6291C176.17 31.0848 176.38 17.3545 176.383 17.2179C176.391 16.7682 176.761 16.4107 177.209 16.4198C177.658 16.4278 178.015 16.7978 178.007 17.2463C177.998 17.7859 177.309 71.2479 198.694 79.0767C199.115 79.2304 199.332 79.6983 199.177 80.1195C199.085 80.37 198.88 80.5487 198.641 80.6193Z" fill="white"/>
<path d="M171.077 188.267C170.85 188.333 170.595 188.3 170.386 188.156C157.251 179.057 150.902 163.158 147.889 151.424C144.637 138.761 144.463 128.076 144.462 127.97C144.456 127.522 144.815 127.153 145.263 127.147C145.712 127.141 146.081 127.5 146.086 127.95C146.088 128.054 146.263 138.576 149.472 151.056C152.417 162.511 158.598 178.012 171.31 186.82C171.679 187.076 171.771 187.582 171.515 187.951C171.407 188.109 171.25 188.217 171.077 188.267Z" fill="white"/>
</g>
</g>
<path d="M165.859 285.345C160.544 259.414 161.286 239.32 162.837 226.212C164.054 215.922 166.762 201.54 174.083 199.732C177.592 198.866 179.592 201.521 183.254 200.447C190.169 198.42 189.991 186.915 194.355 178.546C201.82 164.231 225.85 152.81 243.058 161.275C263.781 171.468 265.983 206.252 254.84 216.971C248.237 223.322 236.424 221.73 235.781 226.349C235.134 230.999 246.973 233.518 247.803 240.971C248.663 248.687 237.053 255.679 236.35 256.094C222.28 264.365 211.213 255.81 195.773 259.627C187.399 261.698 176.485 267.719 165.859 285.345Z" fill="url(#paint1_linear_25_868)"/>
<path d="M165.859 285.345C160.544 259.414 161.286 239.32 162.837 226.212C164.054 215.922 166.762 201.54 174.083 199.732C177.592 198.866 179.592 201.521 183.254 200.447C190.169 198.42 189.991 186.915 194.355 178.546C201.82 164.231 225.85 152.81 243.058 161.275C263.781 171.468 265.983 206.252 254.84 216.971C248.237 223.322 236.424 221.73 235.781 226.349C235.134 230.999 246.973 233.518 247.803 240.971C248.663 248.687 237.053 255.679 236.35 256.094C222.28 264.365 211.213 255.81 195.773 259.627C187.399 261.698 176.485 267.719 165.859 285.345Z" fill="url(#paint2_linear_25_868)"/>
<mask id="mask1_25_868" style="mask-type:luminance" maskUnits="userSpaceOnUse" x="161" y="158" width="101" height="128">
<path d="M165.859 285.345C160.544 259.414 161.286 239.32 162.837 226.212C164.054 215.922 166.762 201.54 174.083 199.732C177.592 198.866 179.592 201.521 183.254 200.447C190.169 198.42 189.991 186.915 194.355 178.546C201.82 164.231 225.85 152.81 243.058 161.275C263.781 171.468 265.983 206.252 254.84 216.971C248.237 223.322 236.424 221.73 235.781 226.349C235.134 230.999 246.973 233.518 247.803 240.971C248.663 248.687 237.053 255.679 236.35 256.094C222.28 264.365 211.213 255.81 195.773 259.627C187.399 261.698 176.485 267.719 165.859 285.345Z" fill="white"/>
</mask>
<g mask="url(#mask1_25_868)">
<g opacity="0.8">
<path d="M162.953 306.318L163.356 306.333C165.661 244.28 204.534 190.321 267.336 161.991L267.17 161.623C237.405 175.049 212.073 195.024 193.912 219.385C174.82 244.995 164.114 275.057 162.953 306.318Z" fill="white"/>
<path d="M143.943 216.311C155.311 228.929 166.359 253.556 168.569 271.211L168.969 271.161C166.75 253.438 155.657 228.712 144.242 216.041L143.943 216.311Z" fill="white"/>
<path d="M163.545 294.143L163.928 294.269C166.819 285.485 174.04 278.5 185.39 273.507C193.713 269.846 204.02 267.323 216.027 266.006L215.983 265.605C203.935 266.926 193.588 269.46 185.227 273.137C173.769 278.178 166.474 285.245 163.545 294.143Z" fill="white"/>
<path d="M196.625 216.027L197.001 216.173C203.302 199.895 199.02 182.046 194.32 169.939L193.944 170.085C198.62 182.126 202.881 199.87 196.625 216.027Z" fill="white"/>
<path d="M224.649 187.544L224.838 187.901C242.2 178.669 262.571 182.002 273.167 184.809L273.271 184.42C262.616 181.596 242.133 178.248 224.649 187.544Z" fill="white"/>
</g>
</g>
<path d="M180.968 63.3701L210.698 310.472C211.143 314.176 208.59 317.498 205.013 317.853L81.1868 331.447C73.6016 331.918 69.4487 328.043 68.9796 324.104L37.7679 61.3927C37.3023 57.4754 41.0237 53.927 48.642 53.927L173.594 56.559C177.212 56.6193 180.525 59.6839 180.968 63.3701Z" fill="url(#paint3_linear_25_868)"/>
<path d="M186.542 62.9442L216.434 311.282C216.883 315.006 214.32 318.344 210.73 318.701L82.3571 331.483C78.3328 331.884 74.6444 328.972 74.1731 325.013L42.786 60.944C42.3181 57.0063 45.2746 53.8404 49.3432 53.9098L179.139 56.1001C182.769 56.1604 186.096 59.241 186.542 62.9442Z" fill="url(#paint4_linear_25_868)"/>
<path d="M184.106 76.6428L211.812 306.902C212.231 310.381 209.832 313.494 206.471 313.82L85.7405 325.556C81.9986 325.919 78.5708 323.202 78.1325 319.515L49.1259 75.5772C48.6899 71.9104 51.4346 68.9437 55.2129 68.9836L177.182 70.2825C180.578 70.3189 183.689 73.1809 184.106 76.6428Z" fill="url(#paint5_linear_25_868)"/>
<path d="M119.365 62.7736C119.523 64.0953 118.575 65.154 117.244 65.137C115.912 65.1199 114.704 64.0327 114.545 62.7076C114.386 61.3825 115.338 60.3249 116.67 60.3443C118.001 60.3647 119.206 61.4519 119.365 62.7736Z" fill="url(#paint6_linear_25_868)"/>
<g opacity="0.5">
<path d="M163.233 231.207C138.517 185.51 101.595 171.832 90.4786 124.737C84.4689 99.2801 88.5638 74.9147 95.4591 54.6875L49.3433 53.9088C45.2746 53.8405 42.3182 57.0053 42.7872 60.943L74.1731 325.013C74.6433 328.973 78.3318 331.884 82.3572 331.484L183.27 321.437C184.017 280.491 174.251 251.576 163.233 231.207Z" fill="white"/>
</g>
<g opacity="0.8">
<path d="M169.959 199.713C169.825 198.397 168.762 197.289 167.587 197.32L98.5007 199.162C97.2632 199.195 96.3764 200.387 96.5199 201.738L97.3156 209.272C97.4579 210.622 98.5758 211.69 99.8121 211.651L168.819 209.5C169.993 209.463 170.836 208.362 170.703 207.049L169.959 199.713Z" fill="white"/>
<path d="M164.826 215.861C164.691 214.544 163.63 213.498 162.451 213.536L107.656 215.323C106.427 215.362 105.544 216.496 105.685 217.842L109.481 253.878C109.622 255.218 110.728 256.26 111.952 256.202L166.534 253.612C167.709 253.556 168.555 252.445 168.421 251.134L164.826 215.861ZM148.842 243.252C149.016 244.946 147.916 246.267 146.387 246.335L130.926 247.023C129.378 247.091 127.981 245.872 127.803 244.165L126.01 226.896C125.832 225.185 126.944 223.66 128.494 223.605L143.988 223.049C145.52 222.994 146.906 224.418 147.081 226.116L148.842 243.252Z" fill="white"/>
<path d="M135.62 243.636C135.066 243.66 134.488 243.45 134.018 243.003L129.487 238.692C128.541 237.791 128.384 236.276 129.134 235.306C129.885 234.337 131.258 234.283 132.203 235.183L135.022 237.872L142.028 228.807C142.772 227.845 144.133 227.794 145.068 228.692C146.003 229.59 146.158 231.096 145.416 232.059L137.076 242.872C136.701 243.356 136.173 243.612 135.62 243.636Z" fill="white"/>
<path d="M168.01 125.257H82.6131C76.7936 125.257 72.3401 129.967 72.9799 135.96L75.448 159.06C76.0855 165.032 81.5533 169.919 87.3467 169.827L172.381 168.466C177.805 168.379 181.78 163.604 181.2 157.857L178.958 135.578C178.376 129.811 173.455 125.257 168.01 125.257Z" fill="white"/>
</g>
<path d="M266.449 166.277C266.449 166.277 264.087 183.865 282.62 196.266L262.9 200.97C262.9 200.97 256.588 189.168 261.158 169.618L266.449 166.277Z" fill="url(#paint7_linear_25_868)"/>
<path d="M262.978 169.618C262.978 169.618 261.916 166.994 262.087 165.813C262.259 164.633 265.07 163.056 266.987 161.428C268.903 159.8 266.915 163.065 266.469 163.807C266.024 164.55 264.459 165.664 264.685 168.189L262.978 169.618Z" fill="url(#paint8_linear_25_868)"/>
<path d="M230.419 65.2051L162.119 156.53L234.182 210.425L302.482 119.1L230.419 65.2051Z" fill="white"/>
<path d="M232.344 100.917L219.653 91.4251L229.144 78.7341L241.833 88.225L232.344 100.917ZM223.614 90.8548L231.772 96.9566L237.874 88.7988L229.716 82.6969L223.614 90.8548Z" fill="#D8DEE8"/>
<path d="M244.1 95.5795L239.863 101.244L282.92 133.445L287.157 127.781L244.1 95.5795Z" fill="#D8DEE8"/>
<path d="M217.428 120.859L204.737 111.368L214.228 98.6768L226.919 108.168L217.428 120.859ZM208.699 110.796L216.857 116.898L222.959 108.74L214.801 102.638L208.699 110.796Z" fill="#D8DEE8"/>
<path d="M229.186 115.521L224.95 121.186L268.006 153.387L272.243 147.722L229.186 115.521Z" fill="#D8DEE8"/>
<path d="M202.514 140.801L189.823 131.31L199.314 118.619L212.005 128.11L202.514 140.801ZM193.785 130.739L201.942 136.841L208.044 128.683L199.887 122.581L193.785 130.739Z" fill="#D8DEE8"/>
<path d="M214.272 135.463L210.035 141.128L253.092 173.329L257.328 167.664L214.272 135.463Z" fill="#D8DEE8"/>
<path d="M187.598 160.743L174.907 151.252L184.398 138.561L197.089 148.052L187.598 160.743ZM178.869 150.681L187.027 156.782L193.129 148.625L184.971 142.523L178.869 150.681Z" fill="#D8DEE8"/>
<path d="M199.357 155.404L195.12 161.069L238.177 193.27L242.414 187.605L199.357 155.404Z" fill="#D8DEE8"/>
<path d="M223.164 92.9914C223.158 92.9869 223.151 92.9823 223.145 92.9778C222.817 92.733 222.601 92.3778 222.577 91.9692L222.292 87.2721C222.246 86.4923 222.836 85.8297 223.617 85.7842C224.396 85.7386 225.064 86.3374 225.109 87.1172L225.288 90.208L240.399 87.206C241.165 87.0535 241.91 87.5521 242.062 88.3183C242.215 89.0844 241.716 89.8301 240.95 89.9815L224.266 93.2726C223.873 93.3523 223.485 93.2316 223.164 92.9914Z" fill="url(#paint9_linear_25_868)"/>
<path d="M192.826 133.555C192.82 133.551 192.814 133.546 192.808 133.542C192.48 133.297 192.264 132.942 192.24 132.533L191.954 127.836C191.909 127.056 192.498 126.394 193.279 126.348C194.059 126.303 194.726 126.901 194.772 127.681L194.95 130.772L210.062 127.77C210.828 127.617 211.572 128.116 211.725 128.882C211.877 129.648 211.379 130.394 210.613 130.545L193.928 133.837C193.534 133.916 193.147 133.796 192.826 133.555Z" fill="url(#paint10_linear_25_868)"/>
<path d="M178.08 153.271C178.075 153.267 178.068 153.262 178.062 153.258C177.734 153.013 177.518 152.658 177.494 152.249L177.208 147.552C177.163 146.772 177.752 146.11 178.533 146.064C179.313 146.019 179.98 146.617 180.026 147.397L180.205 150.488L195.316 147.486C196.082 147.334 196.826 147.832 196.979 148.598C197.132 149.364 196.633 150.11 195.867 150.262L179.182 153.553C178.788 153.632 178.401 153.511 178.08 153.271Z" fill="url(#paint11_linear_25_868)"/>
<path d="M216.294 119.303C216.004 119.086 215.797 118.759 215.741 118.372L213.399 102.132C213.288 101.359 213.824 100.64 214.598 100.529C215.371 100.417 216.088 100.953 216.201 101.728L218.543 117.968C218.654 118.741 218.118 119.459 217.344 119.571C216.957 119.627 216.584 119.521 216.294 119.303Z" fill="url(#paint12_linear_25_868)"/>
<path d="M207.004 112.355C206.713 112.137 206.506 111.81 206.45 111.423C206.339 110.65 206.875 109.932 207.649 109.821L223.89 107.479C224.663 107.367 225.38 107.903 225.493 108.678C225.604 109.451 225.068 110.169 224.294 110.28L208.053 112.622C207.666 112.678 207.293 112.572 207.004 112.355Z" fill="url(#paint13_linear_25_868)"/>
<path d="M284.774 183.539C283.941 181.898 283.597 181.908 283.392 181.042C282.925 179.068 284.13 176.56 285.151 176.526C285.809 176.503 285.864 177.526 287.257 179.121C288.965 181.075 290.001 180.819 291.005 182.515C291.239 182.912 292.298 184.697 291.647 186.03C290.817 187.731 287.544 188.001 286.176 186.688C285.528 186.067 285.8 185.561 284.774 183.539Z" fill="url(#paint14_linear_25_868)"/>
<path d="M287.896 185.066C287.896 185.066 287.216 188.691 287.7 191.639C288.137 194.303 293.072 197.071 294.018 197.864C294.964 198.658 291.509 199.518 288.34 199.104C285.17 198.689 276.493 195.913 275.175 194.365C273.857 192.818 276.711 193.579 279.111 193.287C281.51 192.994 283.802 188.971 283.871 186.918C283.943 184.866 287.896 185.066 287.896 185.066Z" fill="url(#paint15_linear_25_868)"/>
<path d="M286.338 187.639C286.338 187.639 284.251 188.555 282.402 187.078C280.747 185.754 283.208 181.687 284.891 181.635C285.454 181.618 286.273 182.02 286.757 182.609C287.043 182.958 287.06 183.189 287.538 183.748C287.979 184.263 288.173 184.31 288.241 184.561C288.325 184.874 288.18 185.397 287.048 186.298C287.612 186.194 288.099 186.342 288.288 186.671C288.318 186.723 288.381 186.887 288.362 187.057C288.293 187.671 287.492 187.955 286.338 187.639Z" fill="url(#paint16_linear_25_868)"/>
<path d="M233.547 175.162C233.547 175.162 232.077 174.957 232.536 172.151C232.895 169.951 232.624 169.211 232.103 169.602C231.584 169.991 231.51 171.263 231.51 171.263C231.51 171.263 229.616 169.647 228.836 167.531C228.056 165.415 227.556 167.196 227.388 168.255C227.221 169.314 228.503 172.599 229.227 173.213C229.951 173.825 231.009 176.526 231.009 176.526L233.547 175.162Z" fill="url(#paint17_linear_25_868)"/>
<path d="M287.887 330.347C288.642 331.889 288.431 332.553 288.242 332.844C287.69 333.699 286.362 332.892 282.895 333.303C282.488 333.351 281.712 333.456 280.743 333.228C279.913 333.032 278.935 332.59 278.977 332.368C278.992 332.287 279.14 332.254 279.196 332.243C280.158 332.038 286.181 330.189 286.181 330.189L287.887 330.347Z" fill="url(#paint18_linear_25_868)"/>
<path d="M288.349 326.957L287.812 330.404C287.812 330.404 286.332 331.451 285.942 330.18C285.662 329.266 285.67 326.804 285.67 326.804L288.349 326.957Z" fill="url(#paint19_linear_25_868)"/>
<path d="M271.469 327.194L272.922 331.162L275.035 330.827L274.544 327.152L271.469 327.194Z" fill="url(#paint20_linear_25_868)"/>
<path d="M273.58 333.348C274.603 332.135 275.516 332.245 275.7 331.412C275.845 330.757 275.444 329.954 274.838 329.648C273.988 329.219 272.958 329.89 272.724 330.04C271.143 331.068 271.573 332.676 270.083 333.372C269.783 333.512 269.308 333.661 268.806 334.132C268.593 334.331 268.066 334.825 268.189 335.165C268.331 335.559 269.271 335.545 270.165 335.532C271.237 335.516 271.774 335.509 272.289 335.187C273.005 334.742 272.791 334.285 273.58 333.348Z" fill="url(#paint21_linear_25_868)"/>
<path d="M299.651 244.51C299.26 252.528 298.112 259.372 296.806 264.952C295.401 270.953 294.636 271.979 294.149 276.14C293.089 285.194 295.985 286.555 296.302 296.821C296.651 308.158 293.448 317.092 292.191 320.499C291.091 323.478 289.956 325.878 289.106 327.544C288.048 328.427 286.468 328.044 284.803 327.669C284.406 317.385 283.845 307.703 283.449 297.42C281.793 281.927 280.135 266.435 278.479 250.942C285.535 248.798 292.593 246.654 299.651 244.51Z" fill="url(#paint22_linear_25_868)"/>
<path opacity="0.3" d="M284.802 327.669C284.405 317.386 283.844 307.703 283.448 297.42C281.792 281.927 280.134 266.435 278.478 250.942C285.536 248.799 292.593 246.655 299.651 244.51C299.625 245.041 299.587 245.553 299.555 246.074C289.54 254.403 287.47 261.126 287.467 265.743C287.463 271.341 290.464 274.182 289.692 282.283C289.14 288.075 287.374 289.06 287.263 294.295C287.119 301.037 289.931 304.889 291.256 308.814C292.537 312.609 292.908 317.951 290.115 325.48C289.753 326.256 289.411 326.949 289.106 327.545C288.048 328.427 286.468 328.046 284.802 327.669Z" fill="url(#paint23_linear_25_868)"/>
<path d="M287.678 250.502C281.327 258.279 277.705 265.55 275.614 270.645C273.1 276.774 271.276 281.366 271.847 287.316C272.477 293.863 275.446 296.216 277.418 301.797C279.33 307.21 280.261 315.54 275.273 327.936C274.017 328.371 272.762 328.806 271.506 329.24C270.672 325.891 269.323 320.879 267.304 314.913C263.306 303.088 259.32 295.307 258.242 292.89C254.447 284.378 254.063 269.184 269.862 239.867C275.801 243.412 281.739 246.957 287.678 250.502Z" fill="url(#paint24_linear_25_868)"/>
<path d="M229.632 175.913C231.303 174.743 232.974 173.573 234.646 172.402C236.679 184.903 241.302 189.81 245.228 191.956C254.7 197.133 263.154 187.907 281.283 191.672C286.278 192.709 294.987 194.642 299.815 201.76C301.084 203.63 301.536 205.047 303.643 218.467C306.338 235.622 306.434 238.616 306.053 242.31C305.358 249.07 304.937 253.166 301.82 256.791C293.543 266.419 275.952 261.456 273.747 260.802C269.672 259.595 263.34 257.719 260.824 252.336C259.641 249.803 259.767 247.487 261.586 238.223C265.19 219.872 265.65 218.684 264.645 216.675C261.25 209.894 250.493 213.774 241.406 207.468C236.093 203.779 230.103 195.744 229.632 175.913Z" fill="url(#paint25_linear_25_868)"/>
<path opacity="0.3" d="M281.991 258.351C280.217 254.713 282.601 251.36 279.986 246.989C276.653 241.416 270.657 243.308 268.4 239.191C264.541 232.148 279.731 222.328 276.644 211.117C275.171 205.765 270.025 201.891 265.726 200.423C256.183 197.165 249.941 205.471 240.995 202.874C238.875 202.258 236.442 200.983 233.979 198.336C236.155 202.926 238.858 205.7 241.405 207.469C250.492 213.776 261.249 209.895 264.645 216.676C265.651 218.685 265.19 219.873 261.586 238.224C259.767 247.488 259.64 249.804 260.824 252.337C263.34 257.72 269.672 259.596 273.746 260.803C274.953 261.161 280.771 262.806 287.148 262.646C284.304 261.489 282.774 259.956 281.991 258.351Z" fill="url(#paint26_linear_25_868)"/>
<path d="M85.7348 68.2322C85.7348 87.4121 70.2798 103.993 51.1568 105.271C31.9678 106.553 16.3647 91.9521 16.3647 72.6538C16.3647 53.3554 31.9678 36.7643 51.1568 35.6008C70.2798 34.4419 85.7348 49.0523 85.7348 68.2322Z" fill="#9D3060"/>
<path d="M89.84 69.4604C89.84 88.6403 74.385 105.221 55.262 106.5C36.073 107.783 20.47 93.1814 20.47 73.8831C20.47 54.5848 36.073 37.9936 55.262 36.8302C74.385 35.6702 89.84 50.2805 89.84 69.4604Z" fill="url(#paint27_linear_25_868)"/>
<path d="M54.0404 90.5153C52.5366 90.6132 51.1375 89.9142 50.3588 88.6642L37.283 67.6674C36.0581 65.7002 36.7184 63.0045 38.7573 61.6486C40.795 60.2928 43.4384 60.788 44.6622 62.7552L53.7296 77.3302L65.6943 52.9626C66.7678 50.7757 69.3475 49.7728 71.4546 50.7211C73.5618 51.6694 74.3997 54.2091 73.3273 56.3949L57.8666 87.9095C57.1585 89.353 55.7514 90.3457 54.1907 90.5028C54.1406 90.5073 54.0905 90.5119 54.0404 90.5153Z" fill="white"/>
<path d="M68.7474 337.537C68.7474 337.537 68.4935 339.556 68.6643 340.232C68.835 340.909 74.7058 341.398 76.698 341.162C78.6902 340.927 75.5107 338.891 74.2413 338.51C72.972 338.127 68.7474 337.537 68.7474 337.537Z" fill="url(#paint28_linear_25_868)"/>
<path d="M71.7027 334.168L71.0834 338.22C71.0834 338.22 69.5056 338.929 68.7474 338.228L68.6643 333.987L71.7027 334.168Z" fill="url(#paint29_linear_25_868)"/>
<path d="M38.607 333.987C38.607 333.987 39.8524 334.911 39.52 336.018C39.1876 337.124 36.2812 341.561 34.2093 342.82C32.1374 344.079 32.7874 341.456 33.3896 339.822C33.993 338.189 35.5333 334.59 36.1343 333.987C36.7366 333.384 38.607 333.987 38.607 333.987Z" fill="url(#paint30_linear_25_868)"/>
<path d="M40.8474 329.536C40.2451 331.214 39.6657 332.595 39.2126 333.613C38.2108 335.864 37.6621 336.709 37.0417 337.442C36.5009 338.08 35.2202 339.441 34.8753 339.215C34.5258 338.985 35.4627 337.329 37.2693 332.481C37.5312 331.777 38.3599 329.536 38.3599 329.536H40.8474Z" fill="url(#paint31_linear_25_868)"/>
<path d="M83.9975 259.399C84.4267 263.618 84.8399 270.167 84.2229 278.114C83.4192 288.469 81.3495 295.02 78.7528 306.061C77.1659 312.808 75.028 322.738 73.0927 335.157C72.6441 335.414 71.3224 336.09 69.6228 335.838C68.6711 335.697 67.9584 335.318 67.5384 335.046C62.4622 319.533 63.9615 309.92 66.4113 303.929C67.4553 301.376 68.7223 299.362 69.3985 295.438C70.2944 290.246 69.1868 287.344 67.6078 275.317C66.4819 266.744 66.6766 265.419 67.4257 264.134C70.4185 258.994 79.5736 259.094 83.9975 259.399Z" fill="url(#paint32_linear_25_868)"/>
<path d="M66.5229 261.204C63.4128 277.265 60.3607 285.7 58.0509 290.471C57.4817 291.648 55.5805 295.444 53.7841 300.886C52.1938 305.704 51.5301 309.248 51.1908 310.808C50.1184 315.731 47.4682 322.919 40.3384 332.348C40.2496 332.4 39.0337 333.088 37.8714 332.474C37.2829 332.163 36.9903 331.669 36.873 331.438C37.8054 322.424 38.8755 314.849 39.8044 309.003C39.9991 307.777 40.8575 302.413 42.2031 295.325C42.7302 292.552 43.502 288.488 44.4264 284.314C45.5773 279.116 47.343 272.044 50.0638 263.571C55.5498 262.782 61.0369 261.993 66.5229 261.204Z" fill="url(#paint33_linear_25_868)"/>
<path d="M69.1721 197.676C70.9355 196.046 74.3097 194.166 76.0025 189.797C76.5125 188.482 78.3169 183.823 75.6542 180.259C74.0741 178.142 71.1392 176.706 68.5516 177.214C66.3409 177.649 65.9948 179.188 62.238 182.287C60.7763 183.494 58.4255 185.433 55.8094 186.51C51.3275 188.356 48.6352 186.619 44.1362 186.817C38.6081 187.061 32.1875 190.146 29.0933 194.632C23.6027 202.594 31.5568 210.671 25.5426 219.998C23.572 223.054 22.6009 222.369 17.9323 228.285C13.258 234.208 10.9208 237.169 11.3375 240.798C11.9147 245.834 17.3403 250.646 22.4484 250.973C27.4392 251.293 30.6108 247.367 33.1517 249.084C34.9595 250.306 33.9258 252.684 35.8463 255.54C38.3223 259.224 43.1879 259.957 43.9745 260.076C51.2695 261.177 61.1042 252.623 65.2821 242.489C72.8161 224.215 59.5833 206.539 69.1721 197.676Z" fill="url(#paint34_linear_25_868)"/>
<path d="M99.1044 202.749C99.1544 197.648 87.5666 193.571 82.265 192.258C74.0172 190.215 67.4133 191.498 65.8093 191.837C55.5238 194.016 49.118 200.189 46.7068 202.782C48.6808 204.067 54.1292 207.99 56.8273 215.431C57.6674 217.746 60.1469 225.661 56.5996 233.075C54.5562 237.347 50.9406 240.554 48.1947 242.99C44.076 246.644 41.9437 247.206 40.5628 250.479C39.059 254.043 40.5742 255.782 38.7072 258.221C36.7013 260.842 34.3528 259.624 30.9535 262.274C27.4723 264.988 28.7109 267.223 25.5427 270.222C20.9389 274.58 14.8348 273.165 14.5502 275.127C14.3054 276.814 18.6439 279.102 22.3289 280.031C29.6273 281.869 35.9933 278.783 37.8864 277.833C43.1277 275.199 42.2226 273.495 46.2184 271.488C52.91 268.128 57.4819 271.867 72.7229 272.252C80.9763 272.46 85.1486 272.507 87.4357 269.716C89.5235 267.166 88.4261 264.368 87.1727 252.311C86.5762 246.572 86.361 240.8 85.9216 235.048C84.6784 218.775 84.6409 217.343 85.744 215.094C89.6988 207.035 99.06 207.326 99.1044 202.749Z" fill="url(#paint35_linear_25_868)"/>
<g opacity="0.3">
<path d="M25.5425 270.222C28.7107 267.223 27.4721 264.989 30.9534 262.274C34.3527 259.624 36.7024 260.842 38.7071 258.221C40.5741 255.78 39.0589 254.043 40.5627 250.479C41.9436 247.206 44.0758 246.645 48.1946 242.99C50.9404 240.554 54.556 237.347 56.5995 233.075C60.1468 225.662 57.6662 217.746 56.8272 215.431C54.1291 207.989 48.6807 204.067 46.7067 202.782C46.8968 202.577 47.1211 202.344 47.3601 202.098C60.3676 203.885 67.9517 211.401 68.8897 213.626C71.0573 218.771 67.625 220.661 67.5373 235.497C67.4952 242.59 68.2602 245.389 65.9595 248.35C63.3275 251.736 60.2948 250.688 56.4891 255.114C53.5645 258.515 54.0335 260.671 51.3036 262.104C48.3676 263.645 46.4984 261.849 43.1867 262.555C37.6552 263.735 36.4724 270.113 32.8147 273.603C30.0495 276.242 24.9358 278.088 14.8517 276.107C14.6184 275.768 14.5057 275.435 14.5512 275.125C14.8358 273.165 20.9388 274.58 25.5425 270.222Z" fill="url(#paint36_linear_25_868)"/>
</g>
<path d="M64.9452 217.63C66.3284 220.566 59.9738 227.406 52.9123 230.652C51.4733 231.314 41.1411 236.066 36.5351 231.497C32.7294 227.722 35.1861 219.916 36.0627 217.129C40.3681 203.444 53.5896 196.484 59.1303 193.973C63.265 204.313 60.8299 208.92 59.8714 210.359C58.8696 211.862 56.0748 215.019 53.1069 217.8C51.0191 219.756 49.719 220.707 49.8943 221.012C50.1118 221.393 52.5594 220.675 62.0651 216.048C63.167 216.227 64.4728 216.627 64.9452 217.63Z" fill="url(#paint37_linear_25_868)"/>
<path d="M104.718 200.76L100.054 223.987C99.9045 224.732 99.3273 225.316 98.5851 225.475L63.809 232.939C62.5624 233.206 61.4103 232.199 61.5094 230.928L63.3445 207.305C63.4082 206.485 63.9888 205.8 64.788 205.603C70.3047 204.241 91.5383 199.143 102.737 198.48C103.987 198.406 104.965 199.532 104.718 200.76Z" fill="url(#paint38_linear_25_868)"/>
<path d="M70.0315 183.797C70.0315 183.797 69.3758 189.041 67.4405 190.242C65.5052 191.443 62.3757 193.013 62.0308 193.439C61.6858 193.865 74.0216 195.191 80.1349 192.106C78.1199 191.686 77.5723 191.531 77.5723 191.531C77.0259 191.376 76.0059 191.089 74.9836 190.506C74.288 190.11 73.1655 189.336 72.1376 187.874L72.1603 184.97L70.0315 183.797Z" fill="url(#paint39_linear_25_868)"/>
<path d="M69.7368 185.655C69.7368 185.655 70.9993 187.387 72.9778 186.664C74.7503 186.018 73.6927 181.441 72.2868 180.919C71.8178 180.745 70.9571 180.822 70.3811 181.181C69.9758 181.433 68.8955 182.776 69.5148 184.281C69.0674 184.151 68.6735 184.269 68.5744 184.49C68.4492 184.771 68.8283 185.154 68.9137 185.241C69.212 185.543 69.5717 185.627 69.7368 185.655Z" fill="url(#paint40_linear_25_868)"/>
<path opacity="0.3" d="M73.4 220.843C77.1352 219.79 80.2328 222.405 83.2086 220.335C86.2572 218.215 84.2673 214.594 87.4366 211.034C90.8245 207.228 95.1232 209.092 98.2595 205.624C99.4241 204.335 100.471 202.237 100.487 198.659C101.273 198.582 102.025 198.522 102.737 198.48C103.988 198.406 104.966 199.532 104.719 200.76L100.055 223.987C99.9056 224.732 99.3284 225.316 98.5862 225.475L65.1648 232.647C67.5236 224.37 70.6724 221.612 73.4 220.843Z" fill="url(#paint41_linear_25_868)"/>
<path d="M102.505 213.118C102.505 213.118 104.723 211.067 104.965 208.686C105.206 206.304 103.531 204.397 101.91 203.913C100.288 203.426 99.4229 204.144 100.511 206.489C101.6 208.833 103.327 210.355 102.505 213.118Z" fill="url(#paint42_linear_25_868)"/>
</g>
<defs>
<linearGradient id="paint0_linear_25_868" x1="228.511" y1="55.6921" x2="154.395" y2="247.316" gradientUnits="userSpaceOnUse">
<stop stop-color="#FF9085"/>
<stop offset="1" stop-color="#FB6FBB"/>
</linearGradient>
<linearGradient id="paint1_linear_25_868" x1="218.789" y1="186.223" x2="180.482" y2="335.607" gradientUnits="userSpaceOnUse">
<stop stop-color="#FFC444"/>
<stop offset="0.9964" stop-color="#F36F56"/>
</linearGradient>
<linearGradient id="paint2_linear_25_868" x1="242.314" y1="157.032" x2="172.405" y2="294.495" gradientUnits="userSpaceOnUse">
<stop stop-color="#FFC444"/>
<stop offset="0.9964" stop-color="#F36F56"/>
</linearGradient>
<linearGradient id="paint3_linear_25_868" x1="122.7" y1="186.316" x2="73.9015" y2="191.64" gradientUnits="userSpaceOnUse">
<stop stop-color="#444B8C"/>
<stop offset="0.9964" stop-color="#26264F"/>
</linearGradient>
<linearGradient id="paint4_linear_25_868" x1="165.697" y1="63.3092" x2="45.0314" y2="474.105" gradientUnits="userSpaceOnUse">
<stop stop-color="#444B8C"/>
<stop offset="0.9964" stop-color="#26264F"/>
</linearGradient>
<linearGradient id="paint5_linear_25_868" x1="41.0839" y1="179.024" x2="162.401" y2="204.524" gradientUnits="userSpaceOnUse">
<stop offset="0.00359712" stop-color="#E38DDD"/>
<stop offset="1" stop-color="#9571F6"/>
</linearGradient>
<linearGradient id="paint6_linear_25_868" x1="120.481" y1="53.1912" x2="-21.3342" y2="437.272" gradientUnits="userSpaceOnUse">
<stop stop-color="#311944"/>
<stop offset="1" stop-color="#893976"/>
</linearGradient>
<linearGradient id="paint7_linear_25_868" x1="277.49" y1="230.607" x2="272.142" y2="198.523" gradientUnits="userSpaceOnUse">
<stop stop-color="#FF9085"/>
<stop offset="1" stop-color="#FB6FBB"/>
</linearGradient>
<linearGradient id="paint8_linear_25_868" x1="264.979" y1="164.264" x2="265.796" y2="176.147" gradientUnits="userSpaceOnUse">
<stop offset="0.003597" stop-color="#F36F56"/>
<stop offset="1" stop-color="#FFC444"/>
</linearGradient>
<linearGradient id="paint9_linear_25_868" x1="224.213" y1="84.1463" x2="238.037" y2="94.4849" gradientUnits="userSpaceOnUse">
<stop stop-color="#AA80F9"/>
<stop offset="0.9964" stop-color="#6165D7"/>
</linearGradient>
<linearGradient id="paint10_linear_25_868" x1="193.875" y1="124.711" x2="207.699" y2="135.049" gradientUnits="userSpaceOnUse">
<stop stop-color="#AA80F9"/>
<stop offset="0.9964" stop-color="#6165D7"/>
</linearGradient>
<linearGradient id="paint11_linear_25_868" x1="179.13" y1="144.426" x2="192.954" y2="154.765" gradientUnits="userSpaceOnUse">
<stop stop-color="#AA80F9"/>
<stop offset="0.9964" stop-color="#6165D7"/>
</linearGradient>
<linearGradient id="paint12_linear_25_868" x1="210.192" y1="105.729" x2="221.749" y2="114.372" gradientUnits="userSpaceOnUse">
<stop stop-color="#FF9085"/>
<stop offset="1" stop-color="#FB6FBB"/>
</linearGradient>
<linearGradient id="paint13_linear_25_868" x1="221.75" y1="114.373" x2="210.192" y2="105.729" gradientUnits="userSpaceOnUse">
<stop stop-color="#FF9085"/>
<stop offset="1" stop-color="#FB6FBB"/>
</linearGradient>
<linearGradient id="paint14_linear_25_868" x1="287.653" y1="185.358" x2="287.298" y2="173.287" gradientUnits="userSpaceOnUse">
<stop offset="0.003597" stop-color="#26264F"/>
<stop offset="1" stop-color="#444B8C"/>
</linearGradient>
<linearGradient id="paint15_linear_25_868" x1="285.355" y1="164.307" x2="284.254" y2="205.526" gradientUnits="userSpaceOnUse">
<stop offset="0.003597" stop-color="#F36F56"/>
<stop offset="1" stop-color="#FFC444"/>
</linearGradient>
<linearGradient id="paint16_linear_25_868" x1="294.285" y1="179.696" x2="282.573" y2="186.882" gradientUnits="userSpaceOnUse">
<stop offset="0.003597" stop-color="#F36F56"/>
<stop offset="1" stop-color="#FFC444"/>
</linearGradient>
<linearGradient id="paint17_linear_25_868" x1="231.85" y1="175.347" x2="234.153" y2="182.699" gradientUnits="userSpaceOnUse">
<stop offset="0.003597" stop-color="#F36F56"/>
<stop offset="1" stop-color="#FFC444"/>
</linearGradient>
<linearGradient id="paint18_linear_25_868" x1="280.852" y1="342.249" x2="287.902" y2="317.795" gradientUnits="userSpaceOnUse">
<stop stop-color="#444B8C"/>
<stop offset="0.9964" stop-color="#26264F"/>
</linearGradient>
<linearGradient id="paint19_linear_25_868" x1="287.154" y1="337.419" x2="286.614" y2="298.296" gradientUnits="userSpaceOnUse">
<stop stop-color="#FFC444"/>
<stop offset="0.9964" stop-color="#F36F56"/>
</linearGradient>
<linearGradient id="paint20_linear_25_868" x1="273.35" y1="336.148" x2="272.81" y2="297.024" gradientUnits="userSpaceOnUse">
<stop stop-color="#FFC444"/>
<stop offset="0.9964" stop-color="#F36F56"/>
</linearGradient>
<linearGradient id="paint21_linear_25_868" x1="270.65" y1="337.665" x2="277.7" y2="313.21" gradientUnits="userSpaceOnUse">
<stop stop-color="#444B8C"/>
<stop offset="0.9964" stop-color="#26264F"/>
</linearGradient>
<linearGradient id="paint22_linear_25_868" x1="289.369" y1="252.951" x2="294.077" y2="333.744" gradientUnits="userSpaceOnUse">
<stop stop-color="#311944"/>
<stop offset="1" stop-color="#893976"/>
</linearGradient>
<linearGradient id="paint23_linear_25_868" x1="289.369" y1="252.951" x2="294.077" y2="333.744" gradientUnits="userSpaceOnUse">
<stop stop-color="#311944"/>
<stop offset="1" stop-color="#893976"/>
</linearGradient>
<linearGradient id="paint24_linear_25_868" x1="224.762" y1="287.276" x2="303.903" y2="282.584" gradientUnits="userSpaceOnUse">
<stop stop-color="#311944"/>
<stop offset="1" stop-color="#893976"/>
</linearGradient>
<linearGradient id="paint25_linear_25_868" x1="266.083" y1="196.676" x2="280.343" y2="270.944" gradientUnits="userSpaceOnUse">
<stop stop-color="#FF9085"/>
<stop offset="1" stop-color="#FB6FBB"/>
</linearGradient>
<linearGradient id="paint26_linear_25_868" x1="254.499" y1="198.9" x2="268.759" y2="273.168" gradientUnits="userSpaceOnUse">
<stop stop-color="#FF9085"/>
<stop offset="1" stop-color="#FB6FBB"/>
</linearGradient>
<linearGradient id="paint27_linear_25_868" x1="20.4697" y1="71.6717" x2="89.8397" y2="71.6717" gradientUnits="userSpaceOnUse">
<stop stop-color="#FFC444"/>
<stop offset="0.9964" stop-color="#F36F56"/>
</linearGradient>
<linearGradient id="paint28_linear_25_868" x1="73.8306" y1="324.548" x2="71.8013" y2="361.076" gradientUnits="userSpaceOnUse">
<stop stop-color="#444B8C"/>
<stop offset="0.9964" stop-color="#26264F"/>
</linearGradient>
<linearGradient id="paint29_linear_25_868" x1="71.7026" y1="336.262" x2="68.6638" y2="336.262" gradientUnits="userSpaceOnUse">
<stop stop-color="#311944"/>
<stop offset="1" stop-color="#A03976"/>
</linearGradient>
<linearGradient id="paint30_linear_25_868" x1="37.1008" y1="322.508" x2="35.0715" y2="359.034" gradientUnits="userSpaceOnUse">
<stop stop-color="#444B8C"/>
<stop offset="0.9964" stop-color="#26264F"/>
</linearGradient>
<linearGradient id="paint31_linear_25_868" x1="40.8472" y1="334.388" x2="34.8038" y2="334.388" gradientUnits="userSpaceOnUse">
<stop stop-color="#311944"/>
<stop offset="1" stop-color="#A03976"/>
</linearGradient>
<linearGradient id="paint32_linear_25_868" x1="73.3333" y1="332.602" x2="74.348" y2="293.369" gradientUnits="userSpaceOnUse">
<stop stop-color="#311944"/>
<stop offset="1" stop-color="#893976"/>
</linearGradient>
<linearGradient id="paint33_linear_25_868" x1="50.7748" y1="332.018" x2="51.7895" y2="292.786" gradientUnits="userSpaceOnUse">
<stop stop-color="#311944"/>
<stop offset="1" stop-color="#893976"/>
</linearGradient>
<linearGradient id="paint34_linear_25_868" x1="36.9264" y1="233.812" x2="51.1314" y2="213.689" gradientUnits="userSpaceOnUse">
<stop stop-color="#444B8C"/>
<stop offset="0.9964" stop-color="#26264F"/>
</linearGradient>
<linearGradient id="paint35_linear_25_868" x1="80.3517" y1="227.803" x2="3.85886" y2="272.218" gradientUnits="userSpaceOnUse">
<stop stop-color="#FFC444"/>
<stop offset="0.9964" stop-color="#F36F56"/>
</linearGradient>
<linearGradient id="paint36_linear_25_868" x1="52.2561" y1="191.185" x2="40.5314" y2="262.886" gradientUnits="userSpaceOnUse">
<stop stop-color="#FFC444"/>
<stop offset="0.9964" stop-color="#F36F56"/>
</linearGradient>
<linearGradient id="paint37_linear_25_868" x1="54.6816" y1="191.582" x2="42.9569" y2="263.283" gradientUnits="userSpaceOnUse">
<stop stop-color="#FFC444"/>
<stop offset="0.9964" stop-color="#F36F56"/>
</linearGradient>
<linearGradient id="paint38_linear_25_868" x1="61.5029" y1="215.73" x2="104.756" y2="215.73" gradientUnits="userSpaceOnUse">
<stop stop-color="#FF9085"/>
<stop offset="1" stop-color="#FB6FBB"/>
</linearGradient>
<linearGradient id="paint39_linear_25_868" x1="64.4692" y1="187.089" x2="69.6992" y2="191.344" gradientUnits="userSpaceOnUse">
<stop stop-color="#311944"/>
<stop offset="1" stop-color="#A03976"/>
</linearGradient>
<linearGradient id="paint40_linear_25_868" x1="61.132" y1="179.784" x2="73.049" y2="184.309" gradientUnits="userSpaceOnUse">
<stop stop-color="#311944"/>
<stop offset="1" stop-color="#A03976"/>
</linearGradient>
<linearGradient id="paint41_linear_25_868" x1="65.1636" y1="215.563" x2="104.756" y2="215.563" gradientUnits="userSpaceOnUse">
<stop stop-color="#FF9085"/>
<stop offset="1" stop-color="#FB6FBB"/>
</linearGradient>
<linearGradient id="paint42_linear_25_868" x1="105.277" y1="220.522" x2="100.88" y2="198.087" gradientUnits="userSpaceOnUse">
<stop stop-color="#311944"/>
<stop offset="1" stop-color="#A03976"/>
</linearGradient>
<clipPath id="clip0_25_868">
<rect width="317.666" height="342.799" fill="white" transform="translate(0.222168 0.352295)"/>
</clipPath>
</defs>
</svg>
