<svg width="335" height="260" viewBox="0 0 335 260" fill="none" xmlns="http://www.w3.org/2000/svg">
<g clip-path="url(#clip0_25_492)">
<path d="M269.118 64.155H56.2678V201.48H269.118V64.155Z" fill="white"/>
<path opacity="0.6" d="M269.118 64.155H56.2678V201.48H269.118V64.155Z" fill="#B0C7FF"/>
<path d="M269.118 64.155H56.2678V201.48H269.118V64.155Z" stroke="black" stroke-width="2" stroke-miterlimit="10"/>
<path d="M273.034 62.666H52.3484V68.987H273.034V62.666Z" fill="#B0C7FF"/>
<path d="M191.948 57.4856H133.434V64.1551H191.948V57.4856Z" fill="black"/>
<path d="M162.691 60.822V25.7478" stroke="black" stroke-width="2" stroke-miterlimit="10"/>
<path d="M140.081 77.5195H98.4802V130.951H140.081V77.5195Z" fill="white"/>
<path d="M238.523 116.291H207.416V156.245H238.523V116.291Z" fill="white"/>
<path d="M51.6576 102.401C51.6576 102.401 48.5019 148.191 60.7446 171.117L114.889 156.454C114.889 156.454 97.9194 129.202 97.2002 98.4341L51.6576 102.401Z" fill="#F9B741"/>
<path d="M68.5706 115.756C69.3341 115.135 70.066 114.425 70.8867 113.896C75.7977 110.252 80.7499 116.624 85.8257 114.732C88.7406 113.646 90.48 110.442 93.414 109.403" stroke="black" stroke-width="1.5" stroke-miterlimit="10" stroke-linecap="round" stroke-linejoin="round"/>
<path d="M54.8799 116.893C58.1338 114.415 62.804 117.774 66.0453 117.109" stroke="black" stroke-width="1.5" stroke-miterlimit="10" stroke-linecap="round" stroke-linejoin="round"/>
<path d="M55.8176 127.992C60.5259 130.34 62.202 123.268 66.888 124.874C68.8936 125.27 70.7154 126.525 72.7939 126.569C75.3128 126.531 77.1061 124.155 79.4159 123.148C82.7997 121.199 87.0612 124.608 90.1694 122.343" stroke="black" stroke-width="1.5" stroke-miterlimit="10" stroke-linecap="round" stroke-linejoin="round"/>
<path d="M83.6616 132.868C90.2012 126.696 92.042 130.619 98.4802 129.034" stroke="black" stroke-width="1.5" stroke-miterlimit="10" stroke-linecap="round" stroke-linejoin="round"/>
<path d="M56.7175 138.73C59.9176 134.722 64.0936 136.715 67.9527 137.085C69.841 137.269 71.7231 136.61 73.095 135.298C76.5295 132.013 78.4813 135.419 82.014 133.882" stroke="black" stroke-width="1.5" stroke-miterlimit="10" stroke-linecap="round" stroke-linejoin="round"/>
<path d="M58.5583 147.763C60.4435 146.22 62.3478 146.489 64.2551 146.866C66.5776 147.326 69.0331 146.819 70.8581 145.307C74.4067 142.37 78.0028 146.866 81.1839 143.945C82.1788 143.029 83.4271 141.41 85.42 141.271" stroke="black" stroke-width="1.5" stroke-miterlimit="10" stroke-linecap="round" stroke-linejoin="round"/>
<path d="M60.6685 158.479C61.8471 158.342 63.1208 158.542 64.3628 158.586C66.0326 158.646 67.6484 157.946 68.7701 156.707C71.0069 154.23 73.567 151.717 77.1124 151.907C81.9854 152.842 87.3907 154.1 91.592 150.497" stroke="black" stroke-width="1.5" stroke-miterlimit="10" stroke-linecap="round" stroke-linejoin="round"/>
<path d="M69.0536 96.1835L67.4856 100.187L79.2771 104.805L80.8452 100.802L69.0536 96.1835Z" fill="black"/>
<path d="M148.801 122.597L123.524 117.493L119.253 138.649L144.53 143.753L148.801 122.597Z" fill="#F9B741"/>
<path d="M133.529 115.356L130.831 117.264L136.747 125.634L139.445 123.726L133.529 115.356Z" fill="black"/>
<path d="M221.328 108.748L238.046 105.373L235.22 91.3787L218.502 94.754L221.328 108.748Z" fill="#F9B741"/>
<path d="M224.694 95.4999L226.479 96.7617L230.393 91.2249L228.608 89.963L224.694 95.4999Z" fill="white"/>
<path d="M107.139 92.6357L49.164 92.6325C44.7441 92.6325 41.1575 89.0491 41.1575 84.626L41.1606 42.2106C41.1606 37.7907 44.7441 34.2041 49.1672 34.2041L107.143 34.2073C111.562 34.2073 115.149 37.7907 115.149 42.2138L115.146 84.6292C115.146 89.0522 111.559 92.6357 107.139 92.6357Z" fill="#5FA3FA"/>
<path d="M86.7667 79.1352H95.5843L82.3183 49.1748H73.9727L60.7446 79.132H69.3912L71.7263 73.3117H84.4316L86.7667 79.1352ZM74.2357 67.0636L78.0821 57.4855L81.9254 67.0636H74.2357Z" fill="white"/>
<path d="M325.227 138.15L255.671 138.147C250.367 138.147 246.067 133.847 246.067 128.54L246.071 77.6525C246.071 72.3486 250.37 68.0491 255.677 68.0491L325.233 68.0522C330.537 68.0522 334.836 72.3518 334.836 77.6588L334.833 128.546C334.83 133.85 330.531 138.153 325.227 138.15Z" fill="#DD464D"/>
<path d="M312.987 97.5341V89.6131H294.408V84.3853H286.487V89.6131H267.907V97.5341H273.563C275.02 101.178 278.192 107.654 284.069 113.598C280.926 115.477 277.248 117.02 272.939 117.948L274.605 125.692C280.942 124.329 286.16 121.877 290.444 118.93C294.728 121.877 299.943 124.329 306.283 125.695L307.949 117.951C303.64 117.023 299.962 115.477 296.819 113.601C302.699 107.657 305.871 101.181 307.328 97.5373L312.987 97.5341ZM290.45 108.747C286.42 104.907 283.813 100.709 282.232 97.5341H298.669C297.088 100.709 294.481 104.907 290.45 108.747Z" fill="white"/>
<path d="M85.1063 119.605C84.5677 118.927 82.6128 116.465 82.4385 116.269C82.2389 116.038 82.0203 116.088 82.0203 116.088C82.0203 116.088 81.827 116.203 81.8397 116.507C81.8492 116.77 82.1249 119.903 82.2009 120.765C82.1914 120.841 82.1946 120.917 82.2199 120.984L95.6127 154.562C95.7775 154.977 96.5886 155.044 97.4219 154.711C98.2552 154.379 98.8001 153.773 98.6354 153.358L85.2426 119.776C85.2141 119.71 85.1634 119.653 85.1063 119.605Z" fill="black"/>
<path d="M172.38 92.8703C167.456 98.3485 159.532 109.935 160.511 119.843C161.493 129.75 182.3 131.132 192.585 122.393C215.438 102.974 186.204 77.4909 172.38 92.8703Z" fill="#F39C94"/>
<path d="M175.38 123.683L171.071 145.028L196.827 141.02L191.815 117.169" fill="#F39C94"/>
<path d="M305.963 138.147H281.82C281.82 138.147 289.465 128.591 289.262 127.938C289.059 127.289 286.578 125.701 284.139 127.003C281.699 128.306 277.267 133.226 277.267 133.226C277.267 133.226 267.628 135.463 266.165 138.188C264.938 140.472 264.368 144.975 264.216 146.375L242.614 171.862L238.416 167.347L216.985 181.253C216.985 181.253 234.62 201.762 245.031 199.569C252.246 198.048 271.998 159.869 276.76 151.543L288.052 144.962C288.052 144.962 294.122 143.476 297.481 142.912C298.622 142.722 306.321 141.629 306.229 139.592C306.175 138.438 305.963 138.147 305.963 138.147Z" fill="#F39C94"/>
<path d="M132.41 171.253L124.309 178.652L100.882 152.18L91.8296 159.619C91.8296 159.619 108.188 192.06 117.364 202.399C118.805 204.021 122.88 206.03 126.536 204.265C136.155 199.623 153.689 185.264 153.689 185.264L132.41 171.253Z" fill="#F39C94"/>
<path d="M103.115 145.485C102.206 143.666 99.0029 140.979 96.1101 138.448C93.2174 135.916 92.758 134.161 91.0851 134.646C89.9539 134.972 88.75 137.199 89.6403 139.29C88.5884 139.265 86.4972 139.851 85.74 140.938C84.7483 142.364 85.5055 145.466 85.5055 145.466C85.5055 145.466 82.8884 152.284 82.7015 155.259C82.5146 158.234 95.3307 166.364 95.3307 166.364L103.813 155.525C103.813 155.525 104.025 147.303 103.115 145.485Z" fill="#F39C94"/>
<path d="M198.747 140.206C198.747 140.206 209.675 136.787 214.57 138.793C218.952 140.59 242.075 170.971 242.075 170.971C242.075 170.971 233.299 184.136 219.722 190.495L227.681 241.776H157.98L161.753 188.09L148.211 199.306C139.616 195.78 129.185 182.162 126.669 176.259C126.669 176.259 148.747 153.609 154.852 151.321C160.958 149.03 198.747 140.206 198.747 140.206Z" fill="#5FA3FA"/>
<path d="M152.749 195.549L148.211 199.306C139.616 195.78 129.185 182.165 126.669 176.259C126.669 176.259 128.193 174.694 130.554 172.346C133.83 177.539 142.448 190.029 152.749 195.549Z" fill="white"/>
<path d="M242.072 170.971C242.072 170.971 233.296 184.136 219.719 190.495L218.702 184.12C218.702 184.12 218.705 184.117 218.711 184.114C219.133 183.838 231.442 175.74 238.235 165.997C240.561 168.985 242.072 170.971 242.072 170.971Z" fill="white"/>
<path d="M166.236 149.604L169.588 138.451L195.712 132.624L198.956 140.732C198.956 140.732 188.532 150.466 166.236 149.604Z" fill="#5FA3FA"/>
<path d="M195.712 132.624L198.956 140.732C198.956 140.732 188.532 150.466 166.236 149.604" stroke="black" stroke-miterlimit="10" stroke-linecap="round" stroke-linejoin="round"/>
<path d="M175.019 99.882C171.071 104.419 174.338 109.438 177.418 110.876C177.665 116.415 180.735 128.192 180.735 128.192C180.735 128.192 188.453 129.307 194.134 128.192C194.134 128.192 205.832 118.892 207.166 111.035C208.791 101.46 202.134 99.4701 202.134 99.4701C202.134 99.4701 204.241 91.3273 201.041 88.1526C198.164 85.2979 193.95 89.0556 193.95 89.0556C193.95 89.0556 189.964 73.5209 181.8 75.4188C174.154 77.1963 176.572 87.1545 176.572 87.1545C176.572 87.1545 171.882 84.097 168.888 86.6856C168.017 87.4334 164.605 92.0275 175.019 99.882Z" fill="black"/>
<path d="M174.743 110.144C176.369 107.366 181.039 106.599 182.854 109.454C185.845 114.152 180.019 122.099 175.637 119.247C173.967 118.16 172.57 113.861 174.743 110.144Z" fill="#F39C94"/>
<path d="M167.622 104.368C169.51 101.098 169.875 97.774 168.437 96.9437C166.999 96.1134 164.302 98.0913 162.414 101.362C160.526 104.632 160.161 107.956 161.599 108.786C163.037 109.616 165.734 107.639 167.622 104.368Z" stroke="black" stroke-miterlimit="10" stroke-linecap="round" stroke-linejoin="round"/>
<path d="M168.258 103.142L176.198 107.217" stroke="black" stroke-miterlimit="10"/>
<path d="M242.465 172.163C242.465 172.163 240.976 175.055 241.885 179.932" stroke="black" stroke-miterlimit="10" stroke-linecap="round" stroke-linejoin="round"/>
<path d="M219.529 189.297L215.394 163.402" stroke="black" stroke-miterlimit="10" stroke-linecap="round" stroke-linejoin="round"/>
<path d="M89.8176 139.439C89.8176 139.439 90.5875 141.331 92.2003 142.82C93.813 144.309 96.7881 145.589 96.7881 145.589L97.5739 147.078" stroke="black" stroke-miterlimit="10" stroke-linecap="round" stroke-linejoin="round"/>
<path d="M162 187.805L167.637 183.135" stroke="black" stroke-miterlimit="10" stroke-linecap="round" stroke-linejoin="round"/>
<path d="M222.97 84.5153C231.999 84.5153 239.319 77.1956 239.319 68.1663C239.319 59.1371 231.999 51.8174 222.97 51.8174C213.941 51.8174 206.621 59.1371 206.621 68.1663C206.621 77.1956 213.941 84.5153 222.97 84.5153Z" fill="white" stroke="black" stroke-width="2" stroke-miterlimit="10" stroke-linecap="round" stroke-linejoin="round"/>
<path d="M213.547 80.3171L210.027 89.5499L220.549 81.3659" fill="white"/>
<path d="M213.547 80.3171L210.027 89.5499L220.549 81.3659" stroke="black" stroke-width="2" stroke-miterlimit="10" stroke-linecap="round" stroke-linejoin="round"/>
<path d="M233.612 62.1654H212.327C211.792 62.1654 211.354 61.7313 211.354 61.1927C211.354 60.6572 211.789 60.22 212.327 60.22H233.609C234.145 60.22 234.582 60.654 234.582 61.1927C234.582 61.7313 234.148 62.1654 233.612 62.1654Z" fill="#5FA3FA"/>
<path d="M233.612 66.8133H212.327C211.792 66.8133 211.354 66.3792 211.354 65.8406C211.354 65.3052 211.789 64.8679 212.327 64.8679H233.609C234.145 64.8679 234.582 65.302 234.582 65.8406C234.582 66.3792 234.148 66.8133 233.612 66.8133Z" fill="#5FA3FA"/>
<path d="M233.612 71.4615H212.327C211.792 71.4615 211.354 71.0274 211.354 70.4888C211.354 69.9533 211.789 69.5161 212.327 69.5161H233.609C234.145 69.5161 234.582 69.9502 234.582 70.4888C234.582 71.0274 234.148 71.4615 233.612 71.4615Z" fill="#5FA3FA"/>
<path d="M221.997 76.1095H212.327C211.792 76.1095 211.354 75.6754 211.354 75.1368C211.354 74.6013 211.789 74.1641 212.327 74.1641H221.997C222.533 74.1641 222.97 74.5981 222.97 75.1368C222.97 75.6722 222.536 76.1095 221.997 76.1095Z" fill="#5FA3FA"/>
<path d="M133.906 2.20016C133.906 2.92255 133.339 3.50554 132.639 3.50554C131.939 3.50554 131.372 2.91938 131.372 2.20016C131.372 1.47776 131.939 0.894775 132.639 0.894775C133.339 0.894775 133.906 1.48093 133.906 2.20016Z" fill="black"/>
<path d="M139.723 2.20016C139.723 2.92255 139.156 3.50554 138.456 3.50554C137.756 3.50554 137.189 2.91938 137.189 2.20016C137.189 1.47776 137.756 0.894775 138.456 0.894775C139.156 0.894775 139.723 1.48093 139.723 2.20016Z" fill="black"/>
<path d="M145.541 2.20016C145.541 2.92255 144.973 3.50554 144.273 3.50554C143.573 3.50554 143.006 2.91938 143.006 2.20016C143.006 1.47776 143.573 0.894775 144.273 0.894775C144.973 0.894775 145.541 1.48093 145.541 2.20016Z" fill="black"/>
<path d="M151.355 2.20016C151.355 2.92255 150.788 3.50554 150.087 3.50554C149.387 3.50554 148.82 2.91938 148.82 2.20016C148.82 1.47776 149.387 0.894775 150.087 0.894775C150.788 0.894775 151.355 1.48093 151.355 2.20016Z" fill="black"/>
<path d="M256.146 19.4172C256.146 20.1396 255.579 20.7226 254.879 20.7226C254.179 20.7226 253.612 20.1364 253.612 19.4172C253.612 18.6948 254.179 18.1118 254.879 18.1118C255.579 18.1118 256.146 18.698 256.146 19.4172Z" fill="black"/>
<path d="M261.96 19.4172C261.96 20.1396 261.393 20.7226 260.693 20.7226C259.993 20.7226 259.426 20.1364 259.426 19.4172C259.426 18.6948 259.993 18.1118 260.693 18.1118C261.393 18.1118 261.96 18.698 261.96 19.4172Z" fill="black"/>
<path d="M267.777 19.4172C267.777 20.1396 267.21 20.7226 266.51 20.7226C265.81 20.7226 265.243 20.1364 265.243 19.4172C265.243 18.6948 265.81 18.1118 266.51 18.1118C267.21 18.1118 267.777 18.698 267.777 19.4172Z" fill="black"/>
<path d="M273.595 19.4172C273.595 20.1396 273.027 20.7226 272.327 20.7226C271.627 20.7226 271.06 20.1364 271.06 19.4172C271.06 18.6948 271.627 18.1118 272.327 18.1118C273.027 18.1118 273.595 18.698 273.595 19.4172Z" fill="black"/>
<path d="M89.6627 28.1273C89.6627 29.4422 88.6298 30.5067 87.353 30.5067C86.0761 30.5067 85.0432 29.4422 85.0432 28.1273C85.0432 26.8124 86.0761 25.7478 87.353 25.7478C88.6298 25.7478 89.6627 26.8124 89.6627 28.1273Z" fill="black"/>
<path d="M100.255 28.1273C100.255 29.4422 99.2219 30.5067 97.945 30.5067C96.6682 30.5067 95.6353 29.4422 95.6353 28.1273C95.6353 26.8124 96.6682 25.7478 97.945 25.7478C99.2219 25.7478 100.255 26.8124 100.255 28.1273Z" fill="black"/>
<path d="M110.847 28.1273C110.847 29.4422 109.814 30.5067 108.537 30.5067C107.26 30.5067 106.227 29.4422 106.227 28.1273C106.227 26.8124 107.26 25.7478 108.537 25.7478C109.811 25.7478 110.847 26.8124 110.847 28.1273Z" fill="black"/>
<path d="M22.8855 152.18C22.8855 153.472 21.8685 154.518 20.6138 154.518C19.3591 154.518 18.342 153.469 18.342 152.18C18.342 150.89 19.3591 149.841 20.6138 149.841C21.8685 149.841 22.8855 150.887 22.8855 152.18Z" fill="black"/>
<path d="M33.3032 152.18C33.3032 153.472 32.2862 154.518 31.0315 154.518C29.7768 154.518 28.7598 153.469 28.7598 152.18C28.7598 150.89 29.7768 149.841 31.0315 149.841C32.2862 149.841 33.3032 150.887 33.3032 152.18Z" fill="black"/>
<path d="M43.7241 152.18C43.7241 153.472 42.7071 154.518 41.4524 154.518C40.1977 154.518 39.1807 153.469 39.1807 152.18C39.1807 150.89 40.1977 149.841 41.4524 149.841C42.7071 149.841 43.7241 150.887 43.7241 152.18Z" fill="black"/>
<path d="M291.075 168.278C291.075 169.029 290.485 169.637 289.757 169.637C289.028 169.637 288.438 169.029 288.438 168.278C288.438 167.527 289.028 166.919 289.757 166.919C290.485 166.919 291.075 167.527 291.075 168.278Z" fill="black"/>
<path d="M297.123 168.278C297.123 169.029 296.534 169.637 295.805 169.637C295.076 169.637 294.487 169.029 294.487 168.278C294.487 167.527 295.076 166.919 295.805 166.919C296.53 166.919 297.123 167.527 297.123 168.278Z" fill="black"/>
<path d="M303.168 168.278C303.168 169.029 302.579 169.637 301.85 169.637C301.122 169.637 300.532 169.029 300.532 168.278C300.532 167.527 301.122 166.919 301.85 166.919C302.579 166.919 303.168 167.527 303.168 168.278Z" fill="black"/>
<path d="M12.0273 181.814C12.0273 180.02 13.4405 178.563 15.1831 178.563C16.9257 178.563 18.3388 180.017 18.3388 181.814C18.3388 183.607 16.9257 185.064 15.1831 185.064C13.4405 185.064 12.0273 183.61 12.0273 181.814Z" stroke="#5FA3FA" stroke-miterlimit="10"/>
<path d="M41.3255 14.9657C42.8024 14.9657 43.9996 13.7329 43.9996 12.2123C43.9996 10.6917 42.8024 9.45898 41.3255 9.45898C39.8486 9.45898 38.6514 10.6917 38.6514 12.2123C38.6514 13.7329 39.8486 14.9657 41.3255 14.9657Z" stroke="#5FA3FA" stroke-miterlimit="10"/>
<path d="M153.237 252.735C153.237 251.677 154.07 250.818 155.096 250.818C156.123 250.818 156.956 251.677 156.956 252.735C156.956 253.793 156.123 254.652 155.096 254.652C154.07 254.652 153.237 253.793 153.237 252.735Z" fill="#5FA3FA"/>
<path d="M144.796 256.886C144.796 255.21 146.114 253.854 147.743 253.854C149.371 253.854 150.689 255.213 150.689 256.886C150.689 258.562 149.371 259.921 147.743 259.921C146.114 259.921 144.796 258.562 144.796 256.886Z" stroke="#5FA3FA" stroke-width="0.5" stroke-miterlimit="10"/>
<path d="M28.7598 101.628C28.7598 100.756 29.4441 100.053 30.2901 100.053C31.1361 100.053 31.8204 100.76 31.8204 101.628C31.8204 102.499 31.1361 103.202 30.2901 103.202C29.4441 103.206 28.7598 102.499 28.7598 101.628Z" fill="#5FA3FA"/>
<path d="M312.99 171.906C314.936 171.906 316.514 170.282 316.514 168.278C316.514 166.275 314.936 164.65 312.99 164.65C311.044 164.65 309.467 166.275 309.467 168.278C309.467 170.282 311.044 171.906 312.99 171.906Z" stroke="#5FA3FA" stroke-miterlimit="10"/>
<path d="M26.7668 5.82801C26.7668 3.82558 28.3447 2.2002 30.2901 2.2002C32.2355 2.2002 33.8134 3.82558 33.8134 5.82801C33.8134 7.83044 32.2355 9.45583 30.2901 9.45583C28.3447 9.45583 26.7668 7.83361 26.7668 5.82801Z" stroke="#5FA3FA" stroke-miterlimit="10"/>
<path d="M196.387 37.2077C197.727 37.2077 198.814 36.0885 198.814 34.7079C198.814 33.3272 197.727 32.208 196.387 32.208C195.047 32.208 193.96 33.3272 193.96 34.7079C193.96 36.0885 195.047 37.2077 196.387 37.2077Z" fill="#5FA3FA"/>
<path d="M207.999 37.2077C209.34 37.2077 210.426 36.0885 210.426 34.7079C210.426 33.3272 209.34 32.208 207.999 32.208C206.659 32.208 205.572 33.3272 205.572 34.7079C205.572 36.0885 206.659 37.2077 207.999 37.2077Z" fill="#5FA3FA"/>
<path d="M219.611 37.2077C220.952 37.2077 222.038 36.0885 222.038 34.7079C222.038 33.3272 220.952 32.208 219.611 32.208C218.271 32.208 217.184 33.3272 217.184 34.7079C217.184 36.0885 218.271 37.2077 219.611 37.2077Z" fill="#5FA3FA"/>
<path d="M250.459 233.832V240.508H252.652V241.779H191.261C188.716 241.779 186.654 239.716 186.654 237.172C186.654 234.628 188.716 232.562 191.261 232.562H252.655V233.832H250.459Z" fill="#B36EE1"/>
<path d="M251.454 240.505H208.421C206.577 240.505 205.084 239.009 205.084 237.169C205.084 235.325 206.58 233.832 208.421 233.832H251.454V240.505Z" fill="white"/>
<path d="M211.985 235.641H251.454" stroke="black" stroke-miterlimit="10" stroke-linecap="round" stroke-linejoin="round"/>
<path d="M226.614 237.169H251.454" stroke="black" stroke-miterlimit="10" stroke-linecap="round" stroke-linejoin="round"/>
<path d="M238.806 224.615V231.291H240.998V232.562H185.928C183.384 232.562 181.321 230.499 181.321 227.955C181.321 225.411 183.384 223.345 185.928 223.345H240.998V224.615H238.806Z" fill="black"/>
<path d="M239.797 231.291H196.767C194.923 231.291 193.431 229.796 193.431 227.955C193.431 226.111 194.926 224.619 196.767 224.619H239.797V231.291Z" fill="white"/>
<path d="M198.45 226.425H239.797" stroke="black" stroke-miterlimit="10" stroke-linecap="round" stroke-linejoin="round"/>
<path d="M198.45 229.482H239.797" stroke="black" stroke-miterlimit="10" stroke-linecap="round" stroke-linejoin="round"/>
<path d="M195.848 227.955H239.797" stroke="black" stroke-miterlimit="10" stroke-linecap="round" stroke-linejoin="round"/>
<path d="M210.787 238.699H245.294C245.294 238.699 250.646 239.691 250.646 248.908L210.787 238.699Z" fill="black"/>
<path d="M64.6194 228.589H130.89C132.959 228.589 134.441 226.593 133.843 224.612L119.721 177.866C119.094 175.791 117.18 174.368 115.013 174.368H48.7457C46.6767 174.368 45.1939 176.364 45.7927 178.344L59.9143 225.091C60.5385 227.169 62.4522 228.589 64.6194 228.589Z" fill="white"/>
<path d="M62.9687 230.407H129.239C131.308 230.407 132.791 228.411 132.192 226.431L118.07 179.684C117.443 177.609 115.529 176.187 113.362 176.187H47.0919C45.0229 176.187 43.5401 178.183 44.1389 180.163L58.2605 226.909C58.8846 228.988 60.7984 230.407 62.9687 230.407Z" fill="#441153"/>
<path d="M95.106 241.776H78.4402V239.545H95.106C95.7206 239.545 96.2212 240.046 96.2212 240.66C96.2212 241.278 95.7238 241.776 95.106 241.776Z" fill="black"/>
<path d="M81.6276 241.779H69.5433C68.4788 241.779 67.7627 240.689 68.1809 239.71L83.1643 204.731H95.3183L96.2213 207.719L81.6276 241.779Z" fill="black"/>
<path d="M79.4508 241.776L95.3213 204.728H80.5408L65.5574 239.71C65.1392 240.689 65.8552 241.776 66.9198 241.776H79.4508Z" fill="#5FA3FA"/>
<path d="M99.5953 227.955V245.331C99.5953 245.331 98.892 254.259 105.847 254.652C113.603 255.089 111.958 243.246 120.884 243.246C127.439 243.246 126.72 250.967 133.114 250.229C137.949 249.671 138.072 241.776 143.693 241.776C148.671 241.776 151.133 245.888 155.099 241.776" stroke="black" stroke-miterlimit="10" stroke-linecap="round" stroke-linejoin="round"/>
<path d="M99.5763 229.143C100.233 229.143 100.764 228.611 100.764 227.955C100.764 227.299 100.233 226.767 99.5763 226.767C98.9201 226.767 98.3882 227.299 98.3882 227.955C98.3882 228.611 98.9201 229.143 99.5763 229.143Z" fill="black"/>
<path d="M103.977 229.143C104.633 229.143 105.165 228.611 105.165 227.955C105.165 227.299 104.633 226.767 103.977 226.767C103.321 226.767 102.789 227.299 102.789 227.955C102.789 228.611 103.321 229.143 103.977 229.143Z" fill="black"/>
<path d="M108.378 229.143C109.034 229.143 109.566 228.611 109.566 227.955C109.566 227.299 109.034 226.767 108.378 226.767C107.722 226.767 107.19 227.299 107.19 227.955C107.19 228.611 107.722 229.143 108.378 229.143Z" fill="black"/>
<path d="M159.196 233.95L162.501 206.755L174.154 199.731C174.154 199.731 175.817 200.618 176.074 203.185L164.877 208.305L161.598 233.946H159.196V233.95Z" fill="black"/>
<path d="M170.184 241.779H156.421L153.693 213.387H172.912L170.184 241.779Z" fill="#DD464D"/>
<path d="M173.593 212.104H153.011V214.521H173.593V212.104Z" fill="#DD464D"/>
<path d="M156.959 214.521L172.497 217.696L172.801 214.521H156.959Z" fill="black"/>
<path d="M275.898 212.661C275.898 212.661 275.569 206.131 262.508 197.535C253.966 191.911 264.657 183.566 273.088 193.404C279.123 200.444 278.873 211.093 278.873 211.093C278.873 211.093 274.491 173.899 291.518 175.47C307.224 170.014 311.295 179.612 310.839 186.63C310.652 189.481 308.96 193.904 302.595 193.654C295.029 193.359 292.551 183.902 292.551 183.902C292.551 183.902 281.351 191.423 281.433 212.664" fill="#B8C13E"/>
<path d="M279.969 209.768C279.969 209.768 281.148 181.335 290.279 179.104" stroke="black" stroke-miterlimit="10" stroke-linecap="round" stroke-linejoin="round"/>
<path d="M292.222 175.55C292.222 175.55 304.496 175.22 304.496 191.42" stroke="black" stroke-miterlimit="10" stroke-linecap="round" stroke-linejoin="round"/>
<path d="M265.027 192.577C265.027 192.577 276 199.519 277.736 211.733" stroke="black" stroke-miterlimit="10" stroke-linecap="round" stroke-linejoin="round"/>
<path d="M289.886 241.775H270.049L267.385 210.183H292.551L289.886 241.775Z" fill="#F9B741"/>
<path d="M278.861 210.183C278.861 210.183 282.232 207.981 283.718 207.3C285.207 206.619 288.771 209.284 290.197 210.462C291.623 211.641 296.147 225.981 294.722 231.881C293.423 237.254 285.112 237.52 283.502 231.291C282.444 227.201 284.659 210.183 284.659 210.183H278.861Z" fill="black"/>
<path d="M292.244 239.07H267.695V241.779H292.244V239.07Z" fill="black"/>
<path d="M206.139 13.936C172.478 15.8085 147.819 29.2869 138.985 34.4165L133.985 26.654L121.435 51.0538L148.842 49.7231L144.305 42.6766C153.214 36.9703 174.588 23.3969 207.416 22.101C256.777 20.1524 282.232 58.5851 282.232 58.5851C282.232 58.5851 258.975 10.9957 206.139 13.936Z" fill="black"/>
<path d="M61.2769 212.104H7.65493C3.60888 212.104 0.32959 208.824 0.32959 204.778C0.32959 200.732 3.60888 197.453 7.65493 197.453H61.2769C65.323 197.453 68.6022 200.732 68.6022 204.778C68.6022 208.824 65.323 212.104 61.2769 212.104Z" fill="white" stroke="black" stroke-miterlimit="10" stroke-linecap="round" stroke-linejoin="round"/>
<path d="M63.5137 209.227L61.2832 206.996C61.863 206.21 62.2084 205.244 62.2084 204.195C62.2084 201.578 60.0792 199.452 57.4653 199.452C54.8482 199.452 52.7222 201.581 52.7222 204.195C52.7222 206.812 54.8513 208.938 57.4653 208.938C58.514 208.938 59.4804 208.593 60.2661 208.013L62.4967 210.244C62.6361 210.383 62.8199 210.456 63.0068 210.456C63.1937 210.456 63.3743 210.386 63.5169 210.244C63.7957 209.962 63.7957 209.505 63.5137 209.227ZM54.1606 204.192C54.1606 202.37 55.6434 200.887 57.4653 200.887C59.2871 200.887 60.7699 202.37 60.7699 204.192C60.7699 206.014 59.2871 207.497 57.4653 207.497C55.6403 207.5 54.1606 206.017 54.1606 204.192Z" fill="black"/>
<path d="M34.6592 204.113C36.18 203.283 37.8371 202.437 39.5068 202.798C44.006 203.767 44.7474 207.5 50.4188 207.5" fill="white"/>
<path d="M34.6592 204.113C36.18 203.283 37.8371 202.437 39.5068 202.798C44.006 203.767 44.7474 207.5 50.4188 207.5" stroke="black" stroke-width="2" stroke-miterlimit="10" stroke-linecap="round" stroke-linejoin="round"/>
<path d="M16.8179 206.305C18.0124 206.172 19.5047 204.652 21.073 204.734C22.6414 204.816 26.114 206.841 28.8419 206.882C29.9826 206.898 31.3038 206.115 32.7581 205.228" fill="white"/>
<path d="M16.8179 206.305C18.0124 206.172 19.5047 204.652 21.073 204.734C22.6414 204.816 26.114 206.841 28.8419 206.882C29.9826 206.898 31.3038 206.115 32.7581 205.228" stroke="black" stroke-width="2" stroke-miterlimit="10" stroke-linecap="round" stroke-linejoin="round"/>
<path d="M3.24463 205.659C6.32431 205.811 7.12275 203.726 9.62578 203.384C11.5712 203.118 13.2694 204.823 14.8853 205.716" fill="white"/>
<path d="M3.24463 205.659C6.32431 205.811 7.12275 203.726 9.62578 203.384C11.5712 203.118 13.2694 204.823 14.8853 205.716" stroke="black" stroke-width="2" stroke-miterlimit="10" stroke-linecap="round" stroke-linejoin="round"/>
<path d="M6.77734 241.775H307.927" stroke="black" stroke-miterlimit="10" stroke-linecap="round" stroke-linejoin="round"/>
<path d="M162.01 245.33H220.521" stroke="black" stroke-miterlimit="10" stroke-linecap="round" stroke-linejoin="round"/>
</g>
<defs>
<clipPath id="clip0_25_492">
<rect width="334.662" height="259.105" fill="white" transform="translate(0.171143 0.894775)"/>
</clipPath>
</defs>
</svg>
