<svg width="92" height="80" viewBox="0 0 92 80" fill="none" xmlns="http://www.w3.org/2000/svg">
<g clip-path="url(#clip0_41_3125)">
<path d="M36.5141 44.632C39.2522 31.979 37.5162 18.9427 31.5182 7.08472C27.1075 19.5077 28.2169 32.8285 34.6489 44.632H36.5141Z" fill="white"/>
<path d="M36.514 44.7086H34.6464C34.6098 44.7086 34.5781 44.6905 34.5635 44.6642C28.1291 32.8506 27.0148 19.4975 31.4279 7.06451C31.4377 7.03425 31.4718 7.01205 31.5108 7.01003C31.5474 7.006 31.584 7.02618 31.601 7.05644C37.621 18.9528 39.3496 31.9507 36.6042 44.6461C36.5969 44.6824 36.5603 44.7086 36.514 44.7086ZM34.7073 44.5573H36.4384C39.1448 31.981 37.4478 19.1081 31.5328 7.31269C27.222 19.6368 28.3485 32.8527 34.7073 44.5573Z" fill="#D0D0FF"/>
<path d="M27.5123 72.5711C21.4387 64.123 18.2666 54.4623 18.3373 44.6321H27.5123H35.1439H39.0889H46.7204H55.8954C55.9661 54.4623 52.794 64.123 46.7204 72.5711H27.5123Z" fill="white"/>
<path d="M46.7179 72.6476H27.5122C27.4805 72.6476 27.4512 72.6335 27.4341 72.6113C21.3533 64.1511 18.1763 54.4763 18.247 44.634C18.247 44.5916 18.2885 44.5593 18.3397 44.5593H55.8952C55.9464 44.5593 55.9854 44.5936 55.9879 44.634C56.0586 54.4783 52.8816 64.1511 46.8008 72.6113C46.7812 72.6335 46.7496 72.6476 46.7179 72.6476ZM27.5634 72.4963H46.6642C52.6963 64.0906 55.8538 54.4844 55.8001 44.7086H18.4299C18.3738 54.4844 21.5337 64.0906 27.5634 72.4963Z" fill="#D0D0FF"/>
<path d="M38.4866 44.632C48.9294 34.134 62.2834 25.8816 77.4124 20.5791C66.9721 30.3972 54.447 38.5507 40.4591 44.632H38.4866Z" fill="white"/>
<path d="M40.459 44.7086H38.4865C38.4524 44.7086 38.4183 44.6925 38.4036 44.6663C38.389 44.64 38.3939 44.6078 38.4158 44.5856C48.8245 34.1218 62.298 25.7968 77.3782 20.5104C77.4172 20.4963 77.4636 20.5064 77.488 20.5367C77.5123 20.5649 77.5099 20.6053 77.4831 20.6315C66.9964 30.494 54.5543 38.593 40.5029 44.7026C40.4883 44.7046 40.4737 44.7086 40.459 44.7086ZM38.6816 44.5573H40.4371C54.3421 38.5083 66.6672 30.5101 77.0783 20.7808C62.2346 26.0409 48.9683 34.255 38.6816 44.5573Z" fill="#D0D0FF"/>
<path d="M41.4463 44.632C47.376 41.8193 54.003 40.1709 60.8227 39.8077C65.7088 41.8133 71.0265 42.9956 76.471 43.2842C73.5306 39.2891 69.3393 36.0285 64.3386 33.8474C54.754 34.7574 45.9277 38.6051 39.603 44.632H41.4463Z" fill="white"/>
<path d="M41.4464 44.7086H39.6031C39.5665 44.7086 39.5348 44.6905 39.5202 44.6643C39.5056 44.638 39.5104 44.6057 39.5348 44.5835C45.8912 38.5264 54.698 34.6868 64.3289 33.7727C64.3484 33.7707 64.3654 33.7748 64.3825 33.7808C69.3954 35.968 73.6038 39.2407 76.5491 43.2458C76.5662 43.27 76.5662 43.3003 76.5491 43.3245C76.5321 43.3487 76.5028 43.3649 76.4638 43.3608C70.9876 43.0703 65.7186 41.902 60.8032 39.8864C54.0445 40.2495 47.3663 41.9141 41.4903 44.7006C41.4781 44.7046 41.461 44.7086 41.4464 44.7086ZM39.803 44.5573H41.422C47.3249 41.7628 54.0299 40.0942 60.8179 39.733C60.8374 39.733 60.8496 39.735 60.8642 39.7411C65.7113 41.7325 70.9047 42.8947 76.3004 43.2014C73.3795 39.2831 69.2418 36.079 64.3216 33.9281C54.8126 34.834 46.1131 38.6071 39.803 44.5573Z" fill="#D0D0FF"/>
<path d="M34.6488 44.632C28.7532 37.4369 20.851 31.5211 11.6078 27.3908C7.88708 27.1527 4.14444 27.4534 0.548096 28.2786C4.09811 28.7508 7.50428 29.7879 10.5788 31.3294C16.8694 37.1081 24.6399 41.6539 33.3199 44.634H34.6488V44.632Z" fill="white"/>
<path d="M34.6485 44.7086H33.3197C33.3075 44.7086 33.2953 44.7066 33.2856 44.7026C24.6495 41.7386 16.779 37.1342 10.5201 31.3878C7.44311 29.8463 4.08327 28.8253 0.533257 28.3532C0.491808 28.3471 0.457673 28.3189 0.457673 28.2826C0.455235 28.2463 0.482055 28.214 0.523504 28.2059C4.14179 27.3766 7.87224 27.078 11.6149 27.3161C11.6271 27.3161 11.6393 27.3201 11.6514 27.3242C20.8678 31.4443 28.8456 37.4147 34.7241 44.5896C34.7436 44.6118 34.7461 44.642 34.729 44.6683C34.7119 44.6925 34.6827 44.7086 34.6485 44.7086ZM33.3368 44.5573H34.473C28.6237 37.459 20.7118 31.5512 11.5783 27.4654C8.00146 27.2374 4.43681 27.5058 0.972133 28.2604C4.3978 28.7587 7.64305 29.7696 10.625 31.2627C10.6323 31.2667 10.6396 31.2708 10.6445 31.2768C16.8838 37.0071 24.7299 41.5993 33.3368 44.5573Z" fill="#D0D0FF"/>
<path d="M33.3198 44.6322C25.5736 39.8967 16.367 37.0679 6.76294 36.4727C14.9236 40.5363 23.9303 43.3046 33.3198 44.6322Z" fill="white"/>
<path d="M33.3198 44.7088C33.3149 44.7088 33.31 44.7088 33.3052 44.7088C23.8669 43.3731 14.9211 40.625 6.7166 36.5392C6.68003 36.521 6.66296 36.4847 6.67759 36.4504C6.68978 36.4161 6.73123 36.3979 6.77268 36.3979C16.406 36.9952 25.6078 39.822 33.3759 44.5716C33.41 44.5918 33.4222 44.6301 33.4051 44.6624C33.3881 44.6907 33.3564 44.7088 33.3198 44.7088ZM7.14328 36.5735C15.1259 40.504 23.8035 43.1693 32.9492 44.503C25.381 39.9471 16.4743 37.2111 7.14328 36.5735Z" fill="#D0D0FF"/>
<path d="M38.8083 44.6321C45.1476 31.9308 48.2685 18.2871 47.9833 4.54663C39.0497 16.5337 35.134 30.6193 36.8358 44.6321H38.8083Z" fill="white"/>
<path d="M38.8082 44.7088H36.8357C36.7894 44.7088 36.7504 44.6785 36.7455 44.6402C35.897 37.6589 36.431 30.6515 38.3328 23.8135C40.2346 16.9756 43.4554 10.4806 47.9051 4.50823C47.9271 4.47998 47.9685 4.46586 48.0075 4.47393C48.0465 4.482 48.0734 4.51227 48.0758 4.54657C48.366 18.3779 45.2768 31.8762 38.8935 44.6624C38.8789 44.6906 38.8448 44.7088 38.8082 44.7088ZM36.9186 44.5574H38.7473C45.0622 31.8843 48.1416 18.511 47.8954 4.80887C43.5408 10.7066 40.3833 17.1107 38.5083 23.8478C36.6187 30.6475 36.0847 37.6146 36.9186 44.5574Z" fill="#D0D0FF"/>
<path d="M33.9418 44.6319C23.2722 31.8216 19.0493 16.0755 22.1653 0.730957C30.0943 14.4795 34.5903 29.4105 35.3852 44.6319H33.9418Z" fill="white"/>
<path d="M35.3875 44.7087H33.9441C33.9149 44.7087 33.8856 44.6966 33.8685 44.6764C28.5508 38.2924 24.8253 31.2184 22.7942 23.65C20.7632 16.0816 20.5218 8.36598 22.075 0.718922C22.0823 0.686639 22.114 0.662426 22.153 0.656373C22.1944 0.652338 22.231 0.668479 22.2481 0.698745C30.2259 14.5341 34.678 29.3137 35.4777 44.628C35.4777 44.6482 35.4704 44.6683 35.4534 44.6845C35.4363 44.7006 35.4119 44.7087 35.3875 44.7087ZM33.9904 44.5574H35.29C34.4854 29.3722 30.0845 14.7136 22.2066 0.98324C20.7096 8.53143 20.968 16.1462 22.9722 23.6177C24.9959 31.1518 28.702 38.1976 33.9904 44.5574Z" fill="#D0D0FF"/>
<path d="M37.7769 44.6321C42.5435 28.9183 53.6154 15.0083 69.1809 5.18213C64.2606 20.4662 53.9641 34.1966 39.6006 44.6321H37.7769Z" fill="white"/>
<path d="M39.6006 44.7087H37.7769C37.7476 44.7087 37.7232 44.6987 37.7037 44.6805C37.6867 44.6623 37.6793 44.6381 37.6867 44.6159C42.4412 28.9445 53.6057 14.9195 69.1272 5.1216C69.1589 5.10142 69.2004 5.10142 69.2345 5.11958C69.2662 5.13774 69.2808 5.17002 69.2711 5.2023C64.3289 20.5549 54.0909 34.2087 39.6616 44.6906C39.6445 44.7027 39.6226 44.7087 39.6006 44.7087ZM37.8939 44.5574H39.5665C53.8861 34.1481 64.068 20.6034 69.0248 5.37784C53.6788 15.1273 42.6313 29.0313 37.8939 44.5574Z" fill="#D0D0FF"/>
<path d="M46.2058 16.7192H40.0713L37.0796 13.0894H43.2141L46.2058 16.7192Z" fill="#2E175A"/>
<path d="M42.0413 14.5603C42.3777 14.9699 42.346 15.3008 41.9681 15.3008C41.5902 15.3008 41.0123 14.9699 40.6734 14.5603C40.337 14.1507 40.3687 13.8198 40.7466 13.8198C41.1245 13.8198 41.7048 14.1507 42.0413 14.5603Z" fill="white"/>
<path d="M49.5899 16.7192H45.5376V16.1179H48.8657C49.2656 16.1179 49.5899 16.3883 49.5899 16.7192Z" fill="#2E175A"/>
<path d="M46.0545 16.6164C46.0594 16.6164 46.0643 16.6164 46.0667 16.6124C46.0789 16.6063 46.0813 16.5942 46.074 16.5841L45.8058 16.227C45.7985 16.2169 45.7839 16.2149 45.7717 16.2209C45.7595 16.227 45.7571 16.2391 45.7644 16.2492L46.0326 16.6063C46.0374 16.6124 46.0472 16.6164 46.0545 16.6164Z" fill="#9566DA"/>
<path d="M80.0235 39.497C78.8994 39.1862 79.7479 37.8525 80.9134 37.5842C82.0789 37.3158 83.5613 37.7194 84.1001 38.1996C84.8706 38.2742 84.8877 39.279 84.4268 40.0014C83.966 40.7257 84.0124 41.7548 82.8371 42.1744L80.0235 39.497Z" fill="#2E175A"/>
<path d="M80.0236 39.497C79.7334 40.9518 79.3067 42.3984 81.2085 41.9223L81.2329 42.8222L81.2817 43.6313L83.4224 42.9493C83.4224 42.9493 82.9445 41.9404 82.9274 41.0042C82.9274 41.0042 84.0051 40.6773 83.4614 40.0579C83.0006 39.5374 82.2009 40.1911 82.2009 40.1911C82.2009 40.1911 82.0741 39.5474 82.1984 39.2246C81.4718 39.4587 80.5453 39.6261 80.0236 39.497Z" fill="#FFBFC6"/>
<path d="M80.0481 40.2092L79.6531 40.4009C79.5409 40.4554 79.4848 40.5664 79.519 40.6713C79.5531 40.7762 79.6653 40.8488 79.7945 40.8529L80.0237 40.8569L80.0481 40.2092Z" fill="#FFBFC6"/>
<path d="M82.4642 40.3887C82.4764 40.3927 82.491 40.3927 82.5056 40.3887L83.1055 40.1869C83.1347 40.1768 83.1469 40.1506 83.1371 40.1264C83.125 40.1022 83.0933 40.0921 83.064 40.1001L82.4642 40.3019C82.4349 40.312 82.4228 40.3382 82.4325 40.3624C82.4398 40.3766 82.4496 40.3846 82.4642 40.3887Z" fill="#F22D5C"/>
<path d="M81.2085 41.9202L81.2329 42.8201C81.8327 42.3662 81.9741 41.4985 81.9838 41.4219C81.9424 41.5086 81.5864 41.8093 81.2085 41.9202Z" fill="#2E175A"/>
<path d="M80.3625 40.2192C80.4918 40.415 80.738 40.538 81.0087 40.5481C81.0111 40.5501 81.0135 40.5481 81.016 40.5501C81.2891 40.5522 81.5451 40.4392 81.684 40.2435C81.5695 40.0377 81.333 39.9045 81.0623 39.8904C81.0501 39.8863 81.0428 39.8863 81.0331 39.8863C80.7527 39.8823 80.4893 40.0114 80.3625 40.2192Z" fill="white"/>
<path d="M80.3625 40.2192C80.4918 40.415 80.738 40.538 81.0087 40.5481C81.0209 40.5401 81.0306 40.53 81.0404 40.5199C81.2208 40.3322 81.2232 40.074 81.0623 39.8904C81.0501 39.8863 81.0428 39.8863 81.0331 39.8863C80.7527 39.8823 80.4893 40.0114 80.3625 40.2192Z" fill="#2E175A"/>
<path d="M81.3231 40.8044C81.0671 40.9195 80.7745 40.9679 80.4844 40.9416C80.5429 41.1232 80.7599 41.2362 80.9818 41.1999C81.2036 41.1616 81.3548 40.9901 81.3231 40.8044Z" fill="white"/>
<path d="M81.3645 39.6926C81.0792 39.5453 80.6793 39.5372 80.3673 39.6966L80.3624 39.6986C80.299 39.7309 80.277 39.8015 80.3161 39.854C80.3551 39.9065 80.4404 39.9246 80.5038 39.8903C80.5111 39.8863 80.5184 39.8822 80.5233 39.8782C80.7232 39.7309 81.0378 39.6805 81.3133 39.7733C81.3425 39.7834 81.3742 39.7713 81.3864 39.7471C81.3986 39.7289 81.3889 39.7047 81.3645 39.6926Z" fill="#2E175A"/>
<path d="M80.3575 37.9898C80.3599 37.9898 80.3648 37.9918 80.3672 37.9918C80.9232 38.0766 81.4888 37.9515 81.9179 37.6468C81.9423 37.6307 81.9448 37.6004 81.9253 37.5822C81.9057 37.5621 81.8692 37.56 81.8472 37.5762C81.4449 37.8627 80.9134 37.9797 80.3916 37.901C80.3624 37.897 80.3331 37.9131 80.3258 37.9374C80.316 37.9616 80.3331 37.9817 80.3575 37.9898Z" fill="#4A3797"/>
<path d="M80.0893 38.5749C81.1353 38.9078 81.8692 38.6274 82.2203 38.2279C82.4983 37.9131 82.9371 37.8647 83.1639 37.9111C83.1931 37.9171 83.2248 37.901 83.2321 37.8768C83.2395 37.8526 83.2224 37.8263 83.1907 37.8203C82.9347 37.7698 82.4397 37.8203 82.1301 38.1734C81.7765 38.5749 80.9963 38.8432 79.8748 38.3953C79.8455 38.3832 79.8138 38.3933 79.7992 38.4175C79.7845 38.4397 79.7967 38.468 79.826 38.4801C79.9162 38.5164 80.004 38.5487 80.0893 38.5749Z" fill="#4A3797"/>
<path d="M84.2466 40.0619C84.254 40.0639 84.2613 40.0659 84.2686 40.0659C84.3003 40.0659 84.3247 40.0437 84.3222 40.0175C84.3149 39.8359 84.2637 39.7088 84.1613 39.6301C84.0175 39.5191 83.8102 39.5252 83.6103 39.5312C83.2884 39.5413 83.0885 39.5332 83.0519 39.2427C83.0056 38.8775 83.2592 38.8049 83.5566 38.7221C83.7956 38.6535 84.0662 38.5789 84.1101 38.3125C84.115 38.2883 84.093 38.2641 84.0613 38.2601C84.0296 38.256 84.0028 38.2742 83.998 38.3004C83.9638 38.5103 83.7566 38.5688 83.5176 38.6354C83.2202 38.7201 82.8837 38.8149 82.9398 39.2528C82.991 39.6442 83.3372 39.6321 83.6152 39.624C83.8005 39.618 83.976 39.6119 84.0857 39.6967C84.1637 39.7572 84.2052 39.8621 84.2101 40.0195C84.2101 40.0397 84.2271 40.0558 84.2466 40.0619Z" fill="#4A3797"/>
<path d="M79.6749 40.879C79.7115 40.8911 79.7505 40.8972 79.792 40.8972L80.0211 40.9012C80.0528 40.9012 80.0772 40.881 80.0772 40.8568C80.0772 40.8306 80.0528 40.8104 80.0236 40.8104L79.7944 40.8064C79.6895 40.8043 79.5969 40.7438 79.5701 40.6611C79.5433 40.5763 79.5871 40.4876 79.6798 40.4432L80.0748 40.2515C80.1016 40.2394 80.1114 40.2091 80.0943 40.1889C80.0772 40.1667 80.0431 40.1587 80.0187 40.1728L79.6237 40.3645C79.4896 40.429 79.4238 40.5622 79.4628 40.6853C79.4921 40.7741 79.5725 40.8447 79.6749 40.879Z" fill="#2E175A"/>
<path d="M80.4867 55.1443H72.0481V58.2858H80.4867V55.1443Z" fill="#9566DA"/>
<path d="M66.2464 58.2859H72.0664V55.1443H66.2464V58.2859Z" fill="#D0D0FF"/>
<path d="M79.2092 57.2811H74.2646C74.2304 57.2811 74.2012 57.2569 74.2012 57.2286V56.2016C74.2012 56.1734 74.2304 56.1492 74.2646 56.1492H79.2092C79.2434 56.1492 79.2726 56.1734 79.2726 56.2016V57.2286C79.2726 57.2569 79.2434 57.2811 79.2092 57.2811ZM74.3255 57.1762H79.1458V56.2541H74.3255V57.1762Z" fill="white"/>
<path d="M77.1854 56.7159C77.1854 56.8229 77.0806 56.9096 76.9514 56.9096C76.8221 56.9096 76.7173 56.8229 76.7173 56.7159C76.7173 56.609 76.8221 56.5223 76.9514 56.5223C77.0806 56.5202 77.1854 56.607 77.1854 56.7159Z" fill="white"/>
<path d="M72.0678 70.4989C72.0336 70.4989 72.0044 70.4747 72.0044 70.4464V55.1443C72.0044 55.116 72.0336 55.0918 72.0678 55.0918C72.1019 55.0918 72.1312 55.114 72.1312 55.1443V70.4464C72.1312 70.4767 72.1019 70.4989 72.0678 70.4989Z" fill="#9566DA"/>
<path d="M80.4868 70.4989C80.4526 70.4989 80.4234 70.4747 80.4234 70.4464V55.1967H66.2916V70.4464C66.2916 70.4747 66.2623 70.4989 66.2282 70.4989C66.1941 70.4989 66.1648 70.4747 66.1648 70.4464V55.1443C66.1648 55.116 66.1941 55.0918 66.2282 55.0918H80.4843C80.5185 55.0918 80.5477 55.114 80.5477 55.1443V70.4464C80.5502 70.4767 80.5209 70.4989 80.4868 70.4989Z" fill="#9566DA"/>
<path d="M81.4865 61.3265L82.2862 68.2936H84.7268L85.3657 60.6687L85.9484 59.9908L87.3918 58.3141L86.0167 54.3513L85.3657 52.4749L81.9717 58.8427C81.5547 59.6235 81.3914 60.479 81.4865 61.3265Z" fill="#F22D5C"/>
<path d="M85.8826 55.685L85.9508 59.9908L87.3943 58.3141L86.0191 54.3513L85.8826 55.685Z" fill="#2E175A"/>
<path d="M91.1782 50.3541L85.368 52.4726C85.368 52.4726 84.3903 50.1362 81.9813 48.3949C81.0548 47.725 80.9914 46.3691 81.0572 45.5156C81.0987 44.987 80.9719 44.4624 80.6769 43.9923C80.5452 43.7845 80.6428 43.5262 80.8915 43.4152L83.0956 42.4346C83.3443 42.3236 83.6564 42.3983 83.7953 42.6041L83.9709 42.8644C84.1391 43.1126 84.422 43.2881 84.7536 43.3708C85.1315 43.4636 85.6728 43.6795 86.1628 44.1698C87.0357 45.0415 90.4492 49.1818 90.4492 49.1818L91.366 49.5773L91.1782 50.3541Z" fill="#2E175A"/>
<path d="M81.2425 44.7168L79.7796 48.1247H76.1223V50.1464H80.0112C81.0304 50.1464 81.952 49.6521 82.369 48.8813L83.7636 46.3067L81.2425 44.7168Z" fill="#2E175A"/>
<path d="M81.3914 44.4666C81.4134 44.4666 81.4353 44.4565 81.4426 44.4383C81.6694 43.9783 82.2253 43.6837 82.8251 43.714C82.8592 43.716 82.8812 43.6958 82.8836 43.6696C82.8861 43.6433 82.8617 43.6211 82.83 43.6211C82.1765 43.5929 81.5841 43.9077 81.3378 44.404C81.3256 44.4282 81.3402 44.4544 81.3695 44.4645C81.3768 44.4645 81.3841 44.4666 81.3914 44.4666Z" fill="#9566DA"/>
<path d="M83.2054 48.6352L79.414 53.8428L77.9121 53.0943L80.877 46.3572L83.2054 48.6352Z" fill="#2E175A"/>
<path d="M81.0671 47.243C82.096 47.243 82.6982 46.4177 82.8786 46.1231C82.9079 46.0767 82.9372 46.0263 82.9689 45.9698C83.2298 45.5259 83.6223 44.856 84.4318 44.6361C85.0194 44.4767 85.7508 44.5796 86.6042 44.9489C86.631 44.961 86.6652 44.9529 86.6798 44.9287C86.6944 44.9065 86.6847 44.8782 86.6554 44.8661C85.7752 44.4868 85.0145 44.3778 84.3952 44.5473C83.5418 44.7794 83.1347 45.4714 82.8665 45.9295C82.8348 45.9839 82.8055 46.0344 82.7762 46.0808C82.5714 46.4117 81.8034 47.4609 80.4697 47.0553C80.4405 47.0452 80.4088 47.0594 80.399 47.0836C80.3893 47.1078 80.4039 47.134 80.4331 47.1421C80.6599 47.2127 80.872 47.243 81.0671 47.243Z" fill="#4A3797"/>
<path d="M84.3904 50.5417C84.3953 50.5417 84.4026 50.5417 84.4074 50.5397C85.1194 50.348 85.5436 49.7992 85.7363 49.4885C85.7655 49.4421 85.7948 49.3896 85.8265 49.3351C86.0874 48.8912 86.4799 48.2214 87.2894 48.0014C87.8794 47.84 88.6085 47.9449 89.4618 48.3142C89.4887 48.3263 89.5228 48.3162 89.5374 48.294C89.552 48.2718 89.5423 48.2435 89.513 48.2314C88.6328 47.8521 87.8721 47.7452 87.2528 47.9126C86.3995 48.1447 85.9923 48.8368 85.7241 49.2948C85.6924 49.3492 85.6631 49.3997 85.6339 49.4461C85.3218 49.9525 84.861 50.3177 84.3709 50.4509C84.3416 50.459 84.3245 50.4852 84.3343 50.5094C84.3465 50.5296 84.3684 50.5417 84.3904 50.5417Z" fill="#4A3797"/>
<path d="M85.3682 52.4728L87.9088 68.2936H90.5518L91.1686 53.8428C91.1686 53.8428 92.5267 51.9502 91.1808 50.3542L85.3682 52.4728Z" fill="#F22D5C"/>
<path d="M89.4886 53.8891C89.5105 53.8891 89.53 53.879 89.5398 53.8609C89.552 53.8366 89.5398 53.8104 89.5105 53.8003L86.9602 52.8984C86.9309 52.8883 86.8992 52.8984 86.887 52.9226C86.8748 52.9468 86.887 52.9731 86.9163 52.9832L89.4666 53.8851C89.474 53.8871 89.4813 53.8891 89.4886 53.8891Z" fill="white"/>
<path d="M78.6582 70.4786H84.5489L84.5855 70.0226L84.6903 68.7817L84.7318 68.2935H82.73C82.6105 68.4993 82.5203 68.6587 82.4277 68.7817C82.1814 69.1187 81.8839 69.2135 80.6868 69.387C79.8627 69.5041 79.3555 69.7805 79.0556 70.0226C78.7533 70.2688 78.6582 70.4786 78.6582 70.4786Z" fill="#FFBFC6"/>
<path d="M78.6582 70.4786H84.5489L84.5855 70.0226L84.6903 68.7817H82.4277C82.1814 69.1187 81.8839 69.2135 80.6868 69.387C79.8627 69.5041 79.3555 69.7805 79.0556 70.0226C78.7533 70.2688 78.6582 70.4786 78.6582 70.4786Z" fill="#2E175A"/>
<path d="M78.6582 70.4787H84.5489L84.5855 70.0227H79.0532C78.7533 70.2689 78.6582 70.4787 78.6582 70.4787Z" fill="#F22D5C"/>
<path d="M84.7268 70.4786H90.3907L90.3981 70.0226L90.4224 68.7817L90.4298 68.2935H88.5036C88.4012 68.4993 88.3256 68.6587 88.2451 68.7817C88.0306 69.1187 87.7502 69.2135 86.6091 69.387C85.824 69.5041 85.3534 69.7805 85.0779 70.0226C84.8073 70.2688 84.7268 70.4786 84.7268 70.4786Z" fill="#FFBFC6"/>
<path d="M84.7268 70.4786H90.3907L90.3981 70.0226L90.4224 68.7817H88.2451C88.0306 69.1187 87.7502 69.2135 86.6091 69.387C85.824 69.5041 85.3534 69.7805 85.0779 70.0226C84.8073 70.2688 84.7268 70.4786 84.7268 70.4786Z" fill="#2E175A"/>
<path d="M84.7268 70.4787H90.3907L90.3981 70.0227H85.0779C84.8073 70.2689 84.7268 70.4787 84.7268 70.4787Z" fill="#F22D5C"/>
<path d="M88.216 67.66H90.1666C90.1982 67.66 90.2226 67.6398 90.2226 67.6135C90.2226 67.5873 90.1982 67.5671 90.1666 67.5671H88.216C88.1843 67.5671 88.1599 67.5873 88.1599 67.6135C88.1599 67.6398 88.1843 67.66 88.216 67.66Z" fill="#2E175A"/>
<path d="M82.4762 67.66H84.4268C84.4585 67.66 84.4829 67.6398 84.4829 67.6135C84.4829 67.5873 84.4585 67.5671 84.4268 67.5671H82.4762C82.4445 67.5671 82.4202 67.5873 82.4202 67.6135C82.4202 67.6398 82.4445 67.66 82.4762 67.66Z" fill="#2E175A"/>
<path d="M82.4763 63.2009C82.4788 63.2009 82.4788 63.2009 82.4812 63.2009C82.5129 63.1989 82.5348 63.1767 82.5324 63.1505L82.3325 60.8987C82.2813 60.3358 82.4056 59.7668 82.6884 59.2543L84.444 56.2096C84.4561 56.1874 84.4464 56.1592 84.4171 56.1471C84.3903 56.137 84.3562 56.1451 84.3415 56.1693L82.586 59.214C82.2959 59.7426 82.1691 60.3257 82.2203 60.9048L82.4203 63.1565C82.4227 63.1828 82.4471 63.2009 82.4763 63.2009Z" fill="#2E175A"/>
<path d="M87.7283 62.9204C87.7307 62.9204 87.7332 62.9204 87.7332 62.9204C87.7649 62.9184 87.7868 62.8942 87.7819 62.87L86.7823 55.2572C86.7798 55.231 86.7555 55.2128 86.7213 55.2169C86.6896 55.2189 86.6677 55.2431 86.6726 55.2673L87.6722 62.8801C87.6747 62.9023 87.699 62.9204 87.7283 62.9204Z" fill="#2E175A"/>
<path d="M76.1225 48.2093C76.1225 48.2093 75.4227 48.3041 75.2179 48.0075C75.0131 47.7109 74.7571 47.5354 73.8257 47.5293C72.8943 47.5233 72.8066 47.2226 72.5676 47.4647C72.3433 47.6927 73.5039 48.0115 74.0183 47.9268C74.0183 47.9268 73.9233 48.288 73.2162 48.288C72.5115 48.288 72.0361 48.1709 71.8557 47.9268C71.6752 47.6827 71.5606 47.6766 71.4631 47.7049C71.368 47.7311 71.368 47.832 71.3997 47.9066C71.3997 47.9066 71.2266 48.0015 71.3412 48.2194C71.4558 48.4373 71.7971 48.9316 72.7773 48.978C73.7599 49.0264 75.452 49.085 76.1201 49.2807V48.2093H76.1225Z" fill="#FFBFC6"/>
<path d="M72.9162 48.6492C72.9454 48.6492 72.9698 48.631 72.9723 48.6068C72.9747 48.5806 72.9503 48.5584 72.9211 48.5584C71.8775 48.4979 71.6142 48.1226 71.5581 48.0076C71.5459 47.9834 71.5142 47.9713 71.485 47.9814C71.4557 47.9914 71.4435 48.0177 71.4533 48.0419C71.5167 48.169 71.8044 48.5846 72.9113 48.6492C72.9137 48.6492 72.9137 48.6492 72.9162 48.6492Z" fill="#F22D5C"/>
<path d="M79.414 53.8429L78.4778 55.1019H75.6812C75.6812 55.1019 75.7957 54.5067 77.1831 54.4724L78.0633 53.1689L79.414 53.8429Z" fill="#FFBFC6"/>
<path d="M79.3822 50.1947H80.0113C81.05 50.1947 81.996 49.6883 82.4202 48.9034L83.8149 46.3288C83.8271 46.3046 83.8149 46.2784 83.7856 46.2683C83.7564 46.2582 83.7247 46.2683 83.7125 46.2925L82.3178 48.8671C81.9107 49.6177 81.0061 50.1039 80.0113 50.1039H79.3822C79.3505 50.1039 79.3262 50.1241 79.3262 50.1503C79.3262 50.1725 79.353 50.1947 79.3822 50.1947Z" fill="#9566DA"/>
<path d="M86.1409 58.0799C86.1433 58.0799 86.1433 58.0799 86.1458 58.0799C86.1774 58.0779 86.1994 58.0557 86.197 58.0295L85.7459 53.8791C85.7434 53.8528 85.7191 53.8306 85.6849 53.8367C85.6532 53.8387 85.6313 53.8609 85.6337 53.8871L86.0848 58.0375C86.0872 58.0618 86.1116 58.0799 86.1409 58.0799Z" fill="#2E175A"/>
<path d="M85.2266 51.484C85.2339 51.484 85.2388 51.484 85.2461 51.482L90.9173 49.767C90.9466 49.7589 90.9612 49.7327 90.9515 49.7085C90.9417 49.6843 90.9076 49.6721 90.8807 49.6802L86.019 51.1491L90.1956 49.3513C90.2224 49.3392 90.2346 49.311 90.22 49.2888C90.2054 49.2666 90.1712 49.2565 90.1444 49.2686L85.2022 51.3973C85.1754 51.4094 85.1656 51.4356 85.1778 51.4578C85.1851 51.4739 85.2046 51.484 85.2266 51.484Z" fill="#9566DA"/>
<path d="M62.1711 23.0567H55.705L55.0759 21.5435H55.6196L62.1711 23.0567Z" fill="#2E175A"/>
<path d="M50.5701 28.7507L53.669 29.0896L53.8226 27.6813L53.9909 26.1519L54.3225 23.1374L51.4893 19.6892C50.7164 20.349 50.5701 28.7507 50.5701 28.7507Z" fill="#9566DA"/>
<path d="M52.0623 23.2102L53.769 28.1717L53.9909 26.15L52.0623 23.2102Z" fill="#2E175A"/>
<path d="M60.7667 18.7874C57.5946 18.287 53.1132 18.2063 51.877 19.1284C50.6409 20.0505 51.2723 21.3337 51.7063 22.5161C52.1428 23.6984 54.6614 28.9101 54.6614 28.9101L58.2212 27.5865L55.3149 21.6545C55.3149 21.6545 65.3432 25.4821 66.4331 20.4923L60.7667 18.7874Z" fill="#9566DA"/>
<path d="M55.171 21.5173C55.1856 21.5173 55.2026 21.5112 55.2124 21.5012C55.2319 21.483 55.2295 21.4547 55.2051 21.4386L54.3078 20.8172C54.2859 20.801 54.2517 20.803 54.2322 20.8232C54.2127 20.8414 54.2152 20.8696 54.2396 20.8858L55.1368 21.5072C55.1466 21.5153 55.1588 21.5173 55.171 21.5173Z" fill="#2E175A"/>
<path d="M58.2236 27.5864L58.5869 28.3895L54.8077 29.6808L54.4907 28.9685L54.6638 28.91L58.2236 27.5864Z" fill="#2E175A"/>
<path d="M53.669 29.0898L50.141 28.7024L50.0312 29.4005L53.6008 29.7919L53.669 29.0898Z" fill="#2E175A"/>
<path d="M46.7422 32.9578H52.9742L53.3107 30.2883L53.3717 29.792L51.3748 29.5479C51.3333 29.7779 51.287 30.0321 51.209 30.2883C50.9993 30.9602 50.5531 31.6362 49.3584 31.8198C47.7077 32.076 46.7422 32.9578 46.7422 32.9578Z" fill="#FFBFC6"/>
<path d="M46.7422 32.9577H52.9742L53.2327 30.9199L53.3131 30.2883H51.2114C51.1431 30.5042 51.0529 30.7181 50.9188 30.9199C50.6384 31.3436 50.1703 31.6947 49.3584 31.8218C47.7077 32.076 46.7422 32.9577 46.7422 32.9577Z" fill="#D0D0FF"/>
<path d="M46.7422 32.9575H52.9742L53.0352 32.4672L53.2327 30.9197H50.9188C50.6384 31.3434 50.1703 31.6945 49.3584 31.8216C48.5489 31.9467 47.9052 32.2211 47.4615 32.4693C46.9933 32.7295 46.7422 32.9575 46.7422 32.9575Z" fill="#F22D5C"/>
<path d="M46.7422 32.9576H52.9742L53.0352 32.4673H47.4615C46.9933 32.7296 46.7422 32.9576 46.7422 32.9576Z" fill="#2E175A"/>
<path d="M54.2761 32.9576H57.1361C57.7237 32.9576 58.2772 32.7195 58.6161 32.318L59.7865 30.9157L59.4914 30.4133L58.6039 28.8738L58.3699 28.4622L56.4047 29.1341C56.4876 29.2571 56.5607 29.3984 56.6217 29.5477C57.002 30.502 56.8679 31.8579 55.8512 31.9245C54.6735 32.0032 54.2761 32.9576 54.2761 32.9576Z" fill="#FFBFC6"/>
<path d="M54.2761 32.9576H57.1361C57.7237 32.9576 58.2772 32.7195 58.6161 32.318L59.7865 30.9157L59.4914 30.4133L58.8429 29.2914L58.6039 28.8738L56.6192 29.5497C56.6729 29.6849 56.7143 29.8261 56.7436 29.9734C56.9435 30.8612 56.7216 31.8701 55.8488 31.9265C54.6735 32.0032 54.2761 32.9576 54.2761 32.9576Z" fill="#D0D0FF"/>
<path d="M54.2761 32.9575H57.1361C57.7237 32.9575 58.2772 32.7194 58.6161 32.3179L59.784 30.9176L59.4914 30.4152L59.4695 30.3749L58.8429 29.2954L56.7436 29.9774C56.9435 30.8652 56.7216 31.874 55.8488 31.9305C55.2636 31.9689 54.8686 32.2231 54.6223 32.4713C54.3737 32.7154 54.2761 32.9575 54.2761 32.9575Z" fill="#F22D5C"/>
<path d="M54.2761 32.9576H57.1361C57.7237 32.9576 58.2772 32.7196 58.6161 32.318L59.784 30.9178L59.4914 30.4154L59.4695 30.375L58.0773 31.9549C57.792 32.2777 57.3385 32.4694 56.8509 32.4694H54.6223C54.3737 32.7155 54.2761 32.9576 54.2761 32.9576Z" fill="#2E175A"/>
<path d="M55.232 21.1319C55.2344 21.1319 55.2369 21.1319 55.2393 21.1319C55.2686 21.1278 55.2881 21.1056 55.2856 21.0814L55.2247 20.7061C55.2198 20.6819 55.193 20.6638 55.1637 20.6678C55.1345 20.6718 55.115 20.694 55.1174 20.7182L55.1783 21.0935C55.1832 21.1157 55.2052 21.1319 55.232 21.1319Z" fill="#2E175A"/>
<path d="M62.7319 20.8312C62.7466 20.8312 62.7636 20.8251 62.7734 20.8151C62.7929 20.7969 62.7904 20.7687 62.7661 20.7525L61.2641 19.7134C61.2422 19.6973 61.208 19.6993 61.1885 19.7195C61.169 19.7376 61.1715 19.7659 61.1959 19.782L62.6978 20.8211C62.7075 20.8272 62.7197 20.8312 62.7319 20.8312Z" fill="#2E175A"/>
<path d="M58.1726 6.47956C58.2945 6.43921 58.4213 6.42105 58.5456 6.41298C58.6529 5.96505 59.0186 5.56958 59.5697 5.39001C60.267 5.16201 61.0326 5.34965 61.4812 5.80767C62.6589 5.50905 63.934 6.00338 64.3973 6.96784C64.8849 7.98274 64.2851 9.13283 63.0587 9.53637C61.8323 9.9399 60.4425 9.44355 59.9573 8.42865C59.8939 8.2975 59.8501 8.16635 59.8232 8.03318C59.7891 8.02713 59.7574 8.01503 59.7257 8.00695C59.5867 8.1946 59.3795 8.35198 59.1137 8.43874C58.4603 8.65262 57.7215 8.3883 57.4606 7.84957C57.1997 7.30681 57.5191 6.69344 58.1726 6.47956Z" fill="#2E175A"/>
<path d="M61.1935 10.3716C61.1935 10.3716 61.352 10.5754 61.5397 10.9143C61.6909 11.1787 61.8615 11.5277 61.9859 11.9232L64.702 12.1996L61.8908 8.11782C61.8908 8.11782 61.1593 8.49311 60.5742 7.96246C59.989 7.43382 59.2405 7.99272 59.2405 7.99272C59.2405 7.99272 59.2551 10.9951 61.1935 10.3716Z" fill="#FFBFC6"/>
<path d="M61.1936 10.3715C61.1936 10.3715 61.3521 10.5753 61.5398 10.9142C61.7983 10.5591 61.7398 10.0466 61.7398 10.0466C61.7398 10.0466 61.5959 10.198 61.1936 10.3715Z" fill="#2E175A"/>
<path d="M59.6281 8.70093C59.355 8.85831 59.2184 9.07622 59.1526 9.23562C59.1282 9.29211 59.1429 9.35466 59.1867 9.40309C59.2306 9.45151 59.3013 9.47572 59.3721 9.4737C59.4769 9.46765 59.6086 9.44747 59.7646 9.39501L59.6281 8.70093Z" fill="#FFBFC6"/>
<path d="M59.7745 8.35384C59.7843 8.34981 59.794 8.34375 59.8013 8.33568C59.8964 8.20655 60.0451 8.11575 60.2207 8.07742C60.2548 8.07136 60.267 8.04715 60.2597 8.02294C60.2524 7.99873 60.2231 7.9846 60.1939 7.99066C59.9891 8.03505 59.8184 8.13997 59.7087 8.28928C59.694 8.30945 59.7014 8.3377 59.7257 8.34981C59.7404 8.35788 59.7599 8.35788 59.7745 8.35384Z" fill="#2E175A"/>
<path d="M60.7133 9.58479C60.8718 9.53233 61.001 9.43144 61.0717 9.29827C61.0839 9.27608 61.0717 9.24985 61.0449 9.23976C61.0181 9.22967 60.9864 9.23976 60.9742 9.26195C60.8913 9.41933 60.7133 9.52224 60.506 9.53233C60.4768 9.53434 60.4548 9.55452 60.4548 9.57873C60.4573 9.60294 60.4817 9.6211 60.5109 9.6211C60.5816 9.61707 60.6499 9.60496 60.7133 9.58479Z" fill="#F22D5C"/>
<path d="M59.8696 8.73534C60.0671 8.81201 60.2988 8.80596 60.4938 8.72324C60.5304 8.70709 60.5645 8.68692 60.5962 8.66472C60.7376 8.57393 60.8278 8.44278 60.8547 8.29952C60.7059 8.26118 60.545 8.25917 60.3987 8.30154C60.3451 8.30961 60.3012 8.32777 60.2524 8.34593C60.0671 8.43067 59.9306 8.56989 59.8696 8.73534Z" fill="white"/>
<path d="M59.8696 8.73514C60.0671 8.81181 60.2988 8.80576 60.4938 8.72303C60.5304 8.70689 60.5645 8.68671 60.5962 8.66452C60.5962 8.60399 60.584 8.54346 60.5548 8.48494C60.5206 8.41231 60.4646 8.34976 60.3963 8.29932C60.3426 8.30739 60.2988 8.32555 60.25 8.34371C60.0671 8.43047 59.9306 8.56969 59.8696 8.73514Z" fill="#2E175A"/>
<path d="M61.5323 9.65721C61.8785 9.54422 62.1833 9.34649 62.3979 9.09428C62.4149 9.0741 62.41 9.04585 62.3857 9.03173C62.3613 9.01761 62.3271 9.02366 62.3101 9.04182C62.0809 9.31017 61.7469 9.51396 61.3689 9.61081C61.3397 9.61686 61.325 9.64309 61.3348 9.6673C61.3445 9.69152 61.3738 9.70362 61.4031 9.69555C61.447 9.68344 61.4884 9.67134 61.5323 9.65721Z" fill="#2E175A"/>
<path d="M61.0349 9.75826C61.0617 9.81678 61.1422 9.84502 61.2129 9.82081C61.2836 9.79862 61.3177 9.73203 61.2885 9.67352C61.2616 9.61501 61.1812 9.58676 61.1105 9.61097C61.0398 9.63518 61.0056 9.69975 61.0349 9.75826Z" fill="#2E175A"/>
<path d="M58.7968 7.00612C58.7187 6.99805 58.5359 6.93348 58.5261 6.51582C58.5261 6.49968 58.5359 6.48556 58.5505 6.47748C58.5676 6.47143 58.5871 6.4674 58.6017 6.47547C58.6505 6.49564 59.0869 6.67522 59.0186 6.86892C58.9967 6.92945 58.9479 6.97585 58.887 6.99603C58.8602 7.00612 58.8285 7.00814 58.7968 7.00612ZM58.8114 6.91734C58.8553 6.92138 58.9016 6.89111 58.9162 6.8447C58.9431 6.76601 58.7724 6.65706 58.6358 6.59249C58.6578 6.80435 58.7358 6.90927 58.8114 6.91734Z" fill="#4A3797"/>
<path d="M59.026 7.61752C59.0918 7.59533 59.1577 7.57111 59.2235 7.53883C60.0549 7.15951 60.0501 6.62885 59.955 6.20917C59.9159 6.0417 59.955 5.89441 60.072 5.77335C60.228 5.60588 60.4743 5.53728 60.6401 5.52921C60.6694 5.52719 60.6913 5.50701 60.6913 5.4828C60.6889 5.45859 60.6645 5.44043 60.6352 5.44043C60.389 5.45254 60.1378 5.56351 59.9891 5.71887C59.855 5.86011 59.8087 6.03565 59.8526 6.22733C59.9476 6.64096 59.9403 7.1131 59.1747 7.46216C58.8114 7.62963 58.4555 7.65384 58.197 7.53278C57.9556 7.41979 57.8167 7.18573 57.802 6.87703C57.802 6.85282 57.7752 6.83264 57.746 6.83466C57.7167 6.83466 57.6923 6.85483 57.6947 6.88106C57.7094 7.22205 57.8679 7.48032 58.1434 7.61147C58.3848 7.72244 58.6993 7.72446 59.026 7.61752Z" fill="#4A3797"/>
<path d="M64.4096 7.54684C64.4364 7.53877 64.4486 7.51456 64.4413 7.49236C64.4315 7.46815 64.4023 7.45605 64.373 7.4621C63.9439 7.57307 63.4855 7.44192 63.2319 7.13523C62.9784 6.82854 62.9954 6.42702 63.2734 6.13647C63.2929 6.11831 63.288 6.09007 63.2636 6.07392C63.2393 6.05778 63.2051 6.06182 63.1881 6.082C62.8808 6.40483 62.8613 6.84872 63.1417 7.18567C63.4221 7.52465 63.9293 7.66992 64.4047 7.54684C64.4072 7.54886 64.4096 7.54684 64.4096 7.54684Z" fill="#4A3797"/>
<path d="M62.7272 8.87439L63.1977 8.71902C63.2563 8.69885 63.2855 8.64437 63.2611 8.59594L62.8857 7.81106C62.8613 7.76264 62.7954 7.73842 62.7369 7.7586L62.2664 7.91195C62.2078 7.93212 62.1786 7.9866 62.203 8.03502L62.5784 8.81991C62.6028 8.87035 62.6687 8.89254 62.7272 8.87439Z" fill="white"/>
<path d="M62.4444 7.71821C62.4712 7.71014 62.4858 7.68391 62.4736 7.6597L61.6885 6.02537C61.6788 6.00317 61.6471 5.99107 61.6178 6.00116C61.591 6.00923 61.5764 6.03546 61.5886 6.05967L62.3737 7.694C62.3859 7.7162 62.4176 7.7283 62.4444 7.71821Z" fill="white"/>
<path d="M61.3933 5.52507C61.4202 5.517 61.4348 5.49077 61.4226 5.46656L61.3104 5.23452C61.2007 5.00451 60.9447 4.83502 60.6448 4.79265C60.3669 4.75431 60.1084 4.83098 59.9329 5.00047C59.8768 5.05293 59.8378 5.11144 59.8158 5.17399C59.8085 5.1982 59.8231 5.22242 59.8524 5.22847C59.8817 5.23452 59.9109 5.22242 59.9182 5.1982C59.9353 5.14978 59.967 5.10337 60.0133 5.05898C60.1645 4.91371 60.3888 4.84914 60.6277 4.88143C60.8911 4.91775 61.1154 5.06504 61.2129 5.26882L61.3251 5.50086C61.3348 5.52305 61.3641 5.53516 61.3933 5.52507Z" fill="#F22D5C"/>
<path d="M64.434 9.22546C64.4559 9.21941 64.4754 9.2073 64.4925 9.19318C64.7412 8.97123 64.9314 8.70086 65.0386 8.41233C65.0655 8.34171 65.0167 8.26706 64.9314 8.24486C64.846 8.22469 64.7558 8.26302 64.729 8.33364C64.6363 8.58384 64.473 8.81991 64.256 9.01159C64.195 9.06606 64.1999 9.15081 64.2633 9.19923C64.3121 9.23555 64.3779 9.24362 64.434 9.22546Z" fill="#2E175A"/>
<path d="M67.128 10.1981C67.1475 10.192 67.1645 10.1839 67.1792 10.1718C67.3986 10.0003 67.5424 9.77031 67.5815 9.52213C67.5936 9.4495 67.5303 9.38291 67.4425 9.37283C67.3547 9.36274 67.2742 9.4152 67.2621 9.48783C67.2328 9.67346 67.1255 9.84698 66.9597 9.97612C66.8939 10.0266 66.8915 10.1113 66.9524 10.1638C66.9987 10.2061 67.0694 10.2182 67.128 10.1981Z" fill="#2E175A"/>
<path d="M64.8921 9.66344C65.1189 10.1356 65.765 10.3676 66.338 10.18C66.9085 9.99232 67.1889 9.45763 66.9622 8.98348C66.7354 8.51134 66.0893 8.2793 65.5163 8.46695C64.9458 8.65459 64.6654 9.1913 64.8921 9.66344Z" fill="#2E175A"/>
<path d="M67.5377 10.3997C67.6498 10.6338 67.9692 10.7468 68.2521 10.654C68.5349 10.5612 68.6714 10.2968 68.5593 10.0628C68.4471 9.82874 68.1277 9.71575 67.8449 9.80856C67.5645 9.90339 67.4255 10.1677 67.5377 10.3997Z" fill="#2E175A"/>
<path d="M59.7818 9.4373C59.8062 9.42923 59.8282 9.40098 59.816 9.37879C59.8062 9.35659 59.7745 9.34449 59.7453 9.35458C59.7453 9.35458 59.7428 9.35458 59.7428 9.35659C59.6136 9.39897 59.4893 9.42318 59.3698 9.42923C59.3162 9.43125 59.2625 9.41309 59.2308 9.37677C59.1967 9.34045 59.1894 9.29404 59.2064 9.25167C59.2674 9.10236 59.3966 8.89051 59.6599 8.73918C59.6843 8.72506 59.6892 8.69681 59.6746 8.67663C59.6575 8.65645 59.6258 8.65242 59.599 8.66452C59.3113 8.82998 59.1699 9.05999 59.104 9.22141C59.0748 9.29203 59.0918 9.37072 59.1455 9.42923C59.2016 9.48774 59.2869 9.52204 59.3771 9.51599C59.5063 9.50994 59.6429 9.48371 59.7818 9.4373Z" fill="#2E175A"/>
<path d="M66.4356 20.4923C66.7501 19.891 66.6063 19.2494 66.6063 19.2494L64.958 12.7948C64.958 12.7948 64.5704 11.0515 62.5613 11.0515C60.5498 11.0515 58.6626 14.6995 58.6626 14.6995H60.2377C60.2377 14.6995 61.3763 17.1248 60.7716 18.7894C60.7668 18.7874 62.7539 20.7929 66.4356 20.4923Z" fill="#2E175A"/>
<path d="M60.3864 12.7282H64.6557C64.6849 12.7282 64.7093 12.708 64.7093 12.6838C64.7093 12.6596 64.6849 12.6394 64.6557 12.6394H60.3864C60.3571 12.6394 60.3328 12.6596 60.3328 12.6838C60.3328 12.708 60.3547 12.7282 60.3864 12.7282Z" fill="#4A3797"/>
<path d="M59.277 14.183H65.0531C65.0824 14.183 65.1068 14.1628 65.1068 14.1386C65.1068 14.1144 65.0824 14.0942 65.0531 14.0942H59.277C59.2478 14.0942 59.2234 14.1144 59.2234 14.1386C59.2234 14.1628 59.2478 14.183 59.277 14.183Z" fill="#4A3797"/>
<path d="M62.0199 15.6379H65.2896C65.3188 15.6379 65.3432 15.6177 65.3432 15.5935C65.3432 15.5692 65.3188 15.5491 65.2896 15.5491H62.0199C61.9907 15.5491 61.9663 15.5692 61.9663 15.5935C61.9663 15.6177 61.9907 15.6379 62.0199 15.6379Z" fill="#4A3797"/>
<path d="M61.2201 17.0924H65.7625C65.7918 17.0924 65.8162 17.0723 65.8162 17.0481C65.8162 17.0238 65.7918 17.0037 65.7625 17.0037H61.2201C61.1909 17.0037 61.1665 17.0238 61.1665 17.0481C61.1665 17.0723 61.1909 17.0924 61.2201 17.0924Z" fill="#4A3797"/>
<path d="M61.2031 18.5473H66.1258C66.155 18.5473 66.1794 18.5271 66.1794 18.5029C66.1794 18.4787 66.155 18.4585 66.1258 18.4585H61.2031C61.1738 18.4585 61.1494 18.4787 61.1494 18.5029C61.1494 18.5271 61.1738 18.5473 61.2031 18.5473Z" fill="#4A3797"/>
<path d="M62.4465 14.6067C62.466 14.6067 62.4831 14.5986 62.4928 14.5845L63.2609 13.4788C63.2755 13.4586 63.2657 13.4303 63.2414 13.4182C63.2145 13.4061 63.1828 13.4122 63.1682 13.4344L62.4002 14.5401C62.3856 14.5623 62.3953 14.5885 62.4197 14.6006C62.427 14.6046 62.4368 14.6067 62.4465 14.6067Z" fill="#9566DA"/>
<path d="M53.3716 26.5373C53.3764 26.5373 53.3837 26.5373 53.3886 26.5353C53.4179 26.5272 53.4325 26.503 53.4228 26.4788L51.5356 21.6867C51.5258 21.6625 51.4966 21.6504 51.4673 21.6585C51.4381 21.6666 51.4234 21.6908 51.4332 21.715L53.3204 26.507C53.3277 26.5252 53.3496 26.5373 53.3716 26.5373Z" fill="#2E175A"/>
<path d="M52.2062 28.678C52.233 28.678 52.255 28.6619 52.2598 28.6397C52.2647 28.6154 52.2428 28.5933 52.2135 28.5892L50.9383 28.452C50.9115 28.446 50.8823 28.4661 50.8774 28.4903C50.8725 28.5146 50.8945 28.5368 50.9237 28.5408L52.1989 28.678C52.2013 28.678 52.2038 28.678 52.2062 28.678Z" fill="#2E175A"/>
<path d="M54.9444 28.5914C54.9517 28.5914 54.959 28.5894 54.9663 28.5874L56.3463 28.0587C56.3732 28.0487 56.3853 28.0224 56.3732 28.0002C56.361 27.978 56.3293 27.968 56.3024 27.978L54.9224 28.5067C54.8956 28.5168 54.8834 28.543 54.8956 28.5652C54.9054 28.5833 54.9249 28.5914 54.9444 28.5914Z" fill="#2E175A"/>
<path d="M34.8656 73.489H66.7914C67.6497 73.489 68.347 72.9342 68.347 72.2502V17.9439C68.347 17.2599 67.6497 16.7051 66.7914 16.7051H34.8656C34.0074 16.7051 33.3101 17.2599 33.3101 17.9439V72.2522C33.3101 72.9362 34.0074 73.489 34.8656 73.489Z" fill="#9494B3"/>
<path d="M63.4195 19.6853H36.9138V66.3808H63.4195V19.6853Z" fill="#D2EAFF"/>
<path d="M44.7623 70.7389H55.5684C56.4583 70.7389 57.1849 70.1377 57.1849 69.4012C57.1849 68.6648 56.4583 68.0635 55.5684 68.0635H44.7623C43.8723 68.0635 43.1458 68.6648 43.1458 69.4012C43.1458 70.1377 43.8748 70.7389 44.7623 70.7389Z" fill="white"/>
<path d="M57.319 71.0132C57.3361 71.0132 57.3531 71.0092 57.3677 71.0011C58.0334 70.65 58.4284 70.0548 58.4284 69.4091C58.4284 68.7171 57.9675 68.0795 57.2263 67.7486C57.1824 67.7304 57.1264 67.7425 57.1044 67.7788C57.08 67.8152 57.0971 67.8616 57.141 67.8797C57.8237 68.1844 58.2479 68.7715 58.2479 69.4091C58.2479 70.0044 57.8822 70.5532 57.2702 70.876C57.2288 70.8982 57.2166 70.9446 57.2434 70.9789C57.2605 71.0011 57.2897 71.0132 57.319 71.0132Z" fill="white"/>
<path d="M43.8821 21.7109C43.8821 21.5213 44.0698 21.3679 44.2966 21.3679H54.2712C54.5004 21.3679 54.6857 21.5233 54.6857 21.7109C54.6857 21.9006 54.498 22.0539 54.2712 22.0539H44.2966C44.0698 22.056 43.8821 21.9006 43.8821 21.7109ZM55.6171 21.7109C55.6171 21.9006 55.8024 22.0539 56.0316 22.0539C56.2608 22.0539 56.4461 21.9006 56.4461 21.7109C56.4461 21.5213 56.2608 21.3679 56.0316 21.3679C55.8049 21.3679 55.6171 21.5213 55.6171 21.7109Z" fill="white"/>
<path d="M65.1554 73.0876C66.0478 73.0876 66.7744 72.5085 66.7744 71.7943V18.4C66.7744 17.6878 66.0478 17.1067 65.1554 17.1067C65.1066 17.1067 65.0652 17.141 65.0652 17.1813C65.0652 17.2237 65.1066 17.256 65.1554 17.256C65.9478 17.256 66.5939 17.7685 66.5939 18.398V71.7943C66.5939 72.4238 65.9478 72.9363 65.1554 72.9363C65.1066 72.9363 65.0652 72.9706 65.0652 73.0109C65.0652 73.0513 65.1066 73.0876 65.1554 73.0876Z" fill="white"/>
<path d="M57.0704 53.1205C57.8689 53.1205 58.5162 52.5848 58.5162 51.924C58.5162 51.2632 57.8689 50.7275 57.0704 50.7275C56.2718 50.7275 55.6245 51.2632 55.6245 51.924C55.6245 52.5848 56.2718 53.1205 57.0704 53.1205Z" fill="white"/>
<path d="M49.724 51.924C49.724 52.5858 49.0754 53.1205 48.2781 53.1205C47.4784 53.1205 46.8323 52.5838 46.8323 51.924C46.8323 51.2622 47.4808 50.7275 48.2781 50.7275C49.0779 50.7275 49.724 51.2622 49.724 51.924Z" fill="white"/>
<path d="M47.1421 37.7256C47.1421 38.2723 46.6057 38.7162 45.945 38.7162C45.2842 38.7162 44.7478 38.2723 44.7478 37.7256C44.7478 37.1788 45.2842 36.7349 45.945 36.7349C46.6057 36.7349 47.1421 37.1767 47.1421 37.7256Z" fill="white"/>
<path d="M59.0966 51.9846H46.6715C46.2205 51.9846 45.8547 51.6819 45.8547 51.3086V36.7025C45.8547 36.3293 46.2205 36.0266 46.6715 36.0266H59.0966C59.5477 36.0266 59.9134 36.3293 59.9134 36.7025V51.3086C59.911 51.6819 59.5477 51.9846 59.0966 51.9846Z" fill="#9494B2"/>
<path d="M57.8555 51.7727C57.0656 51.7727 56.4219 51.2037 56.4219 50.5036V37.5096C56.4219 36.8095 57.0656 36.2405 57.8555 36.2405C57.8921 36.2405 57.9214 36.2647 57.9214 36.295C57.9214 36.3252 57.8921 36.3494 57.8555 36.3494C57.1387 36.3494 56.5535 36.87 56.5535 37.5096V50.5036C56.5535 51.1432 57.1387 51.6637 57.8555 51.6637C57.8921 51.6637 57.9214 51.6879 57.9214 51.7182C57.9214 51.7485 57.8921 51.7727 57.8555 51.7727Z" fill="white"/>
<path d="M55.0149 49.2868H47.0103C46.9127 49.2868 46.8347 49.2223 46.8347 49.1416V38.4014C46.8347 38.3207 46.9127 38.2561 47.0103 38.2561H55.0149C55.1124 38.2561 55.1904 38.3207 55.1904 38.4014V49.1416C55.1904 49.2203 55.11 49.2868 55.0149 49.2868Z" fill="white"/>
<path d="M56.717 32.8287L47.8736 34.1402C47.564 34.1866 47.269 34.0151 47.2129 33.7588L46.1742 28.9567C46.1181 28.7004 46.3254 28.4563 46.635 28.4099L55.4784 27.0984C55.788 27.052 56.083 27.2235 56.1391 27.4797L57.1778 32.2819C57.2314 32.5381 57.0266 32.7822 56.717 32.8287Z" fill="#9494B2"/>
<path d="M55.7928 32.8387C55.2222 32.9234 54.6736 32.6087 54.5712 32.1345L53.7544 28.3655C53.652 27.8933 54.0324 27.4393 54.6054 27.3546C54.642 27.3485 54.6761 27.3687 54.6834 27.399C54.6907 27.4292 54.6663 27.4575 54.6298 27.4635C54.1299 27.5382 53.7983 27.9337 53.8861 28.3473L54.7029 32.1163C54.7931 32.53 55.271 32.8044 55.7708 32.7317C55.8074 32.7257 55.8415 32.7459 55.8489 32.7761C55.8537 32.8044 55.8294 32.8346 55.7928 32.8387Z" fill="white"/>
<path d="M53.1302 30.6031L47.5955 31.4243C47.4883 31.4405 47.3859 31.382 47.3663 31.2932L47.0518 29.8404C47.0323 29.7517 47.103 29.6669 47.2103 29.6508L52.745 28.8296C52.8523 28.8134 52.9547 28.872 52.9742 28.9607L53.2887 30.4135C53.3082 30.5022 53.2375 30.587 53.1302 30.6031Z" fill="white"/>
<path d="M55.5344 30.246C55.3052 30.2803 55.0857 30.1532 55.0443 29.9635L54.8078 28.876C54.7663 28.6863 54.9199 28.5047 55.1491 28.4704C55.3783 28.4361 55.5978 28.5632 55.6392 28.7529L55.8757 29.8404C55.9172 30.0301 55.7636 30.2117 55.5344 30.246Z" fill="#2E175A"/>
<path d="M46.4447 31.5936L46.1033 31.6441C45.9961 31.6602 45.8937 31.6017 45.8742 31.5129L45.5596 30.0602C45.5401 29.9714 45.6108 29.8867 45.7181 29.8705L46.0595 29.8201L46.4447 31.5936Z" fill="#2E175A"/>
<path d="M48.6879 30.8029C48.5173 30.8291 48.3515 30.7322 48.3198 30.591L48.2369 30.2076C48.2052 30.0664 48.3222 29.9292 48.4929 29.903C48.6636 29.8767 48.8294 29.9736 48.8611 30.1148L48.944 30.4982C48.9756 30.6414 48.8611 30.7766 48.6879 30.8029Z" fill="#2E175A"/>
<path d="M50.3264 30.5607C50.1557 30.5869 49.9899 30.4901 49.9582 30.3488L49.8753 29.9655C49.8436 29.8242 49.9606 29.687 50.1313 29.6608C50.302 29.6346 50.4678 29.7314 50.4995 29.8726L50.5824 30.256C50.6116 30.3972 50.497 30.5344 50.3264 30.5607Z" fill="#2E175A"/>
<path d="M55.1078 28.2685C55.0713 28.2745 55.0371 28.2544 55.0298 28.2241L54.2447 24.5923C54.2374 24.562 54.2618 24.5337 54.2983 24.5277C54.3349 24.5216 54.3691 24.5418 54.3764 24.5721L55.1615 28.2039C55.1663 28.2342 55.1444 28.2624 55.1078 28.2685Z" fill="#2E175A"/>
<path d="M54.525 24.328C54.5518 24.4471 54.4543 24.5621 54.3104 24.5843C54.1666 24.6065 54.0276 24.5258 54.0008 24.4067C53.974 24.2877 54.0715 24.1727 54.2153 24.1505C54.3616 24.1283 54.4982 24.207 54.525 24.328Z" fill="#2E175A"/>
<path d="M46.0158 29.6164C45.9792 29.6224 45.9451 29.6023 45.9378 29.572L45.1527 25.9402C45.1454 25.9099 45.1697 25.8816 45.2063 25.8756C45.2429 25.8695 45.277 25.8897 45.2843 25.92L46.0694 29.5518C46.0767 29.5821 46.0524 29.6103 46.0158 29.6164Z" fill="#2E175A"/>
<path d="M45.433 25.6759C45.4598 25.795 45.3622 25.91 45.2184 25.9322C45.0745 25.9544 44.9356 25.8737 44.9087 25.7546C44.8819 25.6356 44.9794 25.5206 45.1233 25.4984C45.2696 25.4762 45.4086 25.5549 45.433 25.6759Z" fill="#2E175A"/>
<path d="M53.1621 34.0292L51.6845 34.2491C51.648 34.2552 51.6138 34.235 51.6065 34.2048C51.5992 34.1745 51.6236 34.1462 51.6602 34.1402L53.1377 33.9203C53.1743 33.9142 53.2084 33.9344 53.2157 33.9647C53.2206 33.9969 53.1962 34.0252 53.1621 34.0292Z" fill="white"/>
<path d="M53.2961 34.6506L51.8186 34.8705C51.782 34.8765 51.7479 34.8564 51.7406 34.8261C51.7332 34.7958 51.7576 34.7676 51.7942 34.7615L53.2717 34.5416C53.3083 34.5355 53.3425 34.5557 53.3498 34.586C53.3546 34.6183 53.3327 34.6465 53.2961 34.6506Z" fill="white"/>
<path d="M53.4302 35.2741L51.9526 35.494C51.916 35.5001 51.8819 35.4799 51.8746 35.4496C51.8673 35.4194 51.8917 35.3911 51.9282 35.3851L53.4058 35.1651C53.4424 35.1591 53.4765 35.1793 53.4838 35.2095C53.4911 35.2398 53.4667 35.268 53.4302 35.2741Z" fill="white"/>
<path d="M59.4695 37.7256C59.4695 38.2723 58.9331 38.7162 58.2724 38.7162C57.6116 38.7162 57.0752 38.2723 57.0752 37.7256C57.0752 37.1788 57.6116 36.7349 58.2724 36.7349C58.9355 36.7349 59.4695 37.1767 59.4695 37.7256Z" fill="white"/>
<path d="M52.7329 44.5494C52.3891 44.5494 52.0672 44.3839 51.9209 44.1095C51.9063 44.0813 51.9209 44.049 51.9551 44.0369C51.9868 44.0248 52.0282 44.0369 52.0428 44.0652C52.2013 44.3618 52.5988 44.509 52.9718 44.4061C53.3448 44.3053 53.5594 43.9885 53.4716 43.6717C53.3839 43.3569 53.0303 43.1491 52.6378 43.1895C52.6036 43.1955 52.5671 43.1713 52.5646 43.141C52.5597 43.1108 52.5866 43.0825 52.6231 43.0805C53.0791 43.0301 53.5009 43.2762 53.6033 43.6475C53.7057 44.0187 53.4521 44.39 53.0157 44.509C52.9206 44.5373 52.8255 44.5494 52.7329 44.5494Z" fill="#2E175A"/>
<path d="M43.5237 46.2765C43.3799 46.2765 43.236 46.2462 43.1043 46.1837C42.7313 46.0081 42.5728 45.6288 42.7362 45.3019C42.8971 44.9751 43.3311 44.7955 43.7456 44.8863C43.7797 44.8944 43.8017 44.9246 43.7919 44.9529C43.7822 44.9811 43.748 45.0013 43.7115 44.9912C43.3628 44.9145 42.9971 45.0659 42.8581 45.3423C42.7216 45.6187 42.8557 45.9395 43.1677 46.0868C43.4823 46.2341 43.8821 46.1655 44.0991 45.9274C44.1211 45.9032 44.1625 45.8971 44.1918 45.9173C44.221 45.9355 44.2259 45.9698 44.204 45.994C44.0431 46.1776 43.7846 46.2765 43.5237 46.2765Z" fill="#2E175A"/>
<path d="M60.0547 38.4156C60.6399 38.8151 61.1934 39.259 61.6347 39.7896C62.0663 40.3223 62.3832 40.9276 62.5295 41.5612C62.8099 42.8343 62.5051 44.162 61.5225 45.2112C60.9959 45.7297 60.2986 46.0525 59.572 46.2543C58.843 46.4521 58.0603 46.5106 57.3044 46.4218C56.5462 46.335 55.8245 46.0969 55.193 45.76C54.5615 45.415 54.0446 44.965 53.5813 44.4909C53.4887 44.396 53.5082 44.2588 53.6203 44.1821C53.7325 44.1075 53.8934 44.1196 53.9861 44.2084L53.9958 44.2185C54.4444 44.6482 54.937 45.0457 55.5099 45.3383C56.0878 45.6228 56.7242 45.8124 57.3825 45.8689C58.0383 45.9275 58.7089 45.8589 59.3233 45.6732C59.9353 45.4896 60.5131 45.187 60.8862 44.7875C61.2665 44.392 61.4957 43.8472 61.6249 43.3246C61.742 42.792 61.7322 42.2431 61.5884 41.7226C61.4469 41.202 61.1666 40.7137 60.7886 40.2759C60.401 39.8421 59.9109 39.4728 59.3842 39.1359L59.3623 39.1218C59.1233 38.9684 59.0795 38.6839 59.2648 38.4862C59.4501 38.2885 59.7939 38.2521 60.0328 38.4055C60.0474 38.4095 60.0523 38.4115 60.0547 38.4156Z" fill="#2E175A"/>
<path d="M44.7989 39.0592C43.4652 40.1084 42.2095 41.2544 41.2684 42.5437C40.8222 43.1813 40.4126 43.8976 40.4565 44.5554C40.4931 44.8721 40.6735 45.1344 41.0295 45.2817C41.3757 45.4351 41.8194 45.4936 42.2656 45.4996C42.4119 45.5017 42.529 45.6005 42.5265 45.7216C42.5241 45.8406 42.4095 45.9355 42.2681 45.9375C41.778 45.9476 41.2611 45.9153 40.7588 45.7216C40.515 45.6227 40.2687 45.4795 40.1005 45.2757C39.9298 45.0759 39.8347 44.8439 39.7933 44.6159C39.7323 44.1619 39.8323 43.7342 39.9835 43.3407C40.1371 42.9452 40.3394 42.574 40.5662 42.2169C41.4903 40.7984 42.7216 39.5676 44.0406 38.4216C44.2454 38.244 44.5868 38.2359 44.8038 38.4054C45.0184 38.5749 45.0281 38.8574 44.8233 39.037C44.8184 39.041 44.8111 39.0471 44.8062 39.0511L44.7989 39.0592Z" fill="#2E175A"/>
<path d="M53.335 66.4029H58.0578V65.7835C58.0578 65.0631 57.1166 64.6112 56.3608 64.9683L53.335 66.4029Z" fill="white"/>
<path d="M43.9797 66.4029H48.7025V65.7835C48.7025 65.0631 47.7614 64.6112 47.0055 64.9683L43.9797 66.4029Z" fill="white"/>
<path d="M56.6021 64.5951C55.7317 63.905 54.9856 63.098 54.4272 62.1961C53.8689 61.2962 53.5056 60.2914 53.4373 59.2522C53.2984 57.1942 54.1639 55.0837 55.8365 53.4877L55.8438 53.4816C56.1218 53.2173 56.6046 53.1891 56.9264 53.4191C57.2458 53.6491 57.2799 54.0506 57.002 54.3149C56.9898 54.325 56.9776 54.3371 56.9654 54.3472C55.4391 55.6103 54.5126 57.398 54.4809 59.2341C54.4443 61.0581 55.461 62.8821 56.9971 64.2803C57.0995 64.3731 57.0922 64.5164 56.98 64.6012C56.8703 64.6798 56.707 64.6758 56.6021 64.5951Z" fill="#2E175A"/>
<path d="M47.8052 64.5951C46.9348 63.905 46.1887 63.098 45.6304 62.1961C45.072 61.2962 44.7087 60.2914 44.6405 59.2522C44.5015 57.1942 45.367 55.0837 47.0397 53.4877L47.047 53.4816C47.3249 53.2173 47.8077 53.1891 48.1295 53.4191C48.4489 53.6491 48.4831 54.0506 48.2051 54.3149C48.1929 54.325 48.1807 54.3371 48.1685 54.3472C46.6422 55.6103 45.7157 57.398 45.684 59.2341C45.6474 61.0581 46.6642 62.8821 48.2002 64.2803C48.3026 64.3731 48.2953 64.5164 48.1832 64.6012C48.0734 64.6798 47.9076 64.6758 47.8052 64.5951Z" fill="#2E175A"/>
<path d="M48.4488 46.333H53.6349C54.0055 46.333 54.3078 46.5832 54.3078 46.8879V47.3701C54.3078 47.6768 54.0055 47.925 53.6349 47.925H48.3952L47.7783 48.4859V47.925V47.7474V46.8859C47.7783 46.5832 48.0807 46.333 48.4488 46.333Z" fill="#2E175A"/>
<path d="M53.4326 46.9605H48.6488C48.6123 46.9605 48.583 46.9363 48.583 46.906C48.583 46.8758 48.6123 46.8516 48.6488 46.8516H53.4326C53.4692 46.8516 53.4984 46.8758 53.4984 46.906C53.5009 46.9363 53.4716 46.9605 53.4326 46.9605Z" fill="white"/>
<path d="M53.4326 47.4307H48.6488C48.6123 47.4307 48.583 47.4065 48.583 47.3763C48.583 47.346 48.6123 47.3218 48.6488 47.3218H53.4326C53.4692 47.3218 53.4984 47.346 53.4984 47.3763C53.5009 47.4065 53.4716 47.4307 53.4326 47.4307Z" fill="white"/>
<path d="M44.4235 44.1619L50.8116 41.892C51.2676 41.7306 51.7991 41.9062 51.9941 42.2835L52.3014 42.8767C52.4964 43.254 52.2843 43.6938 51.8283 43.8552L45.3744 46.1494L44.9721 47.1098L44.6137 46.4197L44.5016 46.2018L43.9505 45.1405C43.7579 44.7652 43.97 44.3254 44.4235 44.1619Z" fill="#2E175A"/>
<path d="M45.0379 44.8358C45.0111 44.8358 44.9867 44.8236 44.977 44.8035C44.9623 44.7752 44.9794 44.7429 45.0111 44.7308L50.9042 42.6365C50.9408 42.6244 50.9774 42.6385 50.992 42.6647C51.0066 42.693 50.9896 42.7252 50.9579 42.7373L45.0648 44.8317C45.0574 44.8337 45.0477 44.8358 45.0379 44.8358Z" fill="white"/>
<path d="M45.3377 45.4129C45.3109 45.4129 45.2865 45.4008 45.2768 45.3806C45.2622 45.3524 45.2792 45.3201 45.3109 45.308L51.204 43.2136C51.2382 43.2015 51.2772 43.2156 51.2918 43.2419C51.3064 43.2701 51.2894 43.3024 51.2577 43.3145L45.3646 45.4089C45.3548 45.4109 45.3475 45.4129 45.3377 45.4129Z" fill="white"/>
<path d="M53.6349 39.0774H48.4488C48.0782 39.0774 47.7783 39.3276 47.7783 39.6343V40.1165C47.7783 40.4232 48.0807 40.6714 48.4488 40.6714H53.6885L54.3054 41.2323V40.6714V40.4938V39.6323C54.3054 39.3276 54.0055 39.0774 53.6349 39.0774Z" fill="#2E175A"/>
<path d="M53.4326 39.7049H48.6488C48.6123 39.7049 48.583 39.6807 48.583 39.6504C48.583 39.6202 48.6123 39.5959 48.6488 39.5959H53.4326C53.4692 39.5959 53.4984 39.6202 53.4984 39.6504C53.4984 39.6807 53.4716 39.7049 53.4326 39.7049Z" fill="white"/>
<path d="M53.4326 40.1729H48.6488C48.6123 40.1729 48.583 40.1487 48.583 40.1184C48.583 40.0882 48.6123 40.064 48.6488 40.064H53.4326C53.4692 40.064 53.4984 40.0882 53.4984 40.1184C53.5009 40.1487 53.4716 40.1729 53.4326 40.1729Z" fill="white"/>
<path d="M40.6906 75.4987C40.6906 75.9607 40.2346 76.3421 39.6763 76.3421H30.2307C30.7891 76.3421 31.2499 75.9607 31.2499 75.4987C31.2499 75.0366 30.7891 74.6553 30.2307 74.6553H39.6763C40.2346 74.6553 40.6906 75.0366 40.6906 75.4987Z" fill="#9566DA"/>
<path d="M37.4305 75.4987C37.4305 75.9607 36.9745 76.3421 36.4113 76.3421H30.2329C30.7913 76.3421 31.2521 75.9607 31.2521 75.4987C31.2521 75.0366 30.7913 74.6553 30.2329 74.6553H36.4113C36.9745 74.6553 37.4305 75.0366 37.4305 75.4987Z" fill="#9566DA"/>
<path d="M39.3593 73.8119C39.3593 74.274 38.9033 74.6553 38.345 74.6553H28.8994C29.4578 74.6553 29.9186 74.274 29.9186 73.8119C29.9186 73.3498 29.4578 72.9685 28.8994 72.9685H38.345C38.9033 72.9705 39.3593 73.3519 39.3593 73.8119Z" fill="#2E175A"/>
<path d="M36.097 73.8119C36.097 74.274 35.641 74.6553 35.0778 74.6553H28.8994C29.4578 74.6553 29.9186 74.274 29.9186 73.8119C29.9186 73.3498 29.4578 72.9685 28.8994 72.9685H35.0778C35.641 72.9705 36.097 73.3519 36.097 73.8119Z" fill="#F22D5C"/>
<path d="M40.2907 72.1271C40.2907 72.5891 39.8347 72.9705 39.2764 72.9705H29.8308C30.3892 72.9705 30.85 72.5891 30.85 72.1271C30.85 71.665 30.3892 71.2837 29.8308 71.2837H39.2764C39.8347 71.2837 40.2907 71.665 40.2907 72.1271Z" fill="white"/>
<path d="M37.0284 72.1271C37.0284 72.5891 36.5724 72.9705 36.0092 72.9705H29.8308C30.3892 72.9705 30.85 72.5891 30.85 72.1271C30.85 71.665 30.3892 71.2837 29.8308 71.2837H36.0092C36.5724 71.2837 37.0284 71.665 37.0284 72.1271Z" fill="#9566DA"/>
<path d="M36.0799 71.7658H31.3766C31.3352 71.7658 31.3035 71.7396 31.3035 71.7053C31.3035 71.673 31.3352 71.6448 31.3766 71.6448H36.0799C36.1213 71.6448 36.153 71.671 36.153 71.7053C36.153 71.7376 36.1213 71.7658 36.0799 71.7658Z" fill="white"/>
<path d="M36.4139 72.1472H31.7106C31.6716 72.1472 31.6375 72.121 31.6375 72.0867C31.6375 72.0544 31.6691 72.0261 31.7106 72.0261H36.4139C36.4553 72.0261 36.487 72.0524 36.487 72.0867C36.487 72.121 36.4529 72.1472 36.4139 72.1472Z" fill="white"/>
<path d="M36.1556 72.4841H31.4523C31.4133 72.4841 31.3792 72.4579 31.3792 72.4236C31.3792 72.3913 31.4108 72.363 31.4523 72.363H36.1556C36.1946 72.363 36.2287 72.3893 36.2287 72.4236C36.2263 72.4579 36.1946 72.4841 36.1556 72.4841Z" fill="white"/>
<path d="M35.0071 73.497H30.3039C30.2648 73.497 30.2307 73.4708 30.2307 73.4365C30.2307 73.4042 30.2624 73.376 30.3039 73.376H35.0071C35.0486 73.376 35.0803 73.4022 35.0803 73.4365C35.0803 73.4688 35.0462 73.497 35.0071 73.497Z" fill="white"/>
<path d="M35.3411 73.8784H30.6378C30.5964 73.8784 30.5647 73.8522 30.5647 73.8179C30.5647 73.7856 30.5964 73.7573 30.6378 73.7573H35.3411C35.3801 73.7573 35.4143 73.7836 35.4143 73.8179C35.4118 73.8522 35.3801 73.8784 35.3411 73.8784Z" fill="white"/>
<path d="M35.0801 74.2175H30.3769C30.3378 74.2175 30.3037 74.1913 30.3037 74.157C30.3037 74.1247 30.3354 74.0964 30.3769 74.0964H35.0801C35.1192 74.0964 35.1533 74.1227 35.1533 74.157C35.1533 74.1892 35.1216 74.2175 35.0801 74.2175Z" fill="white"/>
<path d="M36.47 75.1657H31.7668C31.7277 75.1657 31.6936 75.1395 31.6936 75.1052C31.6936 75.0729 31.7253 75.0447 31.7668 75.0447H36.47C36.5115 75.0447 36.5432 75.0709 36.5432 75.1052C36.5407 75.1395 36.509 75.1657 36.47 75.1657Z" fill="white"/>
<path d="M36.8016 75.549H32.0983C32.0593 75.549 32.0251 75.5228 32.0251 75.4885C32.0251 75.4562 32.0568 75.428 32.0983 75.428H36.8016C36.843 75.428 36.8747 75.4542 36.8747 75.4885C36.8747 75.5228 36.843 75.549 36.8016 75.549Z" fill="white"/>
<path d="M36.5433 75.886H31.84C31.801 75.886 31.7668 75.8597 31.7668 75.8254C31.7668 75.7931 31.7985 75.7649 31.84 75.7649H36.5433C36.5823 75.7649 36.6164 75.7911 36.6164 75.8254C36.6164 75.8597 36.5847 75.886 36.5433 75.886Z" fill="white"/>
<path d="M58.66 14.6995L58.187 15.4965C58.187 15.4965 54.1566 15.0082 51.2625 15.668C49.8215 15.6902 48.8462 15.9484 48.3318 16.6546H48.8292C48.8292 16.6546 51.0431 16.6243 51.9379 16.7454C53.1326 16.9068 55.3148 17.5767 57.358 17.8854C58.4308 18.0468 59.5256 17.724 60.24 17.042C61.0567 16.2632 62.0637 15.2463 62.3514 14.6995H58.66Z" fill="#FFBFC6"/>
<path d="M48.6779 16.4992C48.6901 16.4992 48.7023 16.4952 48.712 16.4891C49.0558 16.247 49.7531 16.1139 50.3334 16.1764C50.3651 16.1804 50.3895 16.1623 50.3944 16.1381C50.3993 16.1139 50.3773 16.0917 50.3481 16.0876C49.819 16.0311 49.0631 16.128 48.6438 16.4205C48.6218 16.4367 48.6194 16.4649 48.6364 16.4831C48.6486 16.4952 48.6633 16.4992 48.6779 16.4992Z" fill="#F22D5C"/>
<path d="M55.0954 17.4757C55.1198 17.4757 55.1417 17.4636 55.1466 17.4435C55.1539 17.4192 55.1368 17.395 55.11 17.389C54.971 17.3567 54.8077 17.3184 54.6272 17.276C53.5276 17.0157 51.8696 16.6243 50.8578 16.6243H48.3976C48.3684 16.6243 48.344 16.6444 48.344 16.6687C48.344 16.6929 48.3684 16.713 48.3976 16.713H50.8578C51.8526 16.713 53.5691 17.1186 54.598 17.3627C54.7784 17.4051 54.9442 17.4435 55.0807 17.4757C55.0856 17.4757 55.0905 17.4757 55.0954 17.4757Z" fill="white"/>
<path d="M34.5146 42.4791C34.8487 42.2652 35.0315 41.668 35.2997 41.6579C35.568 41.6478 35.4582 42.0635 35.4046 42.1986C35.3485 42.3338 35.0974 42.6708 34.5146 42.4791Z" fill="#F22D5C"/>
<path d="M24.0864 36.8054C24.0864 36.2183 23.511 35.7421 22.8015 35.7421C22.465 35.7421 22.1602 35.8511 21.9335 36.0266C21.7165 35.6574 21.2605 35.4011 20.7314 35.4011C20.0804 35.4011 19.5391 35.7845 19.4172 36.2929C19.3416 36.2829 19.2661 36.2728 19.1856 36.2728C18.3761 36.2728 17.7178 36.8155 17.7178 37.4874C17.7178 37.7255 17.8031 37.9454 17.947 38.1331C17.7056 38.3772 17.5569 38.6839 17.5569 39.0209C17.5569 39.7997 18.32 40.4333 19.2636 40.4333C20.0731 40.4333 20.7485 39.9651 20.9216 39.3397C20.9947 39.3477 21.0679 39.3578 21.1459 39.3578C22.0895 39.3578 22.8551 38.7243 22.8551 37.9434C22.8551 37.9152 22.8478 37.8889 22.8453 37.8627C23.5353 37.8466 24.0864 37.3805 24.0864 36.8054Z" fill="#2E175A"/>
<path d="M29.08 45.6085L26.2175 43.7684C25.7957 43.496 25.2934 43.3245 24.7619 43.266L23.0479 43.0824C22.9771 43.0743 22.9113 43.044 22.8699 42.9956C22.826 42.9472 22.8089 42.8887 22.8211 42.8301C22.8333 42.7716 22.8162 42.7111 22.7723 42.6647C22.7285 42.6163 22.6651 42.586 22.5944 42.5779L19.4442 42.241C19.293 42.2248 19.1516 42.3096 19.1224 42.4347C19.0955 42.5598 18.9541 42.6445 18.8005 42.6284L18.3348 42.5779C17.2937 42.467 16.3062 42.9875 15.9893 43.8148L14.6995 47.1823L16.433 47.4789L17.1499 52.4243L25.8201 52.9852L25.2739 46.3712L27.3854 47.7917L29.08 45.6085Z" fill="#9566DA"/>
<path d="M28.9848 45.7318L29.7407 46.1132L32.5421 42.7658C32.7567 42.5116 33.1054 42.3582 33.4809 42.3582H34.8145C34.9608 42.3582 35.0974 42.3017 35.1852 42.2069L35.6947 41.6621C35.7459 41.6077 35.8215 41.5774 35.9044 41.5774C35.9507 41.5774 35.9946 41.5976 36.019 41.6278C36.0458 41.6601 36.0483 41.7005 36.0312 41.7368L35.6825 42.4127C35.5143 42.7376 35.1364 42.9535 34.7097 42.9656L33.7881 42.9918L31.1816 47.2895C30.7354 48.0239 29.6699 48.3488 28.7605 48.0159C28.346 47.8625 27.9364 47.6749 27.6462 47.4549L28.9848 45.7318Z" fill="#FFBFC6"/>
<path d="M25.3788 52.959L26.6369 68.128H24.1475L21.5581 56.5021L19.9245 68.128H17.4132L16.3818 53.5905L17.1474 52.4243L25.3788 52.959Z" fill="#D0D0FF"/>
<path d="M21.6848 56.0483C21.6823 56.0483 21.6774 56.0483 21.675 56.0483C21.6433 56.0442 21.6238 56.018 21.6287 55.9938L22.1066 53.8732C22.1114 53.847 22.1407 53.8308 22.1724 53.8348C22.2041 53.8389 22.2236 53.8651 22.2187 53.8893L21.7408 56.0099C21.736 56.0341 21.7116 56.0483 21.6848 56.0483Z" fill="#9566DA"/>
<path d="M25.8566 66.1146C25.8273 66.1146 25.8029 66.0964 25.8005 66.0722L24.7204 54.6964C24.7179 54.6702 24.7423 54.648 24.7716 54.646C24.8057 54.6419 24.8301 54.6641 24.8325 54.6884L25.9127 66.0641C25.9151 66.0904 25.8907 66.1125 25.8615 66.1146C25.859 66.1146 25.859 66.1146 25.8566 66.1146Z" fill="#9566DA"/>
<path d="M19.5734 65.9066C19.5709 65.9066 19.5685 65.9066 19.566 65.9066C19.5343 65.9046 19.5124 65.8804 19.5173 65.8541L21.0509 54.5409C21.0533 54.5147 21.0777 54.4925 21.1143 54.4986C21.146 54.5006 21.1679 54.5248 21.1631 54.551L19.6294 65.8642C19.627 65.8905 19.6026 65.9066 19.5734 65.9066Z" fill="#9566DA"/>
<path d="M19.5733 67.5913H17.8324C17.8007 67.5913 17.7764 67.5712 17.7764 67.5449C17.7764 67.5187 17.8007 67.4985 17.8324 67.4985H19.5733C19.605 67.4985 19.6294 67.5187 19.6294 67.5449C19.6294 67.5712 19.605 67.5913 19.5733 67.5913Z" fill="#9566DA"/>
<path d="M26.1883 67.5913H24.4474C24.4157 67.5913 24.3914 67.5712 24.3914 67.5449C24.3914 67.5187 24.4157 67.4985 24.4474 67.4985H26.1883C26.22 67.4985 26.2444 67.5187 26.2444 67.5449C26.2444 67.5712 26.2176 67.5913 26.1883 67.5913Z" fill="#9566DA"/>
<path d="M27.5146 44.9105C27.5122 44.9105 27.5097 44.9105 27.5073 44.9105L16.4232 43.5707C16.3915 43.5667 16.3696 43.5425 16.3745 43.5182C16.3793 43.492 16.4037 43.4718 16.4379 43.4779L27.5219 44.8176C27.5536 44.8217 27.5755 44.8459 27.5707 44.8701C27.5682 44.8923 27.5438 44.9105 27.5146 44.9105Z" fill="#D0D0FF"/>
<path d="M25.108 47.0028C25.1056 47.0028 25.1032 47.0028 25.1007 47.0028L15.4576 45.8366C15.4259 45.8326 15.404 45.8084 15.4089 45.7821C15.4138 45.7559 15.4406 45.7377 15.4723 45.7418L25.1154 46.908C25.147 46.912 25.169 46.9362 25.1641 46.9605C25.1592 46.9847 25.1349 47.0028 25.108 47.0028Z" fill="#D0D0FF"/>
<path d="M25.2031 49.2162C25.2007 49.2162 25.1982 49.2162 25.1958 49.2162L17.4813 48.2841C17.4496 48.28 17.4277 48.2558 17.4326 48.2316C17.4374 48.2054 17.4618 48.1872 17.496 48.1912L25.2104 49.1234C25.2421 49.1274 25.2641 49.1517 25.2592 49.1759C25.2543 49.2001 25.2299 49.2162 25.2031 49.2162Z" fill="#D0D0FF"/>
<path d="M25.5324 51.7525C25.53 51.7525 25.5275 51.7525 25.5251 51.7525L17.9594 50.8385C17.9277 50.8345 17.9057 50.8102 17.9106 50.786C17.9155 50.7598 17.9398 50.7416 17.974 50.7457L25.5397 51.6597C25.5714 51.6637 25.5934 51.6879 25.5885 51.7122C25.5836 51.7364 25.5592 51.7525 25.5324 51.7525Z" fill="#D0D0FF"/>
<path d="M22.0359 40.6026L22.092 41.2866L22.1895 42.5356L19.4441 42.243C19.4441 42.243 19.9244 40.5098 19.861 39.7088C19.861 39.7088 18.8297 39.5918 18.9711 38.7403C19.1101 37.8909 20.3657 38.4336 20.3657 38.4336C20.3657 38.4336 21.3191 38.252 20.79 37.3885C21.38 37.7859 22.2114 37.8061 22.309 37.2351C22.4748 37.7537 23.1916 37.6588 23.1916 37.6588C23.4062 38.815 23.984 40.8508 22.0359 40.6026Z" fill="#FFBFC6"/>
<path d="M19.9635 38.7142C19.9587 38.7142 19.9513 38.7142 19.9465 38.7122L19.5076 38.5972C19.4783 38.5891 19.4613 38.5629 19.471 38.5386C19.4808 38.5144 19.5125 38.5003 19.5417 38.5084L19.9806 38.6234C20.0099 38.6315 20.0269 38.6577 20.0172 38.6819C20.0099 38.7021 19.9879 38.7142 19.9635 38.7142Z" fill="#F22D5C"/>
<path d="M21.9507 39.7372C21.6484 39.7372 21.3656 39.6081 21.2046 39.3942C21.1876 39.372 21.1973 39.3437 21.2217 39.3296C21.2485 39.3155 21.2827 39.3236 21.2997 39.3437C21.446 39.5374 21.7093 39.6484 21.9849 39.6424C22.019 39.6444 22.0434 39.6605 22.0434 39.6867C22.0458 39.713 22.0214 39.7352 21.9897 39.7352C21.9775 39.7372 21.9629 39.7372 21.9507 39.7372Z" fill="#F22D5C"/>
<path d="M22.6797 38.4176C22.6724 38.4176 22.665 38.4156 22.6553 38.4136C22.626 38.4035 22.6138 38.3752 22.626 38.351C22.7211 38.1775 22.9503 38.0827 23.1771 38.125C23.2088 38.1311 23.2258 38.1553 23.2185 38.1815C23.2112 38.2078 23.1819 38.2219 23.1502 38.2158C22.9796 38.1835 22.8016 38.2542 22.7284 38.3873C22.7236 38.4075 22.7016 38.4176 22.6797 38.4176Z" fill="#2E175A"/>
<path d="M22.0261 38.4175C22.0115 38.4175 21.9944 38.4115 21.9822 38.4014C21.7359 38.1674 21.3214 38.1109 20.9996 38.2703C20.9728 38.2824 20.9386 38.2763 20.9216 38.2541C20.9045 38.2319 20.9143 38.2037 20.9411 38.1895C21.3117 38.008 21.7847 38.0705 22.0675 38.3389C22.087 38.359 22.0846 38.3873 22.0627 38.4054C22.0529 38.4155 22.0383 38.4175 22.0261 38.4175Z" fill="#2E175A"/>
<path d="M22.4503 37.9979C22.4406 37.9979 22.4308 37.9959 22.4211 37.9919C22.3942 37.9777 22.3845 37.9495 22.4016 37.9273C22.4942 37.7941 22.6795 37.7235 22.8673 37.7518C22.8989 37.7578 22.9185 37.782 22.9111 37.8062C22.9038 37.8325 22.8746 37.8466 22.8453 37.8426C22.7088 37.8184 22.5698 37.8728 22.4991 37.9717C22.4869 37.9899 22.4698 37.9979 22.4503 37.9979Z" fill="#2E175A"/>
<path d="M21.2166 37.9837C21.1995 37.9837 21.1825 37.9776 21.1703 37.9635C21.1532 37.9413 21.1581 37.913 21.1825 37.8969C21.3921 37.7718 21.6579 37.7234 21.9139 37.7657C21.9456 37.7718 21.9651 37.796 21.9578 37.8202C21.9529 37.8465 21.9212 37.8586 21.892 37.8565C21.6677 37.8182 21.4336 37.8626 21.2483 37.9716C21.241 37.9816 21.2288 37.9837 21.2166 37.9837Z" fill="#2E175A"/>
<path d="M22.3847 39.1822H21.8337C21.802 39.1822 21.7776 39.162 21.7776 39.1358C21.7776 39.1096 21.802 39.0894 21.8337 39.0894H22.3847C22.4335 39.0894 22.4774 39.0672 22.5017 39.0329C22.5261 38.9986 22.5261 38.9562 22.5017 38.9219L22.4505 38.8493C22.3481 38.702 22.292 38.5345 22.292 38.365V38.135C22.292 38.1088 22.3164 38.0886 22.3481 38.0886C22.3798 38.0886 22.4042 38.1088 22.4042 38.135V38.365C22.4042 38.5184 22.453 38.6697 22.5456 38.8029L22.5968 38.8755C22.6407 38.9381 22.6407 39.0168 22.5968 39.0813C22.5578 39.1439 22.4749 39.1822 22.3847 39.1822Z" fill="#2E175A"/>
<path d="M22.0895 41.2868C21.419 40.8469 21.2751 40.3284 21.2751 40.3284C21.4239 40.4454 21.7189 40.5241 22.0359 40.6028L22.0895 41.2868Z" fill="#2E175A"/>
<path d="M21.7775 36.6744C21.7141 36.6744 21.6556 36.6441 21.619 36.5896C21.502 36.4222 21.8312 36.1659 21.8677 36.1357C21.8824 36.1256 21.9043 36.1215 21.9214 36.1256C21.9409 36.1296 21.9555 36.1437 21.9604 36.1579C22.0603 36.4666 21.9579 36.6219 21.8409 36.6623C21.819 36.6724 21.797 36.6744 21.7775 36.6744ZM21.8726 36.2668C21.7775 36.3536 21.6702 36.4807 21.7166 36.5453C21.7385 36.5775 21.7678 36.5896 21.7995 36.5796C21.8555 36.5594 21.9141 36.4605 21.8726 36.2668Z" fill="#4A3797"/>
<path d="M19.7001 36.858C19.683 36.858 19.6635 36.856 19.644 36.852C19.4173 36.8056 19.4197 36.4323 19.4221 36.3899C19.4221 36.3738 19.4343 36.3576 19.4514 36.3496C19.4685 36.3415 19.4904 36.3415 19.5075 36.3496C19.8464 36.5049 19.9122 36.6724 19.8659 36.7692C19.8366 36.8257 19.7757 36.858 19.7001 36.858ZM19.5392 36.4747C19.5489 36.5917 19.5855 36.743 19.6733 36.7612C19.7147 36.7692 19.7489 36.7612 19.7586 36.7349C19.7805 36.6885 19.7367 36.5836 19.5392 36.4747Z" fill="#4A3797"/>
<path d="M18.4762 38.2926C18.3007 38.2926 18.091 38.2018 18.0593 38.1876C18.0422 38.1796 18.03 38.1655 18.03 38.1493C18.03 38.1332 18.0398 38.117 18.0544 38.109C18.3738 37.9314 18.5859 37.9596 18.6688 38.0363C18.7274 38.0928 18.7249 38.1735 18.6566 38.2361C18.6152 38.2784 18.5494 38.2926 18.4762 38.2926ZM18.2056 38.1412C18.3372 38.1876 18.5152 38.23 18.5737 38.1735C18.603 38.1473 18.6079 38.119 18.5859 38.0989C18.5445 38.0605 18.4128 38.0464 18.2056 38.1412Z" fill="#4A3797"/>
<path d="M18.2421 40.052C18.2299 40.052 18.2177 40.048 18.2079 40.0419C18.1836 40.0258 18.1787 39.9975 18.1982 39.9753C18.3494 39.8139 18.3811 39.6001 18.2811 39.4144C18.1811 39.2288 17.9641 39.1057 17.7179 39.0936C17.6862 39.0916 17.6618 39.0694 17.6642 39.0432C17.6667 39.0169 17.6886 38.9988 17.7252 38.9988C18.0129 39.0129 18.2665 39.1562 18.3835 39.3741C18.503 39.592 18.4664 39.8442 18.2884 40.0318C18.2762 40.0439 18.2592 40.052 18.2421 40.052Z" fill="#4A3797"/>
<path d="M20.6168 38.2197C20.5851 38.2197 20.5607 38.1996 20.5607 38.1733C20.5559 38.0523 20.5095 37.9635 20.4169 37.905C20.234 37.7879 19.8585 37.7819 19.2734 37.8908C18.9174 37.9554 18.5736 37.8323 18.3712 37.566C18.1274 37.2452 18.1762 36.8215 18.4931 36.4906C18.5127 36.4704 18.5492 36.4684 18.5736 36.4825C18.598 36.4986 18.6029 36.5289 18.5834 36.5491C18.2347 36.9143 18.303 37.2976 18.4688 37.5156C18.6443 37.7476 18.9442 37.8565 19.249 37.8C19.878 37.683 20.273 37.6931 20.4876 37.8323C20.6071 37.909 20.668 38.022 20.6753 38.1713C20.6753 38.1975 20.651 38.2197 20.6168 38.2197Z" fill="#4A3797"/>
<path d="M21.68 37.1565C21.6703 37.1565 21.6605 37.1565 21.6508 37.1565C21.3801 37.1484 21.1241 37.0153 20.9339 36.7812C20.7803 36.5936 20.6974 36.3676 20.6243 36.1698C20.4999 35.8329 20.4146 35.6473 20.1732 35.6775C20.1415 35.6795 20.1122 35.6634 20.1074 35.6392C20.1025 35.613 20.1244 35.5887 20.1537 35.5847C20.5072 35.5383 20.6145 35.8309 20.7316 36.1416C20.8023 36.3333 20.8827 36.5512 21.0266 36.7287C21.1972 36.9366 21.4191 37.0556 21.6532 37.0637C21.8824 37.0677 22.1043 36.9749 22.2798 36.7933C22.5651 36.4987 22.865 36.4644 23.1064 36.4382C23.1795 36.4301 23.2478 36.4221 23.3063 36.4079C23.4087 36.3837 23.4916 36.3232 23.5135 36.2586C23.533 36.2021 23.5038 36.1416 23.4331 36.0811C23.4111 36.0629 23.4111 36.0326 23.4331 36.0145C23.455 35.9963 23.4916 35.9963 23.5135 36.0145C23.6403 36.1214 23.6428 36.2183 23.6233 36.2808C23.5916 36.3777 23.4818 36.4624 23.338 36.4967C23.2697 36.5128 23.199 36.5209 23.121 36.529C22.8869 36.5552 22.6236 36.5855 22.3676 36.8498C22.1798 37.0496 21.936 37.1565 21.68 37.1565Z" fill="#4A3797"/>
<path d="M23.6695 70.525H17.4545L17.4472 70.0246L17.4204 68.6627L17.4106 68.126H19.5246C19.6367 68.352 19.7196 68.5275 19.8098 68.6627C20.0463 69.0319 20.3536 69.1368 21.6068 69.3265C22.4675 69.4536 22.9844 69.7583 23.2867 70.0246C23.5817 70.295 23.6695 70.525 23.6695 70.525Z" fill="#FFBFC6"/>
<path d="M23.6693 70.5249H17.4543L17.447 70.0245L17.4202 68.6626H19.8096C20.0461 69.0318 20.3533 69.1368 21.6066 69.3264C22.4672 69.4535 22.9841 69.7582 23.2865 70.0245C23.5815 70.2949 23.6693 70.5249 23.6693 70.5249Z" fill="#9566DA"/>
<path d="M23.6695 70.525H17.4546L17.4473 70.0247H23.2843C23.5818 70.295 23.6695 70.525 23.6695 70.525Z" fill="#D0D0FF"/>
<path d="M30.494 70.525H24.2766L24.2692 70.0246L24.2424 68.6627L24.2327 68.126H26.3466C26.4587 68.352 26.5416 68.5275 26.6319 68.6627C26.8684 69.0319 27.1756 69.1368 28.4288 69.3265C29.2895 69.4536 29.8064 69.7583 30.1087 70.0246C30.4062 70.295 30.494 70.525 30.494 70.525Z" fill="#FFBFC6"/>
<path d="M30.4937 70.5249H24.2763L24.269 70.0245L24.2422 68.6626H26.6316C26.8681 69.0318 27.1753 69.1368 28.4286 69.3264C29.2893 69.4535 29.8062 69.7582 30.1085 70.0245C30.406 70.2949 30.4937 70.5249 30.4937 70.5249Z" fill="#9566DA"/>
<path d="M30.494 70.525H24.2766L24.2693 70.0247H30.1063C30.4062 70.295 30.494 70.525 30.494 70.525Z" fill="#D0D0FF"/>
<path d="M17.5155 47.6646L16.9742 48.9519L18.5444 52.5151L17.3083 54.1454L14.8335 49.0568C14.6555 48.6916 14.6238 48.2901 14.7408 47.9087L14.9505 47.2288L17.5155 47.6646Z" fill="#FFBFC6"/>
<path d="M17.1204 54.438C17.1107 54.438 17.0985 54.436 17.0912 54.43C17.0644 54.4158 17.0571 54.3876 17.0741 54.3654L18.498 52.491C18.5151 52.4688 18.5517 52.4627 18.5761 52.4768C18.6029 52.491 18.6102 52.5192 18.5931 52.5414L17.1692 54.4158C17.157 54.43 17.14 54.438 17.1204 54.438Z" fill="#2E175A"/>
<path d="M17.7787 47.7576C17.7739 47.7576 17.7714 47.7576 17.7666 47.7556L14.9382 47.2713C14.9065 47.2653 14.887 47.2411 14.8944 47.2169C14.9017 47.1926 14.9285 47.1745 14.9626 47.1805L17.7373 47.6547L18.3737 45.5422C18.381 45.518 18.4102 45.5018 18.4419 45.5079C18.4712 45.5139 18.4907 45.5402 18.4834 45.5644L17.8324 47.7213C17.8275 47.7435 17.8056 47.7576 17.7787 47.7576Z" fill="#2E175A"/>
<path d="M25.169 46.1757C25.147 46.1757 25.1275 46.1656 25.1178 46.1495L24.3644 44.8319C24.3497 44.8077 24.3619 44.7795 24.3912 44.7694C24.4204 44.7593 24.4546 44.7674 24.4668 44.7916L25.2202 46.1091C25.2348 46.1333 25.2226 46.1616 25.1933 46.1717C25.186 46.1737 25.1787 46.1757 25.169 46.1757Z" fill="#2E175A"/>
<path d="M30.0989 27.9961H37.2989C38.913 27.9961 40.2345 29.0897 40.2345 30.4254V33.8393C40.2345 35.175 38.913 36.2686 37.2989 36.2686H29.8624L27.1633 38.7181V36.2686V35.4959V30.4254C27.1609 29.0897 28.4824 27.9961 30.0989 27.9961Z" fill="white"/>
<path d="M32.6517 29.4551C31.379 29.4551 30.3428 30.3126 30.3428 31.3658C30.3428 31.5696 30.7207 31.5737 30.7207 31.3658C30.7207 30.926 30.9377 30.5265 31.2864 30.2359C32.0422 29.6104 33.2613 29.6104 34.0171 30.2359C35.0144 31.0632 34.6316 32.4493 33.3442 32.8589C32.564 33.1071 32.3397 33.8859 32.5176 34.0332C32.6347 34.1321 32.8395 34.0635 32.8395 33.9223C32.8395 33.7528 32.9029 33.5914 33.015 33.4541C33.1272 33.319 33.2881 33.21 33.4783 33.1495C35.8677 32.3928 35.1899 29.4551 32.6517 29.4551Z" fill="#2E175A"/>
<path d="M32.425 34.7859C32.425 35.0341 32.8761 35.0301 32.8761 34.7859C32.8786 34.5418 32.425 34.5378 32.425 34.7859Z" fill="#2E175A"/>
<path d="M26.3125 38.3994V29.911C26.3125 28.5289 27.6706 27.405 29.3407 27.405H36.5407C38.2109 27.405 39.569 28.5289 39.569 29.911V33.3249C39.569 34.7071 38.2109 35.8309 36.5407 35.8309H29.1457L26.3125 38.3994ZM29.3407 27.5564C27.773 27.5564 26.4954 28.6116 26.4954 29.911V38.008L29.0628 35.6776H36.5407C38.1085 35.6776 39.3861 34.6223 39.3861 33.3229V29.909C39.3861 28.6116 38.1109 27.5543 36.5407 27.5543H29.3407V27.5564Z" fill="#2E175A"/>
<path d="M18.1957 72.7991L12.4879 74.9984L11.8101 73.7273L16.0574 70.2104L18.1957 72.7991Z" fill="#2E175A"/>
<path d="M17.5985 69.9421L21.9531 68.7759C22.9894 68.4995 24.1109 68.899 24.5791 69.7121C25.1008 70.6201 24.623 71.7056 23.516 72.1212L17.0694 74.5364L15.6431 72.7568L18.6542 71.6249L17.5985 69.9421Z" fill="#2E175A"/>
<path d="M16.9644 59.6114C17.8593 57.8641 14.1191 56.4194 13.0511 57.5191C11.9052 57.6583 12.0222 60.1401 13.5851 60.8523L16.9644 59.6114Z" fill="#2E175A"/>
<path d="M8.66485 72.4764C7.92363 72.4764 7.36285 71.9195 7.49695 71.3162L9.13054 63.9274C9.41825 62.6321 10.8812 61.8149 12.3709 61.9804C12.5733 61.7665 12.9244 61.6959 13.2218 61.8109L15.3089 62.6058C15.543 62.6946 15.7064 62.8782 15.7381 63.0901L16.3305 63.304C16.8377 63.4856 17.2351 63.8266 17.4375 64.2523L19.4929 68.552L12.4026 72.4764H8.66485Z" fill="#F22D5C"/>
<path d="M15.1748 63.9333C15.2797 63.9333 15.3845 63.9232 15.4894 63.899C15.5162 63.893 15.5332 63.8688 15.5259 63.8466C15.5186 63.8244 15.4894 63.8103 15.4625 63.8163C14.5921 64.01 13.5851 63.2715 12.9366 62.5169C12.9195 62.4988 12.8878 62.4927 12.8659 62.5068C12.8439 62.521 12.8366 62.5472 12.8537 62.5653C13.4486 63.2594 14.3361 63.9333 15.1748 63.9333Z" fill="#2E175A"/>
<path d="M17.5985 69.9422C17.5985 69.9422 22.2896 68.9777 23.594 68.0859C24.0085 67.8034 24.245 67.4987 24.3767 67.2142C24.6059 66.7219 24.0037 66.2437 23.4136 66.4415L16.0161 68.9273L17.5985 69.9422Z" fill="#F22D5C"/>
<path d="M10.1716 67.2726C10.1716 67.2726 17.8983 67.2726 19.488 67.2726C21.0777 67.2726 21.2337 66.0923 22.7576 66.0923L22.5333 66.4474H24.3522C24.3522 66.4474 24.8496 66.4151 24.8496 66.6169C24.8496 66.8187 22.5138 67.0204 22.5138 67.0204C22.5138 67.0204 24.184 66.9962 24.2132 67.206C24.2425 67.4159 23.5671 67.5127 23.5671 67.5127C23.5671 67.5127 23.7719 67.7629 22.921 68.0313C22.07 68.2976 21.3483 68.5902 20.078 68.5902L12.8853 69.714C12.8878 69.7161 11.1103 69.0361 10.1716 67.2726Z" fill="#FFBFC6"/>
<path d="M21.6945 67.8093C21.697 67.8093 21.6994 67.8093 21.7043 67.8093L23.3647 67.5753C23.3915 67.5713 23.411 67.5491 23.4061 67.5269C23.4013 67.5047 23.3769 67.4885 23.3476 67.4926L21.6872 67.7266C21.6604 67.7307 21.6409 67.7528 21.6458 67.775C21.6482 67.7932 21.6702 67.8093 21.6945 67.8093Z" fill="#F22D5C"/>
<path d="M20.7265 71.9517C20.7363 71.9517 20.7436 71.9497 20.7509 71.9456L22.7576 71.0135C22.7819 71.0013 22.7917 70.9771 22.7771 70.9549C22.7624 70.9348 22.7307 70.9267 22.7088 70.9388L20.7022 71.871C20.6778 71.8831 20.668 71.9073 20.6827 71.9295C20.6924 71.9436 20.7095 71.9517 20.7265 71.9517Z" fill="#F22D5C"/>
<path d="M19.3857 70.842C19.3955 70.842 19.4028 70.84 19.4101 70.836L21.9507 69.6435C21.9751 69.6314 21.9848 69.6072 21.9702 69.587C21.9556 69.5668 21.9263 69.5588 21.8995 69.5709L19.3589 70.7633C19.3345 70.7754 19.3248 70.7996 19.3394 70.8198C19.3516 70.8339 19.3687 70.842 19.3857 70.842Z" fill="#F22D5C"/>
<path d="M11.8003 65.602C12.6439 65.602 13.3461 65.3095 14.0361 65.023C15.087 64.5851 16.0793 64.1715 17.4862 64.8979C17.5106 64.91 17.5422 64.9039 17.5569 64.8837C17.5715 64.8636 17.5642 64.8373 17.5398 64.8252C16.0842 64.0746 15.0675 64.4984 13.9898 64.9463C12.7317 65.4709 11.4272 66.0116 9.26456 64.682C9.24262 64.6678 9.21092 64.6719 9.19386 64.69C9.17679 64.7082 9.18167 64.7344 9.20361 64.7485C10.2301 65.3821 11.0688 65.602 11.8003 65.602Z" fill="#FFBFC6"/>
<path d="M11.7273 66.9983C12.6733 66.9983 13.4608 66.7057 14.2337 66.4192C15.4163 65.9814 16.5354 65.5678 18.1227 66.2962C18.1471 66.3083 18.1788 66.3002 18.1909 66.28C18.2056 66.2598 18.1958 66.2336 18.1714 66.2235C16.5403 65.4749 15.3992 65.8966 14.1923 66.3446C12.7757 66.8692 11.3079 67.4119 8.86971 66.0803C8.84776 66.0682 8.81607 66.0722 8.799 66.0924C8.78437 66.1125 8.78925 66.1388 8.81363 66.1509C9.9669 66.7804 10.908 66.9983 11.7273 66.9983Z" fill="#FFBFC6"/>
<path d="M11.3372 63.4916C11.5859 63.4916 11.8151 63.4431 12.0662 63.3927C12.3808 63.3281 12.7367 63.2555 13.2195 63.2615C13.2488 63.2636 13.2707 63.2434 13.2707 63.2192C13.2707 63.197 13.2488 63.1768 13.2195 63.1768C12.7197 63.1707 12.3588 63.2434 12.0394 63.31C11.4835 63.425 11.0446 63.5158 10.1961 63.0799C10.1718 63.0678 10.1401 63.0739 10.1254 63.0941C10.1108 63.1142 10.1181 63.1405 10.1425 63.1526C10.6448 63.4088 11.0105 63.4916 11.3372 63.4916Z" fill="#FFBFC6"/>
<path d="M10.5276 68.5984C10.6056 68.5984 10.6812 68.5964 10.7592 68.5923C10.7885 68.5903 10.808 68.5701 10.808 68.5479C10.8056 68.5258 10.7787 68.5076 10.7544 68.5076C9.83515 68.556 8.97934 68.3078 8.56973 67.8761C8.55266 67.8579 8.52096 67.8559 8.49902 67.868C8.47708 67.8821 8.4722 67.9083 8.48927 67.9265C8.88426 68.3462 9.66692 68.5984 10.5276 68.5984Z" fill="#FFBFC6"/>
<path d="M9.99859 70.0147C10.1278 70.0147 10.2619 70.0046 10.396 69.9824C10.4228 69.9784 10.4423 69.9562 10.4375 69.932C10.4326 69.9098 10.4058 69.8956 10.3765 69.8977C9.39879 70.0591 8.47715 69.5526 8.25772 69.3145C8.24065 69.2944 8.20895 69.2923 8.18701 69.3065C8.16506 69.3206 8.16019 69.3468 8.17726 69.365C8.37719 69.5849 9.13303 70.0147 9.99859 70.0147Z" fill="#FFBFC6"/>
<path d="M13.4827 60.364C13.4193 60.7797 13.234 61.4879 13.134 61.8632C13.0852 62.0427 13.1243 62.2304 13.2389 62.3898C13.6168 62.9225 14.1605 63.2473 14.6164 63.439C14.9822 63.5943 15.4015 63.3381 15.3333 63.0032L15.1772 62.2284L15.0846 61.7562C15.3869 62.0811 16.4817 62.3373 16.923 61.2599C17.3692 60.1824 16.9352 58.5864 15.6332 58.5864C14.3312 58.5864 14.4482 59.5569 14.4482 59.5569C14.4482 59.5569 13.6387 58.6409 13.1828 59.0707C12.4708 59.7426 13.4827 60.364 13.4827 60.364Z" fill="#FFBFC6"/>
<path d="M15.1774 62.2284L15.0847 61.7563C14.758 61.3911 14.6312 61.1409 14.6312 61.1409C14.6312 61.1409 14.3313 61.8874 15.1774 62.2284Z" fill="#2E175A"/>
<path d="M14.0558 59.6539C14.0729 59.6539 14.09 59.6458 14.0997 59.6317C14.1143 59.6115 14.1046 59.5853 14.0802 59.5752L13.4682 59.2947C13.4438 59.2826 13.4121 59.2907 13.3999 59.3109C13.3853 59.3311 13.3951 59.3573 13.4194 59.3674L14.0314 59.6478C14.0387 59.6519 14.0461 59.6539 14.0558 59.6539Z" fill="#F22D5C"/>
<path d="M16.1014 60.9694C16.1258 60.9694 16.1478 60.9533 16.1526 60.9331C16.1575 60.9109 16.138 60.8887 16.1088 60.8847C15.7357 60.8423 15.4139 60.6506 15.2481 60.3681C15.2359 60.348 15.2042 60.3379 15.1798 60.348C15.1554 60.358 15.1432 60.3823 15.1554 60.4044C15.3358 60.7111 15.6845 60.921 16.0941 60.9674C16.0966 60.9694 16.099 60.9694 16.1014 60.9694Z" fill="#F22D5C"/>
<path d="M16.5451 59.3614C16.5549 59.3614 16.5646 59.3594 16.5744 59.3534C16.5963 59.3392 16.6036 59.313 16.5865 59.2948C16.3866 59.0608 16.0233 58.974 15.7039 59.085C15.6771 59.0931 15.6649 59.1193 15.6771 59.1395C15.6869 59.1617 15.7185 59.1718 15.7429 59.1617C16.0184 59.0648 16.3305 59.1395 16.5036 59.3412C16.5134 59.3554 16.528 59.3614 16.5451 59.3614Z" fill="#2E175A"/>
<path d="M16.8303 59.7185C17.0035 59.8436 17.1961 60.0656 17.3351 60.2371C17.4375 60.3662 17.3546 60.5417 17.1717 60.574C17.023 60.6002 16.8425 60.6144 16.6621 60.5922L16.8303 59.7185Z" fill="#FFBFC6"/>
<path d="M15.3967 59.4036C15.4162 59.6034 15.543 59.7789 15.7308 59.8939C15.76 59.9141 15.7917 59.9302 15.8259 59.9443C16.0697 60.0533 16.3647 60.0533 16.611 59.9443C16.5671 59.7244 16.4037 59.5327 16.1648 59.4278C16.1477 59.4218 16.1355 59.4137 16.1209 59.4117C15.8917 59.3209 15.6259 59.3209 15.3967 59.4036Z" fill="white"/>
<path d="M15.7332 59.8941C15.7624 59.9143 15.7941 59.9304 15.8282 59.9445C16.0721 60.0535 16.3671 60.0535 16.6133 59.9445C16.5695 59.7246 16.4061 59.5329 16.1672 59.428C16.1501 59.422 16.1379 59.4139 16.1233 59.4119C15.9038 59.4986 15.7478 59.6822 15.7332 59.8941Z" fill="#2E175A"/>
<path d="M12.5561 57.4969C12.5732 57.4969 12.5903 57.4909 12.6 57.4767C12.6025 57.4747 12.8024 57.2225 13.2291 57.1781C13.2559 57.1761 13.2778 57.1539 13.273 57.1297C13.2681 57.1075 13.2437 57.0873 13.2169 57.0934C12.7414 57.1438 12.5244 57.4202 12.5147 57.4303C12.5001 57.4505 12.5074 57.4767 12.5293 57.4888C12.5366 57.4949 12.5464 57.4969 12.5561 57.4969Z" fill="#2E175A"/>
<path d="M11.5542 56.5527C11.5542 56.9017 11.8955 57.1842 12.3174 57.1842C12.7392 57.1842 13.0805 56.9017 13.0805 56.5527C13.0805 56.2036 12.7392 55.9211 12.3174 55.9211C11.8931 55.9232 11.5542 56.2056 11.5542 56.5527Z" fill="#2E175A"/>
<path d="M19.2808 74.3729L19.6733 74.6695L21.3362 75.9265H27.0025C27.0025 75.9265 26.2272 74.9499 23.3574 74.3729C22.4138 74.1832 21.6092 73.9431 20.9656 73.5375C20.8388 73.4589 20.7217 73.3781 20.6096 73.2874L19.2808 74.3729Z" fill="#FFBFC6"/>
<path d="M19.6733 74.6715L19.9684 74.8954L21.3362 75.9285H27.0026C27.0026 75.9285 26.2272 74.9519 23.3575 74.3749C22.6382 74.2296 21.9969 74.0581 21.4508 73.7998C21.2801 73.7211 21.1168 73.6344 20.9656 73.5396C20.5291 73.9572 20.0439 74.3708 19.6733 74.6715Z" fill="#F22D5C"/>
<path d="M19.9658 74.8935L20.6485 75.41L21.3337 75.9265H27C27 75.9265 26.8196 75.7066 26.3271 75.41C25.7834 75.0851 24.8568 74.6776 23.3549 74.3729C22.6356 74.2276 21.9944 74.0561 21.4482 73.7979C21.1386 74.1106 20.5705 74.6191 19.9658 74.8935Z" fill="#9566DA"/>
<path d="M20.6487 75.4102L21.3338 75.9267H27.0002C27.0002 75.9267 26.8198 75.7068 26.3272 75.4102H20.6487Z" fill="#2E175A"/>
<path d="M23.399 74.9137C23.4185 74.9137 23.4356 74.9056 23.4453 74.8915L23.616 74.615C23.6282 74.5949 23.6184 74.5686 23.594 74.5585C23.5697 74.5485 23.538 74.5565 23.5258 74.5767L23.3575 74.8531C23.3454 74.8733 23.3551 74.8995 23.3795 74.9096C23.3844 74.9116 23.3917 74.9137 23.399 74.9137Z" fill="#D0D0FF"/>
<path d="M22.8673 74.7887C22.8868 74.7887 22.9038 74.7806 22.9136 74.7665L23.0818 74.49C23.094 74.4699 23.0843 74.4436 23.0599 74.4335C23.0355 74.4235 23.0038 74.4315 22.9916 74.4517L22.8234 74.7281C22.8112 74.7483 22.8209 74.7745 22.8453 74.7846C22.8502 74.7866 22.8599 74.7887 22.8673 74.7887Z" fill="#D0D0FF"/>
<path d="M22.3626 74.6937C22.3821 74.6937 22.3992 74.6856 22.4089 74.6715L22.5796 74.3951C22.5918 74.3749 22.5821 74.3487 22.5577 74.3386C22.5333 74.3285 22.5016 74.3366 22.4894 74.3567L22.3187 74.6332C22.3065 74.6533 22.3163 74.6796 22.3407 74.6897C22.348 74.6917 22.3553 74.6937 22.3626 74.6937Z" fill="#D0D0FF"/>
<path d="M24.4545 75.3375C24.4813 75.3375 24.5057 75.3193 24.5057 75.2971C24.5082 75.1458 24.5911 75.0026 24.73 74.9037C24.752 74.8876 24.7544 74.8613 24.7349 74.8432C24.7154 74.827 24.6837 74.823 24.6618 74.8391C24.5008 74.9541 24.4058 75.1196 24.4033 75.2951C24.4033 75.3193 24.4253 75.3375 24.4545 75.3375Z" fill="#D0D0FF"/>
<path d="M16.8449 60.6465C16.9522 60.6465 17.0644 60.6364 17.1814 60.6163C17.2838 60.5981 17.3667 60.5436 17.4057 60.4629C17.4472 60.3822 17.435 60.2894 17.3764 60.2168C17.2399 60.0473 17.0424 59.8193 16.8644 59.6901C16.8425 59.674 16.8108 59.676 16.7913 59.6942C16.7718 59.7123 16.7742 59.7386 16.7962 59.7527C16.9668 59.8758 17.1594 60.0977 17.2911 60.2632C17.3301 60.3136 17.3374 60.3762 17.3106 60.4306C17.2838 60.4851 17.2277 60.5214 17.1594 60.5335C16.9815 60.5638 16.8157 60.5699 16.6669 60.5517C16.6377 60.5477 16.6133 60.5638 16.6084 60.588C16.6035 60.6102 16.623 60.6324 16.6523 60.6364C16.7157 60.6425 16.7791 60.6465 16.8449 60.6465Z" fill="#2E175A"/>
<path d="M21.2166 72.7891C21.2166 72.7891 18.9954 70.4667 17.1838 68.8747C16.211 68.0192 14.6481 67.8377 13.4266 68.4369C11.8588 69.2056 10.174 70.4889 8.18689 72.2867C7.21405 73.1664 7.35302 74.5485 8.48435 75.289C9.53765 75.979 11.0615 75.8539 11.9295 75.0065L15.4332 71.5906L19.2831 74.373L21.2166 72.7891Z" fill="#2E175A"/>
<path d="M20.083 72.5187C20.0952 72.5187 20.1074 72.5147 20.1171 72.5066C20.1391 72.4904 20.1391 72.4642 20.1196 72.446C20.0928 72.4218 17.3181 69.93 15.6699 69.1754C15.6455 69.1633 15.6138 69.1713 15.6016 69.1915C15.587 69.2117 15.5967 69.2379 15.6211 69.248C17.2571 69.9966 20.0172 72.4763 20.0464 72.5025C20.0538 72.5126 20.0684 72.5187 20.083 72.5187Z" fill="#F22D5C"/>
<path d="M15.6454 71.407C15.6625 71.407 15.6795 71.3989 15.6893 71.3868L16.0599 70.8662C16.0745 70.8461 16.0672 70.8198 16.0428 70.8077C16.0184 70.7956 15.9867 70.8017 15.9721 70.8219L15.6015 71.3424C15.5869 71.3626 15.5942 71.3888 15.6186 71.4009C15.6259 71.405 15.6356 71.407 15.6454 71.407Z" fill="#F22D5C"/>
<path d="M15.2723 71.3102C15.2747 71.3102 15.2796 71.3101 15.2845 71.3081C15.3113 71.3041 15.3284 71.2799 15.3235 71.2577L15.1674 70.6746C15.1601 70.6524 15.1333 70.6383 15.1065 70.6423C15.0797 70.6463 15.0626 70.6705 15.0675 70.6927L15.2235 71.2758C15.2284 71.296 15.2503 71.3102 15.2723 71.3102Z" fill="#F22D5C"/>
<path d="M11.5687 75.6785C12.0149 76.5743 13.156 76.1486 14.336 75.4888C14.97 75.1377 15.6137 74.7181 16.1647 74.4013C16.3646 74.2863 16.5524 74.1854 16.723 74.1047L15.7965 72.9465C15.6454 73.0353 15.4771 73.116 15.3016 73.1907C14.5384 73.5216 13.5826 73.7677 12.8146 74.0684C11.8491 74.4376 11.1761 74.8896 11.5687 75.6785Z" fill="#FFBFC6"/>
<path d="M11.5687 75.6786C12.0149 76.5744 13.1559 76.1487 14.336 75.4889C14.7652 75.2528 15.1967 74.9824 15.6015 74.7363C15.7965 74.6172 15.9843 74.5063 16.1647 74.4014L15.304 73.1887C15.1284 73.2674 14.9407 73.338 14.7481 73.4046C14.1117 73.6346 13.4095 73.8344 12.817 74.0664C11.8491 74.4377 11.1761 74.8896 11.5687 75.6786Z" fill="#F22D5C"/>
<path d="M11.5687 75.6785C12.0149 76.5743 13.1559 76.1486 14.336 75.4888C14.7652 75.2528 15.1967 74.9824 15.6015 74.7362C15.2016 74.3549 14.8944 73.7334 14.7481 73.4045C14.1117 73.6346 13.4095 73.8343 12.817 74.0663C11.8491 74.4376 11.1761 74.8896 11.5687 75.6785Z" fill="#9566DA"/>
<path d="M11.5687 75.6785C12.0149 76.5744 13.1559 76.1487 14.336 75.4889C13.1438 75.9852 12.0856 76.1063 11.793 75.499C11.5443 74.9845 11.9637 74.5285 12.817 74.0664C11.8491 74.4377 11.1761 74.8896 11.5687 75.6785Z" fill="#2E175A"/>
<path d="M12.9949 75.7753C13.0193 75.7753 13.0388 75.7612 13.0461 75.741C13.1656 75.2588 12.9608 74.7584 12.5122 74.4336C12.4902 74.4174 12.4585 74.4194 12.4414 74.4376C12.4219 74.4557 12.4244 74.482 12.4463 74.4981C12.8681 74.8008 13.0608 75.2709 12.9462 75.7229C12.9413 75.7451 12.9583 75.7672 12.9852 75.7733C12.99 75.7753 12.9925 75.7753 12.9949 75.7753Z" fill="#D0D0FF"/>
<path d="M13.6217 74.8372C13.629 74.8372 13.6364 74.8352 13.6437 74.8332C13.6681 74.8231 13.6802 74.7989 13.6681 74.7767L13.3462 74.2016C13.334 74.1814 13.3048 74.1714 13.2779 74.1814C13.2536 74.1915 13.2414 74.2157 13.2536 74.2379L13.5754 74.813C13.5852 74.8291 13.6022 74.8372 13.6217 74.8372Z" fill="#D0D0FF"/>
<path d="M14.0897 74.6839C14.0971 74.6839 14.1044 74.6819 14.1117 74.6798C14.1361 74.6698 14.1483 74.6455 14.1361 74.6233L13.8142 74.0483C13.802 74.0281 13.7728 74.018 13.746 74.0281C13.7216 74.0382 13.7094 74.0624 13.7216 74.0846L14.0434 74.6597C14.0507 74.6758 14.0702 74.6839 14.0897 74.6839Z" fill="#D0D0FF"/>
<path d="M14.5968 74.5022C14.6041 74.5022 14.6115 74.5002 14.6188 74.4982C14.6432 74.4881 14.6553 74.4639 14.6432 74.4417L14.3213 73.8667C14.3091 73.8465 14.2799 73.8364 14.253 73.8465C14.2287 73.8566 14.2165 73.8808 14.2287 73.903L14.5505 74.478C14.5578 74.4942 14.5773 74.5022 14.5968 74.5022Z" fill="#D0D0FF"/>
<path d="M10.1716 67.3149H13.2218C13.251 67.3149 13.273 67.2968 13.273 67.2726V64.2904C13.273 64.2662 13.251 64.248 13.2218 64.248C13.1925 64.248 13.1705 64.2662 13.1705 64.2904V67.2302H10.1716C10.1423 67.2302 10.1204 67.2484 10.1204 67.2726C10.1204 67.2968 10.1423 67.3149 10.1716 67.3149Z" fill="#2E175A"/>
<path d="M17.2595 67.2344C17.2887 67.2344 17.3107 67.2162 17.3107 67.192V65.7816C17.3107 65.7574 17.2887 65.7393 17.2595 65.7393C17.2302 65.7393 17.2083 65.7574 17.2083 65.7816V67.192C17.2107 67.2162 17.2326 67.2344 17.2595 67.2344Z" fill="#2E175A"/>
<path d="M20.7924 73.0797C20.8046 73.0797 20.8192 73.0756 20.829 73.0676L21.2191 72.7367C21.2386 72.7205 21.2386 72.6963 21.2215 72.6802L18.0641 69.5507C18.0446 69.5326 18.0129 69.5305 17.9909 69.5447C17.969 69.5588 17.9665 69.587 17.9836 69.6032L21.1118 72.7044L20.7534 73.009C20.7339 73.0252 20.7339 73.0514 20.7534 73.0696C20.7656 73.0756 20.7778 73.0797 20.7924 73.0797Z" fill="#F22D5C"/>
<path d="M18.5054 73.8222C18.52 73.8222 18.5347 73.8182 18.5444 73.8081C18.5639 73.7899 18.5615 73.7637 18.5395 73.7496L15.465 71.5604C15.4552 71.5523 15.4406 71.5503 15.4284 71.5503C15.4138 71.5523 15.4016 71.5563 15.3943 71.5644L13.1731 73.7375C13.1536 73.7556 13.1584 73.7819 13.1779 73.798C13.1999 73.8121 13.2316 73.8121 13.2486 73.794L15.4381 71.6532L18.4737 73.8141C18.481 73.8202 18.4932 73.8222 18.5054 73.8222Z" fill="#F22D5C"/>
<path d="M25.5322 64.2905L24.1692 66.4474H22.5356L23.8962 64.2905H25.5322Z" fill="#2E175A"/>
<path d="M17.5593 69.0342C17.5617 69.0342 17.5666 69.0342 17.569 69.0342L20.0901 68.6327C20.095 68.6327 21.6555 68.6589 23.4207 67.8861C23.4451 67.876 23.4548 67.8498 23.4426 67.8296C23.428 67.8095 23.3988 67.8014 23.3744 67.8115C21.6359 68.5721 20.0999 68.5479 20.0828 68.5479L17.5495 68.9495C17.5227 68.9535 17.5032 68.9757 17.5081 68.9999C17.513 69.0201 17.5349 69.0342 17.5593 69.0342Z" fill="white"/>
<path d="M20.1732 74.8311C20.183 74.8311 20.1927 74.8291 20.2 74.825C20.4 74.7221 21.2509 74.1309 21.4216 73.911C21.4362 73.8908 21.4289 73.8646 21.4069 73.8525C21.3826 73.8404 21.3509 73.8464 21.3362 73.8646C21.1753 74.0724 20.339 74.6555 20.1464 74.7524C20.122 74.7645 20.1147 74.7907 20.1293 74.8109C20.1391 74.825 20.1562 74.8311 20.1732 74.8311Z" fill="#D0D0FF"/>
<path d="M15.4844 74.6635C15.4966 74.6635 15.5088 74.6594 15.5185 74.6534C15.5405 74.6372 15.5429 74.611 15.5234 74.5949C15.4088 74.4839 14.9066 73.7737 14.8505 73.5154C14.8456 73.4932 14.8212 73.4771 14.792 73.4811C14.7651 73.4851 14.7456 73.5073 14.7505 73.5295C14.8115 73.814 15.321 74.5283 15.4454 74.6493C15.4551 74.6594 15.4698 74.6635 15.4844 74.6635Z" fill="#D0D0FF"/>
<path d="M55.7926 9.26795C55.7707 9.25786 55.7585 9.24172 55.7585 9.22154V6.6046C55.7585 6.11026 55.2733 5.70874 54.6759 5.70874H50.4676C49.8702 5.70874 49.385 6.11026 49.385 6.6046V9.14891C49.385 9.64324 49.8702 10.0448 50.4676 10.0448H57.5383L55.7926 9.26795Z" fill="white"/>
<path d="M49.2534 9.14891V6.6046C49.2534 6.05175 49.7971 5.60181 50.4652 5.60181H54.6735C55.3416 5.60181 55.8853 6.05175 55.8853 6.6046V9.18927L57.8212 10.0528C57.8481 10.0649 57.8603 10.0892 57.8529 10.1134C57.8456 10.1376 57.8212 10.1537 57.7896 10.1537H50.4628C49.7971 10.1517 49.2534 9.70176 49.2534 9.14891ZM55.7927 9.26796C55.7707 9.25787 55.7585 9.24173 55.7585 9.22155V6.6046C55.7585 6.11027 55.2733 5.70874 54.676 5.70874H50.4676C49.8703 5.70874 49.3851 6.11027 49.3851 6.6046V9.14891C49.3851 9.64325 49.8703 10.0448 50.4676 10.0448H57.5384L55.7927 9.26796Z" fill="#2E175A"/>
<path d="M52.5768 6.65503C52.0013 6.65503 51.5332 7.04243 51.5332 7.5186C51.5332 7.61142 51.7039 7.61343 51.7039 7.5186C51.7039 7.31885 51.8014 7.13928 51.9599 7.00813C52.3012 6.72565 52.8523 6.72565 53.1936 7.00813C53.6447 7.3814 53.4716 8.0089 52.8888 8.19453C52.5353 8.30752 52.4353 8.6586 52.5158 8.72518C52.5694 8.76957 52.6621 8.73931 52.6621 8.67474C52.6621 8.59807 52.6913 8.52543 52.7425 8.46288C52.7937 8.40235 52.8669 8.35393 52.9522 8.32568C54.0299 7.98267 53.7251 6.65503 52.5768 6.65503Z" fill="#2E175A"/>
<path d="M52.4744 9.06421C52.4744 9.1772 52.6792 9.17519 52.6792 9.06421C52.6792 8.95324 52.4744 8.95122 52.4744 9.06421Z" fill="#2E175A"/>
<path d="M61.1155 79.7177C62.0176 78.1117 63.9609 77.0867 66.1016 77.0867C68.2399 77.0867 70.1856 78.1137 71.0877 79.7177H61.1155Z" fill="#9566DA"/>
<path d="M65.4382 77.8978H67.7789L71.7971 71.4573H69.4564L65.4382 77.8978Z" fill="#9566DA"/>
<path d="M60.3303 74.6775H73.9623L77.9804 68.2371H64.3485L60.3303 74.6775Z" fill="#2E175A"/>
<path d="M73.4308 74.4779C73.4187 74.4779 73.4089 74.4759 73.3967 74.4719C73.3601 74.4557 73.3479 74.4194 73.365 74.3891L77.0589 68.4712C77.0784 68.441 77.1223 68.4309 77.1564 68.445C77.193 68.4611 77.2076 68.4975 77.1881 68.5277L73.4942 74.4456C73.482 74.4658 73.4577 74.4779 73.4308 74.4779Z" fill="white"/>
<path d="M67.4083 69.02H72.8748C73.2649 69.02 73.416 69.2843 73.2112 69.6051L72.8894 70.1136C72.6846 70.4364 72.1994 70.6987 71.8117 70.6987H66.2867L65.2627 71.2899L65.6357 70.6987L65.7528 70.5131L66.3282 69.6051C66.533 69.2823 67.0182 69.02 67.4083 69.02Z" fill="white"/>
<path d="M71.1974 71.6733H65.7309C65.3408 71.6733 64.8556 71.9377 64.6532 72.2585L64.3314 72.7669C64.1266 73.0898 64.2802 73.3521 64.6679 73.3521H70.1928L70.4708 73.9432L70.8438 73.3521L70.9609 73.1664L71.5338 72.2585C71.7386 71.9377 71.5875 71.6733 71.1974 71.6733Z" fill="white"/>
<path d="M31.0766 78.8804H14.4554C14.4042 78.8804 14.3628 78.9147 14.3628 78.957C14.3628 78.9994 14.4042 79.0337 14.4554 79.0337H31.0766C31.1278 79.0337 31.1693 78.9994 31.1693 78.957C31.1669 78.9147 31.1278 78.8804 31.0766 78.8804Z" fill="#D0D0FF"/>
<path d="M33.7855 78.8804H31.9471C31.8959 78.8804 31.8545 78.9147 31.8545 78.957C31.8545 78.9994 31.8959 79.0337 31.9471 79.0337H33.7855C33.8367 79.0337 33.8782 78.9994 33.8782 78.957C33.8782 78.9147 33.8367 78.8804 33.7855 78.8804Z" fill="#D0D0FF"/>
<path d="M38.7644 78.8804H35.1193C35.0681 78.8804 35.0266 78.9147 35.0266 78.957C35.0266 78.9994 35.0681 79.0337 35.1193 79.0337H38.7644C38.8156 79.0337 38.857 78.9994 38.857 78.957C38.857 78.9147 38.8156 78.8804 38.7644 78.8804Z" fill="#D0D0FF"/>
<path d="M40.5393 78.8804H39.7299C39.6787 78.8804 39.6372 78.9147 39.6372 78.957C39.6372 78.9994 39.6787 79.0337 39.7299 79.0337H40.5393C40.5905 79.0337 40.632 78.9994 40.632 78.957C40.6296 78.9147 40.5881 78.8804 40.5393 78.8804Z" fill="#D0D0FF"/>
<path d="M35.8921 79.5664H19.2709C19.2197 79.5664 19.1782 79.6007 19.1782 79.6431C19.1782 79.6855 19.2197 79.7198 19.2709 79.7198H35.8921C35.9433 79.7198 35.9847 79.6855 35.9847 79.6431C35.9847 79.6007 35.9433 79.5664 35.8921 79.5664Z" fill="#9566DA"/>
<path d="M38.6034 79.5664H36.765C36.7138 79.5664 36.6724 79.6007 36.6724 79.6431C36.6724 79.6855 36.7138 79.7198 36.765 79.7198H38.6034C38.6546 79.7198 38.6961 79.6855 38.6961 79.6431C38.6936 79.6007 38.6522 79.5664 38.6034 79.5664Z" fill="#9566DA"/>
<path d="M43.5798 79.5664H39.9347C39.8835 79.5664 39.842 79.6007 39.842 79.6431C39.842 79.6855 39.8835 79.7198 39.9347 79.7198H43.5798C43.631 79.7198 43.6725 79.6855 43.6725 79.6431C43.6725 79.6007 43.631 79.5664 43.5798 79.5664Z" fill="#9566DA"/>
<path d="M45.3548 79.5664H44.5453C44.4941 79.5664 44.4526 79.6007 44.4526 79.6431C44.4526 79.6855 44.4941 79.7198 44.5453 79.7198H45.3548C45.406 79.7198 45.4474 79.6855 45.4474 79.6431C45.4474 79.6007 45.406 79.5664 45.3548 79.5664Z" fill="#9566DA"/>
<path d="M74.5668 79.5664H72.7284C72.6772 79.5664 72.6357 79.6007 72.6357 79.6431C72.6357 79.6855 72.6772 79.7198 72.7284 79.7198H74.5668C74.618 79.7198 74.6594 79.6855 74.6594 79.6431C74.6594 79.6007 74.618 79.5664 74.5668 79.5664Z" fill="#9566DA"/>
<path d="M79.5456 79.5664H75.9005C75.8493 79.5664 75.8079 79.6007 75.8079 79.6431C75.8079 79.6855 75.8493 79.7198 75.9005 79.7198H79.5456C79.5968 79.7198 79.6383 79.6855 79.6383 79.6431C79.6358 79.6007 79.5968 79.5664 79.5456 79.5664Z" fill="#9566DA"/>
<path d="M81.3181 79.5664H80.5087C80.4575 79.5664 80.416 79.6007 80.416 79.6431C80.416 79.6855 80.4575 79.7198 80.5087 79.7198H81.3181C81.3693 79.7198 81.4108 79.6855 81.4108 79.6431C81.4108 79.6007 81.3693 79.5664 81.3181 79.5664Z" fill="#9566DA"/>
<path d="M78.9068 29.4812C77.7219 29.4812 76.7563 28.6842 76.7563 27.7036C76.7563 26.723 77.7194 25.926 78.9068 25.926C80.0918 25.926 81.0549 26.723 81.0549 27.7036C81.0549 28.6842 80.0918 29.4812 78.9068 29.4812ZM78.9068 26.0774C77.8243 26.0774 76.9441 26.8057 76.9441 27.7016C76.9441 28.5975 77.8243 29.3258 78.9068 29.3258C79.9894 29.3258 80.8696 28.5975 80.8696 27.7016C80.8696 26.8078 79.9894 26.0774 78.9068 26.0774Z" fill="#D0D0FF"/>
<path d="M16.4476 25.2441C15.2626 25.2441 14.2971 24.4472 14.2971 23.4666C14.2971 22.486 15.2602 21.689 16.4476 21.689C17.6326 21.689 18.5957 22.486 18.5957 23.4666C18.5981 24.4451 17.6326 25.2441 16.4476 25.2441ZM16.4476 21.8403C15.365 21.8403 14.4849 22.5687 14.4849 23.4645C14.4849 24.3604 15.365 25.0888 16.4476 25.0888C17.5302 25.0888 18.4104 24.3604 18.4104 23.4645C18.4128 22.5687 17.5302 21.8403 16.4476 21.8403Z" fill="#D0D0FF"/>
<path d="M82.7323 30.8148C82.2861 30.8148 81.9229 30.5142 81.9229 30.145C81.9229 29.7757 82.2861 29.4751 82.7323 29.4751C83.1785 29.4751 83.5418 29.7757 83.5418 30.145C83.5418 30.5142 83.1785 30.8148 82.7323 30.8148ZM82.7323 29.5941C82.3642 29.5941 82.0667 29.8403 82.0667 30.145C82.0667 30.4496 82.3642 30.6958 82.7323 30.6958C83.1005 30.6958 83.398 30.4496 83.398 30.145C83.398 29.8403 83.0981 29.5941 82.7323 29.5941Z" fill="#D0D0FF"/>
<path d="M9.94986 44.5897C9.50367 44.5897 9.14038 44.2891 9.14038 43.9199C9.14038 43.5506 9.50367 43.25 9.94986 43.25C10.3961 43.25 10.7593 43.5506 10.7593 43.9199C10.7618 44.2891 10.3985 44.5897 9.94986 44.5897ZM9.94986 43.369C9.58169 43.369 9.28423 43.6152 9.28423 43.9199C9.28423 44.2245 9.58169 44.4707 9.94986 44.4707C10.318 44.4707 10.6155 44.2245 10.6155 43.9199C10.6155 43.6172 10.318 43.369 9.94986 43.369Z" fill="#D0D0FF"/>
<path d="M37.4501 9.85708C37.0039 9.85708 36.6406 9.55645 36.6406 9.18721C36.6406 8.81797 37.0039 8.51733 37.4501 8.51733C37.8963 8.51733 38.2596 8.81797 38.2596 9.18721C38.2596 9.55645 37.8963 9.85708 37.4501 9.85708ZM37.4501 8.63638C37.0819 8.63638 36.7845 8.88254 36.7845 9.18721C36.7845 9.49188 37.0819 9.73804 37.4501 9.73804C37.8183 9.73804 38.1157 9.49188 38.1157 9.18721C38.1157 8.88254 37.8158 8.63638 37.4501 8.63638Z" fill="#D0D0FF"/>
<path d="M18.5152 19.1909C18.3641 18.3213 17.4595 17.6534 16.3647 17.6534C16.255 17.6534 16.1477 17.6615 16.0405 17.6756C16.0429 17.6433 16.0453 17.611 16.0453 17.5767C16.0453 16.3036 14.797 15.2705 13.2585 15.2705C12.0369 15.2705 11.0007 15.9242 10.6252 16.8302C10.3521 16.2733 9.69384 15.8799 8.92093 15.8799C7.90664 15.8799 7.08252 16.5618 7.08252 17.4012C7.08252 17.5969 7.12885 17.7846 7.20931 17.9561C7.15323 17.952 7.09471 17.948 7.0362 17.948C6.1365 17.948 5.38798 18.4827 5.22949 19.1889H18.5152V19.1909Z" fill="#D0D0FF"/>
<path d="M75.574 15.4239C75.7154 14.8872 76.5639 14.4736 77.5879 14.4736C77.6903 14.4736 77.7927 14.4796 77.8903 14.4877C77.8878 14.4675 79.0533 13.0027 80.4943 13.0027C81.6402 13.0027 82.2254 13.2932 82.9617 13.9671C83.2177 13.6221 83.8346 13.38 84.5587 13.38C85.5096 13.38 86.2387 14.5563 86.1606 14.6632C86.2143 14.6612 86.2679 14.6592 86.3216 14.6592C87.1652 14.6592 87.8649 14.9901 88.0137 15.4259H75.574V15.4239Z" fill="#D0D0FF"/>
<path d="M68.8713 14.068C69.0128 13.5313 69.8612 13.1176 70.8853 13.1176C70.9877 13.1176 71.0901 13.1237 71.1876 13.1318C71.1852 13.1116 72.3506 11.6467 73.7916 11.6467C74.9376 11.6467 75.5227 11.9373 76.2591 12.6112C76.5151 12.2662 77.132 12.024 77.8561 12.024C78.807 12.024 79.536 13.2004 79.458 13.3073C79.5116 13.3053 79.5653 13.3033 79.6189 13.3033C80.4625 13.3033 81.1623 13.6342 81.311 14.07H68.8713V14.068Z" fill="#D0D0FF"/>
<path d="M75.5446 31.0974H68.4957C66.9133 31.0974 65.6211 32.1688 65.6211 33.4763V36.8176C65.6211 38.1271 66.9158 39.1964 68.4957 39.1964H75.7762L78.4192 41.5955V39.1964V38.4398V33.4763C78.4192 32.1688 77.127 31.0974 75.5446 31.0974Z" fill="white"/>
<path d="M71.7385 32.5278C70.4926 32.5278 69.4758 33.3672 69.4758 34.4003C69.4758 34.6 69.8464 34.604 69.8464 34.4003C69.8464 33.9685 70.0586 33.577 70.4024 33.2946C71.1411 32.6832 72.3358 32.6812 73.0771 33.2946C74.0548 34.1036 73.6793 35.4616 72.4187 35.8631C71.6556 36.1072 71.4361 36.8679 71.6093 37.0111C71.7238 37.106 71.9262 37.0394 71.9262 36.9022C71.9262 36.7367 71.9896 36.5773 72.0993 36.4442C72.2091 36.311 72.3651 36.2061 72.5528 36.1476C74.8862 35.403 74.2254 32.5278 71.7385 32.5278Z" fill="#2E175A"/>
<path d="M71.5166 37.7455C71.5166 37.9897 71.9603 37.9856 71.9603 37.7455C71.9603 37.5074 71.5166 37.5034 71.5166 37.7455Z" fill="#2E175A"/>
<path d="M78.0339 41.444L75.2593 38.926H68.0178C66.3818 38.926 65.0505 37.8243 65.0505 36.4704V33.1291C65.0505 31.7752 66.3818 30.6736 68.0178 30.6736H75.0667C76.7027 30.6736 78.0339 31.7752 78.0339 33.1291V41.444ZM68.0178 30.8269C66.4842 30.8269 65.2334 31.86 65.2334 33.1311V36.4724C65.2334 37.7416 66.4818 38.7766 68.0178 38.7766H75.3373L75.3641 38.8009L77.8486 41.0546V33.1311C77.8486 31.862 76.6003 30.8269 75.0642 30.8269H68.0178Z" fill="#2E175A"/>
</g>
<defs>
<clipPath id="clip0_41_3125">
<rect width="91.3179" height="79.0613" fill="white" transform="translate(0.455322 0.656494)"/>
</clipPath>
</defs>
</svg>
