<svg width="340" height="238" viewBox="0 0 340 238" fill="none" xmlns="http://www.w3.org/2000/svg">
<path d="M149.26 25.0087C80.6904 34.6806 8.42349 134.379 32.3075 189.509C56.1915 244.639 274.174 261.421 299.895 187.207C325.608 112.993 252.127 10.5128 149.26 25.0087Z" fill="#FFE7D4"/>
<path d="M308.627 118.14C308.627 118.14 308.816 117.888 309.163 117.423C311.685 114.041 322.382 99.4351 325.724 90.2993C325.748 90.2441 325.763 90.181 325.787 90.1259C325.787 90.1259 325.692 90.0155 325.511 89.8106C323.856 87.9739 315.09 78.641 307.949 78.7435C307.949 78.7435 300.185 93.7991 291.167 105.938C291.167 105.938 302.155 109.958 308.461 117.927C308.524 117.998 308.572 118.069 308.627 118.14Z" fill="#88B0E2"/>
<path d="M307.949 78.7437C313.782 84.2299 312.923 94.7846 311.977 96.3768C311.031 97.9691 296.015 102.888 291.167 105.938C302.786 89.9447 307.949 78.7437 307.949 78.7437Z" fill="#B0D2F7"/>
<path d="M308.627 118.14C308.627 118.14 308.816 117.888 309.163 117.423C309.431 116.516 309.675 115.594 309.904 114.672C310.653 111.558 311.126 108.366 311.315 105.173C311.504 102.068 311.417 98.9463 311.07 95.8485C312.229 95.6751 313.372 95.4465 314.507 95.1706C318.48 94.1774 322.287 92.5299 325.732 90.3071C325.755 90.2519 325.771 90.1888 325.795 90.1337C325.795 90.1337 325.7 90.0233 325.519 89.8184C324.715 90.3386 323.887 90.8273 323.052 91.2924C319.229 93.3734 315.043 94.7607 310.731 95.3755C310.582 95.3992 310.519 95.5568 310.534 95.6908C310.739 97.4644 310.858 99.2458 310.889 101.027C310.936 104.196 310.716 107.373 310.211 110.502C309.809 113.017 309.226 115.507 308.469 117.943C308.524 117.998 308.572 118.069 308.627 118.14Z" fill="#B0D2F7"/>
<path d="M313.443 97.1964C313.671 96.0692 313.9 94.8868 313.537 93.7991C313.403 93.3971 313.175 93.0029 312.82 92.7664C312.205 92.3566 311.315 92.5063 310.794 93.0345C310.274 93.5547 310.109 94.3666 310.258 95.0918C309.659 95.0918 309.06 95.2573 308.642 95.6909C308.233 96.1244 308.051 96.7865 308.264 97.3383C308.422 97.7324 308.753 98.032 309.123 98.229C309.825 98.5995 310.676 98.6074 311.449 98.3946C312.221 98.1738 312.804 97.6773 313.443 97.1964Z" fill="#FFB717"/>
<path d="M44.878 167.233C44.878 167.233 44.4208 166.988 43.5932 166.539C37.5551 163.252 11.7951 148.922 0.64923 137.681C0.578287 137.61 0.507344 137.539 0.436401 137.468C0.436401 137.468 0.499461 137.24 0.633464 136.822C1.83161 132.975 8.45292 113.206 19.0864 108.5C19.0864 108.5 40.8185 125.495 62.4087 137.318C62.4087 137.318 48.8902 150.734 44.9805 166.823C44.9489 166.949 44.9095 167.091 44.878 167.233Z" fill="#88B0E2"/>
<path d="M19.0942 108.492C14.1992 120.576 22.6492 135.6 25.1243 137.311C27.5994 139.021 53.1624 136.081 62.4165 137.311C34.3469 121.554 19.0942 108.492 19.0942 108.492Z" fill="#B0D2F7"/>
<path d="M44.8779 167.233C44.8779 167.233 44.4208 166.988 43.5931 166.539C42.5762 165.38 41.5909 164.19 40.6293 162.968C37.4053 158.861 34.5361 154.471 32.0767 149.875C29.6883 145.406 27.6941 140.724 26.1018 135.915C24.2731 136.443 22.4207 136.893 20.5525 137.247C13.9943 138.485 7.24684 138.643 0.641295 137.681C0.570352 137.61 0.499409 137.539 0.428467 137.468C0.428467 137.468 0.491527 137.24 0.62553 136.822C2.1705 137.043 3.72336 137.208 5.27621 137.318C12.3468 137.791 19.4805 136.995 26.2752 134.977C26.5117 134.906 26.7166 135.096 26.7797 135.308C27.6783 138.067 28.7109 140.787 29.8854 143.443C31.9664 148.165 34.4651 152.713 37.3344 157.001C39.644 160.454 42.1979 163.733 44.9725 166.815C44.9489 166.949 44.9095 167.091 44.8779 167.233Z" fill="#B0D2F7"/>
<path d="M23.5164 139.526C22.4128 138.02 21.262 136.42 21.0649 134.567C20.9861 133.874 21.057 133.141 21.4196 132.55C22.0424 131.525 23.4691 131.146 24.5963 131.564C25.7235 131.982 26.5196 133.07 26.7876 134.236C27.6705 133.834 28.6794 133.669 29.578 134.024C30.4766 134.378 31.2018 135.237 31.257 136.207C31.2964 136.893 31.0127 137.571 30.587 138.115C29.7988 139.139 28.5454 139.738 27.2685 139.943C25.9915 140.14 24.7776 139.801 23.5164 139.526Z" fill="#FF971A"/>
<path d="M17.3128 64.6575C15.618 70.4038 22.665 73.4149 22.665 73.4149L28.8843 67.6922L17.3128 64.6575Z" fill="#88B0E2"/>
<path d="M17.3127 64.6575C17.3127 64.6575 34.7094 54.489 44.8148 46.0469C55.7242 47.0874 60.8006 73.7775 72.4273 76.1581C69.1797 82.9528 46.2179 99.7741 46.2179 99.7741C36.8141 97.5748 30.2243 68.8431 17.3127 64.6575Z" fill="white"/>
<path d="M47.5579 50.5635C41.9062 56.3098 35.4346 61.26 28.4034 65.1934" stroke="#6A96C6" stroke-miterlimit="10" stroke-linecap="round"/>
<path d="M51.6253 55.9631C45.808 61.5203 39.2971 66.3444 32.2816 70.2857" stroke="#6A96C6" stroke-miterlimit="10" stroke-linecap="round"/>
<path d="M55.0227 61.804C49.4418 67.2902 43.1674 72.0749 36.4042 76.0082" stroke="#6A96C6" stroke-miterlimit="10" stroke-linecap="round"/>
<path d="M58.8536 67.5266C53.0994 73.3518 46.5017 78.3414 39.3286 82.2827" stroke="#6A96C6" stroke-miterlimit="10" stroke-linecap="round"/>
<path d="M62.4716 72.9263C56.8593 78.8224 50.4981 83.9933 43.5773 88.2735" stroke="#6A96C6" stroke-miterlimit="10" stroke-linecap="round"/>
<path d="M302.218 53.9137C298.797 58.0993 292.972 54.3788 292.972 54.3788L294.076 46.8352L302.218 53.9137Z" fill="#88B0E2"/>
<path d="M302.218 53.9137C302.218 53.9137 300.957 35.776 302.108 23.9602C295.786 16.3614 273.321 26.1436 265.636 18.6868C262.222 24.5592 261.363 50.2168 261.363 50.2168C267.772 56.1129 292.539 46.4174 302.218 53.9137Z" fill="#D2EAFF"/>
<path d="M297.347 24.2124C295.936 31.3461 295.542 38.6768 296.18 45.9208" stroke="#6A96C6" stroke-miterlimit="10" stroke-linecap="round"/>
<path d="M291.254 23.9207C290.071 31.078 289.788 38.3851 290.41 45.6133" stroke="#6A96C6" stroke-miterlimit="10" stroke-linecap="round"/>
<path d="M285.184 24.3621C283.931 31.3066 283.56 38.4166 284.065 45.4557" stroke="#6A96C6" stroke-miterlimit="10" stroke-linecap="round"/>
<path d="M278.973 24.4094C277.554 31.6535 277.191 39.1103 277.901 46.4568" stroke="#6A96C6" stroke-miterlimit="10" stroke-linecap="round"/>
<path d="M273.108 24.4646C271.563 31.6377 270.948 39.0157 271.272 46.3464" stroke="#6A96C6" stroke-miterlimit="10" stroke-linecap="round"/>
<path d="M197.736 30.1794C196.53 38.527 187.67 40.8523 187.67 40.8523L176.871 29.4463C176.871 29.4463 189.561 26.2224 197.736 30.1794Z" fill="#6A96C6"/>
<path d="M170.06 2.49607C154.019 -7.2073 132.587 29.139 114.52 20.1292C116.845 41.1125 138.475 59.5103 138.475 59.5103C156.329 65.6192 175.68 23.8971 197.728 30.1716C175.869 16.4954 170.06 2.49607 170.06 2.49607Z" fill="#B0D2F7"/>
<path d="M163.116 7.21777C166.623 15.187 172.456 22.1157 179.708 26.9319" stroke="#6A96C6" stroke-miterlimit="10"/>
<path d="M155.572 10.489C157.44 14.517 160.175 18.0799 163.257 21.2802C166.332 24.4726 169.753 27.3182 173.166 30.1559" stroke="#6A96C6" stroke-miterlimit="10"/>
<path d="M147.209 16.2905C151.536 24.0548 158.473 29.9746 165.26 35.7209" stroke="#6A96C6" stroke-miterlimit="10"/>
<path d="M139.161 21.8713C143.717 29.9351 150.212 36.8954 157.937 42.0033" stroke="#6A96C6" stroke-miterlimit="10"/>
<path d="M129.103 26.3486C134.25 34.9957 141.281 42.5078 149.558 48.2305" stroke="#6A96C6" stroke-miterlimit="10"/>
<path d="M155.797 210.823L158.926 89.9051L67.7569 82.3064L65.9597 83.9381L59.567 204.162L155.797 210.823Z" fill="#FFB717"/>
<path d="M155.797 210.823L155.844 208.986L61.7426 202.262L67.7569 82.3064L65.9597 83.9381L59.567 204.162L155.797 210.823Z" fill="#FF971A"/>
<path d="M158.351 210.823L161.157 89.3928L251.073 81.0374L252.342 81.5024L254.572 204.162L158.351 210.823Z" fill="#FFB717"/>
<path d="M158.382 209.207L252.176 201.916L251.073 81.0374L252.342 81.5024L254.572 204.162L158.351 210.823L158.382 209.207Z" fill="#FF971A"/>
<path d="M152.849 205.541L64.4148 199.322L69.5227 85.7746L76.9637 78.2232C90.4034 75.8742 109.534 74.3135 131.653 78.4912C141.309 80.3199 149.814 82.9133 157.066 85.6643C155.773 122.428 154.472 159.192 153.18 195.956L152.849 205.541Z" fill="white"/>
<path d="M64.4148 199.322L69.0261 192.212L75.8602 188.042C90.0487 187.191 107.406 187.491 126.829 190.833C136.469 192.488 145.274 194.664 153.156 197.044C153.054 199.874 152.959 202.712 152.857 205.542L64.4148 199.322Z" fill="#D2EAFF"/>
<path d="M76.9637 78.2231L75.8523 188.05C74.1969 188.949 72.1475 190.257 70.0744 192.165C67.284 194.727 65.5025 197.375 64.4069 199.33C66.1095 161.478 67.8121 123.634 69.5147 85.7825C70.303 84.6237 71.3198 83.3152 72.5968 81.9752C74.1418 80.3672 75.6552 79.1454 76.9637 78.2231Z" fill="#B0D2F7"/>
<path d="M162.678 84.9944L160.897 205.542L251.002 200.323L249.835 85.0023L243.001 74.889C227.606 72.3824 205.252 71.1054 180.39 78.4125C173.895 80.32 167.991 82.5902 162.678 84.9944Z" fill="white"/>
<path d="M243.009 74.8889C250.45 79.3347 249.843 85.0022 249.843 85.0022L251.01 200.323L240.234 188.05L243.009 74.8889Z" fill="#B0D2F7"/>
<path d="M161.031 196.792L162 196.682C166.336 195.121 170.931 193.671 175.771 192.386C200.199 185.922 222.538 185.985 240.226 188.035C243.821 192.126 251.002 200.308 251.002 200.308C220.969 202.05 190.937 203.792 160.897 205.526" fill="#D2EAFF"/>
<path d="M167.739 90.9694C167.739 91.663 166.887 92.2227 165.847 92.2227C164.799 92.2227 163.955 91.663 163.955 90.9694C163.955 90.2757 164.806 89.7161 165.847 89.7161C166.887 89.7161 167.739 90.2757 167.739 90.9694Z" fill="#88B0E2"/>
<path d="M155.071 91.6947C155.071 92.3884 154.22 92.948 153.18 92.948C152.131 92.948 151.288 92.3884 151.288 91.6947C151.288 91.0011 152.139 90.4414 153.18 90.4414C154.228 90.4493 155.071 91.0089 155.071 91.6947Z" fill="#88B0E2"/>
<path d="M166.627 90.2836C165.011 87.8874 162.181 86.3503 159.257 86.5316C156.411 86.705 153.779 88.384 152.415 90.8906C151.816 92.002 153.503 92.9873 154.102 91.8759C155.127 89.992 157.081 88.6204 159.249 88.4864C161.472 88.3524 163.679 89.4244 164.925 91.269C165.634 92.3094 167.337 91.332 166.627 90.2836Z" fill="#1C313F"/>
<path d="M167.739 97.8036C167.739 98.4973 166.887 99.0569 165.847 99.0569C164.799 99.0569 163.955 98.4973 163.955 97.8036C163.955 97.11 164.806 96.5503 165.847 96.5503C166.887 96.5503 167.739 97.11 167.739 97.8036Z" fill="#88B0E2"/>
<path d="M155.071 98.529C155.071 99.2226 154.22 99.7823 153.18 99.7823C152.131 99.7823 151.288 99.2226 151.288 98.529C151.288 97.8353 152.139 97.2756 153.18 97.2756C154.228 97.2835 155.071 97.8432 155.071 98.529Z" fill="#88B0E2"/>
<path d="M166.627 97.1179C165.011 94.7216 162.181 93.1845 159.257 93.3658C156.411 93.5392 153.779 95.2182 152.415 97.7248C151.816 98.8363 153.503 99.8216 154.102 98.7101C155.127 96.8262 157.081 95.4547 159.249 95.3207C161.472 95.1867 163.679 96.2587 164.925 98.1032C165.634 99.1437 167.337 98.1662 166.627 97.1179Z" fill="#1C313F"/>
<path d="M166.966 105.434C166.966 106.127 166.115 106.687 165.074 106.687C164.034 106.687 163.183 106.127 163.183 105.434C163.183 104.74 164.034 104.18 165.074 104.18C166.115 104.18 166.966 104.748 166.966 105.434Z" fill="#88B0E2"/>
<path d="M154.299 106.167C154.299 106.861 153.448 107.42 152.407 107.42C151.359 107.42 150.515 106.861 150.515 106.167C150.515 105.473 151.367 104.914 152.407 104.914C153.448 104.914 154.299 105.473 154.299 106.167Z" fill="#88B0E2"/>
<path d="M165.855 104.748C164.239 102.352 161.409 100.815 158.485 100.996C155.639 101.169 153.006 102.848 151.643 105.355C151.043 106.466 152.73 107.452 153.337 106.34C154.362 104.456 156.317 103.085 158.485 102.951C160.707 102.817 162.915 103.889 164.16 105.733C164.862 106.774 166.564 105.796 165.855 104.748Z" fill="#1C313F"/>
<path d="M166.935 113.072C166.935 113.766 166.083 114.325 165.043 114.325C163.995 114.325 163.151 113.766 163.151 113.072C163.151 112.378 164.002 111.819 165.043 111.819C166.083 111.819 166.935 112.378 166.935 113.072Z" fill="#88B0E2"/>
<path d="M154.267 113.797C154.267 114.491 153.416 115.051 152.376 115.051C151.327 115.051 150.484 114.491 150.484 113.797C150.484 113.104 151.335 112.544 152.376 112.544C153.416 112.552 154.267 113.111 154.267 113.797Z" fill="#88B0E2"/>
<path d="M165.815 112.386C164.2 109.99 161.37 108.453 158.445 108.634C155.6 108.808 152.967 110.486 151.603 112.993C151.004 114.105 152.691 115.09 153.298 113.978C154.323 112.095 156.278 110.723 158.445 110.589C160.668 110.455 162.875 111.527 164.121 113.371C164.83 114.412 166.525 113.435 165.815 112.386Z" fill="#1C313F"/>
<path d="M166.895 120.702C166.895 121.396 166.044 121.956 165.003 121.956C163.963 121.956 163.112 121.396 163.112 120.702C163.112 120.009 163.963 119.449 165.003 119.449C166.044 119.449 166.895 120.017 166.895 120.702Z" fill="#88B0E2"/>
<path d="M154.236 121.435C154.236 122.129 153.385 122.689 152.344 122.689C151.304 122.689 150.452 122.129 150.452 121.435C150.452 120.742 151.304 120.182 152.344 120.182C153.385 120.182 154.236 120.742 154.236 121.435Z" fill="#88B0E2"/>
<path d="M165.784 120.017C164.168 117.62 161.338 116.083 158.414 116.264C155.568 116.438 152.935 118.117 151.572 120.624C150.973 121.735 152.66 122.72 153.266 121.609C154.291 119.725 156.246 118.353 158.414 118.219C160.637 118.085 162.844 119.157 164.089 121.002C164.799 122.042 166.493 121.065 165.784 120.017Z" fill="#1C313F"/>
<path d="M166.32 128.34C166.32 129.034 165.469 129.594 164.428 129.594C163.38 129.594 162.536 129.034 162.536 128.34C162.536 127.647 163.388 127.087 164.428 127.087C165.476 127.087 166.32 127.647 166.32 128.34Z" fill="#88B0E2"/>
<path d="M153.653 129.066C153.653 129.759 152.801 130.319 151.761 130.319C150.712 130.319 149.869 129.759 149.869 129.066C149.869 128.372 150.72 127.812 151.761 127.812C152.809 127.82 153.653 128.38 153.653 129.066Z" fill="#88B0E2"/>
<path d="M165.208 127.655C163.592 125.258 160.763 123.721 157.838 123.903C154.993 124.076 152.36 125.755 150.996 128.262C150.397 129.373 152.084 130.358 152.691 129.247C153.716 127.363 155.671 125.992 157.838 125.858C160.061 125.724 162.268 126.796 163.514 128.64C164.223 129.681 165.918 128.703 165.208 127.655Z" fill="#1C313F"/>
<path d="M166.351 135.971C166.351 136.664 165.5 137.224 164.46 137.224C163.411 137.224 162.568 136.664 162.568 135.971C162.568 135.277 163.419 134.717 164.46 134.717C165.508 134.725 166.351 135.285 166.351 135.971Z" fill="#88B0E2"/>
<path d="M153.692 136.704C153.692 137.397 152.841 137.957 151.8 137.957C150.76 137.957 149.908 137.397 149.908 136.704C149.908 136.01 150.76 135.45 151.8 135.45C152.841 135.45 153.692 136.01 153.692 136.704Z" fill="#88B0E2"/>
<path d="M165.24 135.285C163.624 132.889 160.794 131.351 157.87 131.533C155.024 131.706 152.391 133.385 151.028 135.892C150.429 137.003 152.116 137.989 152.723 136.877C153.747 134.993 155.702 133.622 157.87 133.488C160.093 133.354 162.3 134.426 163.545 136.27C164.255 137.311 165.949 136.333 165.24 135.285Z" fill="#1C313F"/>
<path d="M166.32 143.609C166.32 144.302 165.469 144.862 164.428 144.862C163.38 144.862 162.536 144.302 162.536 143.609C162.536 142.915 163.388 142.355 164.428 142.355C165.476 142.355 166.32 142.915 166.32 143.609Z" fill="#88B0E2"/>
<path d="M153.653 144.342C153.653 145.036 152.801 145.595 151.761 145.595C150.712 145.595 149.869 145.036 149.869 144.342C149.869 143.648 150.72 143.089 151.761 143.089C152.809 143.089 153.653 143.648 153.653 144.342Z" fill="#88B0E2"/>
<path d="M165.208 142.923C163.592 140.527 160.763 138.99 157.838 139.171C154.993 139.344 152.36 141.023 150.996 143.53C150.397 144.641 152.084 145.627 152.691 144.515C153.716 142.631 155.671 141.26 157.838 141.126C160.061 140.992 162.268 142.064 163.514 143.908C164.223 144.949 165.918 143.971 165.208 142.923Z" fill="#1C313F"/>
<path d="M165.65 151.247C165.65 151.941 164.799 152.5 163.758 152.5C162.718 152.5 161.866 151.941 161.866 151.247C161.866 150.553 162.718 149.994 163.758 149.994C164.799 149.994 165.65 150.553 165.65 151.247Z" fill="#88B0E2"/>
<path d="M151.091 153.226C152.136 153.226 152.983 152.664 152.983 151.972C152.983 151.28 152.136 150.719 151.091 150.719C150.046 150.719 149.199 151.28 149.199 151.972C149.199 152.664 150.046 153.226 151.091 153.226Z" fill="#88B0E2"/>
<path d="M164.538 150.553C162.922 148.157 160.093 146.62 157.168 146.801C154.323 146.975 151.69 148.654 150.326 151.16C149.727 152.272 151.414 153.257 152.021 152.146C153.046 150.262 155 148.89 157.168 148.756C159.391 148.622 161.598 149.694 162.844 151.539C163.545 152.587 165.248 151.602 164.538 150.553Z" fill="#1C313F"/>
<path d="M165.65 158.877C165.65 159.571 164.799 160.13 163.758 160.13C162.718 160.13 161.866 159.571 161.866 158.877C161.866 158.183 162.718 157.624 163.758 157.624C164.799 157.624 165.65 158.191 165.65 158.877Z" fill="#88B0E2"/>
<path d="M152.983 159.61C152.983 160.304 152.131 160.864 151.091 160.864C150.05 160.864 149.199 160.304 149.199 159.61C149.199 158.917 150.05 158.357 151.091 158.357C152.131 158.357 152.983 158.917 152.983 159.61Z" fill="#88B0E2"/>
<path d="M164.538 158.191C162.922 155.795 160.093 154.258 157.168 154.439C154.323 154.613 151.69 156.292 150.326 158.798C149.727 159.91 151.414 160.895 152.021 159.784C153.046 157.9 155 156.528 157.168 156.394C159.391 156.26 161.598 157.332 162.844 159.177C163.545 160.217 165.248 159.24 164.538 158.191Z" fill="#1C313F"/>
<path d="M165.618 167.233C165.618 167.926 164.767 168.486 163.727 168.486C162.678 168.486 161.835 167.926 161.835 167.233C161.835 166.539 162.686 165.979 163.727 165.979C164.767 165.979 165.618 166.539 165.618 167.233Z" fill="#88B0E2"/>
<path d="M152.951 167.958C152.951 168.652 152.1 169.211 151.059 169.211C150.019 169.211 149.167 168.652 149.167 167.958C149.167 167.264 150.019 166.705 151.059 166.705C152.1 166.705 152.951 167.272 152.951 167.958Z" fill="#88B0E2"/>
<path d="M164.507 166.547C162.891 164.151 160.061 162.613 157.137 162.795C154.291 162.968 151.658 164.647 150.295 167.154C149.696 168.265 151.382 169.251 151.989 168.139C153.014 166.255 154.969 164.884 157.137 164.75C159.36 164.616 161.567 165.688 162.812 167.532C163.514 168.573 165.208 167.595 164.507 166.547Z" fill="#1C313F"/>
<path d="M166.32 173.854C166.32 174.548 165.469 175.107 164.428 175.107C163.38 175.107 162.536 174.548 162.536 173.854C162.536 173.16 163.388 172.601 164.428 172.601C165.476 172.601 166.32 173.16 166.32 173.854Z" fill="#88B0E2"/>
<path d="M153.653 174.579C153.653 175.273 152.801 175.832 151.761 175.832C150.712 175.832 149.869 175.273 149.869 174.579C149.869 173.885 150.72 173.326 151.761 173.326C152.809 173.334 153.653 173.893 153.653 174.579Z" fill="#88B0E2"/>
<path d="M165.208 173.168C163.592 170.772 160.763 169.235 157.838 169.416C154.993 169.59 152.36 171.268 150.996 173.775C150.397 174.887 152.084 175.872 152.691 174.76C153.716 172.877 155.671 171.505 157.838 171.371C160.061 171.237 162.268 172.309 163.514 174.153C164.223 175.194 165.918 174.217 165.208 173.168Z" fill="#1C313F"/>
<path d="M165.579 181.784C165.579 182.477 164.728 183.037 163.687 183.037C162.639 183.037 161.795 182.477 161.795 181.784C161.795 181.09 162.647 180.531 163.687 180.531C164.735 180.531 165.579 181.09 165.579 181.784Z" fill="#88B0E2"/>
<path d="M151.02 183.762C152.065 183.762 152.912 183.201 152.912 182.509C152.912 181.817 152.065 181.256 151.02 181.256C149.975 181.256 149.128 181.817 149.128 182.509C149.128 183.201 149.975 183.762 151.02 183.762Z" fill="#88B0E2"/>
<path d="M164.467 181.098C162.851 178.702 160.022 177.165 157.097 177.346C154.252 177.519 151.619 179.198 150.255 181.705C149.656 182.816 151.343 183.802 151.95 182.69C152.975 180.806 154.93 179.435 157.097 179.301C159.32 179.167 161.527 180.239 162.773 182.083C163.482 183.124 165.177 182.146 164.467 181.098Z" fill="#1C313F"/>
<path d="M165.547 189.414C165.547 190.108 164.696 190.667 163.656 190.667C162.615 190.667 161.764 190.108 161.764 189.414C161.764 188.72 162.615 188.161 163.656 188.161C164.696 188.161 165.547 188.728 165.547 189.414Z" fill="#88B0E2"/>
<path d="M152.88 190.147C152.88 190.841 152.029 191.4 150.988 191.4C149.94 191.4 149.097 190.841 149.097 190.147C149.097 189.453 149.948 188.894 150.988 188.894C152.037 188.894 152.88 189.453 152.88 190.147Z" fill="#88B0E2"/>
<path d="M164.436 188.728C162.82 186.332 159.99 184.795 157.066 184.976C154.22 185.15 151.587 186.829 150.224 189.335C149.625 190.447 151.312 191.432 151.918 190.32C152.943 188.437 154.898 187.065 157.066 186.931C159.289 186.797 161.496 187.869 162.741 189.714C163.451 190.754 165.145 189.777 164.436 188.728Z" fill="#1C313F"/>
<path d="M147.473 93.0343C128.397 87.0988 107.903 85.7903 88.2278 89.2428" stroke="#B0D2F7" stroke-miterlimit="10" stroke-linecap="round" stroke-linejoin="round"/>
<path d="M146.96 103.219C127.459 97.7875 106.641 97.149 86.8405 101.358" stroke="#B0D2F7" stroke-miterlimit="10" stroke-linecap="round" stroke-linejoin="round"/>
<path d="M145.707 118.266C126.19 113.663 105.593 113.718 86.0995 118.432" stroke="#B0D2F7" stroke-miterlimit="10" stroke-linecap="round" stroke-linejoin="round"/>
<path d="M144.635 135.734C125.977 130.91 106.239 130.319 87.3291 134.023" stroke="#B0D2F7" stroke-miterlimit="10" stroke-linecap="round" stroke-linejoin="round"/>
<path d="M88.1411 150.577C105.916 149.386 123.833 150.482 141.332 153.832" stroke="#B0D2F7" stroke-miterlimit="10" stroke-linecap="round" stroke-linejoin="round"/>
<path d="M199.245 135.135C210.154 133.464 221.3 133.306 232.257 134.662" stroke="#B0D2F7" stroke-miterlimit="10" stroke-linecap="round" stroke-linejoin="round"/>
<path d="M171.956 153.856C192.253 150.987 212.945 150.939 233.258 153.722" stroke="#B0D2F7" stroke-miterlimit="10" stroke-linecap="round" stroke-linejoin="round"/>
<path d="M86.9271 166.909C105.159 165.372 123.597 166.294 141.584 169.629" stroke="#B0D2F7" stroke-miterlimit="10" stroke-linecap="round" stroke-linejoin="round"/>
<path d="M201.626 86.9176L199.923 85.1282L198.859 85.6327L197.18 83.867L204.4 80.7219L206.245 82.661L202.745 89.7159L201.058 87.9423L201.626 86.9176ZM202.501 85.3095L203.533 83.402L201.578 84.34L202.501 85.3095Z" fill="#B0D2F7"/>
<path d="M181.636 128.08C182.574 127.78 183.512 127.749 184.457 128.001C185.395 128.253 186.278 128.774 187.09 129.578C187.792 130.271 188.28 131.02 188.572 131.824C188.864 132.628 188.943 133.448 188.816 134.268C188.69 135.087 188.367 135.876 187.847 136.625L185.183 133.984C185.325 133.598 185.356 133.219 185.277 132.849C185.198 132.478 185.017 132.155 184.725 131.864C184.3 131.446 183.803 131.272 183.244 131.343C182.684 131.414 182.132 131.722 181.596 132.266C181.06 132.802 180.761 133.353 180.69 133.921C180.619 134.488 180.8 134.977 181.226 135.395C181.517 135.679 181.84 135.86 182.211 135.931C182.581 136.002 182.96 135.97 183.346 135.821L186.01 138.461C185.261 138.981 184.481 139.313 183.661 139.454C182.842 139.588 182.03 139.517 181.218 139.234C180.406 138.95 179.657 138.461 178.955 137.768C178.144 136.964 177.608 136.089 177.355 135.151C177.095 134.213 177.119 133.267 177.41 132.329C177.702 131.383 178.246 130.516 179.034 129.72C179.83 128.931 180.697 128.387 181.636 128.08Z" fill="#B0D2F7"/>
<path d="M176.307 110.407C176.677 109.863 177.158 109.461 177.742 109.201C178.325 108.949 178.971 108.855 179.681 108.925C180.382 108.996 180.997 109.217 181.525 109.588C182.053 109.958 182.455 110.447 182.715 111.062C182.976 111.676 183.07 112.362 182.991 113.135L182.684 116.201L175.322 115.46L175.629 112.394C175.716 111.613 175.936 110.959 176.307 110.407ZM180.619 111.85C180.366 111.519 179.972 111.322 179.452 111.267C178.924 111.211 178.506 111.322 178.191 111.598C177.876 111.874 177.694 112.276 177.639 112.796L177.584 113.348L180.871 113.679L180.926 113.127C180.973 112.607 180.871 112.181 180.619 111.85Z" fill="#B0D2F7"/>
<path d="M233.991 116.114C234.346 115.807 234.748 115.618 235.197 115.555C235.646 115.484 236.112 115.547 236.577 115.72C237.042 115.902 237.428 116.162 237.72 116.516C238.011 116.871 238.193 117.281 238.263 117.746C238.334 118.211 238.263 118.708 238.074 119.22L237.294 121.27L232.375 119.394L233.156 117.344C233.361 116.832 233.636 116.422 233.991 116.114ZM236.687 117.904C236.577 117.628 236.34 117.423 235.993 117.289C235.639 117.155 235.331 117.155 235.063 117.281C234.795 117.415 234.598 117.651 234.464 117.998L234.322 118.369L236.514 119.204L236.655 118.834C236.782 118.495 236.797 118.18 236.687 117.904Z" fill="#B0D2F7"/>
<path d="M195.044 99.9789L194.421 100.42L195.548 101.989L194.358 102.84L193.231 101.272L192.513 101.784L193.79 103.573L192.529 104.48L190.117 101.106L195.178 97.488L197.59 100.862L196.328 101.768L195.044 99.9789Z" fill="#B0D2F7"/>
<path d="M217.879 113.647L220.473 115.547L217.477 119.638L218.92 120.694L221.072 117.754L223.531 119.551L221.379 122.491L225.305 125.369L222.916 128.632L212.496 121.009L217.879 113.647Z" fill="#B0D2F7"/>
<path d="M176.717 91.4422C176.717 91.3397 176.693 91.2451 176.63 91.1584C176.575 91.0717 176.488 90.985 176.37 90.9141C176.149 90.7801 175.944 90.7407 175.732 90.8116C175.527 90.8747 175.345 91.0323 175.188 91.2767C175.014 91.5604 174.943 91.8127 174.991 92.0334C175.038 92.2541 175.196 92.4512 175.471 92.6246C175.732 92.7901 176.007 92.8138 176.299 92.7034L175.4 92.1359L175.905 91.3397L177.742 92.4985L177.032 93.6257C176.709 93.7912 176.346 93.8858 175.952 93.9094C175.558 93.9252 175.148 93.807 174.73 93.539C174.36 93.3025 174.084 93.0187 173.903 92.6955C173.722 92.3645 173.651 92.0176 173.674 91.6472C173.706 91.2767 173.832 90.9141 174.053 90.5594C174.273 90.2047 174.549 89.9367 174.872 89.7475C175.196 89.5662 175.542 89.4795 175.913 89.4952C176.283 89.511 176.654 89.6371 177.024 89.8736C177.497 90.1731 177.805 90.5278 177.962 90.9377C178.112 91.3555 178.096 91.7733 177.907 92.191L176.717 91.4422Z" fill="#B0D2F7"/>
<path d="M201.72 116.587L196.297 122.168L194.547 120.466L196.66 118.29L194.996 116.674L192.884 118.85L191.134 117.147L196.557 111.566L198.307 113.269L196.352 115.279L198.015 116.895L199.97 114.885L201.72 116.587Z" fill="#B0D2F7"/>
<path d="M230.208 74.3686C230.231 75.6377 230.334 76.8989 230.547 78.1522C230.105 77.1039 229.672 76.0476 229.23 74.9992C222.246 79.5869 216.366 84.9864 211.904 89.8341C211.826 91.7574 211.747 93.6808 211.668 95.6041C210.982 94.4769 210.399 93.2867 209.918 92.057C207.459 94.8947 205.551 97.4407 204.25 99.3956C204.164 101.579 204.227 103.778 204.479 105.946C203.935 104.204 203.612 102.391 203.494 100.57C202.784 101.729 202.359 102.58 202.256 103.014C201.35 106.837 206.079 118.408 206.079 118.408C206.079 118.408 229.025 117.604 230.428 115.894C230.665 115.602 231.169 114.333 231.926 112.362C228.875 112.189 225.833 111.937 222.845 111.33C226.053 111.55 229.285 111.424 232.47 110.967C233.581 108.098 235.126 104.204 237.128 99.8134C234.094 98.9621 231.075 98.0556 228.087 97.0545C231.469 97.0072 234.85 97.1491 238.216 97.4644C238.437 96.9993 238.658 96.5342 238.886 96.0613C236.845 95.746 234.827 95.2573 232.872 94.5636C235.197 94.4139 237.523 94.272 239.848 94.1222C243.182 87.5324 247.415 80.4303 252.618 74.2977C251.782 73.7144 250.994 73.0523 250.276 72.3271C251.506 72.4768 252.736 72.6187 253.958 72.7685C256.914 69.4894 260.169 66.5334 263.732 64.1765C251.073 63.8691 239.659 68.3464 230.208 74.3686Z" fill="#FF971A"/>
<path d="M246.335 72.6425C240.423 75.8191 235.047 79.855 230.334 84.5293C225.573 89.1642 221.419 94.3824 217.84 99.9396C216.051 102.73 214.419 105.615 212.921 108.571L208.397 117.415C207.624 118.889 206.883 120.379 206.134 121.861L205.007 124.099C204.881 124.352 204.763 124.604 204.629 124.856C204.385 125.353 204.124 125.849 203.872 126.338C202.367 129.333 200.861 132.337 199.19 135.308C199.135 135.403 199.017 135.442 198.922 135.387C198.843 135.34 198.804 135.253 198.819 135.174C199.355 132.234 200.081 129.349 200.932 126.496C201.058 126.094 201.176 125.7 201.302 125.298C201.799 123.674 202.382 122.082 202.942 120.481C203.541 118.889 204.18 117.313 204.834 115.736C206.174 112.615 207.735 109.572 209.524 106.655C211.321 103.755 213.213 100.909 215.239 98.1582C219.259 92.6404 223.846 87.5325 229.002 83.0789C234.196 78.6805 239.943 74.9126 246.17 72.2878C246.264 72.2483 246.383 72.2956 246.422 72.3981C246.461 72.4927 246.422 72.5952 246.335 72.6425Z" fill="#1C313F"/>
<path d="M204.629 124.856C204.385 125.353 204.124 125.849 203.872 126.338C202.367 129.333 200.861 132.337 199.19 135.308C199.135 135.403 199.017 135.442 198.922 135.387C198.843 135.34 198.804 135.253 198.819 135.174C199.355 132.234 200.081 129.349 200.932 126.496C201.168 126.535 201.397 126.582 201.626 126.63C201.886 126.677 202.154 126.716 202.406 126.63C202.65 126.551 202.855 126.362 203.021 126.165C203.218 125.928 203.391 125.668 203.588 125.44C203.793 125.211 204.038 124.998 204.329 124.904C204.424 124.872 204.526 124.856 204.629 124.856Z" fill="#6A96C6"/>
<path d="M267.545 75.8863L199.245 167.211L271.308 221.106L339.608 129.781L267.545 75.8863Z" fill="white"/>
<path d="M269.47 111.598L256.779 102.106L266.269 89.4153L278.959 98.9062L269.47 111.598ZM260.74 101.536L268.898 107.638L275 99.48L266.842 93.3781L260.74 101.536Z" fill="#D8DEE8"/>
<path d="M281.226 106.261L276.989 111.926L320.046 144.127L324.283 138.462L281.226 106.261Z" fill="#D8DEE8"/>
<path d="M254.554 131.54L241.863 122.049L251.354 109.358L264.045 118.849L254.554 131.54ZM245.825 121.477L253.983 127.579L260.085 119.421L251.927 113.32L245.825 121.477Z" fill="#D8DEE8"/>
<path d="M266.312 126.202L262.076 131.867L305.132 164.068L309.369 158.403L266.312 126.202Z" fill="#D8DEE8"/>
<path d="M239.64 151.482L226.949 141.992L236.44 129.301L249.131 138.791L239.64 151.482ZM230.911 141.42L239.068 147.522L245.17 139.364L237.012 133.262L230.911 141.42Z" fill="#D8DEE8"/>
<path d="M251.398 146.144L247.161 151.809L290.218 184.01L294.454 178.346L251.398 146.144Z" fill="#D8DEE8"/>
<path d="M224.724 171.424L212.033 161.933L221.524 149.242L234.215 158.733L224.724 171.424ZM215.995 161.362L224.153 167.464L230.255 159.306L222.097 153.204L215.995 161.362Z" fill="#D8DEE8"/>
<path d="M236.483 166.085L232.246 171.75L275.303 203.951L279.54 198.286L236.483 166.085Z" fill="#D8DEE8"/>
<path d="M260.289 103.673C260.284 103.668 260.277 103.663 260.271 103.659C259.943 103.414 259.727 103.059 259.703 102.65L259.417 97.9532C259.372 97.1734 259.962 96.5109 260.742 96.4653C261.522 96.4198 262.189 97.0186 262.235 97.7984L262.414 100.889L277.525 97.8872C278.291 97.7346 279.036 98.2333 279.188 98.9994C279.341 99.7656 278.842 100.511 278.076 100.663L261.391 103.954C260.999 104.033 260.61 103.913 260.289 103.673Z" fill="url(#paint0_linear_348_215)"/>
<path d="M229.952 144.237C229.946 144.232 229.939 144.227 229.934 144.223C229.606 143.978 229.39 143.623 229.366 143.214L229.08 138.517C229.034 137.737 229.624 137.075 230.405 137.029C231.185 136.984 231.852 137.583 231.897 138.362L232.076 141.453L247.187 138.451C247.954 138.299 248.698 138.797 248.851 139.563C249.003 140.33 248.505 141.075 247.738 141.227L231.054 144.518C230.66 144.597 230.273 144.477 229.952 144.237Z" fill="url(#paint1_linear_348_215)"/>
<path d="M215.206 163.953C215.2 163.948 215.194 163.944 215.188 163.939C214.86 163.694 214.644 163.339 214.62 162.93L214.334 158.233C214.289 157.453 214.878 156.791 215.659 156.745C216.439 156.7 217.106 157.299 217.152 158.078L217.33 161.169L232.442 158.167C233.208 158.015 233.952 158.513 234.105 159.279C234.257 160.046 233.759 160.791 232.993 160.943L216.308 164.234C215.914 164.314 215.527 164.192 215.206 163.953Z" fill="url(#paint2_linear_348_215)"/>
<path d="M253.42 129.985C253.13 129.767 252.923 129.44 252.867 129.053L250.525 112.813C250.414 112.04 250.95 111.322 251.724 111.21C252.497 111.098 253.214 111.635 253.327 112.409L255.669 128.649C255.78 129.422 255.244 130.141 254.47 130.252C254.083 130.308 253.711 130.202 253.42 129.985Z" fill="url(#paint3_linear_348_215)"/>
<path d="M244.13 123.036C243.839 122.818 243.632 122.492 243.576 122.105C243.465 121.332 244.001 120.613 244.775 120.502L261.016 118.16C261.789 118.048 262.506 118.585 262.619 119.359C262.73 120.132 262.194 120.85 261.42 120.962L245.179 123.303C244.792 123.359 244.419 123.253 244.13 123.036Z" fill="url(#paint4_linear_348_215)"/>
<path d="M91.3982 141.149C90.9755 140.617 89.4416 138.686 89.3048 138.531C89.1482 138.35 88.9766 138.39 88.9766 138.39C88.9766 138.39 88.825 138.479 88.8349 138.718C88.8424 138.924 89.0587 141.383 89.1184 142.059C89.1109 142.119 89.1134 142.179 89.1333 142.231L99.6422 168.579C99.7715 168.905 100.408 168.957 101.062 168.696C101.716 168.435 102.143 167.96 102.014 167.634L91.5051 141.284C91.4827 141.231 91.4429 141.187 91.3982 141.149Z" fill="black"/>
<path d="M159.879 120.171C156.016 124.47 149.798 133.562 150.566 141.336C151.337 149.11 167.663 150.194 175.733 143.337C193.666 128.1 170.726 108.103 159.879 120.171Z" fill="#F39C94"/>
<path d="M162.233 144.349L158.852 161.098L179.062 157.953L175.129 139.237" fill="#F39C94"/>
<path d="M264.698 155.698H245.753C245.753 155.698 251.752 148.2 251.593 147.688C251.434 147.178 249.487 145.933 247.573 146.955C245.659 147.976 242.181 151.837 242.181 151.837C242.181 151.837 234.618 153.593 233.469 155.731C232.507 157.523 232.059 161.056 231.94 162.155L214.99 182.153L211.695 178.611L194.879 189.522C194.879 189.522 208.717 205.615 216.887 203.895C222.547 202.701 238.046 172.743 241.783 166.21L250.643 161.046C250.643 161.046 255.407 159.88 258.042 159.437C258.937 159.288 264.979 158.431 264.906 156.832C264.864 155.927 264.698 155.698 264.698 155.698Z" fill="#F39C94"/>
<path d="M128.516 181.676L122.159 187.481L103.777 166.709L96.6738 172.547C96.6738 172.547 109.51 198.003 116.71 206.115C117.841 207.388 121.038 208.964 123.907 207.579C131.455 203.937 145.213 192.67 145.213 192.67L128.516 181.676Z" fill="#F39C94"/>
<path d="M105.529 161.456C104.816 160.029 102.302 157.921 100.033 155.934C97.7628 153.948 97.4023 152.571 96.0896 152.951C95.202 153.207 94.2573 154.955 94.9559 156.596C94.1305 156.576 92.4896 157.036 91.8954 157.888C91.1173 159.007 91.7115 161.441 91.7115 161.441C91.7115 161.441 89.6579 166.791 89.5112 169.126C89.3646 171.46 99.421 177.84 99.421 177.84L106.076 169.335C106.076 169.335 106.243 162.883 105.529 161.456Z" fill="#F39C94"/>
<path d="M180.569 157.314C180.569 157.314 189.144 154.632 192.985 156.205C196.423 157.615 214.567 181.455 214.567 181.455C214.567 181.455 207.68 191.785 197.027 196.774L203.272 237.013H148.58L151.541 194.887L140.915 203.688C134.17 200.921 125.986 190.236 124.012 185.604C124.012 185.604 141.335 167.831 146.126 166.036C150.917 164.238 180.569 157.314 180.569 157.314Z" fill="#5FA3FA"/>
<path d="M144.475 200.74L140.915 203.688C134.17 200.921 125.986 190.238 124.012 185.604C124.012 185.604 125.207 184.376 127.06 182.534C129.63 186.608 136.393 196.409 144.475 200.74Z" fill="white"/>
<path d="M214.565 181.455C214.565 181.455 207.678 191.785 197.025 196.774L196.227 191.772C196.227 191.772 196.229 191.77 196.234 191.767C196.565 191.551 206.223 185.196 211.554 177.552C213.379 179.896 214.565 181.455 214.565 181.455Z" fill="white"/>
<path d="M155.058 164.688L157.689 155.937L178.187 151.365L180.733 157.727C180.733 157.727 172.553 165.364 155.058 164.688Z" fill="#5FA3FA"/>
<path d="M178.187 151.365L180.733 157.727C180.733 157.727 172.553 165.364 155.058 164.688" stroke="black" stroke-miterlimit="10" stroke-linecap="round" stroke-linejoin="round"/>
<path d="M161.95 125.673C158.852 129.233 161.416 133.171 163.832 134.3C164.026 138.646 166.435 147.887 166.435 147.887C166.435 147.887 172.491 148.762 176.949 147.887C176.949 147.887 186.128 140.59 187.175 134.424C188.45 126.911 183.227 125.35 183.227 125.35C183.227 125.35 184.88 118.96 182.369 116.469C180.111 114.229 176.805 117.178 176.805 117.178C176.805 117.178 173.677 104.988 167.27 106.477C161.271 107.872 163.168 115.686 163.168 115.686C163.168 115.686 159.489 113.287 157.139 115.318C156.456 115.905 153.778 119.51 161.95 125.673Z" fill="black"/>
<path d="M161.734 133.726C163.009 131.545 166.674 130.944 168.098 133.184C170.445 136.871 165.873 143.106 162.435 140.868C161.125 140.016 160.028 136.642 161.734 133.726Z" fill="#F39C94"/>
<path d="M156.146 129.193C157.627 126.627 157.913 124.019 156.785 123.368C155.657 122.716 153.541 124.268 152.059 126.834C150.578 129.4 150.291 132.008 151.42 132.66C152.548 133.311 154.664 131.759 156.146 129.193Z" stroke="black" stroke-miterlimit="10" stroke-linecap="round" stroke-linejoin="round"/>
<path d="M156.645 128.231L162.875 131.429" stroke="black" stroke-miterlimit="10"/>
<path d="M214.873 182.389C214.873 182.389 213.704 184.659 214.418 188.485" stroke="black" stroke-miterlimit="10" stroke-linecap="round" stroke-linejoin="round"/>
<path d="M196.876 195.835L193.631 175.515" stroke="black" stroke-miterlimit="10" stroke-linecap="round" stroke-linejoin="round"/>
<path d="M95.0951 156.713C95.0951 156.713 95.6992 158.197 96.9647 159.365C98.2301 160.534 100.565 161.538 100.565 161.538L101.181 162.707" stroke="black" stroke-miterlimit="10" stroke-linecap="round" stroke-linejoin="round"/>
<path d="M151.735 194.664L156.157 190.999" stroke="black" stroke-miterlimit="10" stroke-linecap="round" stroke-linejoin="round"/>
<defs>
<linearGradient id="paint0_linear_348_215" x1="261.339" y1="94.8275" x2="275.163" y2="105.166" gradientUnits="userSpaceOnUse">
<stop stop-color="#AA80F9"/>
<stop offset="0.9964" stop-color="#6165D7"/>
</linearGradient>
<linearGradient id="paint1_linear_348_215" x1="231.001" y1="135.392" x2="244.825" y2="145.73" gradientUnits="userSpaceOnUse">
<stop stop-color="#AA80F9"/>
<stop offset="0.9964" stop-color="#6165D7"/>
</linearGradient>
<linearGradient id="paint2_linear_348_215" x1="216.256" y1="155.107" x2="230.08" y2="165.446" gradientUnits="userSpaceOnUse">
<stop stop-color="#AA80F9"/>
<stop offset="0.9964" stop-color="#6165D7"/>
</linearGradient>
<linearGradient id="paint3_linear_348_215" x1="247.318" y1="116.41" x2="258.875" y2="125.054" gradientUnits="userSpaceOnUse">
<stop stop-color="#FF9085"/>
<stop offset="1" stop-color="#FB6FBB"/>
</linearGradient>
<linearGradient id="paint4_linear_348_215" x1="258.876" y1="125.054" x2="247.318" y2="116.41" gradientUnits="userSpaceOnUse">
<stop stop-color="#FF9085"/>
<stop offset="1" stop-color="#FB6FBB"/>
</linearGradient>
</defs>
</svg>
