<svg width="558" height="1208" viewBox="0 0 558 1208" fill="none" xmlns="http://www.w3.org/2000/svg">
<g clip-path="url(#clip0_1_1167)">
<rect width="557" height="1208" transform="translate(0.246826)" fill="url(#paint0_linear_1_1167)"/>
<g opacity="0.45">
<path opacity="0.5" fill-rule="evenodd" clip-rule="evenodd" d="M606.582 917.267C668.367 941.243 735.811 909.835 757.222 847.115L804.663 708.141C826.074 645.42 793.345 575.139 731.56 551.162L277.141 374.818C215.356 350.841 147.913 382.249 126.502 444.969L79.0599 583.944C57.649 646.664 90.3787 716.946 152.164 740.923L606.582 917.267Z" fill="url(#paint1_linear_1_1167)"/>
<path opacity="0.5" fill-rule="evenodd" clip-rule="evenodd" d="M455.496 1053.86C517.281 1077.84 550.011 1148.12 528.6 1210.84L416.29 1539.84C394.879 1602.56 327.435 1633.97 265.65 1609.99L-540.764 1297.05C-602.549 1273.07 -635.278 1202.79 -613.868 1140.07L-501.557 811.074C-480.146 748.354 -412.702 716.946 -350.917 740.923L455.496 1053.86Z" fill="url(#paint2_linear_1_1167)"/>
<path opacity="0.5" fill-rule="evenodd" clip-rule="evenodd" d="M628.624 654.095C690.409 678.072 757.853 646.664 779.264 583.944L863.942 335.89C885.353 273.169 852.623 202.888 790.838 178.911L-30.8914 -139.974C-92.6764 -163.951 -160.12 -132.543 -181.531 -69.8225L-266.21 178.232C-287.62 240.952 -254.891 311.234 -193.106 335.21L628.624 654.095Z" fill="url(#paint3_linear_1_1167)"/>
<path opacity="0.2" fill-rule="evenodd" clip-rule="evenodd" d="M938.729 19.5508C1000.51 43.5274 1067.96 12.1195 1089.37 -50.6009L1174.05 -298.655C1195.46 -361.375 1162.73 -431.657 1100.94 -455.634L279.213 -774.519C217.428 -798.495 149.985 -767.087 128.574 -704.367L43.8952 -456.313C22.4843 -393.593 55.214 -323.311 116.999 -299.334L938.729 19.5508Z" fill="url(#paint4_linear_1_1167)"/>
</g>
</g>
<defs>
<linearGradient id="paint0_linear_1_1167" x1="341.627" y1="480.522" x2="519.855" y2="412.242" gradientUnits="userSpaceOnUse">
<stop stop-color="white"/>
<stop offset="1" stop-color="#F4F7FF"/>
</linearGradient>
<linearGradient id="paint1_linear_1_1167" x1="23.5775" y1="674.991" x2="439.79" y2="180.115" gradientUnits="userSpaceOnUse">
<stop stop-color="white"/>
<stop offset="1" stop-color="#003EDF"/>
</linearGradient>
<linearGradient id="paint2_linear_1_1167" x1="-502.861" y1="706.311" x2="-535.345" y2="1713.43" gradientUnits="userSpaceOnUse">
<stop stop-color="white"/>
<stop offset="1" stop-color="#003EDF"/>
</linearGradient>
<linearGradient id="paint3_linear_1_1167" x1="-331.922" y1="260.532" x2="185.483" y2="-419.026" gradientUnits="userSpaceOnUse">
<stop stop-color="white"/>
<stop offset="1" stop-color="#003EDF"/>
</linearGradient>
<linearGradient id="paint4_linear_1_1167" x1="-21.8178" y1="-374.012" x2="495.588" y2="-1053.57" gradientUnits="userSpaceOnUse">
<stop stop-color="white"/>
<stop offset="1" stop-color="#F4F7FF"/>
</linearGradient>
<clipPath id="clip0_1_1167">
<rect width="557" height="1208" fill="white" transform="translate(0.246826)"/>
</clipPath>
</defs>
</svg>
