<svg width="34" height="30" viewBox="0 0 34 30" fill="none" xmlns="http://www.w3.org/2000/svg">
<path fill-rule="evenodd" clip-rule="evenodd" d="M18.2325 3.2432C18.7013 2.77452 19.337 2.51123 20 2.51123C20.6629 2.51123 21.2986 2.77452 21.7675 3.2432L31.7675 13.2432C32.2361 13.712 32.4994 14.3478 32.4994 15.0107C32.4994 15.6736 32.2361 16.3094 31.7675 16.7782L21.7675 26.7782C21.2959 27.2336 20.6644 27.4856 20.009 27.4799C19.3535 27.4742 18.7264 27.2113 18.2629 26.7477C17.7994 26.2842 17.5365 25.6572 17.5308 25.0017C17.5251 24.3462 17.7771 23.7147 18.2325 23.2432L26.465 15.0107L18.2325 6.7782C17.7638 6.30938 17.5005 5.67361 17.5005 5.0107C17.5005 4.34779 17.7638 3.71202 18.2325 3.2432Z" fill="#376AED"/>
<path fill-rule="evenodd" clip-rule="evenodd" d="M3.23245 3.2432C3.70127 2.77452 4.33704 2.51123 4.99995 2.51123C5.66286 2.51123 6.29863 2.77452 6.76745 3.2432L16.7675 13.2432C17.2361 13.712 17.4994 14.3478 17.4994 15.0107C17.4994 15.6736 17.2361 16.3094 16.7675 16.7782L6.76745 26.7782C6.29595 27.2336 5.66444 27.4856 5.00895 27.4799C4.35346 27.4742 3.72643 27.2113 3.26291 26.7477C2.79939 26.2842 2.53646 25.6572 2.53077 25.0017C2.52507 24.3462 2.77706 23.7147 3.23245 23.2432L11.465 15.0107L3.23245 6.7782C2.76378 6.30938 2.50049 5.67361 2.50049 5.0107C2.50049 4.34779 2.76378 3.71202 3.23245 3.2432Z" fill="#376AED"/>
</svg>
