<svg width="49" height="48" viewBox="0 0 49 48" fill="none" xmlns="http://www.w3.org/2000/svg">
<g clip-path="url(#clip0_8_1736)">
<path fill-rule="evenodd" clip-rule="evenodd" d="M33.5633 30.2599C33.9167 30.2599 34.2438 30.0734 34.4239 29.7693L35.323 28.2505C35.503 27.9464 35.8302 27.7599 36.1835 27.7599H42.0972C42.4538 27.7599 42.7835 27.57 42.9623 27.2615L44.5621 24.5022C44.7422 24.1916 44.742 23.8084 44.5616 23.498L40.7825 16.9974C40.6035 16.6895 40.2742 16.5 39.918 16.5H34.9345C34.5753 16.5 34.2436 16.3073 34.0657 15.9952L32.5212 13.2849C32.3433 12.9728 32.0116 12.7801 31.6524 12.7801H30.8535C30.3012 12.7801 29.8535 12.3323 29.8535 11.7801V11.2601C29.8535 10.7078 30.3012 10.2601 30.8535 10.2601H33.1508C33.5109 10.2601 33.8432 10.4537 34.0208 10.767L35.5661 13.4932C35.7437 13.8064 36.076 14 36.4361 14H37.2914C38.0634 14 38.5442 13.1624 38.1549 12.4957L34.9429 6.99582C34.7637 6.68885 34.4349 6.50012 34.0794 6.50012H27.1135C26.5612 6.50012 26.1135 6.94784 26.1135 7.50012V15.5C26.1135 16.0523 26.5612 16.5 27.1135 16.5H28.9994C29.3549 16.5 29.6837 16.6887 29.863 16.9957L30.155 17.4957C30.5443 18.1623 30.0634 19 29.2914 19H27.1135C26.5612 19 26.1135 19.4477 26.1135 20V22.9999C26.1135 23.5522 26.5612 23.9999 27.1135 23.9999H30.0481C30.4097 23.9999 30.7431 23.8048 30.9201 23.4895L32.4469 20.7704C32.6239 20.4551 32.9573 20.26 33.3188 20.26H37.7754C38.133 20.26 38.4634 20.451 38.6419 20.7609L38.9299 21.2608C39.3139 21.9275 38.8327 22.76 38.0634 22.76H34.7788C34.4173 22.76 34.0839 22.9551 33.9069 23.2704L32.3801 25.9895C32.203 26.3048 31.8697 26.4999 31.5081 26.4999H27.1135C26.5612 26.4999 26.1135 26.9476 26.1135 27.4999V34.2598C26.1135 34.8121 26.5612 35.2598 27.1135 35.2598H31.1834C31.9528 35.2598 32.434 36.0923 32.05 36.759L31.762 37.2589C31.5835 37.5688 31.2531 37.7598 30.8954 37.7598H27.1135C26.5612 37.7598 26.1135 38.2075 26.1135 38.7598V40.4998C26.1135 41.0521 26.5612 41.4998 27.1135 41.4998H34.0792C34.4348 41.4998 34.7636 41.3109 34.9429 41.0038L40.3356 31.7639C40.7246 31.0973 40.2438 30.2599 39.4719 30.2599H37.6075C37.252 30.2599 36.9232 30.4486 36.7439 30.7556L35.8629 32.2642C35.6836 32.5711 35.3549 32.7599 34.9994 32.7599H30.8535C30.3012 32.7599 29.8535 32.3121 29.8535 31.7599V31.2599C29.8535 30.7076 30.3012 30.2599 30.8535 30.2599H33.5633Z" fill="#D7DDEC"/>
<path fill-rule="evenodd" clip-rule="evenodd" d="M16.1437 30.2599C15.7904 30.2599 15.4632 30.0734 15.2832 29.7693L14.3841 28.2505C14.2041 27.9464 13.8769 27.7599 13.5236 27.7599H7.60987C7.25326 27.7599 6.92363 27.57 6.74476 27.2615L5.14496 24.5022C4.9649 24.1916 4.96512 23.8084 5.14554 23.498L8.92455 16.9974C9.10357 16.6895 9.43288 16.5 9.78908 16.5H14.7726C15.1318 16.5 15.4635 16.3073 15.6414 15.9952L17.1859 13.2849C17.3638 12.9728 17.6955 12.7801 18.0547 12.7801H18.8536C19.4059 12.7801 19.8536 12.3323 19.8536 11.7801V11.2601C19.8536 10.7078 19.4059 10.2601 18.8536 10.2601H16.5563C16.1962 10.2601 15.8639 10.4537 15.6863 10.767L14.141 13.4932C13.9634 13.8064 13.6311 14 13.271 14H12.4157C11.6437 14 11.1629 13.1624 11.5522 12.4957L14.7642 6.99582C14.9434 6.68885 15.2722 6.50012 15.6277 6.50012H22.6136C23.1659 6.50012 23.6136 6.94784 23.6136 7.50012V15.5C23.6136 16.0523 23.1659 16.5 22.6136 16.5H20.7076C20.3522 16.5 20.0234 16.6887 19.8441 16.9957L19.5521 17.4957C19.1628 18.1623 19.6436 19 20.4157 19H22.6136C23.1659 19 23.6136 19.4477 23.6136 20V22.9999C23.6136 23.5522 23.1659 23.9999 22.6136 23.9999H19.659C19.2974 23.9999 18.964 23.8048 18.787 23.4895L17.2602 20.7704C17.0832 20.4551 16.7498 20.26 16.3883 20.26H11.9317C11.5741 20.26 11.2437 20.451 11.0652 20.7609L10.7772 21.2608C10.3932 21.9275 10.8744 22.76 11.6437 22.76H14.9283C15.2898 22.76 15.6232 22.9551 15.8002 23.2704L17.327 25.9895C17.5041 26.3048 17.8374 26.4999 18.199 26.4999H22.6136C23.1659 26.4999 23.6136 26.9476 23.6136 27.4999V34.2598C23.6136 34.8121 23.1659 35.2598 22.6136 35.2598H18.5237C17.7543 35.2598 17.2731 36.0923 17.6571 36.759L17.9451 37.2589C18.1236 37.5688 18.454 37.7598 18.8116 37.7598H22.6136C23.1659 37.7598 23.6136 38.2075 23.6136 38.7598V40.4998C23.6136 41.0521 23.1659 41.4998 22.6136 41.4998H15.6279C15.2723 41.4998 14.9434 41.3109 14.7642 41.0038L9.37154 31.7639C8.98246 31.0973 9.46332 30.2599 10.2352 30.2599H12.0996C12.4551 30.2599 12.7839 30.4486 12.9632 30.7556L13.8442 32.2642C14.0234 32.5711 14.3522 32.7599 14.7077 32.7599H18.8536C19.4059 32.7599 19.8536 32.3121 19.8536 31.7599V31.2599C19.8536 30.7076 19.4059 30.2599 18.8536 30.2599H16.1437Z" fill="#8498B8"/>
</g>
<defs>
<clipPath id="clip0_8_1736">
<rect width="48" height="48" fill="white" transform="translate(0.853271)"/>
</clipPath>
</defs>
</svg>
