<svg width="49" height="48" viewBox="0 0 49 48" fill="none" xmlns="http://www.w3.org/2000/svg">
<path fill-rule="evenodd" clip-rule="evenodd" d="M33.4569 30.2599C33.8103 30.2599 34.1374 30.0734 34.3174 29.7693L35.2166 28.2505C35.3966 27.9464 35.7237 27.7599 36.0771 27.7599H41.9908C42.3474 27.7599 42.677 27.57 42.8559 27.2615L44.4557 24.5022C44.6357 24.1916 44.6355 23.8084 44.4551 23.498L40.6761 16.9974C40.4971 16.6895 40.1678 16.5 39.8116 16.5H34.8281C34.4688 16.5 34.1372 16.3073 33.9593 15.9952L32.4147 13.2849C32.2368 12.9728 31.9052 12.7801 31.5459 12.7801H30.747C30.1948 12.7801 29.747 12.3323 29.747 11.7801V11.2601C29.747 10.7078 30.1948 10.2601 30.747 10.2601H33.0444C33.4045 10.2601 33.7367 10.4537 33.9143 10.767L35.4597 13.4932C35.6372 13.8064 35.9695 14 36.3296 14H37.1849C37.9569 14 38.4378 13.1624 38.0484 12.4957L34.8365 6.99582C34.6572 6.68885 34.3284 6.50012 33.973 6.50012H27.0071C26.4548 6.50012 26.0071 6.94784 26.0071 7.50012V15.5C26.0071 16.0523 26.4548 16.5 27.0071 16.5H28.893C29.2485 16.5 29.5773 16.6887 29.7565 16.9957L30.0485 17.4957C30.4378 18.1623 29.957 19 29.185 19H27.0071C26.4548 19 26.0071 19.4477 26.0071 20V22.9999C26.0071 23.5522 26.4548 23.9999 27.0071 23.9999H29.9417C30.3032 23.9999 30.6366 23.8048 30.8136 23.4895L32.3404 20.7704C32.5174 20.4551 32.8508 20.26 33.2124 20.26H37.6689C38.0266 20.26 38.357 20.451 38.5355 20.7609L38.8234 21.2608C39.2074 21.9275 38.7263 22.76 37.9569 22.76H34.6724C34.3108 22.76 33.9774 22.9551 33.8004 23.2704L32.2736 25.9895C32.0966 26.3048 31.7632 26.4999 31.4017 26.4999H27.0071C26.4548 26.4999 26.0071 26.9476 26.0071 27.4999V34.2598C26.0071 34.8121 26.4548 35.2598 27.0071 35.2598H31.077C31.8463 35.2598 32.3275 36.0923 31.9435 36.759L31.6555 37.2589C31.477 37.5688 31.1466 37.7598 30.789 37.7598H27.0071C26.4548 37.7598 26.0071 38.2075 26.0071 38.7598V40.4998C26.0071 41.0521 26.4548 41.4998 27.0071 41.4998H33.9728C34.3284 41.4998 34.6572 41.3109 34.8364 41.0038L40.2291 31.7639C40.6182 31.0973 40.1373 30.2599 39.3654 30.2599H37.501C37.1455 30.2599 36.8168 30.4486 36.6375 30.7556L35.7565 32.2642C35.5772 32.5711 35.2484 32.7599 34.8929 32.7599H30.747C30.1948 32.7599 29.747 32.3121 29.747 31.7599V31.2599C29.747 30.7076 30.1948 30.2599 30.747 30.2599H33.4569Z" fill="#D7DDEC"/>
<path fill-rule="evenodd" clip-rule="evenodd" d="M16.0373 30.2599C15.6839 30.2599 15.3568 30.0734 15.1768 29.7693L14.2776 28.2505C14.0976 27.9464 13.7705 27.7599 13.4171 27.7599H7.50343C7.14681 27.7599 6.81718 27.57 6.63831 27.2615L5.03851 24.5022C4.85845 24.1916 4.85867 23.8084 5.03909 23.498L8.8181 16.9974C8.99712 16.6895 9.32643 16.5 9.68263 16.5H14.6661C15.0254 16.5 15.357 16.3073 15.5349 15.9952L17.0795 13.2849C17.2574 12.9728 17.589 12.7801 17.9483 12.7801H18.7472C19.2994 12.7801 19.7472 12.3323 19.7472 11.7801V11.2601C19.7472 10.7078 19.2994 10.2601 18.7472 10.2601H16.4498C16.0897 10.2601 15.7575 10.4537 15.5799 10.767L14.0345 13.4932C13.857 13.8064 13.5247 14 13.1646 14H12.3093C11.5373 14 11.0564 13.1624 11.4458 12.4957L14.6577 6.99582C14.837 6.68885 15.1658 6.50012 15.5212 6.50012H22.5071C23.0594 6.50012 23.5071 6.94784 23.5071 7.50012V15.5C23.5071 16.0523 23.0594 16.5 22.5071 16.5H20.6012C20.2457 16.5 19.9169 16.6887 19.7377 16.9957L19.4457 17.4957C19.0564 18.1623 19.5372 19 20.3092 19H22.5071C23.0594 19 23.5071 19.4477 23.5071 20V22.9999C23.5071 23.5522 23.0594 23.9999 22.5071 23.9999H19.5525C19.191 23.9999 18.8576 23.8048 18.6806 23.4895L17.1538 20.7704C16.9768 20.4551 16.6434 20.26 16.2818 20.26H11.8253C11.4676 20.26 11.1372 20.451 10.9587 20.7609L10.6708 21.2608C10.2868 21.9275 10.7679 22.76 11.5373 22.76H14.8218C15.1834 22.76 15.5168 22.9551 15.6938 23.2704L17.2206 25.9895C17.3976 26.3048 17.731 26.4999 18.0925 26.4999H22.5071C23.0594 26.4999 23.5071 26.9476 23.5071 27.4999V34.2598C23.5071 34.8121 23.0594 35.2598 22.5071 35.2598H18.4172C17.6479 35.2598 17.1667 36.0923 17.5507 36.759L17.8387 37.2589C18.0172 37.5688 18.3476 37.7598 18.7052 37.7598H22.5071C23.0594 37.7598 23.5071 38.2075 23.5071 38.7598V40.4998C23.5071 41.0521 23.0594 41.4998 22.5071 41.4998H15.5214C15.1658 41.4998 14.837 41.3109 14.6578 41.0038L9.26509 31.7639C8.87601 31.0973 9.35687 30.2599 10.1288 30.2599H11.9932C12.3487 30.2599 12.6774 30.4486 12.8567 30.7556L13.7377 32.2642C13.917 32.5711 14.2458 32.7599 14.6013 32.7599H18.7472C19.2994 32.7599 19.7472 32.3121 19.7472 31.7599V31.2599C19.7472 30.7076 19.2994 30.2599 18.7472 30.2599H16.0373Z" fill="#0047CC"/>
</svg>
