<svg width="28" height="28" viewBox="0 0 28 28" fill="none" xmlns="http://www.w3.org/2000/svg">
<path d="M13.7468 16.8635C15.042 16.8635 16.0919 15.8136 16.0919 14.5184C16.0919 13.2233 15.042 12.1733 13.7468 12.1733C12.4517 12.1733 11.4017 13.2233 11.4017 14.5184C11.4017 15.8136 12.4517 16.8635 13.7468 16.8635Z" stroke="#1C274C" stroke-width="2"/>
<path opacity="0.5" d="M12.0097 20.7722H15.4839C17.9236 20.7722 19.1435 20.7722 20.0198 20.1974C20.3991 19.9485 20.7248 19.6287 20.9783 19.2563C21.5638 18.396 21.5638 17.1982 21.5638 14.8029C21.5638 12.4076 21.5638 11.2099 20.9783 10.3495C20.7248 9.97709 20.3991 9.65729 20.0198 9.40843C19.4566 9.03904 18.7518 8.90701 17.6725 8.85982C17.1574 8.85982 16.714 8.47665 16.6131 7.9808C16.4615 7.23704 15.7963 6.70166 15.0239 6.70166H12.4697C11.6972 6.70166 11.0321 7.23704 10.8806 7.9808C10.7796 8.47665 10.3361 8.85982 9.82111 8.85982C8.74184 8.90701 8.03692 9.03904 7.47385 9.40843C7.0945 9.65729 6.76879 9.97709 6.51532 10.3495C5.92981 11.2099 5.92981 12.4076 5.92981 14.8029C5.92981 17.1982 5.92981 18.396 6.51532 19.2563C6.76879 19.6287 7.0945 19.9485 7.47385 20.1974C8.35014 20.7722 9.56998 20.7722 12.0097 20.7722Z" stroke="#376AED" stroke-width="2"/>
<path d="M19.2186 12.1733H18.4369" stroke="#1C274C" stroke-width="2" stroke-linecap="round"/>
</svg>
