<svg width="28" height="28" viewBox="0 0 28 28" fill="none" xmlns="http://www.w3.org/2000/svg">
<g clip-path="url(#clip0_8_1828)">
<path fill-rule="evenodd" clip-rule="evenodd" d="M14.1404 20.5536C10.3756 20.5536 7.32367 17.5007 7.32367 13.7369C7.32367 9.97314 10.3756 6.92023 14.1404 6.92023C17.9052 6.92023 20.9571 9.97314 20.9571 13.7369C20.9571 17.5007 17.9052 20.5536 14.1404 20.5536ZM14.1404 5.94641C9.83758 5.94641 6.34985 9.43267 6.34985 13.7369C6.34985 18.0412 9.83758 21.5275 14.1404 21.5275C18.4432 21.5275 21.9309 18.0412 21.9309 13.7369C21.9309 9.43267 18.4432 5.94641 14.1404 5.94641ZM16.924 10.9518C16.7322 10.7619 16.422 10.7619 16.2302 10.9518L14.1375 13.0455L12.0749 10.981C11.8845 10.7911 11.5758 10.7911 11.3864 10.981C11.196 11.1709 11.196 11.4826 11.3864 11.6725L13.449 13.7321L11.3718 15.8112C11.1805 16.0011 11.1805 16.3127 11.3718 16.5074C11.5637 16.6973 11.8743 16.6973 12.0661 16.5074L14.1433 14.4284L16.2058 16.4929C16.3962 16.6827 16.7049 16.6827 16.8948 16.4929C17.0852 16.303 17.0852 15.9913 16.8948 15.8014L14.8318 13.7418L16.924 11.6481C17.1154 11.4533 17.1154 11.1466 16.924 10.9518Z" fill="black"/>
</g>
<defs>
<clipPath id="clip0_8_1828">
<rect width="15.5811" height="15.5811" fill="white" transform="translate(6.34985 5.94641)"/>
</clipPath>
</defs>
</svg>
