<svg width="28" height="28" viewBox="0 0 28 28" fill="none" xmlns="http://www.w3.org/2000/svg">
<g clip-path="url(#clip0_8_1829)">
<mask id="mask0_8_1829" style="mask-type:luminance" maskUnits="userSpaceOnUse" x="2" y="2" width="24" height="24">
<path d="M2.62988 2.22644H25.6509V25.2474H2.62988V2.22644Z" fill="white"/>
</mask>
<g mask="url(#mask0_8_1829)">
<path fill-rule="evenodd" clip-rule="evenodd" d="M10.3036 7.02242H17.7806C18.8502 7.02242 19.2377 7.13369 19.6281 7.3428C20.0185 7.5519 20.3254 7.85885 20.5345 8.24925C20.7436 8.63965 20.8549 9.02717 20.8549 10.0967V17.5737C20.8549 17.8281 20.956 18.0721 21.1358 18.252C21.3157 18.4319 21.5597 18.5329 21.8141 18.5329C22.0685 18.5329 22.3125 18.4319 22.4924 18.252C22.6723 18.0721 22.7733 17.8281 22.7733 17.5737V10.0228C22.7733 8.31256 22.5949 7.69195 22.2611 7.06654C21.934 6.44863 21.4287 5.94332 20.8108 5.61622C20.1854 5.28242 19.5648 5.104 17.8545 5.104H10.3036C10.0492 5.104 9.80523 5.20506 9.62535 5.38495C9.44546 5.56484 9.3444 5.80881 9.3444 6.06321C9.3444 6.31761 9.44546 6.56159 9.62535 6.74147C9.80523 6.92136 10.0492 7.02242 10.3036 7.02242ZM17.7097 9.26121C17.3193 9.0521 16.9317 8.94084 15.8622 8.94084H8.58183C7.51231 8.94084 7.12479 9.0521 6.7344 9.26121C6.3482 9.46566 6.03239 9.78147 5.82794 10.1677C5.61884 10.5581 5.50757 10.9456 5.50757 12.0151V19.2955C5.50757 20.364 5.61884 20.7525 5.82794 21.1429C6.03705 21.5333 6.344 21.8403 6.7344 22.0494C7.12479 22.2585 7.51231 22.3698 8.58183 22.3698H15.8622C16.9308 22.3698 17.3193 22.2585 17.7097 22.0494C18.1001 21.8403 18.407 21.5333 18.6161 21.1429C18.8252 20.7525 18.9365 20.365 18.9365 19.2955V12.0151C18.9365 10.9456 18.8252 10.5581 18.6161 10.1677C18.4117 9.78147 18.0958 9.46566 17.7097 9.26121Z" fill="#376AED" fill-opacity="0.5"/>
</g>
</g>
<defs>
<clipPath id="clip0_8_1829">
<rect width="23.021" height="23.021" fill="white" transform="translate(2.62988 2.22644)"/>
</clipPath>
</defs>
</svg>
