<svg width="49" height="48" viewBox="0 0 49 48" fill="none" xmlns="http://www.w3.org/2000/svg">
<g clip-path="url(#clip0_8_1763)">
<path d="M12.9221 22.7309C12.9221 13.8611 19.4455 6.51371 27.9599 5.21784C27.0821 5.08418 26.1831 5.01489 25.268 5.01489C15.4761 5.01489 7.53821 12.9467 7.53821 22.731C7.53821 32.5153 15.4761 40.4471 25.268 40.4471C26.1831 40.4471 27.0821 40.3777 27.9599 40.244C19.4456 38.9481 12.9221 31.6008 12.9221 22.7309Z" fill="#D7DDEC"/>
<path d="M24.9793 42.3022C14.1794 42.3022 5.39307 33.5227 5.39307 22.7311C5.39307 11.9395 14.1794 3.15991 24.9793 3.15991C35.7792 3.15991 44.5656 11.9395 44.5656 22.7311C44.5656 33.5227 35.7792 42.3022 24.9793 42.3022ZM24.9793 6.87009C16.2268 6.87009 9.1061 13.9853 9.1061 22.7311C9.1061 31.4769 16.2268 38.5921 24.9793 38.5921C33.7319 38.5921 40.8526 31.4769 40.8526 22.7311C40.8526 13.9853 33.7319 6.87009 24.9793 6.87009Z" fill="#0047CC"/>
<path d="M26.0205 22.876H31.9287V23.4561H30.4678V28.7627L28.126 28.2471C27.1806 28.7197 26.1279 28.9561 24.9678 28.9561C23.5068 28.9561 22.2034 28.5693 21.0576 27.7959C19.2816 26.5785 18.3935 24.7308 18.3935 22.2529C18.3935 20.2477 19.0166 18.6364 20.2627 17.4189C21.4944 16.2445 23.0485 15.6572 24.9248 15.6572C25.9847 15.6572 26.9944 15.8721 27.9541 16.3018L29.9306 15.8936L30.0166 20.3193H29.3935C29.2217 19.5889 29.014 18.9587 28.7705 18.4287C28.083 17.0107 26.9443 16.3018 25.3545 16.3018C22.7047 16.3161 21.3727 18.3285 21.3584 22.3389C21.3584 23.3988 21.4443 24.3154 21.6162 25.0889C22.0889 27.2373 23.2991 28.3115 25.2471 28.3115C26.3213 28.3115 27.2021 27.9749 27.8896 27.3018V23.4561H26.0205V22.876Z" fill="#0047CC"/>
</g>
<defs>
<clipPath id="clip0_8_1763">
<rect width="48" height="48" fill="white" transform="translate(0.640381)"/>
</clipPath>
</defs>
</svg>
