<svg width="49" height="48" viewBox="0 0 49 48" fill="none" xmlns="http://www.w3.org/2000/svg">
<g clip-path="url(#clip0_8_1739)">
<path d="M13.0286 22.7309C13.0286 13.8611 19.552 6.51371 28.0664 5.21784C27.1886 5.08418 26.2896 5.01489 25.3744 5.01489C15.5826 5.01489 7.64465 12.9467 7.64465 22.731C7.64465 32.5153 15.5826 40.4471 25.3744 40.4471C26.2896 40.4471 27.1886 40.3777 28.0664 40.244C19.5521 38.9481 13.0286 31.6008 13.0286 22.7309Z" fill="#D7DDEC"/>
<path d="M25.0858 42.3022C14.2859 42.3022 5.49951 33.5227 5.49951 22.7311C5.49951 11.9395 14.2859 3.15991 25.0858 3.15991C35.8857 3.15991 44.672 11.9395 44.672 22.7311C44.672 33.5227 35.8857 42.3022 25.0858 42.3022ZM25.0858 6.87009C16.3332 6.87009 9.21255 13.9853 9.21255 22.7311C9.21255 31.4769 16.3332 38.5921 25.0858 38.5921C33.8383 38.5921 40.959 31.4769 40.959 22.7311C40.959 13.9853 33.8383 6.87009 25.0858 6.87009Z" fill="#7B8BB2"/>
<path d="M26.1269 22.876H32.0351V23.4561H30.5742V28.7627L28.2324 28.2471C27.2871 28.7197 26.2344 28.9561 25.0742 28.9561C23.6133 28.9561 22.3099 28.5693 21.164 27.7959C19.388 26.5785 18.5 24.7308 18.5 22.2529C18.5 20.2477 19.123 18.6364 20.3691 17.4189C21.6009 16.2445 23.1549 15.6572 25.0312 15.6572C26.0911 15.6572 27.1009 15.8721 28.0605 16.3018L30.0371 15.8936L30.123 20.3193H29.5C29.3281 19.5889 29.1204 18.9587 28.8769 18.4287C28.1894 17.0107 27.0508 16.3018 25.4609 16.3018C22.8112 16.3161 21.4791 18.3285 21.4648 22.3389C21.4648 23.3988 21.5508 24.3154 21.7226 25.0889C22.1953 27.2373 23.4056 28.3115 25.3535 28.3115C26.4277 28.3115 27.3086 27.9749 27.9961 27.3018V23.4561H26.1269V22.876Z" fill="#7B8BB2"/>
</g>
<defs>
<clipPath id="clip0_8_1739">
<rect width="48" height="48" fill="white" transform="translate(0.746826)"/>
</clipPath>
</defs>
</svg>
