<svg width="61" height="60" viewBox="0 0 61 60" fill="none" xmlns="http://www.w3.org/2000/svg">
<path d="M18.3264 17.5159C17.35 18.4922 17.35 20.0751 18.3264 21.0515L27.2892 30.0143L18.3264 38.9773C17.35 39.9535 17.35 41.5365 18.3264 42.5128C19.3027 43.489 20.8856 43.489 21.8619 42.5128L30.8247 33.5498L39.7877 42.5128C40.764 43.489 42.347 43.489 43.3232 42.5128C44.2995 41.5365 44.2995 39.9535 43.3232 38.9773L34.3602 30.0143L43.3232 21.0515C44.2995 20.0752 44.2995 18.4923 43.3232 17.516C42.3467 16.5396 40.764 16.5396 39.7877 17.516L30.8247 26.4788L21.8619 17.5159C20.8856 16.5396 19.3027 16.5396 18.3264 17.5159Z" fill="#FE615A"/>
</svg>
