<svg width="28" height="28" viewBox="0 0 28 28" fill="none" xmlns="http://www.w3.org/2000/svg">
<path d="M19.0434 10.6102C19.0434 11.4736 18.3435 12.1735 17.48 12.1735C16.6166 12.1735 15.9166 11.4736 15.9166 10.6102C15.9166 9.74671 16.6166 9.04675 17.48 9.04675C18.3435 9.04675 19.0434 9.74671 19.0434 10.6102Z" fill="#1C274C"/>
<path fill-rule="evenodd" clip-rule="evenodd" d="M14.3085 5.33374H14.3982C16.2027 5.33373 17.6168 5.33372 18.7201 5.48207C19.8495 5.6339 20.7407 5.95076 21.4401 6.65023C22.1396 7.3497 22.4564 8.24085 22.6083 9.37021C22.7566 10.4736 22.7566 11.8877 22.7566 13.6921V13.7612C22.7566 15.2533 22.7566 16.4747 22.6755 17.4692C22.5942 18.4687 22.4273 19.3038 22.0538 19.9974C21.889 20.3033 21.6866 20.5773 21.4401 20.8238C20.7407 21.5233 19.8495 21.8401 18.7201 21.992C17.6168 22.1403 16.2027 22.1403 14.3982 22.1403H14.3085C12.504 22.1403 11.0899 22.1403 9.98654 21.992C8.85719 21.8401 7.96604 21.5233 7.26656 20.8238C6.64646 20.2037 6.32623 19.4318 6.15593 18.4744C5.98865 17.5339 5.95805 16.3637 5.95169 14.9107C5.95007 14.5411 5.95007 14.1502 5.95007 13.7378V13.6921C5.95007 11.8877 5.95006 10.4736 6.0984 9.37021C6.25024 8.24085 6.56709 7.3497 7.26656 6.65023C7.96604 5.95076 8.85719 5.6339 9.98654 5.48207C11.0899 5.33372 12.504 5.33373 14.3085 5.33374ZM10.1428 6.64416C9.14345 6.77851 8.54097 7.03404 8.09568 7.47935C7.65038 7.92464 7.39485 8.52711 7.26049 9.52644C7.12386 10.5426 7.12262 11.8779 7.12262 13.737C7.12262 14.1503 7.12262 14.5388 7.12422 14.9056C7.13063 16.3705 7.16338 17.4427 7.31036 18.2691C7.45434 19.0786 7.69931 19.5983 8.09568 19.9947C8.54097 20.44 9.14345 20.6955 10.1428 20.8298C11.159 20.9665 12.4943 20.9677 14.3533 20.9677C16.2124 20.9677 17.5477 20.9665 18.5639 20.8298C19.5632 20.6955 20.1657 20.44 20.611 19.9947C20.7751 19.8306 20.9096 19.6491 21.0214 19.4415C21.2807 18.96 21.4301 18.316 21.5069 17.374C21.5836 16.4325 21.584 15.2581 21.584 13.737C21.584 11.8779 21.5828 10.5426 21.4462 9.52644C21.3119 8.52711 21.0563 7.92464 20.611 7.47935C20.1657 7.03404 19.5632 6.77851 18.5639 6.64416C17.5477 6.50753 16.2124 6.50629 14.3533 6.50629C12.4943 6.50629 11.159 6.50753 10.1428 6.64416Z" fill="#1C274C"/>
<path opacity="0.4" d="M18.0325 18.2611L18.0325 18.2611C17.6531 17.9196 17.088 17.8855 16.6703 18.1791L16.6701 18.1792L16.4373 18.3428C15.3187 19.1291 13.7968 18.9972 12.8301 18.0304L13.714 17.1466L12.8301 18.0304L9.47687 14.6772C9.47686 14.6772 9.47686 14.6772 9.47686 14.6772C9.27292 14.4733 8.94576 14.4623 8.72864 14.6523C8.72863 14.6523 8.72862 14.6523 8.7286 14.6523L8.37454 14.9621C8.38172 16.4052 8.41752 17.3555 8.54108 18.0502L18.0325 18.2611ZM18.0325 18.2611L19.2838 19.3872M18.0325 18.2611L19.2838 19.3872M19.2838 19.3872C19.0829 19.4654 18.803 19.5364 18.3975 19.5909L18.3974 19.5909C17.4839 19.7137 16.2482 19.7177 14.3533 19.7177C12.4586 19.7177 11.2228 19.7137 10.3094 19.5909L10.3093 19.5909C9.44908 19.4753 9.15416 19.2853 8.97963 19.1108M19.2838 19.3872L8.54109 18.0502C8.65694 18.7015 8.82151 18.9526 8.97963 19.1108M8.97963 19.1108L8.09571 19.9946L8.97963 19.1108Z" fill="#1C274C" stroke="#376AED" stroke-width="2.5"/>
</svg>
