<svg width="49" height="48" viewBox="0 0 49 48" fill="none" xmlns="http://www.w3.org/2000/svg">
<g clip-path="url(#clip0_8_1738)">
<path d="M14.6503 40.4324C11.0839 40.1232 8.2854 37.1308 8.2854 33.4842V21.7469C8.2854 19.5713 9.30057 17.5203 11.0305 16.2008L20.5167 8.96556C23.0149 7.06015 26.4787 7.06015 28.9769 8.96556L29.6186 9.455C27.9055 9.28592 26.143 9.74963 24.7019 10.8489L13.42 19.4537C12.8216 19.91 12.4705 20.6195 12.4705 21.3719V35.3674C12.4705 37.3622 13.308 39.1612 14.6503 40.4324Z" fill="#D7DDEC"/>
<path d="M34.2331 41.8548H15.2606C10.6453 41.8548 6.89038 38.0999 6.89038 33.4846V21.7474C6.89038 19.1533 8.12185 16.6653 10.1845 15.092L19.6707 7.85676C22.6595 5.57721 26.8341 5.57721 29.8229 7.85676L39.3092 15.092C41.3718 16.6652 42.6033 19.1532 42.6033 21.7474V33.4846C42.6033 38.0999 38.8484 41.8548 34.2331 41.8548ZM24.7468 8.9354C23.5527 8.9354 22.3592 9.31527 21.3628 10.0751L11.8765 17.3104C10.5014 18.3593 9.68045 20.0179 9.68045 21.7474V33.4846C9.68045 36.5615 12.1837 39.0647 15.2606 39.0647H34.2331C37.31 39.0647 39.8132 36.5615 39.8132 33.4846V21.7474C39.8132 20.018 38.9922 18.3593 37.6171 17.3105L28.1309 10.0752C27.1348 9.31548 25.9406 8.9354 24.7468 8.9354Z" fill="#7B8BB2"/>
<path d="M29.769 33.9721H19.7945C17.4868 33.9721 15.6094 32.0947 15.6094 29.787V24.5556C15.6094 22.2479 17.4868 20.3705 19.7945 20.3705H21.737C22.9253 20.3705 24.0085 20.8387 24.8114 21.6005C25.6117 20.8385 26.6932 20.3705 27.8819 20.3705H29.769C32.0766 20.3705 33.9541 22.2479 33.9541 24.5556V29.787C33.9541 32.0947 32.0766 33.9721 29.769 33.9721ZM19.7945 23.1606C19.0253 23.1606 18.3994 23.7864 18.3994 24.5556V29.787C18.3994 30.5562 19.0253 31.182 19.7945 31.182H29.769C30.5382 31.182 31.164 30.5562 31.164 29.787V24.5556C31.164 23.7864 30.5382 23.1606 29.769 23.1606H27.8819C26.9614 23.1606 26.2124 23.9123 26.2116 24.8366V24.8401V27.4154C26.2116 28.1859 25.5871 28.8105 24.8166 28.8105C24.0461 28.8105 23.4216 28.1859 23.4216 27.4154V24.8417C23.4165 23.9146 22.6612 23.1606 21.737 23.1606H19.7945Z" fill="#D7DDEC"/>
</g>
<defs>
<clipPath id="clip0_8_1738">
<rect width="35.7129" height="35.7129" fill="white" transform="translate(6.89038 6.14355)"/>
</clipPath>
</defs>
</svg>
