<svg width="49" height="48" viewBox="0 0 49 48" fill="none" xmlns="http://www.w3.org/2000/svg">
<g clip-path="url(#clip0_8_1756)">
<path d="M14.5439 40.4324C10.9775 40.1232 8.17896 37.1308 8.17896 33.4842V21.7469C8.17896 19.5713 9.19412 17.5203 10.924 16.2008L20.4103 8.96556C22.9085 7.06015 26.3722 7.06015 28.8705 8.96556L29.5122 9.455C27.7991 9.28592 26.0366 9.74963 24.5954 10.8489L13.3135 19.4537C12.7152 19.91 12.3641 20.6195 12.3641 21.3719V35.3674C12.3641 37.3622 13.2016 39.1612 14.5439 40.4324Z" fill="#D7DDEC"/>
<path d="M34.1266 41.8548H15.1541C10.5388 41.8548 6.78394 38.0999 6.78394 33.4846V21.7474C6.78394 19.1533 8.0154 16.6653 10.078 15.092L19.5643 7.85676C22.5531 5.57721 26.7277 5.57721 29.7165 7.85676L39.2027 15.092C41.2654 16.6652 42.4968 19.1532 42.4968 21.7474V33.4846C42.4968 38.0999 38.742 41.8548 34.1266 41.8548ZM24.6404 8.9354C23.4463 8.9354 22.2527 9.31527 21.2563 10.0751L11.7701 17.3104C10.395 18.3593 9.57401 20.0179 9.57401 21.7474V33.4846C9.57401 36.5615 12.0773 39.0647 15.1541 39.0647H34.1266C37.2035 39.0647 39.7068 36.5615 39.7068 33.4846V21.7474C39.7068 20.018 38.8858 18.3593 37.5107 17.3105L28.0245 10.0752C27.0283 9.31548 25.8342 8.9354 24.6404 8.9354Z" fill="#0047CC"/>
<path d="M29.6625 33.9721H19.688C17.3804 33.9721 15.5029 32.0947 15.5029 29.787V24.5556C15.5029 22.2479 17.3804 20.3705 19.688 20.3705H21.6306C22.8188 20.3705 23.902 20.8387 24.7049 21.6005C25.5053 20.8385 26.5868 20.3705 27.7755 20.3705H29.6625C31.9702 20.3705 33.8476 22.2479 33.8476 24.5556V29.787C33.8476 32.0947 31.9702 33.9721 29.6625 33.9721ZM19.688 23.1606C18.9188 23.1606 18.293 23.7864 18.293 24.5556V29.787C18.293 30.5562 18.9188 31.182 19.688 31.182H29.6625C30.4318 31.182 31.0576 30.5562 31.0576 29.787V24.5556C31.0576 23.7864 30.4318 23.1606 29.6625 23.1606H27.7755C26.855 23.1606 26.106 23.9123 26.1052 24.8366V24.8401V27.4154C26.1052 28.1859 25.4806 28.8105 24.7102 28.8105C23.9397 28.8105 23.3151 28.1859 23.3151 27.4154V24.8417C23.31 23.9146 22.5548 23.1606 21.6306 23.1606H19.688Z" fill="#D7DDEC"/>
</g>
<defs>
<clipPath id="clip0_8_1756">
<rect width="35.7129" height="35.7129" fill="white" transform="translate(6.78394 6.14355)"/>
</clipPath>
</defs>
</svg>
