<svg width="28" height="28" viewBox="0 0 28 28" fill="none" xmlns="http://www.w3.org/2000/svg">
<path d="M13.8834 7.97698L13.8835 7.97696L13.9709 7.96423C13.9709 7.96423 13.9709 7.96423 13.9709 7.96422C13.971 7.96422 13.9711 7.96421 13.9711 7.9642C14.0862 7.94747 14.2027 7.94749 14.3177 7.96422L14.3178 7.96423L14.3933 7.97522C14.3934 7.97523 14.3934 7.97523 14.3934 7.97524C15.2385 8.0983 15.9813 8.81593 16.1295 9.8322L16.1295 9.83224C16.3056 11.039 16.3057 12.2683 16.1297 13.4749L17.3666 13.6553L16.1297 13.4749C15.9815 14.4906 15.2385 15.2065 14.393 15.3278L14.393 15.3278L14.315 15.339C14.2017 15.3552 14.087 15.3552 13.9737 15.339L13.9734 15.3389L13.8836 15.3261C13.8835 15.3261 13.8834 15.326 13.8834 15.326C13.044 15.2056 12.3055 14.4954 12.1568 13.4865C11.9779 12.2724 11.978 11.0349 12.157 9.8207C12.3058 8.81111 13.0441 8.09912 13.8834 7.97698Z" stroke="#9BB4F6" stroke-width="2.5"/>
<path d="M20.1991 13.3094C20.1991 12.9856 19.9366 12.7231 19.6128 12.7231C19.289 12.7231 19.0265 12.9856 19.0265 13.3094H20.1991ZM9.25531 13.3094C9.25531 12.9856 8.99283 12.7231 8.66904 12.7231C8.34525 12.7231 8.08276 12.9856 8.08276 13.3094H9.25531ZM13.5547 20.7722C13.5547 21.096 13.8171 21.3585 14.1409 21.3585C14.4647 21.3585 14.7272 21.096 14.7272 20.7722H13.5547ZM13.7878 7.32015L13.8755 7.30738L13.7065 6.14706L13.6189 6.15983L13.7878 7.32015ZM14.4133 7.30738L14.4889 7.31839L14.6578 6.15807L14.5821 6.14706L14.4133 7.30738ZM14.4873 15.9848L14.4093 15.9959L14.5757 17.1566L14.6537 17.1454L14.4873 15.9848ZM13.8795 15.9959L13.7894 15.9831L13.623 17.1437L13.713 17.1566L13.8795 15.9959ZM14.4093 15.9959C14.2334 16.0211 14.0553 16.0211 13.8795 15.9959L13.713 17.1566C13.9992 17.1977 14.2895 17.1977 14.5757 17.1566L14.4093 15.9959ZM13.8755 7.30738C14.0539 7.28141 14.2348 7.28141 14.4133 7.30738L14.5821 6.14706C14.2917 6.10479 13.997 6.10479 13.7065 6.14706L13.8755 7.30738ZM11.5002 13.5832C11.3118 12.3049 11.312 11.0022 11.5004 9.7239L10.3403 9.55294C10.1352 10.9445 10.1351 12.3625 10.3402 13.7541L11.5002 13.5832ZM16.7864 9.7364C16.9716 11.0066 16.9718 12.3005 16.7865 13.5707L17.9468 13.74C18.1485 12.3575 18.1483 10.9495 17.9466 9.56715L16.7864 9.7364ZM16.7865 13.5707C16.5993 14.854 15.6466 15.8185 14.4873 15.9848L14.6537 17.1454C16.3677 16.8997 17.6906 15.4961 17.9468 13.74L16.7865 13.5707ZM17.9466 9.56715C17.6906 7.81239 16.3703 6.40732 14.6578 6.15807L14.4889 7.31839C15.6476 7.48703 16.5991 8.45315 16.7864 9.7364L17.9466 9.56715ZM11.5004 9.7239C11.6884 8.44777 12.6355 7.48786 13.7878 7.32015L13.6189 6.15983C11.9134 6.40805 10.5978 7.80593 10.3403 9.55294L11.5004 9.7239ZM10.3402 13.7541C10.5979 15.5025 11.916 16.899 13.623 17.1437L13.7894 15.9831C12.6363 15.8176 11.6883 14.8594 11.5002 13.5832L10.3402 13.7541ZM19.0265 13.3094C19.0265 16.2244 16.8071 18.5276 14.1409 18.5276V19.7001C17.5189 19.7001 20.1991 16.8058 20.1991 13.3094H19.0265ZM14.1409 18.5276C11.4748 18.5276 9.25531 16.2244 9.25531 13.3094H8.08276C8.08276 16.8058 10.763 19.7001 14.1409 19.7001V18.5276ZM13.5547 19.1138V20.7722H14.7272V19.1138H13.5547Z" fill="#363853"/>
</svg>
