<svg width="49" height="49" viewBox="0 0 49 49" fill="none" xmlns="http://www.w3.org/2000/svg">
<path d="M12.6881 22.7676C12.6881 13.8978 19.2115 6.55045 27.7259 5.25458C26.8481 5.12092 25.9491 5.05164 25.0339 5.05164C15.2421 5.05164 7.3042 12.9834 7.3042 22.7677C7.3042 32.552 15.2421 40.4838 25.0339 40.4838C25.9491 40.4838 26.8481 40.4144 27.7259 40.2808C19.2116 38.9848 12.6881 31.6375 12.6881 22.7676Z" fill="#D7DDEC"/>
<path d="M24.7453 42.339C13.9454 42.339 5.15906 33.5594 5.15906 22.7678C5.15906 11.9762 13.9454 3.19666 24.7453 3.19666C35.5452 3.19666 44.3316 11.9762 44.3316 22.7678C44.3316 33.5594 35.5452 42.339 24.7453 42.339V42.339ZM24.7453 6.90683C15.9928 6.90683 8.87209 14.022 8.87209 22.7678C8.87209 31.5136 15.9928 38.6288 24.7453 38.6288C33.4979 38.6288 40.6185 31.5136 40.6185 22.7678C40.6185 14.022 33.4979 6.90683 24.7453 6.90683V6.90683Z" fill="#FF0000"/>
<path d="M24.324 27.1675H19.4216V26.6401H20.7693L19.3044 22.8901H15.3591L13.9333 26.6401H14.9685C15.0466 26.6401 15.1182 26.6466 15.1833 26.6597C15.3656 26.6987 15.4568 26.868 15.4568 27.1675H11.9021V26.6401H13.1521L17.449 15.4487H18.6599L23.2302 26.6401H23.8357C23.9268 26.6401 23.9985 26.6466 24.0505 26.6597C24.2328 26.6987 24.324 26.868 24.324 27.1675ZM19.0701 22.3042L17.3123 17.7339L15.574 22.3042H19.0701ZM24.9518 15.4487H30.6158C32.0351 15.4487 33.2721 15.7873 34.3268 16.4644C35.9544 17.519 36.7682 19.1401 36.7682 21.3276C36.7682 23.0464 36.1953 24.4461 35.0494 25.5269C33.8906 26.6206 32.4192 27.1675 30.6354 27.1675H24.9518V26.6401H26.5143V15.9761H24.9518V15.4487ZM30.6354 15.9761H28.9166V26.6401H30.6354C31.0651 26.6401 31.4557 26.5815 31.8073 26.4644C33.3307 25.9696 34.0924 24.2313 34.0924 21.2495C34.0924 20.0516 33.9752 19.062 33.7408 18.2808C33.2591 16.7443 32.2239 15.9761 30.6354 15.9761Z" fill="#FF0000"/>
<line x1="36.9711" y1="10.8854" x2="12.5725" y2="34.892" stroke="#FF0000" stroke-width="3"/>
</svg>
