<?xml version="1.0" encoding="iso-8859-1"?>
<!-- Uploaded to: SVG Repo, www.svgrepo.com, Generator: SVG Repo Mixer Tools -->
<svg height="800px" width="800px" version="1.1" id="Layer_1" xmlns="http://www.w3.org/2000/svg" xmlns:xlink="http://www.w3.org/1999/xlink" 
	 viewBox="0 0 503.7 503.7" xml:space="preserve">
<g transform="translate(19 1)">
	<path style="fill:#AAB1BA;" d="M280.65,430.2h-76.8c11.1-15.4,12.8-34.1,12.8-34.1s8.5-76.8,8.5-136.5v-84.5l17.1-9.4l17.1,9.4
		v84.5c0,59.7,8.5,136.5,8.5,136.5v0.9C266.95,396.9,269.55,418.3,280.65,430.2z M318.15,430.2l17.1,68.3h-187.7l17.1-68.3h38.4
		h76.8H318.15z"/>
	<polygon style="fill:#FFE079;" points="224.35,175.1 164.55,208.3 194.45,128.1 138.95,71.8 204.65,71.8 241.35,3.5 278.05,71.8 
		343.75,71.8 289.15,127.3 318.15,208.3 258.45,175.1 241.35,165.7 	"/>
</g>
<g>
	<path style="fill:#51565F;" d="M277.45,205.1c-2.6,0-4.3,1.7-4.3,4.3v51.2c0,59.7,8.5,136.5,8.5,137.4c0,1.7,1.7,3.4,4.3,3.4
		s4.3-2.6,4.3-5.1c0,0-8.5-76.8-8.5-135.7v-51.2C281.75,206.8,280.05,205.1,277.45,205.1z"/>
	<path style="fill:#51565F;" d="M239.05,397.9c0-0.9,8.5-78.5,8.5-137.4v-51.2c0-2.6-1.7-4.3-4.3-4.3s-4.3,1.7-4.3,4.3v51.2
		c0,58-8.5,134.8-8.5,135.7c0,2.6,1.7,5.1,4.3,5.1C237.35,401.3,239.05,399.6,239.05,397.9z"/>
	<path style="fill:#51565F;" d="M465.15,34.4h-29.9V4.5c0-2.6-1.7-4.3-4.3-4.3c-2.6,0-4.3,1.7-4.3,4.3v29.9h-29.9
		c-2.6,0-4.3,1.7-4.3,4.3s1.7,4.3,4.3,4.3h29.9v29.9c0,2.6,1.7,4.3,4.3,4.3s4.3-1.7,4.3-4.3v-30h29.9c2.6,0,4.3-1.7,4.3-4.3
		C469.45,36.1,467.75,34.4,465.15,34.4z"/>
	<path style="fill:#51565F;" d="M285.15,461.1h-49.5c-2.6,0-4.3,1.7-4.3,4.3c0,2.6,1.7,4.3,4.3,4.3h49.5c2.6,0,4.3-1.7,4.3-4.3
		C289.35,462.8,287.65,461.1,285.15,461.1z"/>
	<path style="fill:#51565F;" d="M115.35,290.4h-4.3v-4.3c0-2.6-1.7-4.3-4.3-4.3s-4.3,1.7-4.3,4.3v4.3h-4.3c-2.6,0-4.3,1.7-4.3,4.3
		c0,2.6,1.7,4.3,4.3,4.3h4.3v4.3c0,2.6,1.7,4.3,4.3,4.3c2.6,0,4.3-1.7,4.3-4.3V299h4.3c2.6,0,4.3-1.7,4.3-4.3
		C119.55,292.1,117.85,290.4,115.35,290.4z"/>
	<path style="fill:#51565F;" d="M337.15,426.9h-153.6c-1.7,0-3.4,1.7-4.3,3.4l-17.1,68.3c0,0.9,0,2.6,0.9,3.4
		c0.9,0.9,1.7,1.7,3.4,1.7h187.7c1.7,0,2.6-0.9,3.4-1.7c0.9-0.9,0.9-2.6,0.9-3.4l-17.1-68.3C340.55,428.6,338.85,426.9,337.15,426.9
		z M171.65,495.2l14.5-59.7h146.8l15.4,59.7H171.65z"/>
	<path style="fill:#51565F;" d="M72.65,119.7h-12.8v-12.8c0-2.6-1.7-4.3-4.3-4.3s-4.3,1.7-4.3,4.3v12.8h-12.7
		c-2.6,0-4.3,1.7-4.3,4.3s1.7,4.3,4.3,4.3h12.8v12.8c0,2.6,1.7,4.3,4.3,4.3s4.3-1.7,4.3-4.3v-12.8h12.8c2.6,0,4.3-1.7,4.3-4.3
		C77.05,121.4,75.25,119.7,72.65,119.7z"/>
	<path style="fill:#51565F;" d="M362.75,68.3h-63l-35.4-65.9c-0.8-1.5-2.3-2.4-4-2.4s-3.2,0.9-4,2.4l-35.4,65.9h-63
		c-1.8,0-3.5,1.1-4.2,2.8c-0.7,1.7-0.3,3.6,0.9,4.9l53.5,54.3l-28.9,77.5c-0.7,1.8-0.1,3.8,1.3,5c0.8,0.7,1.9,1.1,2.9,1.1
		c0.7,0,1.5-0.2,2.2-0.6l59.8-33.2l14.8-8.2l14.9,8.2l59.7,33.2c1.6,0.9,3.7,0.7,5.1-0.5s2-3.2,1.3-4.9l-28-78.3l52.7-53.6
		c1.3-1.3,1.6-3.2,0.9-4.9C366.15,69.4,364.55,68.3,362.75,68.3z M304.95,125.1c-1.2,1.2-1.6,3-1,4.7l25,69.7l-49.3-27.4l-17.1-9.4
		c-0.7-0.4-1.4-0.6-2.2-0.6c-0.8,0-1.5,0.2-2.2,0.6l-17,9.4l-49.1,27.3l25.6-68.8c0.6-1.6,0.2-3.5-1-4.7l-47.9-48.6h54.9
		c1.7,0,3.2-0.9,4-2.4l32.7-60.9l32.7,60.9c0.8,1.5,2.3,2.4,4,2.4h55L304.95,125.1z"/>
</g>
</svg>