<svg width="28" height="28" viewBox="0 0 28 28" fill="none" xmlns="http://www.w3.org/2000/svg">
<path fill-rule="evenodd" clip-rule="evenodd" d="M17.7576 7.32756C17.0995 7.32756 16.566 7.8611 16.566 8.51923C16.566 8.69719 16.605 8.86605 16.6749 9.0177C16.7089 9.05614 16.7406 9.09741 16.7697 9.14147C16.8032 9.19221 16.8319 9.2447 16.856 9.29843C17.0745 9.55106 17.3974 9.7109 17.7576 9.7109C18.4158 9.7109 18.9493 9.17736 18.9493 8.51923C18.9493 7.8611 18.4158 7.32756 17.7576 7.32756ZM14.366 8.51923C14.366 8.80348 14.4009 9.07955 14.4668 9.3434L10.9998 11.6317C10.3852 11.0116 9.5329 10.6276 8.59089 10.6276C6.71772 10.6276 5.19922 12.1461 5.19922 14.0192C5.19922 15.8924 6.71772 17.4109 8.59089 17.4109C9.33022 17.4109 10.0143 17.1743 10.5716 16.7728L14.5315 19.3864C14.424 19.7169 14.366 20.0696 14.366 20.4359C14.366 22.3091 15.8845 23.8276 17.7576 23.8276C19.6308 23.8276 21.1493 22.3091 21.1493 20.4359C21.1493 18.5628 19.6308 17.0443 17.7576 17.0443C17.0537 17.0443 16.3999 17.2587 15.8579 17.6258L11.8453 14.9775C11.9346 14.6736 11.9826 14.352 11.9826 14.0192C11.9826 13.8887 11.9752 13.76 11.9608 13.6333L15.665 11.1885C16.2414 11.6411 16.968 11.9109 17.7576 11.9109C19.6308 11.9109 21.1493 10.3924 21.1493 8.51923C21.1493 6.64606 19.6308 5.12756 17.7576 5.12756C15.8845 5.12756 14.366 6.64606 14.366 8.51923ZM16.566 20.4359C16.566 19.7778 17.0995 19.2443 17.7576 19.2443C18.4158 19.2443 18.9493 19.7778 18.9493 20.4359C18.9493 21.094 18.4158 21.6276 17.7576 21.6276C17.0995 21.6276 16.566 21.094 16.566 20.4359ZM7.39922 14.0192C7.39922 13.3611 7.93275 12.8276 8.59089 12.8276C9.24902 12.8276 9.78255 13.3611 9.78255 14.0192C9.78255 14.6774 9.24902 15.2109 8.59089 15.2109C7.93275 15.2109 7.39922 14.6774 7.39922 14.0192Z" fill="#537EEC" fill-opacity="0.6"/>
</svg>
