<svg width="28" height="28" viewBox="0 0 28 28" fill="none" xmlns="http://www.w3.org/2000/svg">
<g clip-path="url(#clip0_8_1827)">
<path d="M22.9229 4.95451C22.8217 4.85376 22.6938 4.78401 22.5543 4.75345C22.4148 4.7229 22.2694 4.7328 22.1354 4.78201L5.63538 10.782C5.49308 10.836 5.37057 10.932 5.28412 11.0572C5.19767 11.1825 5.15137 11.3311 5.15137 11.4833C5.15137 11.6355 5.19767 11.784 5.28412 11.9093C5.37057 12.0345 5.49308 12.1305 5.63538 12.1845L12.8354 15.0645L15.7154 22.2645C15.7695 22.4006 15.8622 22.5178 15.9822 22.6018C16.1021 22.6857 16.244 22.7327 16.3904 22.737C16.5419 22.7339 16.689 22.6849 16.8122 22.5966C16.9354 22.5082 17.0289 22.3846 17.0804 22.242L23.0804 5.74201C23.1315 5.60932 23.1438 5.46483 23.1159 5.3254C23.088 5.18597 23.0211 5.05734 22.9229 4.95451ZM16.3904 19.887L14.2979 14.637L17.8904 11.0445L16.8329 9.98701L13.2104 13.6095L7.99038 11.487L21.1379 6.73951L16.3904 19.887Z" fill="#376AED"/>
</g>
<defs>
<clipPath id="clip0_8_1827">
<rect width="24" height="24" fill="white" transform="translate(2.14038 1.73694)"/>
</clipPath>
</defs>
</svg>
