<svg width="61" height="60" viewBox="0 0 61 60" fill="none" xmlns="http://www.w3.org/2000/svg">
<path d="M22.7181 21.1603C23.6946 20.1839 25.2979 20.1743 26.0996 21.2984C27.8499 23.7521 28.8794 26.7554 28.8794 29.9992C28.8794 33.2427 27.8499 36.2459 26.0996 38.6999C25.2979 39.8239 23.6946 39.8142 22.7181 38.8379C21.7419 37.8617 21.7759 36.2887 22.4814 35.1019C23.3694 33.6079 23.8794 31.8632 23.8794 29.9992C23.8794 28.1352 23.3694 26.3902 22.4814 24.8964C21.7759 23.7095 21.7419 22.1366 22.7181 21.1603Z" fill="#5FA3FA"/>
<path d="M29.7893 14.0903C30.7656 13.114 32.3596 13.1068 33.2341 14.1752C36.7623 18.4854 38.8793 23.9956 38.8793 30.0002C38.8793 36.0049 36.7623 41.5152 33.2341 45.8252C32.3596 46.8937 30.7656 46.8864 29.7893 45.9102C28.8128 44.9339 28.8273 43.3592 29.6751 42.2694C32.3101 38.8819 33.8793 34.6244 33.8793 30.0002C33.8793 25.3762 32.3101 21.1185 29.6751 17.731C28.8273 16.6412 28.8128 15.0666 29.7893 14.0903Z" fill="#5FA3FA"/>
</svg>
