<svg width="28" height="28" viewBox="0 0 28 28" fill="none" xmlns="http://www.w3.org/2000/svg">
<path d="M10.3934 2.48315H6.0032C3.73512 2.48315 2.6123 3.60597 2.6123 5.87405V10.2755C2.6123 12.5885 3.73512 13.7113 6.0032 13.6551H10.4046C12.7176 13.7113 13.8404 12.5885 13.7843 10.2642V5.87405C13.8404 3.60597 12.7176 2.48315 10.3934 2.48315ZM10.4832 11.1962C9.71971 11.1962 8.97865 10.9043 8.36111 10.3878C7.66496 10.893 6.82285 11.1962 5.91337 11.1962C5.45302 11.1962 5.07127 10.8144 5.07127 10.3541C5.07127 9.89372 5.45302 9.51196 5.91337 9.51196C7.05864 9.51196 8.01303 8.72599 8.36111 7.64809H5.91337C5.45302 7.64809 5.07127 7.26634 5.07127 6.80598C5.07127 6.34563 5.45302 5.96387 5.91337 5.96387H7.3618C7.40672 5.53721 7.75479 5.20036 8.19269 5.20036C8.63058 5.20036 8.97865 5.53721 9.02357 5.96387H9.3155C9.32673 5.96387 9.33795 5.96387 9.33795 5.96387H9.36041H10.472C10.9323 5.96387 11.3141 6.34563 11.3141 6.80598C11.3141 7.26634 10.9436 7.64809 10.472 7.64809H10.1015C10.0004 8.18704 9.78708 8.69231 9.50638 9.15266C9.80954 9.37723 10.1352 9.51196 10.4832 9.51196C10.9436 9.51196 11.3253 9.89372 11.3253 10.3541C11.3253 10.8144 10.9436 11.1962 10.4832 11.1962Z" fill="#292D32"/>
<path d="M10.4718 25.7815C5.67741 25.7815 1.77002 21.8741 1.77002 17.0797C1.77002 16.6193 2.15178 16.2375 2.61213 16.2375C3.07248 16.2375 3.45424 16.6193 3.45424 17.0797C3.45424 20.4032 5.76723 23.1878 8.87742 23.9176L8.57427 23.4123C8.33847 23.0081 8.46198 22.4916 8.8662 22.2558C9.25918 22.02 9.7869 22.1435 10.0227 22.5478L11.2016 24.5127C11.3588 24.7709 11.3588 25.0965 11.2129 25.3548C11.0557 25.613 10.775 25.7815 10.4718 25.7815Z" fill="#292D32"/>
<path d="M25.0668 11.185C24.6064 11.185 24.2247 10.8033 24.2247 10.3429C24.2247 7.01939 21.9117 4.23481 18.8015 3.50498L19.1046 4.01025C19.3404 4.41446 19.2169 4.93096 18.8127 5.16675C18.4197 5.40254 17.892 5.27903 17.6562 4.87481L16.4772 2.90989C16.3201 2.65165 16.3201 2.32603 16.466 2.06778C16.6232 1.80954 16.9039 1.64111 17.2071 1.64111C22.0015 1.64111 25.9089 5.5485 25.9089 10.3429C25.9089 10.8033 25.5271 11.185 25.0668 11.185Z" fill="#292D32"/>
<path d="M19.3645 13.5447C16.2207 13.5447 13.6606 16.0935 13.6606 19.2486C13.6606 22.3924 16.2094 24.9525 19.3645 24.9525C22.5084 24.9525 25.0684 22.4037 25.0684 19.2486C25.0684 16.0935 22.5196 13.5447 19.3645 13.5447ZM22.1491 21.9545C21.7337 22.1567 21.2284 21.9995 21.0151 21.5728L20.8242 21.191H17.9161L17.7252 21.5728C17.5793 21.8647 17.2761 22.0331 16.9729 22.0331C16.8494 22.0331 16.7147 21.9995 16.6024 21.9433C16.187 21.73 16.0186 21.2247 16.2207 20.8093L18.6235 16.0149C18.7694 15.7342 19.0614 15.5545 19.3758 15.5545C19.6901 15.5545 19.9821 15.7342 20.128 16.0261L22.5309 20.8205C22.733 21.2359 22.5646 21.7412 22.1491 21.9545Z" fill="#292D32"/>
<path d="M18.7573 19.5054H19.9812L19.3636 18.2815L18.7573 19.5054Z" fill="#292D32"/>
</svg>
