<svg width="49" height="48" viewBox="0 0 49 48" fill="none" xmlns="http://www.w3.org/2000/svg">
<g clip-path="url(#clip0_8_1740)">
<path d="M6.22876 7.23758L12.9989 6.4248C12.9989 6.4248 11.0646 11.3014 11.0646 17.8036C11.0646 24.3058 12.9989 28.3696 12.9989 28.3696H6.22876V7.23758Z" fill="#D7DDEC"/>
<path d="M10.8718 4.09863C15.8186 4.06516 20.6711 5.43434 24.8533 8.04358C29.0247 5.39962 33.878 3.996 38.8347 4.00001L10.8718 4.09863ZM10.8718 4.09863C9.41904 4.10451 7.96928 4.22987 6.53757 4.4734M10.8718 4.09863L6.53757 4.4734M6.53757 4.4734C6.06861 4.55324 5.64392 4.79582 5.33999 5.15744M6.53757 4.4734L5.33999 5.15744M5.33999 5.15744C5.03606 5.51906 4.87285 5.97597 4.87977 6.44588L5.33999 5.15744ZM43.1438 4.52265L43.1439 4.52267C43.5597 4.59305 43.9382 4.80161 44.2169 5.11332C44.4948 5.42415 44.6569 5.81892 44.6768 6.23244L44.6768 29.8986L44.6768 29.9008C44.6807 30.1683 44.6249 30.4334 44.5133 30.6773C44.4017 30.9212 44.2369 31.138 44.0306 31.3121C43.8243 31.4863 43.5815 31.6135 43.3195 31.6845C43.0575 31.7556 42.7829 31.7688 42.5151 31.7232L42.5135 31.7229C39.6171 31.261 36.6562 31.3781 33.8064 32.0672C30.9593 32.7556 28.2809 34.001 25.9296 35.7297L25.7319 35.8435H25.5523H25.5227L25.4953 35.8548C25.2919 35.9385 25.0737 35.9816 24.8533 35.9816C24.6328 35.9816 24.4146 35.9385 24.2113 35.8548L24.1839 35.8435H24.1542H23.9746L23.776 35.7291C21.408 34.038 18.7216 32.8315 15.8748 32.1806C13.0256 31.5292 10.0732 31.4474 7.19146 31.9402C6.92369 31.9858 6.64901 31.9726 6.38702 31.9015C6.12503 31.8304 5.88226 31.7032 5.67594 31.5291C5.46963 31.355 5.30487 31.1382 5.19323 30.8943C5.0816 30.6504 5.02581 30.3853 5.02976 30.1178H5.02977V30.1156V6.44588H5.02979L5.02976 6.44367C5.02337 6.01003 5.17396 5.58812 5.45482 5.25395C5.73571 4.91974 6.12854 4.6952 6.56275 4.62127C7.98634 4.37912 9.42788 4.25448 10.8724 4.24863L10.8728 4.24863C15.7913 4.21535 20.6159 5.5767 24.7739 8.17084L24.8539 8.22077L24.9336 8.17027C29.0808 5.54166 33.9061 4.14606 38.8344 4.15001C40.2788 4.15587 41.7203 4.28051 43.1438 4.52265ZM22.7868 30.7221L23.0059 30.8359V30.5889V11.4954V11.4142L22.9379 11.3698C19.3597 9.03434 15.1647 7.79111 10.876 7.79495C10.2065 7.75701 9.53541 7.75709 8.86595 7.7952L8.72447 7.80325V7.94495V27.6697V27.8197H8.87447H8.87845H8.88243H8.88641H8.89039H8.89436H8.89834H8.90232H8.90629H8.91027H8.91424H8.91822H8.92219H8.92616H8.93014H8.93411H8.93808H8.94205H8.94602H8.94999H8.95396H8.95793H8.9619H8.96587H8.96984H8.97381H8.97778H8.98174H8.98571H8.98968H8.99364H8.99761H9.00157H9.00554H9.0095H9.01347H9.01743H9.02139H9.02536H9.02932H9.03328H9.03724H9.0412H9.04516H9.04912H9.05308H9.05704H9.061H9.06496H9.06892H9.07287H9.07683H9.08079H9.08474H9.0887H9.09266H9.09661H9.10057H9.10452H9.10847H9.11243H9.11638H9.12033H9.12429H9.12824H9.13219H9.13614H9.14009H9.14404H9.14799H9.15194H9.15589H9.15984H9.16379H9.16773H9.17168H9.17563H9.17958H9.18352H9.18747H9.19141H9.19536H9.1993H9.20325H9.20719H9.21114H9.21508H9.21902H9.22296H9.22691H9.23085H9.23479H9.23873H9.24267H9.24661H9.25055H9.25449H9.25843H9.26237H9.26631H9.27025H9.27418H9.27812H9.28206H9.28599H9.28993H9.29387H9.2978H9.30174H9.30567H9.30961H9.31354H9.31747H9.32141H9.32534H9.32927H9.3332H9.33714H9.34107H9.345H9.34893H9.35286H9.35679H9.36072H9.36465H9.36858H9.37251H9.37644H9.38036H9.38429H9.38822H9.39215H9.39607H9.4H9.40392H9.40785H9.41178H9.4157H9.41963H9.42355H9.42747H9.4314H9.43532H9.43924H9.44317H9.44709H9.45101H9.45493H9.45885H9.46278H9.4667H9.47062H9.47454H9.47846H9.48238H9.48629H9.49021H9.49413H9.49805H9.50197H9.50589H9.5098H9.51372H9.51764H9.52155H9.52547H9.52938H9.5333H9.53721H9.54113H9.54504H9.54896H9.55287H9.55679H9.5607H9.56461H9.56852H9.57244H9.57635H9.58026H9.58417H9.58808H9.59199H9.5959H9.59981H9.60372H9.60763H9.61154H9.61545H9.61936H9.62327H9.62718H9.63109H9.63499H9.6389H9.64281H9.64671H9.65062H9.65453H9.65843H9.66234H9.66624H9.67015H9.67405H9.67796H9.68186H9.68577H9.68967H9.69357H9.69748H9.70138H9.70528H9.70919H9.71309H9.71699H9.72089H9.72479H9.72869H9.73259H9.73649H9.7404H9.74429H9.74819H9.75209H9.75599H9.75989H9.76379H9.76769H9.77159H9.77549H9.77938H9.78328H9.78718H9.79107H9.79497H9.79887H9.80276H9.80666H9.81056H9.81445H9.81835H9.82224H9.82614H9.83003H9.83392H9.83782H9.84171H9.84561H9.8495H9.85339H9.85729H9.86118H9.86507H9.86896H9.87285H9.87675H9.88064H9.88453H9.88842H9.89231H9.8962H9.90009H9.90398H9.90787H9.91176H9.91565H9.91954H9.92343H9.92732H9.93121H9.93509H9.93898H9.94287H9.94676H9.95064H9.95453H9.95842H9.96231H9.96619H9.97008H9.97397H9.97785H9.98174H9.98562H9.98951H9.99339H9.99728H10.0012H10.005H10.0089H10.0128H10.0167H10.0206H10.0245H10.0284H10.0322H10.0361H10.04H10.0439H10.0478H10.0516H10.0555H10.0594H10.0633H10.0672H10.0711H10.0749H10.0788H10.0827H10.0866H10.0905H10.0943H10.0982H10.1021H10.106H10.1099H10.1137H10.1176H10.1215H10.1254H10.1293H10.1331H10.137H10.1409H10.1448H10.1486H10.1525H10.1564H10.1603H10.1642H10.168H10.1719H10.1758H10.1797H10.1835H10.1874H10.1913H10.1952H10.199H10.2029H10.2068H10.2107H10.2145H10.2184H10.2223H10.2262H10.23H10.2339H10.2378H10.2417H10.2455H10.2494H10.2533H10.2572H10.261H10.2649H10.2688H10.2726H10.2765H10.2804H10.2843H10.2881H10.292H10.2959H10.2998H10.3036H10.3075H10.3114H10.3152H10.3191H10.323H10.3269H10.3307H10.3346H10.3385H10.3423H10.3462H10.3501H10.3539H10.3578H10.3617H10.3656H10.3694H10.3733H10.3772H10.381H10.3849H10.3888H10.3926H10.3965H10.4004H10.4042H10.4081H10.412H10.4159H10.4197H10.4236H10.4275H10.4313H10.4352H10.4391H10.4429H10.4468H10.4507H10.4545H10.4584H10.4623H10.4661H10.47H10.4739H10.4777H10.4816H10.4855H10.4893H10.4932H10.4971H10.5009H10.5048H10.5087H10.5125H10.5164H10.5203H10.5241H10.528H10.5319H10.5357H10.5396H10.5435H10.5473H10.5512H10.5551H10.5589H10.5628H10.5666H10.5705H10.5744H10.5782H10.5821H10.586H10.5898H10.5937H10.5976H10.6014H10.6053H10.6092H10.613H10.6169H10.6207H10.6246H10.6285H10.6323H10.6362H10.6401H10.6439H10.6478H10.6517H10.6555H10.6594H10.6632H10.6671H10.671H10.6748H10.6787H10.6826H10.6864H10.6903H10.6942H10.698H10.7019H10.7057H10.7096H10.7135H10.7173H10.7212H10.7251H10.7289H10.7328H10.7366H10.7405H10.7444H10.7482H10.7521H10.756H10.7598H10.7637H10.7675H10.7714H10.7753H10.7791H10.783H10.7869H10.7907H10.7946H10.7984H10.8023H10.8062H10.81H10.8139H10.8178H10.8216H10.8255H10.8293H10.8332H10.8371H10.8409H10.8448H10.8486H10.8525H10.8564H10.8602H10.8641H10.868H10.8718H10.8719C15.0234 27.8172 19.1129 28.8134 22.7868 30.7221ZM40.8321 27.8986H40.9821V27.7486V7.94495V7.80325L40.8406 7.7952C40.1711 7.75709 39.5 7.75701 38.8305 7.79495C34.5419 7.79111 30.3468 9.03434 26.7686 11.3698L26.7006 11.4142V11.4954V30.6678V30.9148L26.9198 30.801C30.5937 28.8923 34.6832 27.8961 38.8346 27.8986H38.8347H38.8386H38.8424H38.8463H38.8502H38.854H38.8579H38.8618H38.8656H38.8695H38.8733H38.8772H38.8811H38.8849H38.8888H38.8926H38.8965H38.9004H38.9042H38.9081H38.912H38.9158H38.9197H38.9235H38.9274H38.9313H38.9351H38.939H38.9429H38.9467H38.9506H38.9544H38.9583H38.9622H38.966H38.9699H38.9738H38.9776H38.9815H38.9853H38.9892H38.9931H38.9969H39.0008H39.0047H39.0085H39.0124H39.0163H39.0201H39.024H39.0278H39.0317H39.0356H39.0394H39.0433H39.0472H39.051H39.0549H39.0587H39.0626H39.0665H39.0703H39.0742H39.0781H39.0819H39.0858H39.0897H39.0935H39.0974H39.1012H39.1051H39.109H39.1128H39.1167H39.1206H39.1244H39.1283H39.1322H39.136H39.1399H39.1438H39.1476H39.1515H39.1554H39.1592H39.1631H39.167H39.1708H39.1747H39.1785H39.1824H39.1863H39.1901H39.194H39.1979H39.2017H39.2056H39.2095H39.2133H39.2172H39.2211H39.2249H39.2288H39.2327H39.2365H39.2404H39.2443H39.2481H39.252H39.2559H39.2597H39.2636H39.2675H39.2713H39.2752H39.2791H39.2829H39.2868H39.2907H39.2946H39.2984H39.3023H39.3062H39.31H39.3139H39.3178H39.3216H39.3255H39.3294H39.3332H39.3371H39.341H39.3449H39.3487H39.3526H39.3565H39.3603H39.3642H39.3681H39.3719H39.3758H39.3797H39.3836H39.3874H39.3913H39.3952H39.399H39.4029H39.4068H39.4107H39.4145H39.4184H39.4223H39.4261H39.43H39.4339H39.4378H39.4416H39.4455H39.4494H39.4533H39.4571H39.461H39.4649H39.4688H39.4726H39.4765H39.4804H39.4842H39.4881H39.492H39.4959H39.4997H39.5036H39.5075H39.5114H39.5153H39.5191H39.523H39.5269H39.5308H39.5346H39.5385H39.5424H39.5463H39.5501H39.554H39.5579H39.5618H39.5657H39.5695H39.5734H39.5773H39.5812H39.585H39.5889H39.5928H39.5967H39.6006H39.6044H39.6083H39.6122H39.6161H39.62H39.6238H39.6277H39.6316H39.6355H39.6394H39.6432H39.6471H39.651H39.6549H39.6588H39.6627H39.6665H39.6704H39.6743H39.6782H39.6821H39.686H39.6898H39.6937H39.6976H39.7015H39.7054H39.7093H39.7131H39.717H39.7209H39.7248H39.7287H39.7326H39.7365H39.7403H39.7442H39.7481H39.752H39.7559H39.7598H39.7637H39.7676H39.7714H39.7753H39.7792H39.7831H39.787H39.7909H39.7948H39.7987H39.8026H39.8064H39.8103H39.8142H39.8181H39.822H39.8259H39.8298H39.8337H39.8376H39.8415H39.8454H39.8493H39.8531H39.857H39.8609H39.8648H39.8687H39.8726H39.8765H39.8804H39.8843H39.8882H39.8921H39.896H39.8999H39.9038H39.9077H39.9116H39.9155H39.9194H39.9233H39.9272H39.9311H39.935H39.9389H39.9427H39.9466H39.9505H39.9544H39.9583H39.9622H39.9661H39.97H39.9739H39.9778H39.9817H39.9856H39.9896H39.9935H39.9974H40.0013H40.0052H40.0091H40.013H40.0169H40.0208H40.0247H40.0286H40.0325H40.0364H40.0403H40.0442H40.0481H40.052H40.0559H40.0598H40.0637H40.0676H40.0715H40.0755H40.0794H40.0833H40.0872H40.0911H40.095H40.0989H40.1028H40.1067H40.1106H40.1145H40.1185H40.1224H40.1263H40.1302H40.1341H40.138H40.1419H40.1458H40.1498H40.1537H40.1576H40.1615H40.1654H40.1693H40.1732H40.1772H40.1811H40.185H40.1889H40.1928H40.1967H40.2007H40.2046H40.2085H40.2124H40.2163H40.2202H40.2242H40.2281H40.232H40.2359H40.2398H40.2438H40.2477H40.2516H40.2555H40.2595H40.2634H40.2673H40.2712H40.2751H40.2791H40.283H40.2869H40.2908H40.2948H40.2987H40.3026H40.3065H40.3105H40.3144H40.3183H40.3223H40.3262H40.3301H40.334H40.338H40.3419H40.3458H40.3498H40.3537H40.3576H40.3615H40.3655H40.3694H40.3733H40.3773H40.3812H40.3851H40.3891H40.393H40.3969H40.4009H40.4048H40.4087H40.4127H40.4166H40.4205H40.4245H40.4284H40.4324H40.4363H40.4402H40.4442H40.4481H40.452H40.456H40.4599H40.4639H40.4678H40.4718H40.4757H40.4796H40.4836H40.4875H40.4915H40.4954H40.4993H40.5033H40.5072H40.5112H40.5151H40.5191H40.523H40.527H40.5309H40.5349H40.5388H40.5428H40.5467H40.5507H40.5546H40.5586H40.5625H40.5665H40.5704H40.5744H40.5783H40.5823H40.5862H40.5902H40.5941H40.5981H40.602H40.606H40.6099H40.6139H40.6178H40.6218H40.6258H40.6297H40.6337H40.6376H40.6416H40.6455H40.6495H40.6535H40.6574H40.6614H40.6653H40.6693H40.6733H40.6772H40.6812H40.6851H40.6891H40.6931H40.697H40.701H40.705H40.7089H40.7129H40.7169H40.7208H40.7248H40.7288H40.7327H40.7367H40.7407H40.7446H40.7486H40.7526H40.7565H40.7605H40.7645H40.7685H40.7724H40.7764H40.7804H40.7844H40.7883H40.7923H40.7963H40.8003H40.8042H40.8082H40.8122H40.8162H40.8201H40.8241H40.8281H40.8321ZM40.6821 27.7486H38.8347V7.94495C39.5 7.90709 40.1668 7.90709 40.8321 7.94495V27.5986V27.7486H40.6821ZM43.1438 36.0822L43.1457 36.0825C43.3865 36.1203 43.6172 36.2046 43.8246 36.3306C44.032 36.4566 44.212 36.6218 44.3544 36.8166C44.4967 37.0114 44.5986 37.2319 44.6543 37.4655C44.7097 37.6984 44.7182 37.9397 44.6792 38.1758C44.5851 38.6476 44.3056 39.0641 43.9011 39.3338C43.4959 39.604 42.9984 39.7047 42.5178 39.6136L42.5151 39.6131C39.6334 39.1204 36.681 39.2021 33.8317 39.8535C30.9827 40.5049 28.2943 41.7128 25.925 43.406C25.6122 43.6258 25.2376 43.744 24.8533 43.744C24.469 43.744 24.0944 43.6258 23.7816 43.406C21.4123 41.7128 18.7239 40.5049 15.8748 39.8535C13.0255 39.2021 10.0731 39.1204 7.19139 39.6131L7.18872 39.6136C6.70812 39.7047 6.21067 39.604 5.80545 39.3338C5.40094 39.0641 5.12149 38.6476 5.02736 38.1758C4.98834 37.9397 4.99679 37.6984 5.05226 37.4655C5.10791 37.2319 5.20979 37.0114 5.35214 36.8166C5.4945 36.6218 5.67453 36.4566 5.88195 36.3306C6.08938 36.2046 6.32009 36.1203 6.5608 36.0826L6.56273 36.0822C7.98632 35.8401 9.42787 35.7154 10.8724 35.7096C15.8006 35.7057 20.6258 37.1013 24.773 39.7298L24.8533 39.7807L24.9336 39.7298C29.0807 37.1013 33.906 35.7057 38.8341 35.7096C40.2787 35.7154 41.7202 35.8401 43.1438 36.0822Z" fill="#7B8BB2" stroke="white" stroke-width="0.3"/>
<path d="M43.1436 36.1092L43.1455 36.1095C43.386 36.1476 43.6166 36.2327 43.824 36.36C44.0314 36.4872 44.2115 36.6541 44.354 36.8509C44.4964 37.0478 44.5985 37.2708 44.6542 37.5071C44.7098 37.7426 44.7182 37.9868 44.6791 38.2256C44.5849 38.7029 44.305 39.1238 43.9005 39.3962C43.4954 39.669 42.9983 39.7706 42.5181 39.6786L42.5154 39.6782C39.6335 39.1805 36.6809 39.2631 33.8314 39.921C30.9822 40.5789 28.2937 41.7988 25.9244 43.5088C25.6116 43.7308 25.2372 43.8501 24.8533 43.8501C24.4693 43.8501 24.0949 43.7308 23.7821 43.5088C21.4128 41.7988 18.7243 40.5789 15.8751 39.921C13.0257 39.2631 10.0731 39.1805 7.19115 39.6782L7.19114 39.6781L7.18845 39.6787C6.70828 39.7706 6.21117 39.669 5.80602 39.3962C5.40152 39.1238 5.12167 38.7029 5.0274 38.2256C4.98831 37.9868 4.99678 37.7426 5.05234 37.5071C5.10807 37.2708 5.2101 37.0478 5.35256 36.8509C5.49502 36.6541 5.67512 36.4872 5.88252 36.36C6.08991 36.2327 6.3205 36.1476 6.56102 36.1095L6.56102 36.1096L6.56297 36.1092C7.98641 35.8647 9.4278 35.7388 10.8722 35.7329C15.8001 35.7289 20.6252 37.1383 24.7724 39.7929L24.8533 39.8447L24.9341 39.7929C29.0813 37.1383 33.9064 35.7289 38.8343 35.7329C40.2787 35.7388 41.7201 35.8647 43.1436 36.1092Z" fill="#D7DDEC" stroke="#D7DDEC" stroke-width="0.3"/>
</g>
<defs>
<clipPath id="clip0_8_1740">
<rect width="48" height="48" fill="white" transform="translate(0.853271)"/>
</clipPath>
</defs>
</svg>
