<svg width="49" height="48" viewBox="0 0 49 48" fill="none" xmlns="http://www.w3.org/2000/svg">
<g clip-path="url(#clip0_8_1770)">
<path d="M6.12231 7.23758L12.8925 6.4248C12.8925 6.4248 10.9582 11.3014 10.9582 17.8036C10.9582 24.3058 12.8925 28.3696 12.8925 28.3696H6.12231V7.23758Z" fill="#D7DDEC"/>
<path d="M10.7654 4.09863C15.7121 4.06516 20.5647 5.43434 24.7468 8.04358C28.9183 5.39962 33.7716 3.996 38.7283 4.00001L10.7654 4.09863ZM10.7654 4.09863C9.3126 4.10451 7.86284 4.22987 6.43113 4.4734M10.7654 4.09863L6.43113 4.4734M6.43113 4.4734C5.96216 4.55324 5.53748 4.79582 5.23354 5.15744M6.43113 4.4734L5.23354 5.15744M5.23354 5.15744C4.92961 5.51906 4.76641 5.97597 4.77333 6.44588L5.23354 5.15744ZM43.0374 4.52265L43.0375 4.52267C43.4532 4.59305 43.8317 4.80161 44.1105 5.11332C44.3884 5.42415 44.5504 5.81892 44.5703 6.23244L44.5703 29.8986L44.5703 29.9008C44.5743 30.1683 44.5185 30.4334 44.4069 30.6773C44.2952 30.9212 44.1305 31.138 43.9241 31.3121C43.7178 31.4863 43.4751 31.6135 43.2131 31.6845C42.9511 31.7556 42.6764 31.7688 42.4086 31.7232L42.407 31.7229C39.5106 31.261 36.5497 31.3781 33.6999 32.0672C30.8529 32.7556 28.1745 34.001 25.8232 35.7297L25.6255 35.8435H25.4459H25.4162L25.3888 35.8548C25.1855 35.9385 24.9673 35.9816 24.7468 35.9816C24.5264 35.9816 24.3082 35.9385 24.1048 35.8548L24.0774 35.8435H24.0478H23.8682L23.6696 35.7291C21.3016 34.038 18.6152 32.8315 15.7683 32.1806C12.9191 31.5292 9.96672 31.4474 7.08502 31.9402C6.81724 31.9858 6.54257 31.9726 6.28057 31.9015C6.01858 31.8304 5.77581 31.7032 5.5695 31.5291C5.36319 31.355 5.19842 31.1382 5.08679 30.8943C4.97515 30.6504 4.91936 30.3853 4.92331 30.1178H4.92333V30.1156V6.44588H4.92334L4.92331 6.44367C4.91693 6.01003 5.06751 5.58812 5.34837 5.25395C5.62927 4.91974 6.02209 4.6952 6.4563 4.62127C7.87989 4.37912 9.32143 4.25448 10.766 4.24863L10.7664 4.24863C15.6848 4.21535 20.5095 5.5767 24.6674 8.17084L24.7475 8.22077L24.8271 8.17027C28.9744 5.54166 33.7997 4.14606 38.7279 4.15001C40.1724 4.15587 41.6139 4.28051 43.0374 4.52265ZM22.6803 30.7221L22.8995 30.8359V30.5889V11.4954V11.4142L22.8315 11.3698C19.2533 9.03434 15.0582 7.79111 10.7696 7.79495C10.1001 7.75701 9.42897 7.75709 8.7595 7.7952L8.61803 7.80325V7.94495V27.6697V27.8197H8.76803H8.77201H8.77598H8.77996H8.78394H8.78792H8.79189H8.79587H8.79985H8.80382H8.8078H8.81177H8.81574H8.81972H8.82369H8.82766H8.83163H8.83561H8.83958H8.84355H8.84752H8.85149H8.85546H8.85943H8.8634H8.86736H8.87133H8.8753H8.87927H8.88323H8.8872H8.89116H8.89513H8.89909H8.90306H8.90702H8.91099H8.91495H8.91891H8.92287H8.92684H8.9308H8.93476H8.93872H8.94268H8.94664H8.9506H8.95456H8.95851H8.96247H8.96643H8.97039H8.97434H8.9783H8.98226H8.98621H8.99017H8.99412H8.99808H9.00203H9.00598H9.00994H9.01389H9.01784H9.02179H9.02574H9.02969H9.03365H9.0376H9.04155H9.0455H9.04944H9.05339H9.05734H9.06129H9.06524H9.06918H9.07313H9.07708H9.08102H9.08497H9.08891H9.09286H9.0968H9.10075H9.10469H9.10863H9.11258H9.11652H9.12046H9.1244H9.12834H9.13229H9.13623H9.14017H9.14411H9.14805H9.15198H9.15592H9.15986H9.1638H9.16774H9.17167H9.17561H9.17955H9.18348H9.18742H9.19136H9.19529H9.19923H9.20316H9.20709H9.21103H9.21496H9.21889H9.22283H9.22676H9.23069H9.23462H9.23855H9.24248H9.24641H9.25035H9.25427H9.2582H9.26213H9.26606H9.26999H9.27392H9.27785H9.28177H9.2857H9.28963H9.29355H9.29748H9.30141H9.30533H9.30926H9.31318H9.3171H9.32103H9.32495H9.32888H9.3328H9.33672H9.34064H9.34457H9.34849H9.35241H9.35633H9.36025H9.36417H9.36809H9.37201H9.37593H9.37985H9.38377H9.38769H9.3916H9.39552H9.39944H9.40336H9.40727H9.41119H9.41511H9.41902H9.42294H9.42685H9.43077H9.43468H9.4386H9.44251H9.44643H9.45034H9.45425H9.45817H9.46208H9.46599H9.4699H9.47381H9.47773H9.48164H9.48555H9.48946H9.49337H9.49728H9.50119H9.5051H9.50901H9.51292H9.51682H9.52073H9.52464H9.52855H9.53246H9.53636H9.54027H9.54418H9.54808H9.55199H9.55589H9.5598H9.5637H9.56761H9.57151H9.57542H9.57932H9.58323H9.58713H9.59103H9.59493H9.59884H9.60274H9.60664H9.61054H9.61445H9.61835H9.62225H9.62615H9.63005H9.63395H9.63785H9.64175H9.64565H9.64955H9.65345H9.65735H9.66124H9.66514H9.66904H9.67294H9.67684H9.68073H9.68463H9.68853H9.69242H9.69632H9.70021H9.70411H9.70801H9.7119H9.7158H9.71969H9.72359H9.72748H9.73137H9.73527H9.73916H9.74305H9.74695H9.75084H9.75473H9.75863H9.76252H9.76641H9.7703H9.77419H9.77808H9.78197H9.78587H9.78976H9.79365H9.79754H9.80143H9.80532H9.80921H9.81309H9.81698H9.82087H9.82476H9.82865H9.83254H9.83642H9.84031H9.8442H9.84809H9.85197H9.85586H9.85975H9.86363H9.86752H9.87141H9.87529H9.87918H9.88306H9.88695H9.89083H9.89472H9.8986H9.90249H9.90637H9.91025H9.91414H9.91802H9.92191H9.92579H9.92967H9.93355H9.93744H9.94132H9.9452H9.94908H9.95297H9.95685H9.96073H9.96461H9.96849H9.97237H9.97625H9.98013H9.98401H9.98789H9.99177H9.99565H9.99953H10.0034H10.0073H10.0112H10.015H10.0189H10.0228H10.0267H10.0306H10.0344H10.0383H10.0422H10.0461H10.05H10.0538H10.0577H10.0616H10.0655H10.0693H10.0732H10.0771H10.081H10.0848H10.0887H10.0926H10.0965H10.1003H10.1042H10.1081H10.112H10.1158H10.1197H10.1236H10.1275H10.1313H10.1352H10.1391H10.143H10.1468H10.1507H10.1546H10.1585H10.1623H10.1662H10.1701H10.1739H10.1778H10.1817H10.1856H10.1894H10.1933H10.1972H10.2011H10.2049H10.2088H10.2127H10.2165H10.2204H10.2243H10.2282H10.232H10.2359H10.2398H10.2436H10.2475H10.2514H10.2552H10.2591H10.263H10.2669H10.2707H10.2746H10.2785H10.2823H10.2862H10.2901H10.2939H10.2978H10.3017H10.3055H10.3094H10.3133H10.3171H10.321H10.3249H10.3287H10.3326H10.3365H10.3404H10.3442H10.3481H10.352H10.3558H10.3597H10.3636H10.3674H10.3713H10.3752H10.379H10.3829H10.3868H10.3906H10.3945H10.3984H10.4022H10.4061H10.41H10.4138H10.4177H10.4215H10.4254H10.4293H10.4331H10.437H10.4409H10.4447H10.4486H10.4525H10.4563H10.4602H10.4641H10.4679H10.4718H10.4757H10.4795H10.4834H10.4873H10.4911H10.495H10.4988H10.5027H10.5066H10.5104H10.5143H10.5182H10.522H10.5259H10.5298H10.5336H10.5375H10.5413H10.5452H10.5491H10.5529H10.5568H10.5607H10.5645H10.5684H10.5723H10.5761H10.58H10.5838H10.5877H10.5916H10.5954H10.5993H10.6032H10.607H10.6109H10.6147H10.6186H10.6225H10.6263H10.6302H10.6341H10.6379H10.6418H10.6456H10.6495H10.6534H10.6572H10.6611H10.665H10.6688H10.6727H10.6765H10.6804H10.6843H10.6881H10.692H10.6959H10.6997H10.7036H10.7074H10.7113H10.7152H10.719H10.7229H10.7268H10.7306H10.7345H10.7383H10.7422H10.7461H10.7499H10.7538H10.7577H10.7615H10.7654H10.7655C14.9169 27.8172 19.0064 28.8134 22.6803 30.7221ZM40.7256 27.8986H40.8756V27.7486V7.94495V7.80325L40.7341 7.7952C40.0647 7.75709 39.3936 7.75701 38.7241 7.79495C34.4354 7.79111 30.2404 9.03434 26.6622 11.3698L26.5942 11.4142V11.4954V30.6678V30.9148L26.8133 30.801C30.4872 28.8923 34.5767 27.8961 38.7282 27.8986H38.7283H38.7321H38.736H38.7399H38.7437H38.7476H38.7514H38.7553H38.7592H38.763H38.7669H38.7708H38.7746H38.7785H38.7823H38.7862H38.7901H38.7939H38.7978H38.8017H38.8055H38.8094H38.8132H38.8171H38.821H38.8248H38.8287H38.8326H38.8364H38.8403H38.8441H38.848H38.8519H38.8557H38.8596H38.8634H38.8673H38.8712H38.875H38.8789H38.8828H38.8866H38.8905H38.8944H38.8982H38.9021H38.9059H38.9098H38.9137H38.9175H38.9214H38.9253H38.9291H38.933H38.9368H38.9407H38.9446H38.9484H38.9523H38.9562H38.96H38.9639H38.9678H38.9716H38.9755H38.9793H38.9832H38.9871H38.9909H38.9948H38.9987H39.0025H39.0064H39.0103H39.0141H39.018H39.0219H39.0257H39.0296H39.0334H39.0373H39.0412H39.045H39.0489H39.0528H39.0566H39.0605H39.0644H39.0682H39.0721H39.076H39.0798H39.0837H39.0876H39.0914H39.0953H39.0992H39.103H39.1069H39.1108H39.1146H39.1185H39.1224H39.1262H39.1301H39.134H39.1378H39.1417H39.1456H39.1494H39.1533H39.1572H39.161H39.1649H39.1688H39.1726H39.1765H39.1804H39.1842H39.1881H39.192H39.1958H39.1997H39.2036H39.2075H39.2113H39.2152H39.2191H39.2229H39.2268H39.2307H39.2345H39.2384H39.2423H39.2461H39.25H39.2539H39.2578H39.2616H39.2655H39.2694H39.2732H39.2771H39.281H39.2849H39.2887H39.2926H39.2965H39.3003H39.3042H39.3081H39.312H39.3158H39.3197H39.3236H39.3274H39.3313H39.3352H39.3391H39.3429H39.3468H39.3507H39.3546H39.3584H39.3623H39.3662H39.3701H39.3739H39.3778H39.3817H39.3856H39.3894H39.3933H39.3972H39.4011H39.4049H39.4088H39.4127H39.4166H39.4204H39.4243H39.4282H39.4321H39.4359H39.4398H39.4437H39.4476H39.4515H39.4553H39.4592H39.4631H39.467H39.4708H39.4747H39.4786H39.4825H39.4864H39.4902H39.4941H39.498H39.5019H39.5058H39.5096H39.5135H39.5174H39.5213H39.5252H39.529H39.5329H39.5368H39.5407H39.5446H39.5484H39.5523H39.5562H39.5601H39.564H39.5679H39.5717H39.5756H39.5795H39.5834H39.5873H39.5912H39.595H39.5989H39.6028H39.6067H39.6106H39.6145H39.6184H39.6222H39.6261H39.63H39.6339H39.6378H39.6417H39.6456H39.6494H39.6533H39.6572H39.6611H39.665H39.6689H39.6728H39.6767H39.6806H39.6844H39.6883H39.6922H39.6961H39.7H39.7039H39.7078H39.7117H39.7156H39.7195H39.7234H39.7272H39.7311H39.735H39.7389H39.7428H39.7467H39.7506H39.7545H39.7584H39.7623H39.7662H39.7701H39.774H39.7779H39.7817H39.7856H39.7895H39.7934H39.7973H39.8012H39.8051H39.809H39.8129H39.8168H39.8207H39.8246H39.8285H39.8324H39.8363H39.8402H39.8441H39.848H39.8519H39.8558H39.8597H39.8636H39.8675H39.8714H39.8753H39.8792H39.8831H39.887H39.8909H39.8948H39.8987H39.9026H39.9065H39.9104H39.9143H39.9182H39.9221H39.926H39.9299H39.9338H39.9378H39.9417H39.9456H39.9495H39.9534H39.9573H39.9612H39.9651H39.969H39.9729H39.9768H39.9807H39.9846H39.9886H39.9925H39.9964H40.0003H40.0042H40.0081H40.012H40.0159H40.0198H40.0237H40.0277H40.0316H40.0355H40.0394H40.0433H40.0472H40.0511H40.055H40.059H40.0629H40.0668H40.0707H40.0746H40.0785H40.0825H40.0864H40.0903H40.0942H40.0981H40.102H40.106H40.1099H40.1138H40.1177H40.1216H40.1256H40.1295H40.1334H40.1373H40.1412H40.1452H40.1491H40.153H40.1569H40.1609H40.1648H40.1687H40.1726H40.1765H40.1805H40.1844H40.1883H40.1922H40.1962H40.2001H40.204H40.208H40.2119H40.2158H40.2197H40.2237H40.2276H40.2315H40.2354H40.2394H40.2433H40.2472H40.2512H40.2551H40.259H40.263H40.2669H40.2708H40.2748H40.2787H40.2826H40.2866H40.2905H40.2944H40.2984H40.3023H40.3062H40.3102H40.3141H40.318H40.322H40.3259H40.3298H40.3338H40.3377H40.3417H40.3456H40.3495H40.3535H40.3574H40.3614H40.3653H40.3692H40.3732H40.3771H40.3811H40.385H40.389H40.3929H40.3968H40.4008H40.4047H40.4087H40.4126H40.4166H40.4205H40.4245H40.4284H40.4324H40.4363H40.4403H40.4442H40.4482H40.4521H40.4561H40.46H40.464H40.4679H40.4719H40.4758H40.4798H40.4837H40.4877H40.4916H40.4956H40.4995H40.5035H40.5074H40.5114H40.5154H40.5193H40.5233H40.5272H40.5312H40.5351H40.5391H40.5431H40.547H40.551H40.5549H40.5589H40.5629H40.5668H40.5708H40.5747H40.5787H40.5827H40.5866H40.5906H40.5946H40.5985H40.6025H40.6065H40.6104H40.6144H40.6184H40.6223H40.6263H40.6303H40.6342H40.6382H40.6422H40.6461H40.6501H40.6541H40.658H40.662H40.666H40.67H40.6739H40.6779H40.6819H40.6859H40.6898H40.6938H40.6978H40.7018H40.7057H40.7097H40.7137H40.7177H40.7216H40.7256ZM40.5756 27.7486H38.7283V7.94495C39.3935 7.90709 40.0604 7.90709 40.7256 7.94495V27.5986V27.7486H40.5756ZM43.0374 36.0822L43.0393 36.0825C43.28 36.1203 43.5107 36.2046 43.7181 36.3306C43.9256 36.4566 44.1056 36.6218 44.248 36.8166C44.3903 37.0114 44.4922 37.2319 44.5478 37.4655C44.6033 37.6984 44.6118 37.9397 44.5727 38.1758C44.4786 38.6476 44.1992 39.0641 43.7946 39.3338C43.3894 39.604 42.892 39.7047 42.4114 39.6136L42.4087 39.6131C39.527 39.1204 36.5746 39.2021 33.7253 39.8535C30.8762 40.5049 28.1879 41.7128 25.8185 43.406C25.5057 43.6258 25.1311 43.744 24.7468 43.744C24.3625 43.744 23.9879 43.6258 23.6751 43.406C21.3058 41.7128 18.6174 40.5049 15.7683 39.8535C12.9191 39.2021 9.96667 39.1204 7.08494 39.6131L7.08227 39.6136C6.60168 39.7047 6.10423 39.604 5.69901 39.3338C5.2945 39.0641 5.01504 38.6476 4.92092 38.1758C4.88189 37.9397 4.89035 37.6984 4.94582 37.4655C5.00146 37.2319 5.10335 37.0114 5.2457 36.8166C5.38805 36.6218 5.56808 36.4566 5.77551 36.3306C5.98294 36.2046 6.21364 36.1203 6.45435 36.0826L6.45628 36.0822C7.87988 35.8401 9.32143 35.7154 10.766 35.7096C15.6941 35.7057 20.5194 37.1013 24.6665 39.7298L24.7468 39.7807L24.8271 39.7298C28.9743 37.1013 33.7995 35.7057 38.7277 35.7096C40.1722 35.7154 41.6138 35.8401 43.0374 36.0822Z" fill="#0047CC" stroke="white" stroke-width="0.3"/>
<path d="M43.0371 36.1092L43.0391 36.1095C43.2796 36.1476 43.5102 36.2327 43.7176 36.36C43.925 36.4872 44.1051 36.6541 44.2475 36.8509C44.39 37.0478 44.492 37.2708 44.5478 37.5071C44.6033 37.7426 44.6118 37.9868 44.5727 38.2256C44.4784 38.7029 44.1986 39.1238 43.7941 39.3962C43.3889 39.669 42.8918 39.7706 42.4117 39.6786L42.409 39.6782C39.527 39.1805 36.5744 39.2631 33.725 39.921C30.8758 40.5789 28.1873 41.7988 25.818 43.5088C25.5052 43.7308 25.1308 43.8501 24.7468 43.8501C24.3628 43.8501 23.9884 43.7308 23.6756 43.5088C21.3063 41.7988 18.6179 40.5789 15.7687 39.921C12.9192 39.2631 9.96661 39.1805 7.0847 39.6782L7.0847 39.6781L7.08201 39.6787C6.60184 39.7706 6.10472 39.669 5.69958 39.3962C5.29508 39.1238 5.01523 38.7029 4.92096 38.2256C4.88186 37.9868 4.89033 37.7426 4.94589 37.5071C5.00163 37.2708 5.10365 37.0478 5.24611 36.8509C5.38858 36.6541 5.56868 36.4872 5.77607 36.36C5.98346 36.2327 6.21405 36.1476 6.45458 36.1095L6.45458 36.1096L6.45652 36.1092C7.87997 35.8647 9.32136 35.7388 10.7657 35.7329C15.6937 35.7289 20.5188 37.1383 24.666 39.7929L24.7468 39.8447L24.8277 39.7929C28.9749 37.1383 33.8 35.7289 38.7279 35.7329C40.1723 35.7388 41.6137 35.8647 43.0371 36.1092Z" fill="#D7DDEC" stroke="#D7DDEC" stroke-width="0.3"/>
</g>
<defs>
<clipPath id="clip0_8_1770">
<rect width="48" height="48" fill="white" transform="translate(0.746826)"/>
</clipPath>
</defs>
</svg>
