<svg width="49" height="48" viewBox="0 0 49 48" fill="none" xmlns="http://www.w3.org/2000/svg">
<g clip-path="url(#clip0_8_1748)">
<path d="M19.0336 6.74988C18.9436 9 17.4723 8.81971 16.6936 8.81971C15.9149 8.81971 15.1936 8.18843 15.1936 7.40971C15.1936 6.63099 15.9149 5.24988 16.6936 5.24988C17.4723 5.24988 19.1236 4.49977 19.0336 6.74988Z" fill="#0047CC"/>
<path d="M19.6895 14.8158C19.6103 16.1895 18.9436 16.4705 16.9498 16.3767C16.0381 16.3767 15.1936 15.9843 15.1936 15.3517C15.1936 14.7192 16.0381 13.5973 16.9498 13.5973C17.8615 13.5973 19.7687 13.442 19.6895 14.8158Z" fill="#0047CC"/>
<path d="M15.6155 15H11.3967C9.2998 15 7.59985 13.3001 7.59985 11.2031C7.59985 9.10612 9.2998 7.40625 11.3967 7.40625H15.6155C13.5185 7.40625 11.8186 9.10612 11.8186 11.2031C11.8186 13.3001 13.5185 15 15.6155 15ZM11.8186 24C11.8186 21.903 13.5185 20.2031 15.6155 20.2031H11.3967C9.2998 20.2031 7.59985 21.903 7.59985 24C7.59985 26.0969 9.2998 27.7969 11.3967 27.7969H15.6155C13.5185 27.7969 11.8186 26.0969 11.8186 24ZM11.8186 36.7969C11.8186 34.6999 13.5185 33 15.6155 33H11.3967C9.2998 33 7.59985 34.6999 7.59985 36.7969C7.59985 38.8938 9.2998 40.5938 11.3967 40.5938H15.6155C13.5185 40.5938 11.8186 38.8938 11.8186 36.7969Z" fill="#D7DDEC"/>
<path d="M17.2597 16.4063H11.3967C8.5277 16.4063 6.1936 14.0722 6.1936 11.2032C6.1936 8.33412 8.5277 6.00003 11.3967 6.00003H17.303C18.0797 6.00003 18.7092 6.62961 18.7092 7.40628C18.7092 8.18295 18.0797 8.81253 17.303 8.81253H11.3967C10.0785 8.81253 9.0061 9.88494 9.0061 11.2032C9.0061 12.5214 10.0785 13.5938 11.3967 13.5938H17.2597C18.0364 13.5938 18.666 14.2234 18.666 15C18.666 15.7767 18.0364 16.4063 17.2597 16.4063ZM42.1936 11.2032C42.1936 8.33412 39.8595 6.00003 36.9905 6.00003L16.6936 6C15.9169 6 18.7092 6.62961 18.7092 7.40628C18.7092 8.18295 16.374 8.81253 17.1506 8.81253H36.9905C38.3087 8.81253 39.3811 9.88494 39.3811 11.2032C39.3811 12.5214 38.3087 13.5938 36.9905 13.5938H17.4436C16.6669 13.5938 18.666 14.2234 18.666 15C18.666 15.7767 16.6669 16.4063 17.4436 16.4063H36.9905C39.8595 16.4063 42.1936 14.0722 42.1936 11.2032ZM30.7327 27.7969C30.7327 27.0202 30.1031 26.3907 29.3264 26.3907H11.3967C10.0785 26.3907 9.0061 25.3183 9.0061 24C9.0061 22.6818 10.0785 21.6094 11.3967 21.6094H29.3264C30.1031 21.6094 30.7327 20.9798 30.7327 20.2032C30.7327 19.4265 30.1031 18.7969 29.3264 18.7969H11.3967C8.5277 18.7969 6.1936 21.131 6.1936 24C6.1936 26.8691 8.5277 29.2032 11.3967 29.2032H29.3264C30.1031 29.2032 30.7327 28.5736 30.7327 27.7969ZM42.1233 36.7969C42.1233 33.9279 39.7892 31.5938 36.9202 31.5938H18.9436C18.1669 31.5938 16.6936 32.2234 16.6936 33C16.6936 33.7767 19.6669 34.4063 20.4436 34.4063H36.9202C38.2384 34.4063 39.3108 35.4787 39.3108 36.7969C39.3108 38.1151 38.2384 39.1875 36.9202 39.1875H18.9436C18.1669 39.1875 19.6936 39.8171 19.6936 40.5938C19.6936 41.3705 18.9169 42 19.6936 42H36.9202C39.7892 42 42.1233 39.6659 42.1233 36.7969ZM22.1545 40.5938C22.1545 39.8171 21.525 39.1875 20.7483 39.1875H11.3967C10.0785 39.1875 9.0061 38.1151 9.0061 36.7969C9.0061 35.4787 10.0785 34.4063 11.3967 34.4063H20.7483C21.525 34.4063 22.1545 33.7767 22.1545 33C22.1545 32.2234 21.525 31.5938 20.7483 31.5938H11.3967C8.5277 31.5938 6.1936 33.9279 6.1936 36.7969C6.1936 39.6659 8.5277 42 11.3967 42H20.7483C21.525 42 22.1545 41.3705 22.1545 40.5938Z" fill="#0047CC"/>
<path d="M36.9202 29.2031H34.9514C34.1747 29.2031 33.5452 28.5735 33.5452 27.7969C33.5452 27.0202 34.1747 26.3906 34.9514 26.3906H36.9202C38.2384 26.3906 39.3108 25.3182 39.3108 24C39.3108 22.6818 38.2384 21.6094 36.9202 21.6094H34.9514C34.1747 21.6094 33.5452 20.9798 33.5452 20.2031C33.5452 19.4265 34.1747 18.7969 34.9514 18.7969H36.9202C39.7892 18.7969 42.1233 21.131 42.1233 24C42.1233 26.869 39.7892 29.2031 36.9202 29.2031Z" fill="#D7DDEC"/>
</g>
<defs>
<clipPath id="clip0_8_1748">
<rect width="36" height="36" fill="white" transform="translate(6.1936 6)"/>
</clipPath>
</defs>
</svg>
