<svg width="49" height="48" viewBox="0 0 49 48" fill="none" xmlns="http://www.w3.org/2000/svg">
<g clip-path="url(#clip0_8_1737)">
<path d="M19.6933 6.74988C19.6033 9 18.132 8.81971 17.3533 8.81971C16.5746 8.81971 15.8533 8.18843 15.8533 7.40971C15.8533 6.63099 16.5746 5.24988 17.3533 5.24988C18.132 5.24988 19.7833 4.49977 19.6933 6.74988Z" fill="#7B8BB2"/>
<path d="M20.3491 14.8158C20.2699 16.1895 19.6033 16.4705 17.6095 16.3767C16.6977 16.3767 15.8533 15.9843 15.8533 15.3517C15.8533 14.7192 16.6977 13.5973 17.6095 13.5973C18.5212 13.5973 20.4283 13.442 20.3491 14.8158Z" fill="#7B8BB2"/>
<path d="M16.2751 15H12.0564C9.95947 15 8.25952 13.3001 8.25952 11.2031C8.25952 9.10612 9.95947 7.40625 12.0564 7.40625H16.2751C14.1782 7.40625 12.4783 9.10612 12.4783 11.2031C12.4783 13.3001 14.1782 15 16.2751 15ZM12.4783 24C12.4783 21.903 14.1782 20.2031 16.2751 20.2031H12.0564C9.95947 20.2031 8.25952 21.903 8.25952 24C8.25952 26.0969 9.95947 27.7969 12.0564 27.7969H16.2751C14.1782 27.7969 12.4783 26.0969 12.4783 24ZM12.4783 36.7969C12.4783 34.6999 14.1782 33 16.2751 33H12.0564C9.95947 33 8.25952 34.6999 8.25952 36.7969C8.25952 38.8938 9.95947 40.5938 12.0564 40.5938H16.2751C14.1782 40.5938 12.4783 38.8938 12.4783 36.7969Z" fill="#D7DDEC"/>
<path d="M17.9194 16.4063H12.0564C9.18737 16.4063 6.85327 14.0722 6.85327 11.2032C6.85327 8.33412 9.18737 6.00003 12.0564 6.00003H17.9626C18.7393 6.00003 19.3689 6.62961 19.3689 7.40628C19.3689 8.18295 18.7393 8.81253 17.9626 8.81253H12.0564C10.7382 8.81253 9.66577 9.88494 9.66577 11.2032C9.66577 12.5214 10.7382 13.5938 12.0564 13.5938H17.9194C18.6961 13.5938 19.3257 14.2234 19.3257 15C19.3257 15.7767 18.6961 16.4063 17.9194 16.4063ZM42.8533 11.2032C42.8533 8.33412 40.5192 6.00003 37.6501 6.00003L17.3533 6C16.5766 6 19.3689 6.62961 19.3689 7.40628C19.3689 8.18295 17.0336 8.81253 17.8103 8.81253H37.6501C38.9684 8.81253 40.0408 9.88494 40.0408 11.2032C40.0408 12.5214 38.9684 13.5938 37.6501 13.5938H18.1033C17.3266 13.5938 19.3257 14.2234 19.3257 15C19.3257 15.7767 17.3266 16.4063 18.1033 16.4063H37.6501C40.5192 16.4063 42.8533 14.0722 42.8533 11.2032ZM31.3923 27.7969C31.3923 27.0202 30.7628 26.3907 29.9861 26.3907H12.0564C10.7382 26.3907 9.66577 25.3183 9.66577 24C9.66577 22.6818 10.7382 21.6094 12.0564 21.6094H29.9861C30.7628 21.6094 31.3923 20.9798 31.3923 20.2032C31.3923 19.4265 30.7628 18.7969 29.9861 18.7969H12.0564C9.18737 18.7969 6.85327 21.131 6.85327 24C6.85327 26.8691 9.18737 29.2032 12.0564 29.2032H29.9861C30.7628 29.2032 31.3923 28.5736 31.3923 27.7969ZM42.783 36.7969C42.783 33.9279 40.4489 31.5938 37.5798 31.5938H19.6033C18.8266 31.5938 17.3533 32.2234 17.3533 33C17.3533 33.7767 20.3266 34.4063 21.1033 34.4063H37.5798C38.8981 34.4063 39.9705 35.4787 39.9705 36.7969C39.9705 38.1151 38.8981 39.1875 37.5798 39.1875H19.6033C18.8266 39.1875 20.3533 39.8171 20.3533 40.5938C20.3533 41.3705 19.5766 42 20.3533 42H37.5798C40.4489 42 42.783 39.6659 42.783 36.7969ZM22.8142 40.5938C22.8142 39.8171 22.1846 39.1875 21.408 39.1875H12.0564C10.7382 39.1875 9.66577 38.1151 9.66577 36.7969C9.66577 35.4787 10.7382 34.4063 12.0564 34.4063H21.408C22.1846 34.4063 22.8142 33.7767 22.8142 33C22.8142 32.2234 22.1846 31.5938 21.408 31.5938H12.0564C9.18737 31.5938 6.85327 33.9279 6.85327 36.7969C6.85327 39.6659 9.18737 42 12.0564 42H21.408C22.1846 42 22.8142 41.3705 22.8142 40.5938Z" fill="#7B8BB2"/>
<path d="M37.5798 29.2031H35.6111C34.8344 29.2031 34.2048 28.5735 34.2048 27.7969C34.2048 27.0202 34.8344 26.3906 35.6111 26.3906H37.5798C38.8981 26.3906 39.9705 25.3182 39.9705 24C39.9705 22.6818 38.8981 21.6094 37.5798 21.6094H35.6111C34.8344 21.6094 34.2048 20.9798 34.2048 20.2031C34.2048 19.4265 34.8344 18.7969 35.6111 18.7969H37.5798C40.4489 18.7969 42.783 21.131 42.783 24C42.783 26.869 40.4489 29.2031 37.5798 29.2031Z" fill="#D7DDEC"/>
</g>
<defs>
<clipPath id="clip0_8_1737">
<rect width="36" height="36" fill="white" transform="translate(6.85327 6)"/>
</clipPath>
</defs>
</svg>
